  0
SECTION
  2
HEADER
  9
$ACADVER
  1
AC1014
  9
$HANDSEED
  5
FFFF
  9
$MEASUREMENT
 70
     1
  0
ENDSEC
  0
SECTION
  2
TABLES
  0
TABLE
  2
VPORT
  5
8
330
0
100
AcDbSymbolTable
 70
     4
  0
VPORT
  5
2E
330
8
100
AcDbSymbolTableRecord
100
AcDbViewportTableRecord
  2
*ACTIVE
 70
     0
 10
0.0
 20
0.0
 11
1.0
 21
1.0
 12
210.0
 22
148.5
 13
0.0
 23
0.0
 14
10.0
 24
10.0
 15
10.0
 25
10.0
 16
0.0
 26
0.0
 36
1.0
 17
0.0
 27
0.0
 37
0.0
 40
341.0
 41
1.24
 42
50.0
 43
0.0
 44
0.0
 50
0.0
 51
0.0
 71
     0
 72
   100
 73
     1
 74
     3
 75
     0
 76
     0
 77
     0
 78
     0
  0
ENDTAB
  0
TABLE
  2
LTYPE
  5
5
330
0
100
AcDbSymbolTable
 70
     1
  0
LTYPE
  5
14
330
5
100
AcDbSymbolTableRecord
100
AcDbLinetypeTableRecord
  2
BYBLOCK
 70
     0
  3

 72
    65
 73
     0
 40
0.0
  0
LTYPE
  5
15
330
5
100
AcDbSymbolTableRecord
100
AcDbLinetypeTableRecord
  2
BYLAYER
 70
     0
  3

 72
    65
 73
     0
 40
0.0
  0
LTYPE
  5
16
330
5
100
AcDbSymbolTableRecord
100
AcDbLinetypeTableRecord
  2
CONTINUOUS
 70
     0
  3
Solid line
 72
    65
 73
     0
 40
0.0
  0
ENDTAB
  0
TABLE
  2
LAYER
  5
2
100
AcDbSymbolTable
 70
2
  0
LAYER
  5
50
100
AcDbSymbolTableRecord
100
AcDbLayerTableRecord
  2
0
 70
0
  6
CONTINUOUS
  0
LAYER
  5
51
100
AcDbSymbolTableRecord
100
AcDbLayerTableRecord
  2
Layer_1
 70
0
  6
CONTINUOUS
  0
ENDTAB
  0
TABLE
  2
STYLE
  5
3
330
0
100
AcDbSymbolTable
 70
     1
  0
STYLE
  5
11
330
3
100
AcDbSymbolTableRecord
100
AcDbTextStyleTableRecord
  2
STANDARD
 70
     0
 40
0.0
 41
1.0
 50
0.0
 71
     0
 42
2.5
  3
txt
  4

  0
ENDTAB
  0
TABLE
  2
VIEW
  5
6
330
0
100
AcDbSymbolTable
 70
     0
  0
ENDTAB
  0
TABLE
  2
UCS
  5
7
330
0
100
AcDbSymbolTable
 70
     0
  0
ENDTAB
  0
TABLE
  2
APPID
  5
9
330
0
100
AcDbSymbolTable
 70
     2
  0
APPID
  5
12
330
9
100
AcDbSymbolTableRecord
100
AcDbRegAppTableRecord
  2
ACAD
 70
     0
  0
ENDTAB
  0
TABLE
  2
DIMSTYLE
  5
A
330
0
100
AcDbSymbolTable
 70
     1
  0
DIMSTYLE
105
27
330
A
100
AcDbSymbolTableRecord
100
AcDbDimStyleTableRecord
  2
ISO-25
 70
     0
  3

  4

  5

  6

  7

 40
1.0
 41
2.5
 42
0.625
 43
3.75
 44
1.25
 45
0.0
 46
0.0
 47
0.0
 48
0.0
140
2.5
141
2.5
142
0.0
143
0.03937007874016
144
1.0
145
0.0
146
1.0
147
0.625
 71
     0
 72
     0
 73
     0
 74
     0
 75
     0
 76
     0
 77
     1
 78
     8
170
     0
171
     3
172
     1
173
     0
174
     0
175
     0
176
     0
177
     0
178
     0
270
     2
271
     2
272
     2
273
     2
274
     3
340
11
275
     0
280
     0
281
     0
282
     0
283
     0
284
     8
285
     0
286
     0
287
     3
288
     0
  0
ENDTAB
  0
TABLE
  2
BLOCK_RECORD
  5
1
330
0
100
AcDbSymbolTable
 70
     1
  0
BLOCK_RECORD
  5
1F
330
1
100
AcDbSymbolTableRecord
100
AcDbBlockTableRecord
  2
*MODEL_SPACE
  0
BLOCK_RECORD
  5
1B
330
1
100
AcDbSymbolTableRecord
100
AcDbBlockTableRecord
  2
*PAPER_SPACE
  0
ENDTAB
  0
ENDSEC
  0
SECTION
  2
BLOCKS
  0
BLOCK
  5
20
330
1F
100
AcDbEntity
  8
0
100
AcDbBlockBegin
  2
*MODEL_SPACE
 70
     0
 10
0.0
 20
0.0
 30
0.0
  3
*MODEL_SPACE
  1

  0
ENDBLK
  5
21
330
1F
100
AcDbEntity
  8
0
100
AcDbBlockEnd
  0
BLOCK
  5
1C
330
1B
100
AcDbEntity
 67
     1
  8
0
100
AcDbBlockBegin
  2
*PAPER_SPACE
  1

  0
ENDBLK
  5
1D
330
1B
100
AcDbEntity
 67
     1
  8
0
100
AcDbBlockEnd
  0
ENDSEC
  0
SECTION
  2
ENTITIES
  0
LINE
  5
100
100
AcDbEntity
  8
Layer_1
 62
7
100
AcDbLine
 10
49.508937
 20
15.723097
 30
0.0
 11
47.623978
 21
15.339577
 31
0.0
  0
LINE
  5
101
100
AcDbEntity
  8
Layer_1
 62
7
100
AcDbLine
 10
47.623978
 20
15.339577
 30
0.0
 11
46.079634
 21
14.295817
 31
0.0
  0
LINE
  5
102
100
AcDbEntity
  8
Layer_1
 62
7
100
AcDbLine
 10
46.079634
 20
14.295817
 30
0.0
 11
45.035781
 21
12.751417
 31
0.0
  0
LINE
  5
103
100
AcDbEntity
  8
Layer_1
 62
7
100
AcDbLine
 10
45.035781
 20
12.751417
 30
0.0
 11
44.652302
 21
10.866457
 31
0.0
  0
LINE
  5
104
100
AcDbEntity
  8
Layer_1
 62
7
100
AcDbLine
 10
44.652302
 20
10.866457
 30
0.0
 11
44.652302
 21
8.897017
 31
0.0
  0
LINE
  5
105
100
AcDbEntity
  8
Layer_1
 62
7
100
AcDbLine
 10
44.652302
 20
8.897017
 30
0.0
 11
44.652302
 21
6.927417
 31
0.0
  0
LINE
  5
106
100
AcDbEntity
  8
Layer_1
 62
7
100
AcDbLine
 10
44.652302
 20
6.927417
 30
0.0
 11
44.652302
 21
4.957897
 31
0.0
  0
LINE
  5
107
100
AcDbEntity
  8
Layer_1
 62
7
100
AcDbLine
 10
44.652302
 20
4.957897
 30
0.0
 11
44.652302
 21
2.988377
 31
0.0
  0
LINE
  5
108
100
AcDbEntity
  8
Layer_1
 62
7
100
AcDbLine
 10
44.652302
 20
2.988377
 30
0.0
 11
44.789010
 21
2.309417
 31
0.0
  0
LINE
  5
109
100
AcDbEntity
  8
Layer_1
 62
7
100
AcDbLine
 10
44.789010
 20
2.309417
 30
0.0
 11
45.162063
 21
1.755657
 31
0.0
  0
LINE
  5
10a
100
AcDbEntity
  8
Layer_1
 62
7
100
AcDbLine
 10
45.162063
 20
1.755657
 30
0.0
 11
45.715849
 21
1.382537
 31
0.0
  0
LINE
  5
10b
100
AcDbEntity
  8
Layer_1
 62
7
100
AcDbLine
 10
45.715849
 20
1.382537
 30
0.0
 11
46.394758
 21
1.245897
 31
0.0
  0
LINE
  5
10c
100
AcDbEntity
  8
Layer_1
 62
7
100
AcDbLine
 10
46.394758
 20
1.245897
 30
0.0
 11
47.062953
 21
1.382537
 31
0.0
  0
LINE
  5
10d
100
AcDbEntity
  8
Layer_1
 62
7
100
AcDbLine
 10
47.062953
 20
1.382537
 30
0.0
 11
47.611234
 21
1.755657
 31
0.0
  0
LINE
  5
10e
100
AcDbEntity
  8
Layer_1
 62
7
100
AcDbLine
 10
47.611234
 20
1.755657
 30
0.0
 11
47.982262
 21
2.309417
 31
0.0
  0
LINE
  5
10f
100
AcDbEntity
  8
Layer_1
 62
7
100
AcDbLine
 10
47.982262
 20
2.309417
 30
0.0
 11
48.118678
 21
2.988377
 31
0.0
  0
LINE
  5
110
100
AcDbEntity
  8
Layer_1
 62
7
100
AcDbLine
 10
48.118678
 20
2.988377
 30
0.0
 11
48.118678
 21
3.641817
 31
0.0
  0
LINE
  5
111
100
AcDbEntity
  8
Layer_1
 62
7
100
AcDbLine
 10
48.118678
 20
3.641817
 30
0.0
 11
48.118678
 21
4.295097
 31
0.0
  0
LINE
  5
112
100
AcDbEntity
  8
Layer_1
 62
7
100
AcDbLine
 10
48.118678
 20
4.295097
 30
0.0
 11
48.118678
 21
4.948537
 31
0.0
  0
LINE
  5
113
100
AcDbEntity
  8
Layer_1
 62
7
100
AcDbLine
 10
48.118678
 20
4.948537
 30
0.0
 11
48.118678
 21
5.602057
 31
0.0
  0
LINE
  5
114
100
AcDbEntity
  8
Layer_1
 62
7
100
AcDbLine
 10
48.118678
 20
5.602057
 30
0.0
 11
48.813807
 21
5.602057
 31
0.0
  0
LINE
  5
115
100
AcDbEntity
  8
Layer_1
 62
7
100
AcDbLine
 10
48.813807
 20
5.602057
 30
0.0
 11
49.508937
 21
5.602057
 31
0.0
  0
LINE
  5
116
100
AcDbEntity
  8
Layer_1
 62
7
100
AcDbLine
 10
49.508937
 20
5.602057
 30
0.0
 11
50.204065
 21
5.602057
 31
0.0
  0
LINE
  5
117
100
AcDbEntity
  8
Layer_1
 62
7
100
AcDbLine
 10
50.204065
 20
5.602057
 30
0.0
 11
50.899194
 21
5.602057
 31
0.0
  0
LINE
  5
118
100
AcDbEntity
  8
Layer_1
 62
7
100
AcDbLine
 10
50.899194
 20
5.602057
 30
0.0
 11
50.899194
 21
4.948537
 31
0.0
  0
LINE
  5
119
100
AcDbEntity
  8
Layer_1
 62
7
100
AcDbLine
 10
50.899194
 20
4.948537
 30
0.0
 11
50.899194
 21
4.295097
 31
0.0
  0
LINE
  5
11a
100
AcDbEntity
  8
Layer_1
 62
7
100
AcDbLine
 10
50.899194
 20
4.295097
 30
0.0
 11
50.899194
 21
3.641817
 31
0.0
  0
LINE
  5
11b
100
AcDbEntity
  8
Layer_1
 62
7
100
AcDbLine
 10
50.899194
 20
3.641817
 30
0.0
 11
50.899194
 21
2.988377
 31
0.0
  0
LINE
  5
11c
100
AcDbEntity
  8
Layer_1
 62
7
100
AcDbLine
 10
50.899194
 20
2.988377
 30
0.0
 11
51.035903
 21
2.309417
 31
0.0
  0
LINE
  5
11d
100
AcDbEntity
  8
Layer_1
 62
7
100
AcDbLine
 10
51.035903
 20
2.309417
 30
0.0
 11
51.408955
 21
1.755657
 31
0.0
  0
LINE
  5
11e
100
AcDbEntity
  8
Layer_1
 62
7
100
AcDbLine
 10
51.408955
 20
1.755657
 30
0.0
 11
51.962742
 21
1.382537
 31
0.0
  0
LINE
  5
11f
100
AcDbEntity
  8
Layer_1
 62
7
100
AcDbLine
 10
51.962742
 20
1.382537
 30
0.0
 11
52.641651
 21
1.245897
 31
0.0
  0
LINE
  5
120
100
AcDbEntity
  8
Layer_1
 62
7
100
AcDbLine
 10
52.641651
 20
1.245897
 30
0.0
 11
53.309846
 21
1.382537
 31
0.0
  0
LINE
  5
121
100
AcDbEntity
  8
Layer_1
 62
7
100
AcDbLine
 10
53.309846
 20
1.382537
 30
0.0
 11
53.858127
 21
1.755657
 31
0.0
  0
LINE
  5
122
100
AcDbEntity
  8
Layer_1
 62
7
100
AcDbLine
 10
53.858127
 20
1.755657
 30
0.0
 11
54.229154
 21
2.309417
 31
0.0
  0
LINE
  5
123
100
AcDbEntity
  8
Layer_1
 62
7
100
AcDbLine
 10
54.229154
 20
2.309417
 30
0.0
 11
54.365571
 21
2.988377
 31
0.0
  0
LINE
  5
124
100
AcDbEntity
  8
Layer_1
 62
7
100
AcDbLine
 10
54.365571
 20
2.988377
 30
0.0
 11
54.365571
 21
4.957897
 31
0.0
  0
LINE
  5
125
100
AcDbEntity
  8
Layer_1
 62
7
100
AcDbLine
 10
54.365571
 20
4.957897
 30
0.0
 11
54.365571
 21
6.927417
 31
0.0
  0
LINE
  5
126
100
AcDbEntity
  8
Layer_1
 62
7
100
AcDbLine
 10
54.365571
 20
6.927417
 30
0.0
 11
54.365571
 21
8.897017
 31
0.0
  0
LINE
  5
127
100
AcDbEntity
  8
Layer_1
 62
7
100
AcDbLine
 10
54.365571
 20
8.897017
 30
0.0
 11
54.365571
 21
10.866457
 31
0.0
  0
LINE
  5
128
100
AcDbEntity
  8
Layer_1
 62
7
100
AcDbLine
 10
54.365571
 20
10.866457
 30
0.0
 11
53.984701
 21
12.751417
 31
0.0
  0
LINE
  5
129
100
AcDbEntity
  8
Layer_1
 62
7
100
AcDbLine
 10
53.984701
 20
12.751417
 30
0.0
 11
52.945190
 21
14.295817
 31
0.0
  0
LINE
  5
12a
100
AcDbEntity
  8
Layer_1
 62
7
100
AcDbLine
 10
52.945190
 20
14.295817
 30
0.0
 11
51.401717
 21
15.339577
 31
0.0
  0
LINE
  5
12b
100
AcDbEntity
  8
Layer_1
 62
7
100
AcDbLine
 10
51.401717
 20
15.339577
 30
0.0
 11
49.508937
 21
15.723097
 31
0.0
  0
LINE
  5
12c
100
AcDbEntity
  8
Layer_1
 62
7
100
AcDbLine
 10
48.118678
 20
9.068457
 30
0.0
 11
48.118678
 21
9.517977
 31
0.0
  0
LINE
  5
12d
100
AcDbEntity
  8
Layer_1
 62
7
100
AcDbLine
 10
48.118678
 20
9.517977
 30
0.0
 11
48.118678
 21
9.967417
 31
0.0
  0
LINE
  5
12e
100
AcDbEntity
  8
Layer_1
 62
7
100
AcDbLine
 10
48.118678
 20
9.967417
 30
0.0
 11
48.118678
 21
10.416937
 31
0.0
  0
LINE
  5
12f
100
AcDbEntity
  8
Layer_1
 62
7
100
AcDbLine
 10
48.118678
 20
10.416937
 30
0.0
 11
48.118678
 21
10.866457
 31
0.0
  0
LINE
  5
130
100
AcDbEntity
  8
Layer_1
 62
7
100
AcDbLine
 10
48.118678
 20
10.866457
 30
0.0
 11
48.229033
 21
11.404297
 31
0.0
  0
LINE
  5
131
100
AcDbEntity
  8
Layer_1
 62
7
100
AcDbLine
 10
48.229033
 20
11.404297
 30
0.0
 11
48.528805
 21
11.846537
 31
0.0
  0
LINE
  5
132
100
AcDbEntity
  8
Layer_1
 62
7
100
AcDbLine
 10
48.528805
 20
11.846537
 30
0.0
 11
48.971078
 21
12.146377
 31
0.0
  0
LINE
  5
133
100
AcDbEntity
  8
Layer_1
 62
7
100
AcDbLine
 10
48.971078
 20
12.146377
 30
0.0
 11
49.508937
 21
12.256697
 31
0.0
  0
LINE
  5
134
100
AcDbEntity
  8
Layer_1
 62
7
100
AcDbLine
 10
49.508937
 20
12.256697
 30
0.0
 11
50.054613
 21
12.146377
 31
0.0
  0
LINE
  5
135
100
AcDbEntity
  8
Layer_1
 62
7
100
AcDbLine
 10
50.054613
 20
12.146377
 30
0.0
 11
50.496020
 21
11.846537
 31
0.0
  0
LINE
  5
136
100
AcDbEntity
  8
Layer_1
 62
7
100
AcDbLine
 10
50.496020
 20
11.846537
 30
0.0
 11
50.791449
 21
11.404297
 31
0.0
  0
LINE
  5
137
100
AcDbEntity
  8
Layer_1
 62
7
100
AcDbLine
 10
50.791449
 20
11.404297
 30
0.0
 11
50.899194
 21
10.866457
 31
0.0
  0
LINE
  5
138
100
AcDbEntity
  8
Layer_1
 62
7
100
AcDbLine
 10
50.899194
 20
10.866457
 30
0.0
 11
50.899194
 21
10.416937
 31
0.0
  0
LINE
  5
139
100
AcDbEntity
  8
Layer_1
 62
7
100
AcDbLine
 10
50.899194
 20
10.416937
 30
0.0
 11
50.899194
 21
9.967417
 31
0.0
  0
LINE
  5
13a
100
AcDbEntity
  8
Layer_1
 62
7
100
AcDbLine
 10
50.899194
 20
9.967417
 30
0.0
 11
50.899194
 21
9.517977
 31
0.0
  0
LINE
  5
13b
100
AcDbEntity
  8
Layer_1
 62
7
100
AcDbLine
 10
50.899194
 20
9.517977
 30
0.0
 11
50.899194
 21
9.068457
 31
0.0
  0
LINE
  5
13c
100
AcDbEntity
  8
Layer_1
 62
7
100
AcDbLine
 10
50.899194
 20
9.068457
 30
0.0
 11
50.204065
 21
9.068457
 31
0.0
  0
LINE
  5
13d
100
AcDbEntity
  8
Layer_1
 62
7
100
AcDbLine
 10
50.204065
 20
9.068457
 30
0.0
 11
49.508937
 21
9.068457
 31
0.0
  0
LINE
  5
13e
100
AcDbEntity
  8
Layer_1
 62
7
100
AcDbLine
 10
49.508937
 20
9.068457
 30
0.0
 11
48.813807
 21
9.068457
 31
0.0
  0
LINE
  5
13f
100
AcDbEntity
  8
Layer_1
 62
7
100
AcDbLine
 10
48.813807
 20
9.068457
 30
0.0
 11
48.118678
 21
9.068457
 31
0.0
  0
LINE
  5
140
100
AcDbEntity
  8
Layer_1
 62
7
100
AcDbLine
 10
40.217087
 20
5.787337
 30
0.0
 11
40.106733
 21
5.249497
 31
0.0
  0
LINE
  5
141
100
AcDbEntity
  8
Layer_1
 62
7
100
AcDbLine
 10
40.106733
 20
5.249497
 30
0.0
 11
39.806961
 21
4.807337
 31
0.0
  0
LINE
  5
142
100
AcDbEntity
  8
Layer_1
 62
7
100
AcDbLine
 10
39.806961
 20
4.807337
 30
0.0
 11
39.364687
 21
4.507497
 31
0.0
  0
LINE
  5
143
100
AcDbEntity
  8
Layer_1
 62
7
100
AcDbLine
 10
39.364687
 20
4.507497
 30
0.0
 11
38.826828
 21
4.397177
 31
0.0
  0
LINE
  5
144
100
AcDbEntity
  8
Layer_1
 62
7
100
AcDbLine
 10
38.826828
 20
4.397177
 30
0.0
 11
38.288974
 21
4.507497
 31
0.0
  0
LINE
  5
145
100
AcDbEntity
  8
Layer_1
 62
7
100
AcDbLine
 10
38.288974
 20
4.507497
 30
0.0
 11
37.846697
 21
4.807337
 31
0.0
  0
LINE
  5
146
100
AcDbEntity
  8
Layer_1
 62
7
100
AcDbLine
 10
37.846697
 20
4.807337
 30
0.0
 11
37.546921
 21
5.249497
 31
0.0
  0
LINE
  5
147
100
AcDbEntity
  8
Layer_1
 62
7
100
AcDbLine
 10
37.546921
 20
5.249497
 30
0.0
 11
37.436570
 21
5.787337
 31
0.0
  0
LINE
  5
148
100
AcDbEntity
  8
Layer_1
 62
7
100
AcDbLine
 10
37.436570
 20
5.787337
 30
0.0
 11
37.436570
 21
7.057177
 31
0.0
  0
LINE
  5
149
100
AcDbEntity
  8
Layer_1
 62
7
100
AcDbLine
 10
37.436570
 20
7.057177
 30
0.0
 11
37.436570
 21
8.326937
 31
0.0
  0
LINE
  5
14a
100
AcDbEntity
  8
Layer_1
 62
7
100
AcDbLine
 10
37.436570
 20
8.326937
 30
0.0
 11
37.436570
 21
9.596697
 31
0.0
  0
LINE
  5
14b
100
AcDbEntity
  8
Layer_1
 62
7
100
AcDbLine
 10
37.436570
 20
9.596697
 30
0.0
 11
37.436570
 21
10.866457
 31
0.0
  0
LINE
  5
14c
100
AcDbEntity
  8
Layer_1
 62
7
100
AcDbLine
 10
37.436570
 20
10.866457
 30
0.0
 11
37.546925
 21
11.404297
 31
0.0
  0
LINE
  5
14d
100
AcDbEntity
  8
Layer_1
 62
7
100
AcDbLine
 10
37.546925
 20
11.404297
 30
0.0
 11
37.846697
 21
11.846537
 31
0.0
  0
LINE
  5
14e
100
AcDbEntity
  8
Layer_1
 62
7
100
AcDbLine
 10
37.846697
 20
11.846537
 30
0.0
 11
38.288970
 21
12.146377
 31
0.0
  0
LINE
  5
14f
100
AcDbEntity
  8
Layer_1
 62
7
100
AcDbLine
 10
38.288970
 20
12.146377
 30
0.0
 11
38.826828
 21
12.256697
 31
0.0
  0
LINE
  5
150
100
AcDbEntity
  8
Layer_1
 62
7
100
AcDbLine
 10
38.826828
 20
12.256697
 30
0.0
 11
39.364682
 21
12.146377
 31
0.0
  0
LINE
  5
151
100
AcDbEntity
  8
Layer_1
 62
7
100
AcDbLine
 10
39.364682
 20
12.146377
 30
0.0
 11
39.806961
 21
11.846537
 31
0.0
  0
LINE
  5
152
100
AcDbEntity
  8
Layer_1
 62
7
100
AcDbLine
 10
39.806961
 20
11.846537
 30
0.0
 11
40.106737
 21
11.404297
 31
0.0
  0
LINE
  5
153
100
AcDbEntity
  8
Layer_1
 62
7
100
AcDbLine
 10
40.106737
 20
11.404297
 30
0.0
 11
40.217087
 21
10.866457
 31
0.0
  0
LINE
  5
154
100
AcDbEntity
  8
Layer_1
 62
7
100
AcDbLine
 10
40.217087
 20
10.866457
 30
0.0
 11
40.217087
 21
9.596697
 31
0.0
  0
LINE
  5
155
100
AcDbEntity
  8
Layer_1
 62
7
100
AcDbLine
 10
40.217087
 20
9.596697
 30
0.0
 11
40.217087
 21
8.326937
 31
0.0
  0
LINE
  5
156
100
AcDbEntity
  8
Layer_1
 62
7
100
AcDbLine
 10
40.217087
 20
8.326937
 30
0.0
 11
40.217087
 21
7.057177
 31
0.0
  0
LINE
  5
157
100
AcDbEntity
  8
Layer_1
 62
7
100
AcDbLine
 10
40.217087
 20
7.057177
 30
0.0
 11
40.217087
 21
5.787337
 31
0.0
  0
LINE
  5
158
100
AcDbEntity
  8
Layer_1
 62
7
100
AcDbLine
 10
43.683464
 20
10.866457
 30
0.0
 11
43.302588
 21
12.751417
 31
0.0
  0
LINE
  5
159
100
AcDbEntity
  8
Layer_1
 62
7
100
AcDbLine
 10
43.302588
 20
12.751417
 30
0.0
 11
42.263083
 21
14.295817
 31
0.0
  0
LINE
  5
15a
100
AcDbEntity
  8
Layer_1
 62
7
100
AcDbLine
 10
42.263083
 20
14.295817
 30
0.0
 11
40.719610
 21
15.339577
 31
0.0
  0
LINE
  5
15b
100
AcDbEntity
  8
Layer_1
 62
7
100
AcDbLine
 10
40.719610
 20
15.339577
 30
0.0
 11
38.826828
 21
15.723097
 31
0.0
  0
LINE
  5
15c
100
AcDbEntity
  8
Layer_1
 62
7
100
AcDbLine
 10
38.826828
 20
15.723097
 30
0.0
 11
36.941871
 21
15.339577
 31
0.0
  0
LINE
  5
15d
100
AcDbEntity
  8
Layer_1
 62
7
100
AcDbLine
 10
36.941871
 20
15.339577
 30
0.0
 11
35.397526
 21
14.295817
 31
0.0
  0
LINE
  5
15e
100
AcDbEntity
  8
Layer_1
 62
7
100
AcDbLine
 10
35.397526
 20
14.295817
 30
0.0
 11
34.353674
 21
12.751417
 31
0.0
  0
LINE
  5
15f
100
AcDbEntity
  8
Layer_1
 62
7
100
AcDbLine
 10
34.353674
 20
12.751417
 30
0.0
 11
33.970194
 21
10.866457
 31
0.0
  0
LINE
  5
160
100
AcDbEntity
  8
Layer_1
 62
7
100
AcDbLine
 10
33.970194
 20
10.866457
 30
0.0
 11
33.970194
 21
9.596697
 31
0.0
  0
LINE
  5
161
100
AcDbEntity
  8
Layer_1
 62
7
100
AcDbLine
 10
33.970194
 20
9.596697
 30
0.0
 11
33.970194
 21
8.326937
 31
0.0
  0
LINE
  5
162
100
AcDbEntity
  8
Layer_1
 62
7
100
AcDbLine
 10
33.970194
 20
8.326937
 30
0.0
 11
33.970194
 21
7.057177
 31
0.0
  0
LINE
  5
163
100
AcDbEntity
  8
Layer_1
 62
7
100
AcDbLine
 10
33.970194
 20
7.057177
 30
0.0
 11
33.970194
 21
5.787337
 31
0.0
  0
LINE
  5
164
100
AcDbEntity
  8
Layer_1
 62
7
100
AcDbLine
 10
33.970194
 20
5.787337
 30
0.0
 11
34.353674
 21
3.894617
 31
0.0
  0
LINE
  5
165
100
AcDbEntity
  8
Layer_1
 62
7
100
AcDbLine
 10
34.353674
 20
3.894617
 30
0.0
 11
35.397526
 21
2.351097
 31
0.0
  0
LINE
  5
166
100
AcDbEntity
  8
Layer_1
 62
7
100
AcDbLine
 10
35.397526
 20
2.351097
 30
0.0
 11
36.941871
 21
1.311657
 31
0.0
  0
LINE
  5
167
100
AcDbEntity
  8
Layer_1
 62
7
100
AcDbLine
 10
36.941871
 20
1.311657
 30
0.0
 11
38.826828
 21
0.930777
 31
0.0
  0
LINE
  5
168
100
AcDbEntity
  8
Layer_1
 62
7
100
AcDbLine
 10
38.826828
 20
0.930777
 30
0.0
 11
40.719610
 21
1.311657
 31
0.0
  0
LINE
  5
169
100
AcDbEntity
  8
Layer_1
 62
7
100
AcDbLine
 10
40.719610
 20
1.311657
 30
0.0
 11
42.263083
 21
2.351097
 31
0.0
  0
LINE
  5
16a
100
AcDbEntity
  8
Layer_1
 62
7
100
AcDbLine
 10
42.263083
 20
2.351097
 30
0.0
 11
43.302588
 21
3.894617
 31
0.0
  0
LINE
  5
16b
100
AcDbEntity
  8
Layer_1
 62
7
100
AcDbLine
 10
43.302588
 20
3.894617
 30
0.0
 11
43.683464
 21
5.787337
 31
0.0
  0
LINE
  5
16c
100
AcDbEntity
  8
Layer_1
 62
7
100
AcDbLine
 10
43.683464
 20
5.787337
 30
0.0
 11
43.683464
 21
7.057177
 31
0.0
  0
LINE
  5
16d
100
AcDbEntity
  8
Layer_1
 62
7
100
AcDbLine
 10
43.683464
 20
7.057177
 30
0.0
 11
43.683464
 21
8.326937
 31
0.0
  0
LINE
  5
16e
100
AcDbEntity
  8
Layer_1
 62
7
100
AcDbLine
 10
43.683464
 20
8.326937
 30
0.0
 11
43.683464
 21
9.596697
 31
0.0
  0
LINE
  5
16f
100
AcDbEntity
  8
Layer_1
 62
7
100
AcDbLine
 10
43.683464
 20
9.596697
 30
0.0
 11
43.683464
 21
10.866457
 31
0.0
  0
LINE
  5
170
100
AcDbEntity
  8
Layer_1
 62
7
100
AcDbLine
 10
32.902592
 20
10.662537
 30
0.0
 11
32.528381
 21
12.506697
 31
0.0
  0
LINE
  5
171
100
AcDbEntity
  8
Layer_1
 62
7
100
AcDbLine
 10
32.528381
 20
12.506697
 30
0.0
 11
31.507699
 21
14.015417
 31
0.0
  0
LINE
  5
172
100
AcDbEntity
  8
Layer_1
 62
7
100
AcDbLine
 10
31.507699
 20
14.015417
 30
0.0
 11
29.993477
 21
15.034057
 31
0.0
  0
LINE
  5
173
100
AcDbEntity
  8
Layer_1
 62
7
100
AcDbLine
 10
29.993477
 20
15.034057
 30
0.0
 11
28.138641
 21
15.407897
 31
0.0
  0
LINE
  5
174
100
AcDbEntity
  8
Layer_1
 62
7
100
AcDbLine
 10
28.138641
 20
15.407897
 30
0.0
 11
27.471317
 21
15.407897
 31
0.0
  0
LINE
  5
175
100
AcDbEntity
  8
Layer_1
 62
7
100
AcDbLine
 10
27.471317
 20
15.407897
 30
0.0
 11
26.803994
 21
15.407897
 31
0.0
  0
LINE
  5
176
100
AcDbEntity
  8
Layer_1
 62
7
100
AcDbLine
 10
26.803994
 20
15.407897
 30
0.0
 11
26.136669
 21
15.407897
 31
0.0
  0
LINE
  5
177
100
AcDbEntity
  8
Layer_1
 62
7
100
AcDbLine
 10
26.136669
 20
15.407897
 30
0.0
 11
25.469346
 21
15.407897
 31
0.0
  0
LINE
  5
178
100
AcDbEntity
  8
Layer_1
 62
7
100
AcDbLine
 10
25.469346
 20
15.407897
 30
0.0
 11
24.790436
 21
15.271337
 31
0.0
  0
LINE
  5
179
100
AcDbEntity
  8
Layer_1
 62
7
100
AcDbLine
 10
24.790436
 20
15.271337
 30
0.0
 11
24.236650
 21
14.898217
 31
0.0
  0
LINE
  5
17a
100
AcDbEntity
  8
Layer_1
 62
7
100
AcDbLine
 10
24.236650
 20
14.898217
 30
0.0
 11
23.863598
 21
14.344457
 31
0.0
  0
LINE
  5
17b
100
AcDbEntity
  8
Layer_1
 62
7
100
AcDbLine
 10
23.863598
 20
14.344457
 30
0.0
 11
23.726889
 21
13.665497
 31
0.0
  0
LINE
  5
17c
100
AcDbEntity
  8
Layer_1
 62
7
100
AcDbLine
 10
23.726889
 20
13.665497
 30
0.0
 11
23.726889
 21
10.996217
 31
0.0
  0
LINE
  5
17d
100
AcDbEntity
  8
Layer_1
 62
7
100
AcDbLine
 10
23.726889
 20
10.996217
 30
0.0
 11
23.726889
 21
8.326937
 31
0.0
  0
LINE
  5
17e
100
AcDbEntity
  8
Layer_1
 62
7
100
AcDbLine
 10
23.726889
 20
8.326937
 30
0.0
 11
23.726889
 21
5.657577
 31
0.0
  0
LINE
  5
17f
100
AcDbEntity
  8
Layer_1
 62
7
100
AcDbLine
 10
23.726889
 20
5.657577
 30
0.0
 11
23.726889
 21
2.988377
 31
0.0
  0
LINE
  5
180
100
AcDbEntity
  8
Layer_1
 62
7
100
AcDbLine
 10
23.726889
 20
2.988377
 30
0.0
 11
23.863598
 21
2.320137
 31
0.0
  0
LINE
  5
181
100
AcDbEntity
  8
Layer_1
 62
7
100
AcDbLine
 10
23.863598
 20
2.320137
 30
0.0
 11
24.236650
 21
1.771817
 31
0.0
  0
LINE
  5
182
100
AcDbEntity
  8
Layer_1
 62
7
100
AcDbLine
 10
24.236650
 20
1.771817
 30
0.0
 11
24.790436
 21
1.400777
 31
0.0
  0
LINE
  5
183
100
AcDbEntity
  8
Layer_1
 62
7
100
AcDbLine
 10
24.790436
 20
1.400777
 30
0.0
 11
25.469346
 21
1.264457
 31
0.0
  0
LINE
  5
184
100
AcDbEntity
  8
Layer_1
 62
7
100
AcDbLine
 10
25.469346
 20
1.264457
 30
0.0
 11
26.145358
 21
1.400777
 31
0.0
  0
LINE
  5
185
100
AcDbEntity
  8
Layer_1
 62
7
100
AcDbLine
 10
26.145358
 20
1.400777
 30
0.0
 11
26.692773
 21
1.771817
 31
0.0
  0
LINE
  5
186
100
AcDbEntity
  8
Layer_1
 62
7
100
AcDbLine
 10
26.692773
 20
1.771817
 30
0.0
 11
27.059453
 21
2.320137
 31
0.0
  0
LINE
  5
187
100
AcDbEntity
  8
Layer_1
 62
7
100
AcDbLine
 10
27.059453
 20
2.320137
 30
0.0
 11
27.193266
 21
2.988377
 31
0.0
  0
LINE
  5
188
100
AcDbEntity
  8
Layer_1
 62
7
100
AcDbLine
 10
27.193266
 20
2.988377
 30
0.0
 11
27.193266
 21
5.226617
 31
0.0
  0
LINE
  5
189
100
AcDbEntity
  8
Layer_1
 62
7
100
AcDbLine
 10
27.193266
 20
5.226617
 30
0.0
 11
27.193266
 21
7.465017
 31
0.0
  0
LINE
  5
18a
100
AcDbEntity
  8
Layer_1
 62
7
100
AcDbLine
 10
27.193266
 20
7.465017
 30
0.0
 11
27.193266
 21
9.703257
 31
0.0
  0
LINE
  5
18b
100
AcDbEntity
  8
Layer_1
 62
7
100
AcDbLine
 10
27.193266
 20
9.703257
 30
0.0
 11
27.193266
 21
11.941657
 31
0.0
  0
LINE
  5
18c
100
AcDbEntity
  8
Layer_1
 62
7
100
AcDbLine
 10
27.193266
 20
11.941657
 30
0.0
 11
27.429610
 21
11.941657
 31
0.0
  0
LINE
  5
18d
100
AcDbEntity
  8
Layer_1
 62
7
100
AcDbLine
 10
27.429610
 20
11.941657
 30
0.0
 11
27.665954
 21
11.941657
 31
0.0
  0
LINE
  5
18e
100
AcDbEntity
  8
Layer_1
 62
7
100
AcDbLine
 10
27.665954
 20
11.941657
 30
0.0
 11
27.902298
 21
11.941657
 31
0.0
  0
LINE
  5
18f
100
AcDbEntity
  8
Layer_1
 62
7
100
AcDbLine
 10
27.902298
 20
11.941657
 30
0.0
 11
28.138641
 21
11.941657
 31
0.0
  0
LINE
  5
190
100
AcDbEntity
  8
Layer_1
 62
7
100
AcDbLine
 10
28.138641
 20
11.941657
 30
0.0
 11
28.646378
 21
11.840857
 31
0.0
  0
LINE
  5
191
100
AcDbEntity
  8
Layer_1
 62
7
100
AcDbLine
 10
28.646378
 20
11.840857
 30
0.0
 11
29.058529
 21
11.566217
 31
0.0
  0
LINE
  5
192
100
AcDbEntity
  8
Layer_1
 62
7
100
AcDbLine
 10
29.058529
 20
11.566217
 30
0.0
 11
29.335134
 21
11.159497
 31
0.0
  0
LINE
  5
193
100
AcDbEntity
  8
Layer_1
 62
7
100
AcDbLine
 10
29.335134
 20
11.159497
 30
0.0
 11
29.436215
 21
10.662537
 31
0.0
  0
LINE
  5
194
100
AcDbEntity
  8
Layer_1
 62
7
100
AcDbLine
 10
29.436215
 20
10.662537
 30
0.0
 11
29.369591
 21
10.241737
 31
0.0
  0
LINE
  5
195
100
AcDbEntity
  8
Layer_1
 62
7
100
AcDbLine
 10
29.369591
 20
10.241737
 30
0.0
 11
29.181328
 21
9.881657
 31
0.0
  0
LINE
  5
196
100
AcDbEntity
  8
Layer_1
 62
7
100
AcDbLine
 10
29.181328
 20
9.881657
 30
0.0
 11
28.888794
 21
9.601657
 31
0.0
  0
LINE
  5
197
100
AcDbEntity
  8
Layer_1
 62
7
100
AcDbLine
 10
28.888794
 20
9.601657
 30
0.0
 11
28.509370
 21
9.420537
 31
0.0
  0
LINE
  5
198
100
AcDbEntity
  8
Layer_1
 62
7
100
AcDbLine
 10
28.509370
 20
9.420537
 30
0.0
 11
27.992078
 21
9.169417
 31
0.0
  0
LINE
  5
199
100
AcDbEntity
  8
Layer_1
 62
7
100
AcDbLine
 10
27.992078
 20
9.169417
 30
0.0
 11
27.596434
 21
8.774057
 31
0.0
  0
LINE
  5
19a
100
AcDbEntity
  8
Layer_1
 62
7
100
AcDbLine
 10
27.596434
 20
8.774057
 30
0.0
 11
27.346766
 21
8.271097
 31
0.0
  0
LINE
  5
19b
100
AcDbEntity
  8
Layer_1
 62
7
100
AcDbLine
 10
27.346766
 20
8.271097
 30
0.0
 11
27.267406
 21
7.696697
 31
0.0
  0
LINE
  5
19c
100
AcDbEntity
  8
Layer_1
 62
7
100
AcDbLine
 10
27.267406
 20
7.696697
 30
0.0
 11
27.377181
 21
7.136857
 31
0.0
  0
LINE
  5
19d
100
AcDbEntity
  8
Layer_1
 62
7
100
AcDbLine
 10
27.377181
 20
7.136857
 30
0.0
 11
27.658995
 21
6.651577
 31
0.0
  0
LINE
  5
19e
100
AcDbEntity
  8
Layer_1
 62
7
100
AcDbLine
 10
27.658995
 20
6.651577
 30
0.0
 11
28.083316
 21
6.281177
 31
0.0
  0
LINE
  5
19f
100
AcDbEntity
  8
Layer_1
 62
7
100
AcDbLine
 10
28.083316
 20
6.281177
 30
0.0
 11
28.620590
 21
6.065497
 31
0.0
  0
LINE
  5
1a0
100
AcDbEntity
  8
Layer_1
 62
7
100
AcDbLine
 10
28.620590
 20
6.065497
 30
0.0
 11
29.108051
 21
5.880697
 31
0.0
  0
LINE
  5
1a1
100
AcDbEntity
  8
Layer_1
 62
7
100
AcDbLine
 10
29.108051
 20
5.880697
 30
0.0
 11
29.475599
 21
5.588217
 31
0.0
  0
LINE
  5
1a2
100
AcDbEntity
  8
Layer_1
 62
7
100
AcDbLine
 10
29.475599
 20
5.588217
 30
0.0
 11
29.707600
 21
5.205337
 31
0.0
  0
LINE
  5
1a3
100
AcDbEntity
  8
Layer_1
 62
7
100
AcDbLine
 10
29.707600
 20
5.205337
 30
0.0
 11
29.788407
 21
4.749257
 31
0.0
  0
LINE
  5
1a4
100
AcDbEntity
  8
Layer_1
 62
7
100
AcDbLine
 10
29.788407
 20
4.749257
 30
0.0
 11
29.788407
 21
4.309097
 31
0.0
  0
LINE
  5
1a5
100
AcDbEntity
  8
Layer_1
 62
7
100
AcDbLine
 10
29.788407
 20
4.309097
 30
0.0
 11
29.788407
 21
3.868777
 31
0.0
  0
LINE
  5
1a6
100
AcDbEntity
  8
Layer_1
 62
7
100
AcDbLine
 10
29.788407
 20
3.868777
 30
0.0
 11
29.788407
 21
3.428617
 31
0.0
  0
LINE
  5
1a7
100
AcDbEntity
  8
Layer_1
 62
7
100
AcDbLine
 10
29.788407
 20
3.428617
 30
0.0
 11
29.788407
 21
2.988377
 31
0.0
  0
LINE
  5
1a8
100
AcDbEntity
  8
Layer_1
 62
7
100
AcDbLine
 10
29.788407
 20
2.988377
 30
0.0
 11
29.924828
 21
2.320137
 31
0.0
  0
LINE
  5
1a9
100
AcDbEntity
  8
Layer_1
 62
7
100
AcDbLine
 10
29.924828
 20
2.320137
 30
0.0
 11
30.295851
 21
1.771817
 31
0.0
  0
LINE
  5
1aa
100
AcDbEntity
  8
Layer_1
 62
7
100
AcDbLine
 10
30.295851
 20
1.771817
 30
0.0
 11
30.844136
 21
1.400777
 31
0.0
  0
LINE
  5
1ab
100
AcDbEntity
  8
Layer_1
 62
7
100
AcDbLine
 10
30.844136
 20
1.400777
 30
0.0
 11
31.512326
 21
1.264457
 31
0.0
  0
LINE
  5
1ac
100
AcDbEntity
  8
Layer_1
 62
7
100
AcDbLine
 10
31.512326
 20
1.264457
 30
0.0
 11
32.191236
 21
1.400777
 31
0.0
  0
LINE
  5
1ad
100
AcDbEntity
  8
Layer_1
 62
7
100
AcDbLine
 10
32.191236
 20
1.400777
 30
0.0
 11
32.745023
 21
1.771817
 31
0.0
  0
LINE
  5
1ae
100
AcDbEntity
  8
Layer_1
 62
7
100
AcDbLine
 10
32.745023
 20
1.771817
 30
0.0
 11
33.118074
 21
2.320137
 31
0.0
  0
LINE
  5
1af
100
AcDbEntity
  8
Layer_1
 62
7
100
AcDbLine
 10
33.118074
 20
2.320137
 30
0.0
 11
33.254784
 21
2.988377
 31
0.0
  0
LINE
  5
1b0
100
AcDbEntity
  8
Layer_1
 62
7
100
AcDbLine
 10
33.254784
 20
2.988377
 30
0.0
 11
33.254784
 21
3.428617
 31
0.0
  0
LINE
  5
1b1
100
AcDbEntity
  8
Layer_1
 62
7
100
AcDbLine
 10
33.254784
 20
3.428617
 30
0.0
 11
33.254784
 21
3.868777
 31
0.0
  0
LINE
  5
1b2
100
AcDbEntity
  8
Layer_1
 62
7
100
AcDbLine
 10
33.254784
 20
3.868777
 30
0.0
 11
33.254784
 21
4.309097
 31
0.0
  0
LINE
  5
1b3
100
AcDbEntity
  8
Layer_1
 62
7
100
AcDbLine
 10
33.254784
 20
4.309097
 30
0.0
 11
33.254784
 21
4.749257
 31
0.0
  0
LINE
  5
1b4
100
AcDbEntity
  8
Layer_1
 62
7
100
AcDbLine
 10
33.254784
 20
4.749257
 30
0.0
 11
33.173398
 21
5.640777
 31
0.0
  0
LINE
  5
1b5
100
AcDbEntity
  8
Layer_1
 62
7
100
AcDbLine
 10
33.173398
 20
5.640777
 30
0.0
 11
32.937341
 21
6.473337
 31
0.0
  0
LINE
  5
1b6
100
AcDbEntity
  8
Layer_1
 62
7
100
AcDbLine
 10
32.937341
 20
6.473337
 30
0.0
 11
32.558788
 21
7.236137
 31
0.0
  0
LINE
  5
1b7
100
AcDbEntity
  8
Layer_1
 62
7
100
AcDbLine
 10
32.558788
 20
7.236137
 30
0.0
 11
32.049894
 21
7.919177
 31
0.0
  0
LINE
  5
1b8
100
AcDbEntity
  8
Layer_1
 62
7
100
AcDbLine
 10
32.049894
 20
7.919177
 30
0.0
 11
32.409914
 21
8.532937
 31
0.0
  0
LINE
  5
1b9
100
AcDbEntity
  8
Layer_1
 62
7
100
AcDbLine
 10
32.409914
 20
8.532937
 30
0.0
 11
32.677826
 21
9.200537
 31
0.0
  0
LINE
  5
1ba
100
AcDbEntity
  8
Layer_1
 62
7
100
AcDbLine
 10
32.677826
 20
9.200537
 30
0.0
 11
32.844950
 21
9.913257
 31
0.0
  0
LINE
  5
1bb
100
AcDbEntity
  8
Layer_1
 62
7
100
AcDbLine
 10
32.844950
 20
9.913257
 30
0.0
 11
32.902592
 21
10.662537
 31
0.0
  0
LINE
  5
1bc
100
AcDbEntity
  8
Layer_1
 62
7
100
AcDbLine
 10
17.793676
 20
15.723097
 30
0.0
 11
15.908717
 21
15.339577
 31
0.0
  0
LINE
  5
1bd
100
AcDbEntity
  8
Layer_1
 62
7
100
AcDbLine
 10
15.908717
 20
15.339577
 30
0.0
 11
14.364373
 21
14.295817
 31
0.0
  0
LINE
  5
1be
100
AcDbEntity
  8
Layer_1
 62
7
100
AcDbLine
 10
14.364373
 20
14.295817
 30
0.0
 11
13.320521
 21
12.751417
 31
0.0
  0
LINE
  5
1bf
100
AcDbEntity
  8
Layer_1
 62
7
100
AcDbLine
 10
13.320521
 20
12.751417
 30
0.0
 11
12.937041
 21
10.866457
 31
0.0
  0
LINE
  5
1c0
100
AcDbEntity
  8
Layer_1
 62
7
100
AcDbLine
 10
12.937041
 20
10.866457
 30
0.0
 11
12.937041
 21
8.897017
 31
0.0
  0
LINE
  5
1c1
100
AcDbEntity
  8
Layer_1
 62
7
100
AcDbLine
 10
12.937041
 20
8.897017
 30
0.0
 11
12.937041
 21
6.927417
 31
0.0
  0
LINE
  5
1c2
100
AcDbEntity
  8
Layer_1
 62
7
100
AcDbLine
 10
12.937041
 20
6.927417
 30
0.0
 11
12.937041
 21
4.957897
 31
0.0
  0
LINE
  5
1c3
100
AcDbEntity
  8
Layer_1
 62
7
100
AcDbLine
 10
12.937041
 20
4.957897
 30
0.0
 11
12.937041
 21
2.988377
 31
0.0
  0
LINE
  5
1c4
100
AcDbEntity
  8
Layer_1
 62
7
100
AcDbLine
 10
12.937041
 20
2.988377
 30
0.0
 11
13.073750
 21
2.309417
 31
0.0
  0
LINE
  5
1c5
100
AcDbEntity
  8
Layer_1
 62
7
100
AcDbLine
 10
13.073750
 20
2.309417
 30
0.0
 11
13.446802
 21
1.755657
 31
0.0
  0
LINE
  5
1c6
100
AcDbEntity
  8
Layer_1
 62
7
100
AcDbLine
 10
13.446802
 20
1.755657
 30
0.0
 11
14.000589
 21
1.382537
 31
0.0
  0
LINE
  5
1c7
100
AcDbEntity
  8
Layer_1
 62
7
100
AcDbLine
 10
14.000589
 20
1.382537
 30
0.0
 11
14.679498
 21
1.245897
 31
0.0
  0
LINE
  5
1c8
100
AcDbEntity
  8
Layer_1
 62
7
100
AcDbLine
 10
14.679498
 20
1.245897
 30
0.0
 11
15.347693
 21
1.382537
 31
0.0
  0
LINE
  5
1c9
100
AcDbEntity
  8
Layer_1
 62
7
100
AcDbLine
 10
15.347693
 20
1.382537
 30
0.0
 11
15.895973
 21
1.755657
 31
0.0
  0
LINE
  5
1ca
100
AcDbEntity
  8
Layer_1
 62
7
100
AcDbLine
 10
15.895973
 20
1.755657
 30
0.0
 11
16.267001
 21
2.309417
 31
0.0
  0
LINE
  5
1cb
100
AcDbEntity
  8
Layer_1
 62
7
100
AcDbLine
 10
16.267001
 20
2.309417
 30
0.0
 11
16.403418
 21
2.988377
 31
0.0
  0
LINE
  5
1cc
100
AcDbEntity
  8
Layer_1
 62
7
100
AcDbLine
 10
16.403418
 20
2.988377
 30
0.0
 11
16.403418
 21
3.641817
 31
0.0
  0
LINE
  5
1cd
100
AcDbEntity
  8
Layer_1
 62
7
100
AcDbLine
 10
16.403418
 20
3.641817
 30
0.0
 11
16.403418
 21
4.295097
 31
0.0
  0
LINE
  5
1ce
100
AcDbEntity
  8
Layer_1
 62
7
100
AcDbLine
 10
16.403418
 20
4.295097
 30
0.0
 11
16.403418
 21
4.948537
 31
0.0
  0
LINE
  5
1cf
100
AcDbEntity
  8
Layer_1
 62
7
100
AcDbLine
 10
16.403418
 20
4.948537
 30
0.0
 11
16.403418
 21
5.602057
 31
0.0
  0
LINE
  5
1d0
100
AcDbEntity
  8
Layer_1
 62
7
100
AcDbLine
 10
16.403418
 20
5.602057
 30
0.0
 11
17.098546
 21
5.602057
 31
0.0
  0
LINE
  5
1d1
100
AcDbEntity
  8
Layer_1
 62
7
100
AcDbLine
 10
17.098546
 20
5.602057
 30
0.0
 11
17.793676
 21
5.602057
 31
0.0
  0
LINE
  5
1d2
100
AcDbEntity
  8
Layer_1
 62
7
100
AcDbLine
 10
17.793676
 20
5.602057
 30
0.0
 11
18.488805
 21
5.602057
 31
0.0
  0
LINE
  5
1d3
100
AcDbEntity
  8
Layer_1
 62
7
100
AcDbLine
 10
18.488805
 20
5.602057
 30
0.0
 11
19.183934
 21
5.602057
 31
0.0
  0
LINE
  5
1d4
100
AcDbEntity
  8
Layer_1
 62
7
100
AcDbLine
 10
19.183934
 20
5.602057
 30
0.0
 11
19.183934
 21
4.948537
 31
0.0
  0
LINE
  5
1d5
100
AcDbEntity
  8
Layer_1
 62
7
100
AcDbLine
 10
19.183934
 20
4.948537
 30
0.0
 11
19.183934
 21
4.295097
 31
0.0
  0
LINE
  5
1d6
100
AcDbEntity
  8
Layer_1
 62
7
100
AcDbLine
 10
19.183934
 20
4.295097
 30
0.0
 11
19.183934
 21
3.641817
 31
0.0
  0
LINE
  5
1d7
100
AcDbEntity
  8
Layer_1
 62
7
100
AcDbLine
 10
19.183934
 20
3.641817
 30
0.0
 11
19.183934
 21
2.988377
 31
0.0
  0
LINE
  5
1d8
100
AcDbEntity
  8
Layer_1
 62
7
100
AcDbLine
 10
19.183934
 20
2.988377
 30
0.0
 11
19.320642
 21
2.309417
 31
0.0
  0
LINE
  5
1d9
100
AcDbEntity
  8
Layer_1
 62
7
100
AcDbLine
 10
19.320642
 20
2.309417
 30
0.0
 11
19.693695
 21
1.755657
 31
0.0
  0
LINE
  5
1da
100
AcDbEntity
  8
Layer_1
 62
7
100
AcDbLine
 10
19.693695
 20
1.755657
 30
0.0
 11
20.247481
 21
1.382537
 31
0.0
  0
LINE
  5
1db
100
AcDbEntity
  8
Layer_1
 62
7
100
AcDbLine
 10
20.247481
 20
1.382537
 30
0.0
 11
20.926390
 21
1.245897
 31
0.0
  0
LINE
  5
1dc
100
AcDbEntity
  8
Layer_1
 62
7
100
AcDbLine
 10
20.926390
 20
1.245897
 30
0.0
 11
21.594586
 21
1.382537
 31
0.0
  0
LINE
  5
1dd
100
AcDbEntity
  8
Layer_1
 62
7
100
AcDbLine
 10
21.594586
 20
1.382537
 30
0.0
 11
22.142866
 21
1.755657
 31
0.0
  0
LINE
  5
1de
100
AcDbEntity
  8
Layer_1
 62
7
100
AcDbLine
 10
22.142866
 20
1.755657
 30
0.0
 11
22.513894
 21
2.309417
 31
0.0
  0
LINE
  5
1df
100
AcDbEntity
  8
Layer_1
 62
7
100
AcDbLine
 10
22.513894
 20
2.309417
 30
0.0
 11
22.650310
 21
2.988377
 31
0.0
  0
LINE
  5
1e0
100
AcDbEntity
  8
Layer_1
 62
7
100
AcDbLine
 10
22.650310
 20
2.988377
 30
0.0
 11
22.650310
 21
4.957897
 31
0.0
  0
LINE
  5
1e1
100
AcDbEntity
  8
Layer_1
 62
7
100
AcDbLine
 10
22.650310
 20
4.957897
 30
0.0
 11
22.650310
 21
6.927417
 31
0.0
  0
LINE
  5
1e2
100
AcDbEntity
  8
Layer_1
 62
7
100
AcDbLine
 10
22.650310
 20
6.927417
 30
0.0
 11
22.650310
 21
8.897017
 31
0.0
  0
LINE
  5
1e3
100
AcDbEntity
  8
Layer_1
 62
7
100
AcDbLine
 10
22.650310
 20
8.897017
 30
0.0
 11
22.650310
 21
10.866457
 31
0.0
  0
LINE
  5
1e4
100
AcDbEntity
  8
Layer_1
 62
7
100
AcDbLine
 10
22.650310
 20
10.866457
 30
0.0
 11
22.269439
 21
12.751417
 31
0.0
  0
LINE
  5
1e5
100
AcDbEntity
  8
Layer_1
 62
7
100
AcDbLine
 10
22.269439
 20
12.751417
 30
0.0
 11
21.229930
 21
14.295817
 31
0.0
  0
LINE
  5
1e6
100
AcDbEntity
  8
Layer_1
 62
7
100
AcDbLine
 10
21.229930
 20
14.295817
 30
0.0
 11
19.686457
 21
15.339577
 31
0.0
  0
LINE
  5
1e7
100
AcDbEntity
  8
Layer_1
 62
7
100
AcDbLine
 10
19.686457
 20
15.339577
 30
0.0
 11
17.793676
 21
15.723097
 31
0.0
  0
LINE
  5
1e8
100
AcDbEntity
  8
Layer_1
 62
7
100
AcDbLine
 10
16.403418
 20
9.068457
 30
0.0
 11
16.403418
 21
9.517977
 31
0.0
  0
LINE
  5
1e9
100
AcDbEntity
  8
Layer_1
 62
7
100
AcDbLine
 10
16.403418
 20
9.517977
 30
0.0
 11
16.403418
 21
9.967417
 31
0.0
  0
LINE
  5
1ea
100
AcDbEntity
  8
Layer_1
 62
7
100
AcDbLine
 10
16.403418
 20
9.967417
 30
0.0
 11
16.403418
 21
10.416937
 31
0.0
  0
LINE
  5
1eb
100
AcDbEntity
  8
Layer_1
 62
7
100
AcDbLine
 10
16.403418
 20
10.416937
 30
0.0
 11
16.403418
 21
10.866457
 31
0.0
  0
LINE
  5
1ec
100
AcDbEntity
  8
Layer_1
 62
7
100
AcDbLine
 10
16.403418
 20
10.866457
 30
0.0
 11
16.513771
 21
11.404297
 31
0.0
  0
LINE
  5
1ed
100
AcDbEntity
  8
Layer_1
 62
7
100
AcDbLine
 10
16.513771
 20
11.404297
 30
0.0
 11
16.813543
 21
11.846537
 31
0.0
  0
LINE
  5
1ee
100
AcDbEntity
  8
Layer_1
 62
7
100
AcDbLine
 10
16.813543
 20
11.846537
 30
0.0
 11
17.255817
 21
12.146377
 31
0.0
  0
LINE
  5
1ef
100
AcDbEntity
  8
Layer_1
 62
7
100
AcDbLine
 10
17.255817
 20
12.146377
 30
0.0
 11
17.793676
 21
12.256697
 31
0.0
  0
LINE
  5
1f0
100
AcDbEntity
  8
Layer_1
 62
7
100
AcDbLine
 10
17.793676
 20
12.256697
 30
0.0
 11
18.339352
 21
12.146377
 31
0.0
  0
LINE
  5
1f1
100
AcDbEntity
  8
Layer_1
 62
7
100
AcDbLine
 10
18.339352
 20
12.146377
 30
0.0
 11
18.780758
 21
11.846537
 31
0.0
  0
LINE
  5
1f2
100
AcDbEntity
  8
Layer_1
 62
7
100
AcDbLine
 10
18.780758
 20
11.846537
 30
0.0
 11
19.076189
 21
11.404297
 31
0.0
  0
LINE
  5
1f3
100
AcDbEntity
  8
Layer_1
 62
7
100
AcDbLine
 10
19.076189
 20
11.404297
 30
0.0
 11
19.183934
 21
10.866457
 31
0.0
  0
LINE
  5
1f4
100
AcDbEntity
  8
Layer_1
 62
7
100
AcDbLine
 10
19.183934
 20
10.866457
 30
0.0
 11
19.183934
 21
10.416937
 31
0.0
  0
LINE
  5
1f5
100
AcDbEntity
  8
Layer_1
 62
7
100
AcDbLine
 10
19.183934
 20
10.416937
 30
0.0
 11
19.183934
 21
9.967417
 31
0.0
  0
LINE
  5
1f6
100
AcDbEntity
  8
Layer_1
 62
7
100
AcDbLine
 10
19.183934
 20
9.967417
 30
0.0
 11
19.183934
 21
9.517977
 31
0.0
  0
LINE
  5
1f7
100
AcDbEntity
  8
Layer_1
 62
7
100
AcDbLine
 10
19.183934
 20
9.517977
 30
0.0
 11
19.183934
 21
9.068457
 31
0.0
  0
LINE
  5
1f8
100
AcDbEntity
  8
Layer_1
 62
7
100
AcDbLine
 10
19.183934
 20
9.068457
 30
0.0
 11
18.488805
 21
9.068457
 31
0.0
  0
LINE
  5
1f9
100
AcDbEntity
  8
Layer_1
 62
7
100
AcDbLine
 10
18.488805
 20
9.068457
 30
0.0
 11
17.793676
 21
9.068457
 31
0.0
  0
LINE
  5
1fa
100
AcDbEntity
  8
Layer_1
 62
7
100
AcDbLine
 10
17.793676
 20
9.068457
 30
0.0
 11
17.098546
 21
9.068457
 31
0.0
  0
LINE
  5
1fb
100
AcDbEntity
  8
Layer_1
 62
7
100
AcDbLine
 10
17.098546
 20
9.068457
 30
0.0
 11
16.403418
 21
9.068457
 31
0.0
  0
LINE
  5
1fc
100
AcDbEntity
  8
Layer_1
 62
7
100
AcDbLine
 10
12.040612
 20
8.326937
 30
0.0
 11
11.904191
 21
9.005897
 31
0.0
  0
LINE
  5
1fd
100
AcDbEntity
  8
Layer_1
 62
7
100
AcDbLine
 10
11.904191
 20
9.005897
 30
0.0
 11
11.533168
 21
9.559657
 31
0.0
  0
LINE
  5
1fe
100
AcDbEntity
  8
Layer_1
 62
7
100
AcDbLine
 10
11.533168
 20
9.559657
 30
0.0
 11
10.984883
 21
9.932697
 31
0.0
  0
LINE
  5
1ff
100
AcDbEntity
  8
Layer_1
 62
7
100
AcDbLine
 10
10.984883
 20
9.932697
 30
0.0
 11
10.316693
 21
10.069337
 31
0.0
  0
LINE
  5
200
100
AcDbEntity
  8
Layer_1
 62
7
100
AcDbLine
 10
10.316693
 20
10.069337
 30
0.0
 11
9.635466
 21
10.069337
 31
0.0
  0
LINE
  5
201
100
AcDbEntity
  8
Layer_1
 62
7
100
AcDbLine
 10
9.635466
 20
10.069337
 30
0.0
 11
8.954239
 21
10.069337
 31
0.0
  0
LINE
  5
202
100
AcDbEntity
  8
Layer_1
 62
7
100
AcDbLine
 10
8.954239
 20
10.069337
 30
0.0
 11
8.273013
 21
10.069337
 31
0.0
  0
LINE
  5
203
100
AcDbEntity
  8
Layer_1
 62
7
100
AcDbLine
 10
8.273013
 20
10.069337
 30
0.0
 11
7.591786
 21
10.069337
 31
0.0
  0
LINE
  5
204
100
AcDbEntity
  8
Layer_1
 62
7
100
AcDbLine
 10
7.591786
 20
10.069337
 30
0.0
 11
6.923596
 21
9.932697
 31
0.0
  0
LINE
  5
205
100
AcDbEntity
  8
Layer_1
 62
7
100
AcDbLine
 10
6.923596
 20
9.932697
 30
0.0
 11
6.375311
 21
9.559657
 31
0.0
  0
LINE
  5
206
100
AcDbEntity
  8
Layer_1
 62
7
100
AcDbLine
 10
6.375311
 20
9.559657
 30
0.0
 11
6.004288
 21
9.005897
 31
0.0
  0
LINE
  5
207
100
AcDbEntity
  8
Layer_1
 62
7
100
AcDbLine
 10
6.004288
 20
9.005897
 30
0.0
 11
5.867866
 21
8.326937
 31
0.0
  0
LINE
  5
208
100
AcDbEntity
  8
Layer_1
 62
7
100
AcDbLine
 10
5.867866
 20
8.326937
 30
0.0
 11
6.004288
 21
7.647977
 31
0.0
  0
LINE
  5
209
100
AcDbEntity
  8
Layer_1
 62
7
100
AcDbLine
 10
6.004288
 20
7.647977
 30
0.0
 11
6.375311
 21
7.094217
 31
0.0
  0
LINE
  5
20a
100
AcDbEntity
  8
Layer_1
 62
7
100
AcDbLine
 10
6.375311
 20
7.094217
 30
0.0
 11
6.923596
 21
6.721177
 31
0.0
  0
LINE
  5
20b
100
AcDbEntity
  8
Layer_1
 62
7
100
AcDbLine
 10
6.923596
 20
6.721177
 30
0.0
 11
7.591786
 21
6.584537
 31
0.0
  0
LINE
  5
20c
100
AcDbEntity
  8
Layer_1
 62
7
100
AcDbLine
 10
7.591786
 20
6.584537
 30
0.0
 11
7.837399
 21
6.584537
 31
0.0
  0
LINE
  5
20d
100
AcDbEntity
  8
Layer_1
 62
7
100
AcDbLine
 10
7.837399
 20
6.584537
 30
0.0
 11
8.083011
 21
6.584537
 31
0.0
  0
LINE
  5
20e
100
AcDbEntity
  8
Layer_1
 62
7
100
AcDbLine
 10
8.083011
 20
6.584537
 30
0.0
 11
8.328624
 21
6.584537
 31
0.0
  0
LINE
  5
20f
100
AcDbEntity
  8
Layer_1
 62
7
100
AcDbLine
 10
8.328624
 20
6.584537
 30
0.0
 11
8.574235
 21
6.584537
 31
0.0
  0
LINE
  5
210
100
AcDbEntity
  8
Layer_1
 62
7
100
AcDbLine
 10
8.574235
 20
6.584537
 30
0.0
 11
8.574235
 21
6.385257
 31
0.0
  0
LINE
  5
211
100
AcDbEntity
  8
Layer_1
 62
7
100
AcDbLine
 10
8.574235
 20
6.385257
 30
0.0
 11
8.574235
 21
6.185897
 31
0.0
  0
LINE
  5
212
100
AcDbEntity
  8
Layer_1
 62
7
100
AcDbLine
 10
8.574235
 20
6.185897
 30
0.0
 11
8.574235
 21
5.986617
 31
0.0
  0
LINE
  5
213
100
AcDbEntity
  8
Layer_1
 62
7
100
AcDbLine
 10
8.574235
 20
5.986617
 30
0.0
 11
8.574235
 21
5.787337
 31
0.0
  0
LINE
  5
214
100
AcDbEntity
  8
Layer_1
 62
7
100
AcDbLine
 10
8.574235
 20
5.787337
 30
0.0
 11
8.463882
 21
5.249497
 31
0.0
  0
LINE
  5
215
100
AcDbEntity
  8
Layer_1
 62
7
100
AcDbLine
 10
8.463882
 20
5.249497
 30
0.0
 11
8.164109
 21
4.807337
 31
0.0
  0
LINE
  5
216
100
AcDbEntity
  8
Layer_1
 62
7
100
AcDbLine
 10
8.164109
 20
4.807337
 30
0.0
 11
7.721836
 21
4.507497
 31
0.0
  0
LINE
  5
217
100
AcDbEntity
  8
Layer_1
 62
7
100
AcDbLine
 10
7.721836
 20
4.507497
 30
0.0
 11
7.183978
 21
4.397177
 31
0.0
  0
LINE
  5
218
100
AcDbEntity
  8
Layer_1
 62
7
100
AcDbLine
 10
7.183978
 20
4.397177
 30
0.0
 11
6.646124
 21
4.507497
 31
0.0
  0
LINE
  5
219
100
AcDbEntity
  8
Layer_1
 62
7
100
AcDbLine
 10
6.646124
 20
4.507497
 30
0.0
 11
6.203846
 21
4.807337
 31
0.0
  0
LINE
  5
21a
100
AcDbEntity
  8
Layer_1
 62
7
100
AcDbLine
 10
6.203846
 20
4.807337
 30
0.0
 11
5.904069
 21
5.249497
 31
0.0
  0
LINE
  5
21b
100
AcDbEntity
  8
Layer_1
 62
7
100
AcDbLine
 10
5.904069
 20
5.249497
 30
0.0
 11
5.793719
 21
5.787337
 31
0.0
  0
LINE
  5
21c
100
AcDbEntity
  8
Layer_1
 62
7
100
AcDbLine
 10
5.793719
 20
5.787337
 30
0.0
 11
5.793719
 21
7.057177
 31
0.0
  0
LINE
  5
21d
100
AcDbEntity
  8
Layer_1
 62
7
100
AcDbLine
 10
5.793719
 20
7.057177
 30
0.0
 11
5.793719
 21
8.326937
 31
0.0
  0
LINE
  5
21e
100
AcDbEntity
  8
Layer_1
 62
7
100
AcDbLine
 10
5.793719
 20
8.326937
 30
0.0
 11
5.793719
 21
9.596697
 31
0.0
  0
LINE
  5
21f
100
AcDbEntity
  8
Layer_1
 62
7
100
AcDbLine
 10
5.793719
 20
9.596697
 30
0.0
 11
5.793719
 21
10.866457
 31
0.0
  0
LINE
  5
220
100
AcDbEntity
  8
Layer_1
 62
7
100
AcDbLine
 10
5.793719
 20
10.866457
 30
0.0
 11
5.904074
 21
11.404297
 31
0.0
  0
LINE
  5
221
100
AcDbEntity
  8
Layer_1
 62
7
100
AcDbLine
 10
5.904074
 20
11.404297
 30
0.0
 11
6.203846
 21
11.846537
 31
0.0
  0
LINE
  5
222
100
AcDbEntity
  8
Layer_1
 62
7
100
AcDbLine
 10
6.203846
 20
11.846537
 30
0.0
 11
6.646119
 21
12.146377
 31
0.0
  0
LINE
  5
223
100
AcDbEntity
  8
Layer_1
 62
7
100
AcDbLine
 10
6.646119
 20
12.146377
 30
0.0
 11
7.183978
 21
12.256697
 31
0.0
  0
LINE
  5
224
100
AcDbEntity
  8
Layer_1
 62
7
100
AcDbLine
 10
7.183978
 20
12.256697
 30
0.0
 11
7.613799
 21
12.189497
 31
0.0
  0
LINE
  5
225
100
AcDbEntity
  8
Layer_1
 62
7
100
AcDbLine
 10
7.613799
 20
12.189497
 30
0.0
 11
7.994962
 21
11.999177
 31
0.0
  0
LINE
  5
226
100
AcDbEntity
  8
Layer_1
 62
7
100
AcDbLine
 10
7.994962
 20
11.999177
 30
0.0
 11
8.299659
 21
11.701257
 31
0.0
  0
LINE
  5
227
100
AcDbEntity
  8
Layer_1
 62
7
100
AcDbLine
 10
8.299659
 20
11.701257
 30
0.0
 11
8.500088
 21
11.311017
 31
0.0
  0
LINE
  5
228
100
AcDbEntity
  8
Layer_1
 62
7
100
AcDbLine
 10
8.500088
 20
11.311017
 30
0.0
 11
8.849970
 21
10.715577
 31
0.0
  0
LINE
  5
229
100
AcDbEntity
  8
Layer_1
 62
7
100
AcDbLine
 10
8.849970
 20
10.715577
 30
0.0
 11
9.380585
 21
10.314697
 31
0.0
  0
LINE
  5
22a
100
AcDbEntity
  8
Layer_1
 62
7
100
AcDbLine
 10
9.380585
 20
10.314697
 30
0.0
 11
10.022421
 21
10.143257
 31
0.0
  0
LINE
  5
22b
100
AcDbEntity
  8
Layer_1
 62
7
100
AcDbLine
 10
10.022421
 20
10.143257
 30
0.0
 11
10.705964
 21
10.235977
 31
0.0
  0
LINE
  5
22c
100
AcDbEntity
  8
Layer_1
 62
7
100
AcDbLine
 10
10.705964
 20
10.235977
 30
0.0
 11
11.301458
 21
10.585817
 31
0.0
  0
LINE
  5
22d
100
AcDbEntity
  8
Layer_1
 62
7
100
AcDbLine
 10
11.301458
 20
10.585817
 30
0.0
 11
11.702316
 21
11.116377
 31
0.0
  0
LINE
  5
22e
100
AcDbEntity
  8
Layer_1
 62
7
100
AcDbLine
 10
11.702316
 20
11.116377
 30
0.0
 11
11.873782
 21
11.758217
 31
0.0
  0
LINE
  5
22f
100
AcDbEntity
  8
Layer_1
 62
7
100
AcDbLine
 10
11.873782
 20
11.758217
 30
0.0
 11
11.781098
 21
12.441817
 31
0.0
  0
LINE
  5
230
100
AcDbEntity
  8
Layer_1
 62
7
100
AcDbLine
 10
11.781098
 20
12.441817
 30
0.0
 11
11.073224
 21
13.783417
 31
0.0
  0
LINE
  5
231
100
AcDbEntity
  8
Layer_1
 62
7
100
AcDbLine
 10
11.073224
 20
13.783417
 30
0.0
 11
10.010835
 21
14.819177
 31
0.0
  0
LINE
  5
232
100
AcDbEntity
  8
Layer_1
 62
7
100
AcDbLine
 10
10.010835
 20
14.819177
 30
0.0
 11
8.684298
 21
15.486457
 31
0.0
  0
LINE
  5
233
100
AcDbEntity
  8
Layer_1
 62
7
100
AcDbLine
 10
8.684298
 20
15.486457
 30
0.0
 11
7.183978
 21
15.722777
 31
0.0
  0
LINE
  5
234
100
AcDbEntity
  8
Layer_1
 62
7
100
AcDbLine
 10
7.183978
 20
15.722777
 30
0.0
 11
5.299019
 21
15.341897
 31
0.0
  0
LINE
  5
235
100
AcDbEntity
  8
Layer_1
 62
7
100
AcDbLine
 10
5.299019
 20
15.341897
 30
0.0
 11
3.754674
 21
14.302457
 31
0.0
  0
LINE
  5
236
100
AcDbEntity
  8
Layer_1
 62
7
100
AcDbLine
 10
3.754674
 20
14.302457
 30
0.0
 11
2.710822
 21
12.758937
 31
0.0
  0
LINE
  5
237
100
AcDbEntity
  8
Layer_1
 62
7
100
AcDbLine
 10
2.710822
 20
12.758937
 30
0.0
 11
2.327343
 21
10.866217
 31
0.0
  0
LINE
  5
238
100
AcDbEntity
  8
Layer_1
 62
7
100
AcDbLine
 10
2.327343
 20
10.866217
 30
0.0
 11
2.327343
 21
9.596377
 31
0.0
  0
LINE
  5
239
100
AcDbEntity
  8
Layer_1
 62
7
100
AcDbLine
 10
2.327343
 20
9.596377
 30
0.0
 11
2.327343
 21
8.326617
 31
0.0
  0
LINE
  5
23a
100
AcDbEntity
  8
Layer_1
 62
7
100
AcDbLine
 10
2.327343
 20
8.326617
 30
0.0
 11
2.327343
 21
7.056857
 31
0.0
  0
LINE
  5
23b
100
AcDbEntity
  8
Layer_1
 62
7
100
AcDbLine
 10
2.327343
 20
7.056857
 30
0.0
 11
2.327343
 21
5.787097
 31
0.0
  0
LINE
  5
23c
100
AcDbEntity
  8
Layer_1
 62
7
100
AcDbLine
 10
2.327343
 20
5.787097
 30
0.0
 11
2.710822
 21
3.902137
 31
0.0
  0
LINE
  5
23d
100
AcDbEntity
  8
Layer_1
 62
7
100
AcDbLine
 10
2.710822
 20
3.902137
 30
0.0
 11
3.754674
 21
2.357737
 31
0.0
  0
LINE
  5
23e
100
AcDbEntity
  8
Layer_1
 62
7
100
AcDbLine
 10
3.754674
 20
2.357737
 30
0.0
 11
5.299019
 21
1.313977
 31
0.0
  0
LINE
  5
23f
100
AcDbEntity
  8
Layer_1
 62
7
100
AcDbLine
 10
5.299019
 20
1.313977
 30
0.0
 11
7.183978
 21
0.930457
 31
0.0
  0
LINE
  5
240
100
AcDbEntity
  8
Layer_1
 62
7
100
AcDbLine
 10
7.183978
 20
0.930457
 30
0.0
 11
9.076754
 21
1.313977
 31
0.0
  0
LINE
  5
241
100
AcDbEntity
  8
Layer_1
 62
7
100
AcDbLine
 10
9.076754
 20
1.313977
 30
0.0
 11
10.620232
 21
2.357737
 31
0.0
  0
LINE
  5
242
100
AcDbEntity
  8
Layer_1
 62
7
100
AcDbLine
 10
10.620232
 20
2.357737
 30
0.0
 11
11.659738
 21
3.902137
 31
0.0
  0
LINE
  5
243
100
AcDbEntity
  8
Layer_1
 62
7
100
AcDbLine
 10
11.659738
 20
3.902137
 30
0.0
 11
12.040612
 21
5.787097
 31
0.0
  0
LINE
  5
244
100
AcDbEntity
  8
Layer_1
 62
7
100
AcDbLine
 10
12.040612
 20
5.787097
 30
0.0
 11
12.040612
 21
6.421977
 31
0.0
  0
LINE
  5
245
100
AcDbEntity
  8
Layer_1
 62
7
100
AcDbLine
 10
12.040612
 20
6.421977
 30
0.0
 11
12.040612
 21
7.056857
 31
0.0
  0
LINE
  5
246
100
AcDbEntity
  8
Layer_1
 62
7
100
AcDbLine
 10
12.040612
 20
7.056857
 30
0.0
 11
12.040612
 21
7.691657
 31
0.0
  0
LINE
  5
247
100
AcDbEntity
  8
Layer_1
 62
7
100
AcDbLine
 10
12.040612
 20
7.691657
 30
0.0
 11
12.040612
 21
8.326937
 31
0.0
  0
ENDSEC
  0
SECTION
  2
OBJECTS
  0
DICTIONARY
  5
C
330
0
100
AcDbDictionary
  3
ACAD_GROUP
350
D
  3
ACAD_MLINESTYLE
350
17
  0
DICTIONARY
  5
D
330
C
100
AcDbDictionary
  0
DICTIONARY
  5
1A
330
C
100
AcDbDictionary
  0
DICTIONARY
  5
17
330
C
100
AcDbDictionary
  3
STANDARD
350
18
  0
DICTIONARY
  5
19
330
C
100
AcDbDictionary
  0
ENDSEC
  0
EOF
