<?xml version="1.0" encoding="UTF-8" standalone="no"?>
<!-- Created with Inkscape (http://www.inkscape.org/) -->

<svg
   xmlns:dc="http://purl.org/dc/elements/1.1/"
   xmlns:cc="http://creativecommons.org/ns#"
   xmlns:rdf="http://www.w3.org/1999/02/22-rdf-syntax-ns#"
   xmlns:svg="http://www.w3.org/2000/svg"
   xmlns="http://www.w3.org/2000/svg"
   xmlns:sodipodi="http://sodipodi.sourceforge.net/DTD/sodipodi-0.dtd"
   xmlns:inkscape="http://www.inkscape.org/namespaces/inkscape"
   id="svg2"
   sodipodi:version="0.32"
   inkscape:version="0.48.0 r9654"
   width="200.01534"
   height="143.65482"
   version="1.0"
   sodipodi:docname="template5.svg"
   inkscape:output_extension="org.inkscape.output.svg.inkscape"
   inkscape:export-filename="/home/prusnak/work/scm/laserdisplay/svglaser/templates/template5.svg.png"
   inkscape:export-xdpi="200"
   inkscape:export-ydpi="200">
  <metadata
     id="metadata7">
    <rdf:RDF>
      <cc:Work
         rdf:about="">
        <dc:format>image/svg+xml</dc:format>
        <dc:type
           rdf:resource="http://purl.org/dc/dcmitype/StillImage" />
        <dc:title></dc:title>
      </cc:Work>
    </rdf:RDF>
  </metadata>
  <defs
     id="defs5" />
  <sodipodi:namedview
     inkscape:window-height="753"
     inkscape:window-width="1276"
     inkscape:pageshadow="2"
     inkscape:pageopacity="0.0"
     guidetolerance="10.0"
     gridtolerance="10.0"
     objecttolerance="10.0"
     borderopacity="1.0"
     bordercolor="#666666"
     pagecolor="#ffffff"
     id="base"
     width="930px"
     height="676.29px"
     inkscape:zoom="2.0747444"
     inkscape:cx="83.895287"
     inkscape:cy="82.323164"
     inkscape:window-x="0"
     inkscape:window-y="25"
     inkscape:current-layer="svg2"
     showgrid="false"
     inkscape:window-maximized="0"
     fit-margin-top="0"
     fit-margin-left="0"
     fit-margin-right="0"
     fit-margin-bottom="0" />
  <path
     style="fill:none;stroke:#000000;stroke-width:1;stroke-miterlimit:4;stroke-dasharray:none"
     d="m 167.18369,142.54216 c -4.3743,-2.95052 -6.67343,-7.72087 -7.10043,-14.73234 -0.3182,-5.22497 0.20413,-9.16243 2.45146,-18.4798 2.00708,-8.32125 2.27538,-9.986576 2.40326,-14.916606 l 0.11117,-4.28598 -0.62114,-1.14124 c -0.34163,-0.62769 -0.68067,-1.13472 -0.75343,-1.12672 -0.22545,0.0247 -2.9619,3.27119 -4.62448,5.48632 -3.62538,4.83027 -5.68293,9.594756 -6.0576,14.027026 l -0.14496,1.71497 -1.16985,0.24286 c -2.35667,0.48924 -2.41301,0.47315 -2.7453,-0.78394 -0.44408,-1.67997 -0.23435,-5.87616 0.38589,-7.7212 0.8412,-2.502296 2.72924,-6.007246 5.42794,-10.076456 2.9959,-4.51731 4.94905,-8.08477 5.66822,-10.35307 0.58863,-1.85656 0.65941,-1.89957 3.45221,-2.09781 l 1.93829,-0.13759 0.69298,1.76489 c 1.65041,4.20325 2.25789,7.15909 2.45552,11.94792 0.22579,5.47097 -0.35131,10.354966 -2.63125,22.268386 -1.97608,10.32566 -1.95187,10.0896 -1.36449,13.30094 1.0144,5.54607 2.40924,8.75875 5.02633,11.57693 0.63069,0.67915 0.65021,0.76336 0.49279,2.12613 -0.0902,0.78043 -0.24967,1.64557 -0.35449,1.92253 -0.29987,0.79235 -1.23108,0.62562 -2.93864,-0.52615 z m -20.06252,-22.18721 -0.97872,-0.087 0.12031,-0.897 c 0.1846,-1.37629 1.06892,-2.52039 2.48281,-3.21214 1.09672,-0.53657 1.60642,-0.62177 4.76723,-0.79684 1.94657,-0.10781 3.91688,-0.19986 4.37847,-0.20454 l 0.83926,-0.009 0,2.12187 c 0,2.50804 0.6421,2.16035 -5.16186,2.79506 -4.08129,0.44631 -4.47897,0.46415 -6.4475,0.28913 z m 20.20336,-2.86574 c -0.18509,-0.73748 0.0522,-2.20383 0.49541,-3.06081 0.53053,-1.02595 2.03015,-2.56 3.89116,-3.98052 1.91799,-1.46401 3.58235,-3.17202 4.13799,-4.24653 1.19641,-2.31359 2.00685,-9.965816 1.47671,-13.943186 -0.72212,-5.41779 -3.52589,-11.44924 -7.18172,-15.4493 -0.61524,-0.67317 -1.11861,-1.32329 -1.11861,-1.44471 0,-0.12142 1.0741,-1.21513 2.38689,-2.43045 1.68276,-1.55784 2.41837,-2.11065 2.49361,-1.87398 0.2962,0.93166 4.0311,7.89912 4.87008,9.08512 1.81524,2.56607 4.22456,4.39502 6.59078,5.00317 0.55185,0.14183 1.38307,0.40382 1.84715,0.58219 1.22161,0.46953 2.89892,0.4005 5.715,-0.23519 4.21294,-0.95102 5.55409,-0.68075 6.51964,1.31379 0.80066,1.65395 0.64019,1.94581 -1.45663,2.64927 -3.67687,1.23355 -8.52173,1.28682 -13.37742,0.14708 -1.49583,-0.35111 -2.0426,-0.40152 -2.23803,-0.20635 -0.29357,0.29318 -0.30943,2.22209 -0.0443,5.38403 0.14874,1.77378 0.0977,2.54626 -0.30785,4.66125 -1.23284,6.428996 -3.6418,11.134106 -7.59344,14.831296 -1.55873,1.45836 -2.12544,1.84306 -3.14956,2.13808 -0.68686,0.19786 -1.8259,0.64932 -2.5312,1.00325 l -1.28237,0.64352 -0.14332,-0.57102 z M 154.64927,77.998574 c -0.33677,-0.1014 -0.96622,-0.4031 -1.39877,-0.67043 -0.64532,-0.39883 -0.78645,-0.62015 -0.78645,-1.2333 l 0,-0.74724 1.51067,-0.14789 c 3.77379,-0.36945 6.82097,-1.61565 9.82229,-4.01701 3.20185,-2.56179 5.97508,-6.25429 10.48783,-13.96432 1.45236,-2.48137 2.36853,-3.82638 2.60979,-3.83138 0.45238,-0.009 1.48001,1.16766 1.66584,1.90807 0.29946,1.19315 -1.42022,6.9391 -3.06157,10.2296 -3.17034,6.35574 -8.49224,10.68103 -15.08985,12.26402 -1.83565,0.44044 -4.65311,0.5431 -5.75978,0.20988 z M 43.136321,74.866244 6.8802491,74.752474 6.1513931,74.232614 c -0.916756,-0.65389 -2.316666,-3.49747 -2.939274,-5.97043 -1.074617,-4.26831 -1.697123,-8.94052 -2.042572,-15.3305 -0.129763,-2.40028 -0.44544801,-7.58692 -0.70152301,-11.52585 -0.508361,-7.81956 -0.471792,-12.71367 0.149665,-20.03036 C 1.5555081,10.334114 3.2602291,3.7118238 5.5510911,2.2107938 c 0.630135,-0.41288 7.2370339,-0.81488 28.6801999,-1.74505999 20.171032,-0.87499 41.963616,-0.1556 54.213954,1.78964999 2.7627,0.43869 3.27039,0.82703 4.59684,3.51621 1.34074,2.71816 2.10913,5.8077202 2.30907,9.2843002 0.21752,3.78258 0.12855,4.67756 -0.4813,4.84117 -0.77974,0.20918 -3.27461,0.15433 -3.71561,-0.0817 -0.63746,-0.34116 -1.09484,-1.79022 -1.46626,-4.64534 -0.78796,-6.0571702 -1.85841,-7.4812502 -6.436576,-8.5630002 -5.113721,-1.20829 -12.890491,-1.65941 -28.365435,-1.64545 -15.039107,0.0136 -26.654828,0.47636 -38.309732,1.52634 -2.88017,0.25948 -3.7033,0.41484 -4.596946,0.86769 -2.3157049,1.17346 -4.0455339,3.9148502 -5.1054269,8.0909802 -0.812127,3.19989 -0.976293,5.30064 -1.216919,15.57229 -0.345952,14.76779 0.216159,21.9189 2.324176,29.56788 1.2739,4.62236 2.3325339,6.19148 5.0820309,7.53262 3.057369,1.49131 1.860032,1.43818 32.19929,1.42889 26.295991,-0.008 34.97927,-0.17275 38.391929,-0.72817 3.175789,-0.51688 4.995979,-3.81051 6.040979,-10.93118 0.48747,-3.32163 0.54587,-3.52232 1.19353,-4.101 1.31348,-1.1736 3.03493,-1.03236 3.76734,0.3091 0.65814,1.20543 0.5205,5.10302 -0.32239,9.12959 -1.08675,5.19144 -2.08267,8.70573 -2.66239,9.39469 -1.1314,1.34459 -4.46717,2.14786 -9.481515,2.2832 -1.538646,0.0415 -19.11277,0.0243 -39.053609,-0.0383 z m 102.054139,-3.67352 c -1.4582,-0.36036 -2.335,-0.83311 -3.38923,-1.82738 l -0.85907,-0.81021 0.52382,-0.42416 c 0.81095,-0.65667 2.56273,-1.0965 5.7387,-1.44085 1.60019,-0.1735 3.36264,-0.46262 3.91655,-0.6425 6.08736,-1.97677 9.88322,-4.40969 14.80366,-9.48829 2.40791,-2.48531 7.36422,-8.63257 7.73122,-9.58895 0.0744,-0.1939 0.47718,-0.30518 1.10454,-0.30518 1.15455,0 1.15263,-0.13308 0.0467,3.23785 -2.49722,7.6114 -7.65006,13.9108 -15.01199,18.35229 -1.65541,0.99872 -1.96894,1.0946 -7.02619,2.14868 -5.69052,1.18606 -5.88771,1.20659 -7.57868,0.7887 z M 37.061093,66.475884 c 0.215645,-0.56197 8.427574,-11.96138 10.254406,-14.23469 3.761075,-4.68027 9.256014,-10.44234 11.334285,-11.88529 1.546619,-1.07382 4.280859,-1.95654 6.952492,-2.24454 3.181738,-0.34298 29.340409,-0.33053 49.598594,0.0236 17.18649,0.30045 16.71536,0.26091 21.61882,1.81413 1.51857,0.48102 2.80355,0.83207 2.85552,0.78009 0.052,-0.052 -0.18012,-0.45453 -0.51577,-0.89458 -0.7896,-1.03522 -2.54378,-2.18681 -4.3781,-2.87414 -3.06376,-1.14802 -4.10228,-1.21908 -21.5947,-1.47761 -15.773585,-0.23313 -22.869015,-0.40051 -41.739252,-0.98462 l -8.840215,-0.27365 -1.312293,-0.65445 c -2.311507,-1.15276 -4.158974,-3.18541 -13.273833,-14.60432 -4.840702,-6.06434 -8.801279,-11.0801302 -8.801279,-11.1462202 0,-0.22532 5.034391,0.18536 5.353882,0.43674 0.175072,0.13776 2.526591,3.2047402 5.225601,6.8155302 5.81275,7.77642 7.548428,9.88164 10.222222,12.39864 2.647864,2.49259 3.57703,3.10618 5.230766,3.45421 3.186759,0.67068 11.851502,0.8274 31.223996,0.56476 22.459135,-0.30449 29.987125,-0.14259 33.495625,0.72038 2.80164,0.68911 6.24192,1.88375 8.39194,2.91412 0.90744,0.43488 1.68908,0.75149 1.73699,0.70358 0.20884,-0.20884 -0.66751,-1.45723 -1.70264,-2.42547 -3.2468,-3.037 -8.08226,-4.929 -14.13327,-5.53 -2.42425,-0.24079 -16.33426,-0.35185 -25.401635,-0.20283 -2.8311,0.0465 -8.47094,0.0823 -12.53296,0.0794 -6.63455,-0.005 -7.665849,-0.0557 -10.142728,-0.50145 -3.280726,-0.59048 -6.948937,-1.76789 -9.107365,-2.92325 -1.294257,-0.69279 -1.648757,-1.00917 -2.058089,-1.83677 -1.17752,-2.38076 -1.301258,-8.86284 -0.267942,-14.0363402 l 0.234679,-1.17496 1.774555,0 c 0.976005,0 1.790548,0.0252 1.810093,0.056 0.01955,0.0308 0.09921,2.52337 0.177028,5.5391202 0.154877,6.00215 0.229443,6.37505 1.583086,7.91676 0.986894,1.12401 1.608124,1.40753 3.70029,1.68871 4.431208,0.59557 7.825445,0.69318 23.968253,0.68934 9.962185,-0.002 18.191265,0.093 19.806565,0.22953 7.57625,0.64041 13.63908,2.15376 18.91744,4.722 2.55937,1.2453 2.84455,1.45237 4.66984,3.39086 3.43409,3.64707 6.7594,8.5211 8.66133,12.69521 l 0.8668,1.90232 -0.081,-1.36372 c -0.18074,-3.04142 -4.65963,-10.45592 -11.67026,-19.31934 -1.30624,-1.65144 -2.37497,-3.08087 -2.37497,-3.1765 0,-0.32192 0.98992,-0.87066 1.57067,-0.87066 1.0223,0 3.65862,1.77956 4.85673,3.27837 6.11321,7.64754 9.93227,13.87609 11.71243,19.10192 0.39833,1.16937 0.96166,2.3758 1.25183,2.68094 l 0.52758,0.55481 0.677,-0.67699 0.67699,-0.677 -0.57899,-2.00394 c -1.29298,-4.47515 -2.70338,-7.24237 -8.14037,-15.97151 -4.14844,-6.66037 -4.17434,-6.73421 -2.36219,-6.73421 0.78444,0 1.26247,0.20517 2.60228,1.11685 0.90273,0.61426 1.80112,1.24371 1.99642,1.39877 0.5721,0.45422 5.05466,8.05513 6.60966,11.20777 0.78583,1.5932 1.78995,4.06688 2.23137,5.49706 1.17009,3.79099 1.17397,3.79523 2.44757,2.677 0.81497,-0.71555 0.82872,-0.75432 0.69849,-1.96991 -0.30374,-2.83529 -1.93309,-7.92387 -3.86514,-12.07117 -0.53881,-1.15658 -0.97965,-2.23764 -0.97965,-2.40235 0,-0.16472 0.29162,-0.62586 0.64803,-1.02476 0.6239,-0.69826 0.67182,-0.71297 1.28687,-0.39518 1.04051,0.53762 2.82504,2.48841 3.58577,3.91984 0.38989,0.73365 1.28567,3.2726 1.9906,5.64211 0.70494,2.36951 1.36219,4.30821 1.46054,4.30821 0.0984,0 0.51184,-0.41806 0.91884,-0.92902 1.87814,-2.35789 2.55917,-2.68613 3.49852,-1.68624 0.60747,0.64662 0.61786,1.49231 0.039,3.17476 -0.59812,1.73847 -0.57488,2.2201 0.12243,2.53781 0.31352,0.14286 0.71637,0.25973 0.89521,0.25973 0.43973,0 0.40897,0.58159 -0.11066,2.09191 -1.53716,4.46783 -4.85177,8.40974 -10.0829,11.99109 -4.96924,3.40206 -11.41656,5.52854 -17.53097,5.78212 -3.03297,0.12578 -4.79759,-0.22626 -6.30404,-1.25768 -1.15749,-0.79249 -1.19897,-1.48779 -0.13168,-2.20703 1.16598,-0.78575 2.70708,-1.15281 5.92451,-1.4111 9.99189,-0.80211 17.55319,-4.433 23.04189,-11.06457 0.86142,-1.04078 0.88084,-1.09198 0.25966,-0.68438 -6.81582,4.47222 -14.24213,7.73734 -19.8686,8.73562 -1.68798,0.29948 -2.94134,0.36217 -5.48317,0.27421 -3.4913,-0.12081 -5.57554,-0.54011 -7.98803,-1.60703 -1.33409,-0.59 -1.50427,-0.8957 -1.40647,-2.52639 l 0.0568,-0.94725 -18.35184,-0.11286 c -10.09352,-0.0621 -20.714345,-0.11251 -23.601845,-0.11209 -6.677827,9.6e-4 -13.172087,0.43049 -18.696917,1.2366 -2.607716,0.38048 -3.064233,0.72009 -3.936147,2.92814 -0.587432,1.48763 -0.702621,4.36912 -0.340639,8.52106 0.225392,2.58524 -0.04902,4.10754 -0.840338,4.66181 -0.288259,0.2019 -1.002945,0.32614 -1.876104,0.32614 -1.676297,0 -1.675656,9.5e-4 -2.047718,-3.03283 -0.544943,-4.44348 -0.208681,-9.27361 0.871612,-12.51988 0.43318,-1.30171 0.618634,-1.55377 1.727347,-2.3477 2.33693,-1.67344 6.24101,-2.79152 11.698812,-3.35039 1.337414,-0.13695 6.922349,-0.23573 12.980572,-0.22959 5.84825,0.006 16.323375,-0.055 23.278055,-0.13536 8.09665,-0.0936 14.8918,-0.0558 18.89176,0.1051 3.43579,0.13819 6.29027,0.20787 6.34329,0.15485 0.22275,-0.22275 -2.39381,-1.47983 -3.95872,-1.90189 -3.08126,-0.83102 -4.49356,-0.91931 -18.03119,-1.12717 -7.3855,-0.1134 -19.370155,-0.32432 -26.632555,-0.46872 -20.062066,-0.39889 -21.891986,-0.39272 -23.611207,0.0796 -3.037607,0.83448 -5.694349,2.11293 -7.945006,3.82323 -2.273913,1.72797 -4.895822,4.67231 -11.133105,12.50221 l -6.7301,8.44856 -2.338437,0 c -1.973756,0 -2.318595,-0.0517 -2.211197,-0.33158 z"
     id="path2161"
     inkscape:connector-curvature="0" />
</svg>
