<?xml version="1.0" encoding="UTF-8" standalone="no"?>
<svg
   xmlns:dc="http://purl.org/dc/elements/1.1/"
   xmlns:cc="http://creativecommons.org/ns#"
   xmlns:rdf="http://www.w3.org/1999/02/22-rdf-syntax-ns#"
   xmlns:svg="http://www.w3.org/2000/svg"
   xmlns="http://www.w3.org/2000/svg"
   xmlns:sodipodi="http://sodipodi.sourceforge.net/DTD/sodipodi-0.dtd"
   xmlns:inkscape="http://www.inkscape.org/namespaces/inkscape"
   xml:space="preserve"
   height="83.282501"
   width="83.28125"
   version="1.1"
   id="svg2"
   inkscape:version="0.47 r22583"
   sodipodi:docname="template4.svg"
   inkscape:export-filename="/home/prusnak/work/scm/laserdisplay/svglaser/templates/template4.svg.png"
   inkscape:export-xdpi="200"
   inkscape:export-ydpi="200"><metadata
   id="metadata78"><rdf:RDF><cc:Work
       rdf:about=""><dc:format>image/svg+xml</dc:format><dc:type
         rdf:resource="http://purl.org/dc/dcmitype/StillImage" /><dc:title /></cc:Work></rdf:RDF></metadata><sodipodi:namedview
   pagecolor="#ffffff"
   bordercolor="#666666"
   borderopacity="1"
   objecttolerance="10"
   gridtolerance="10"
   guidetolerance="10"
   inkscape:pageopacity="0"
   inkscape:pageshadow="2"
   inkscape:window-width="1280"
   inkscape:window-height="949"
   id="namedview76"
   showgrid="false"
   inkscape:zoom="4"
   inkscape:cx="86.836772"
   inkscape:cy="47.249207"
   inkscape:window-x="0"
   inkscape:window-y="25"
   inkscape:window-maximized="1"
   inkscape:current-layer="svg2"
   inkscape:snap-bbox="true"
   inkscape:snap-global="true"
   fit-margin-top="0"
   fit-margin-left="0"
   fit-margin-right="0"
   fit-margin-bottom="0" />
<defs
   id="defs4"><inkscape:perspective
   sodipodi:type="inkscape:persp3d"
   inkscape:vp_x="0 : 48 : 1"
   inkscape:vp_y="0 : 1000 : 0"
   inkscape:vp_z="400 : 48 : 1"
   inkscape:persp3d-origin="200 : 32 : 1"
   id="perspective80" />



































</defs>
<path
   id="path40"
   style="fill:none;fill-opacity:1;fill-rule:nonzero;stroke:#000000"
   d="m 35.5175,44.2225 12.0775,0 0,-5.075 -12.0775,0 0,5.075 z m 14.34,2.2625 -16.60125,0 0,-9.59875 16.60125,0 0,9.59875 z m -8.3,-19.6375 c -1.17375,0 -2.13,0.955 -2.13,2.13 0,1.17375 0.95625,2.12875 2.13,2.12875 1.1725,0 2.12875,-0.955 2.12875,-2.12875 0,-1.175 -0.95625,-2.13 -2.12875,-2.13 m 0,6.52 c -2.4225,0 -4.3925,-1.97 -4.3925,-4.39125 0,-2.42125 1.97,-4.3925 4.3925,-4.3925 2.42125,0 4.39125,1.97125 4.39125,4.3925 0,2.42125 -1.97,4.39125 -4.39125,4.39125 m 7.775,23.9425 c -1.17375,0 -2.13,0.95625 -2.13,2.13 0,1.17375 0.95625,2.12875 2.13,2.12875 1.1725,0 2.12875,-0.955 2.12875,-2.12875 0,-1.17375 -0.95625,-2.13 -2.12875,-2.13 m 0,6.52125 c -2.4225,0 -4.3925,-1.97 -4.3925,-4.39125 0,-2.42125 1.97,-4.3925 4.3925,-4.3925 2.42125,0 4.39125,1.97125 4.39125,4.3925 0,2.42125 -1.97,4.39125 -4.39125,4.39125 m 7.475,-36.98375 c -1.17375,0 -2.13,0.955 -2.13,2.13 0,1.17375 0.95625,2.12875 2.13,2.12875 1.17375,0 2.1275,-0.955 2.1275,-2.12875 0,-1.175 -0.95375,-2.13 -2.1275,-2.13 m 0,6.52 c -2.4225,0 -4.3925,-1.97 -4.3925,-4.39125 0,-2.42125 1.97,-4.3925 4.3925,-4.3925 2.42125,0 4.39,1.97125 4.39,4.3925 0,2.42125 -1.96875,4.39125 -4.39,4.39125 M 33.76375,57.31 c -1.17375,0 -2.1275,0.955 -2.1275,2.13 0,1.17375 0.95375,2.12875 2.1275,2.12875 1.17375,0 2.13,-0.955 2.13,-2.12875 0,-1.175 -0.95625,-2.13 -2.13,-2.13 m 0,6.52125 c -2.42125,0 -4.39,-1.97 -4.39,-4.39125 0,-2.42125 1.96875,-4.3925 4.39,-4.3925 2.4225,0 4.3925,1.97125 4.3925,4.3925 0,2.42125 -1.97,4.39125 -4.3925,4.39125 M 60.67,42.1225 c -1.1725,0 -2.13,0.955 -2.13,2.13 0,1.175 0.9575,2.12875 2.13,2.12875 1.17375,0 2.13,-0.95375 2.13,-2.12875 0,-1.175 -0.95625,-2.13 -2.13,-2.13 m 0,6.52125 c -2.42125,0 -4.3925,-1.97 -4.3925,-4.39125 0,-2.42125 1.97125,-4.3925 4.3925,-4.3925 2.4225,0 4.3925,1.97125 4.3925,4.3925 0,2.42125 -1.97,4.39125 -4.3925,4.39125 M 22.4225,42.1225 c -1.17375,0 -2.12875,0.955 -2.12875,2.13 0,1.175 0.955,2.12875 2.12875,2.12875 1.17375,0 2.13,-0.95375 2.13,-2.12875 0,-1.175 -0.95625,-2.13 -2.13,-2.13 m 0,6.52125 c -2.4225,0 -4.39125,-1.97 -4.39125,-4.39125 0,-2.42125 1.96875,-4.3925 4.39125,-4.3925 2.4225,0 4.3925,1.97125 4.3925,4.3925 0,2.42125 -1.97,4.39125 -4.3925,4.39125 m 3.86,-21.79625 c -1.17375,0 -2.12875,0.955 -2.12875,2.13 0,1.17375 0.955,2.12875 2.12875,2.12875 1.1725,0 2.12875,-0.955 2.12875,-2.12875 0,-1.175 -0.95625,-2.13 -2.12875,-2.13 m 0,6.52 c -2.4225,0 -4.3925,-1.97 -4.3925,-4.39125 0,-2.42125 1.97,-4.3925 4.3925,-4.3925 2.42125,0 4.39125,1.97125 4.39125,4.3925 0,2.42125 -1.97,4.39125 -4.39125,4.39125 m 0.25,32.6925 c 4.505,2.77875 9.67125,4.24125 15.015,4.24125 5.34375,0 10.51125,-1.4625 15.01625,-4.24125 -1.4825,-2.65375 -1.06625,-6.01 1.16125,-8.2375 1.305,-1.305 3.04,-2.02375 4.885,-2.02375 1.1775,0 2.33125,0.3025 3.34875,0.865 6.91875,-11.21625 5.2525,-25.8825 -4.14625,-35.2825 -3.775,-3.775 -8.46375,-6.3925 -13.61875,-7.615 -0.82875,2.92375 -3.49625,5.0025 -6.645,5.0025 -3.14875,0 -5.81625,-2.07875 -6.645,-5.0025 -5.155,1.2225 -9.845,3.84125 -13.61875,7.61625 -9.40125,9.4 -11.0675,24.065 -4.15,35.28125 1.01875,-0.5625 2.17375,-0.865 3.35,-0.865 1.84625,0 3.58,0.71875 4.88625,2.02375 2.22875,2.2275 2.645,5.58375 1.16125,8.2375 m 15.01375,6.50125 c -6.17625,0 -12.135,-1.8125 -17.2325,-5.24125 l -1.0375,-0.69625 0.795,-0.96125 C 25.6025,63.80625 25.47375,61.125 23.77,59.42125 22.8925,58.54375 21.725,58.06 20.48375,58.06 c -1.0775,0 -2.12625,0.37625 -2.95375,1.05875 l -0.9625,0.79375 -0.69625,-1.035 C 7.65,46.655 9.2525,30.2125 19.68375,19.7825 c 4.3625,-4.365 9.85875,-7.29625 15.89375,-8.47875 l 1.225,-0.23875 0.12,1.24125 C 37.15125,14.7 39.14,16.505 41.5475,16.505 c 2.4075,0 4.39625,-1.805 4.62625,-4.19875 l 0.12,-1.24125 1.22375,0.23875 c 6.0325,1.1825 11.53,4.11375 15.89375,8.47625 10.43,10.43125 12.03375,26.875 3.81125,39.0975 l -0.69625,1.035 -0.96125,-0.795 C 64.735,58.435 63.6875,58.06 62.60875,58.06 c -1.24125,0 -2.4075,0.4825 -3.28625,1.36 -1.7025,1.70375 -1.83125,4.38625 -0.30125,6.2425 L 59.815,66.62375 58.78,67.32 c -5.0975,3.42875 -11.0575,5.24125 -17.23375,5.24125 M 41.64,5.3725 c -19.99875,0 -36.2675,16.27125 -36.2675,36.27 0,9.6875 3.7725,18.795 10.6225,25.645 6.85125,6.85 15.9575,10.6225 25.645,10.6225 19.99875,0 36.27,-16.27 36.27,-36.2675 -0.0012,-20 -16.27125,-36.27 -36.27,-36.27 m 0,77.91 C 30.51875,83.2825 20.06,78.95125 12.19625,71.08625 4.33125,63.22125 0,52.765 0,41.6425 0,18.68125 18.68,0.00125 41.64,0 c 22.96125,0 41.64125,18.68 41.64125,41.6425 0,22.96 -18.68,41.64 -41.64125,41.64" />
</svg>