  0
SECTION
  2
HEADER
  9
$ACADVER
  1
AC1014
  9
$HANDSEED
  5
FFFF
  9
$MEASUREMENT
 70
     1
  0
ENDSEC
  0
SECTION
  2
TABLES
  0
TABLE
  2
VPORT
  5
8
330
0
100
AcDbSymbolTable
 70
     4
  0
VPORT
  5
2E
330
8
100
AcDbSymbolTableRecord
100
AcDbViewportTableRecord
  2
*ACTIVE
 70
     0
 10
0.0
 20
0.0
 11
1.0
 21
1.0
 12
210.0
 22
148.5
 13
0.0
 23
0.0
 14
10.0
 24
10.0
 15
10.0
 25
10.0
 16
0.0
 26
0.0
 36
1.0
 17
0.0
 27
0.0
 37
0.0
 40
341.0
 41
1.24
 42
50.0
 43
0.0
 44
0.0
 50
0.0
 51
0.0
 71
     0
 72
   100
 73
     1
 74
     3
 75
     0
 76
     0
 77
     0
 78
     0
  0
ENDTAB
  0
TABLE
  2
LTYPE
  5
5
330
0
100
AcDbSymbolTable
 70
     1
  0
LTYPE
  5
14
330
5
100
AcDbSymbolTableRecord
100
AcDbLinetypeTableRecord
  2
BYBLOCK
 70
     0
  3

 72
    65
 73
     0
 40
0.0
  0
LTYPE
  5
15
330
5
100
AcDbSymbolTableRecord
100
AcDbLinetypeTableRecord
  2
BYLAYER
 70
     0
  3

 72
    65
 73
     0
 40
0.0
  0
LTYPE
  5
16
330
5
100
AcDbSymbolTableRecord
100
AcDbLinetypeTableRecord
  2
CONTINUOUS
 70
     0
  3
Solid line
 72
    65
 73
     0
 40
0.0
  0
ENDTAB
  0
TABLE
  2
LAYER
  5
2
100
AcDbSymbolTable
 70
2
  0
LAYER
  5
50
100
AcDbSymbolTableRecord
100
AcDbLayerTableRecord
  2
0
 70
0
  6
CONTINUOUS
  0
LAYER
  5
51
100
AcDbSymbolTableRecord
100
AcDbLayerTableRecord
  2
Layer_1
 70
0
  6
CONTINUOUS
  0
ENDTAB
  0
TABLE
  2
STYLE
  5
3
330
0
100
AcDbSymbolTable
 70
     1
  0
STYLE
  5
11
330
3
100
AcDbSymbolTableRecord
100
AcDbTextStyleTableRecord
  2
STANDARD
 70
     0
 40
0.0
 41
1.0
 50
0.0
 71
     0
 42
2.5
  3
txt
  4

  0
ENDTAB
  0
TABLE
  2
VIEW
  5
6
330
0
100
AcDbSymbolTable
 70
     0
  0
ENDTAB
  0
TABLE
  2
UCS
  5
7
330
0
100
AcDbSymbolTable
 70
     0
  0
ENDTAB
  0
TABLE
  2
APPID
  5
9
330
0
100
AcDbSymbolTable
 70
     2
  0
APPID
  5
12
330
9
100
AcDbSymbolTableRecord
100
AcDbRegAppTableRecord
  2
ACAD
 70
     0
  0
ENDTAB
  0
TABLE
  2
DIMSTYLE
  5
A
330
0
100
AcDbSymbolTable
 70
     1
  0
DIMSTYLE
105
27
330
A
100
AcDbSymbolTableRecord
100
AcDbDimStyleTableRecord
  2
ISO-25
 70
     0
  3

  4

  5

  6

  7

 40
1.0
 41
2.5
 42
0.625
 43
3.75
 44
1.25
 45
0.0
 46
0.0
 47
0.0
 48
0.0
140
2.5
141
2.5
142
0.0
143
0.03937007874016
144
1.0
145
0.0
146
1.0
147
0.625
 71
     0
 72
     0
 73
     0
 74
     0
 75
     0
 76
     0
 77
     1
 78
     8
170
     0
171
     3
172
     1
173
     0
174
     0
175
     0
176
     0
177
     0
178
     0
270
     2
271
     2
272
     2
273
     2
274
     3
340
11
275
     0
280
     0
281
     0
282
     0
283
     0
284
     8
285
     0
286
     0
287
     3
288
     0
  0
ENDTAB
  0
TABLE
  2
BLOCK_RECORD
  5
1
330
0
100
AcDbSymbolTable
 70
     1
  0
BLOCK_RECORD
  5
1F
330
1
100
AcDbSymbolTableRecord
100
AcDbBlockTableRecord
  2
*MODEL_SPACE
  0
BLOCK_RECORD
  5
1B
330
1
100
AcDbSymbolTableRecord
100
AcDbBlockTableRecord
  2
*PAPER_SPACE
  0
ENDTAB
  0
ENDSEC
  0
SECTION
  2
BLOCKS
  0
BLOCK
  5
20
330
1F
100
AcDbEntity
  8
0
100
AcDbBlockBegin
  2
*MODEL_SPACE
 70
     0
 10
0.0
 20
0.0
 30
0.0
  3
*MODEL_SPACE
  1

  0
ENDBLK
  5
21
330
1F
100
AcDbEntity
  8
0
100
AcDbBlockEnd
  0
BLOCK
  5
1C
330
1B
100
AcDbEntity
 67
     1
  8
0
100
AcDbBlockBegin
  2
*PAPER_SPACE
  1

  0
ENDBLK
  5
1D
330
1B
100
AcDbEntity
 67
     1
  8
0
100
AcDbBlockEnd
  0
ENDSEC
  0
SECTION
  2
ENTITIES
  0
LINE
  5
100
100
AcDbEntity
  8
Layer_1
 62
7
100
AcDbLine
 10
42.850000
 20
234.637720
 30
0.0
 11
43.158688
 21
233.284314
 31
0.0
  0
LINE
  5
101
100
AcDbEntity
  8
Layer_1
 62
7
100
AcDbLine
 10
43.158688
 20
233.284314
 30
0.0
 11
43.467964
 21
231.844762
 31
0.0
  0
LINE
  5
102
100
AcDbEntity
  8
Layer_1
 62
7
100
AcDbLine
 10
43.467964
 20
231.844762
 30
0.0
 11
43.777633
 21
230.318872
 31
0.0
  0
LINE
  5
103
100
AcDbEntity
  8
Layer_1
 62
7
100
AcDbLine
 10
43.777633
 20
230.318872
 30
0.0
 11
44.087498
 21
228.706456
 31
0.0
  0
LINE
  5
104
100
AcDbEntity
  8
Layer_1
 62
7
100
AcDbLine
 10
44.087498
 20
228.706456
 30
0.0
 11
44.397363
 21
227.007323
 31
0.0
  0
LINE
  5
105
100
AcDbEntity
  8
Layer_1
 62
7
100
AcDbLine
 10
44.397363
 20
227.007323
 30
0.0
 11
44.707033
 21
225.221282
 31
0.0
  0
LINE
  5
106
100
AcDbEntity
  8
Layer_1
 62
7
100
AcDbLine
 10
44.707033
 20
225.221282
 30
0.0
 11
45.016310
 21
223.348145
 31
0.0
  0
LINE
  5
107
100
AcDbEntity
  8
Layer_1
 62
7
100
AcDbLine
 10
45.016310
 20
223.348145
 30
0.0
 11
45.325000
 21
221.387720
 31
0.0
  0
LINE
  5
108
100
AcDbEntity
  8
Layer_1
 62
7
100
AcDbLine
 10
45.325000
 20
221.387720
 30
0.0
 11
45.613702
 21
219.436215
 31
0.0
  0
LINE
  5
109
100
AcDbEntity
  8
Layer_1
 62
7
100
AcDbLine
 10
45.613702
 20
219.436215
 30
0.0
 11
45.863278
 21
217.590096
 31
0.0
  0
LINE
  5
10a
100
AcDbEntity
  8
Layer_1
 62
7
100
AcDbLine
 10
45.863278
 20
217.590096
 30
0.0
 11
46.073922
 21
215.849565
 31
0.0
  0
LINE
  5
10b
100
AcDbEntity
  8
Layer_1
 62
7
100
AcDbLine
 10
46.073922
 20
215.849565
 30
0.0
 11
46.245830
 21
214.214821
 31
0.0
  0
LINE
  5
10c
100
AcDbEntity
  8
Layer_1
 62
7
100
AcDbLine
 10
46.245830
 20
214.214821
 30
0.0
 11
46.379197
 21
212.686063
 31
0.0
  0
LINE
  5
10d
100
AcDbEntity
  8
Layer_1
 62
7
100
AcDbLine
 10
46.379197
 20
212.686063
 30
0.0
 11
46.474218
 21
211.263494
 31
0.0
  0
LINE
  5
10e
100
AcDbEntity
  8
Layer_1
 62
7
100
AcDbLine
 10
46.474218
 20
211.263494
 30
0.0
 11
46.531090
 21
209.947313
 31
0.0
  0
LINE
  5
10f
100
AcDbEntity
  8
Layer_1
 62
7
100
AcDbLine
 10
46.531090
 20
209.947313
 30
0.0
 11
46.550002
 21
208.737720
 31
0.0
  0
LINE
  5
110
100
AcDbEntity
  8
Layer_1
 62
7
100
AcDbLine
 10
46.550002
 20
208.737720
 30
0.0
 11
46.458821
 21
204.507819
 31
0.0
  0
LINE
  5
111
100
AcDbEntity
  8
Layer_1
 62
7
100
AcDbLine
 10
46.458821
 20
204.507819
 30
0.0
 11
46.185149
 21
200.297150
 31
0.0
  0
LINE
  5
112
100
AcDbEntity
  8
Layer_1
 62
7
100
AcDbLine
 10
46.185149
 20
200.297150
 30
0.0
 11
45.728794
 21
196.105724
 31
0.0
  0
LINE
  5
113
100
AcDbEntity
  8
Layer_1
 62
7
100
AcDbLine
 10
45.728794
 20
196.105724
 30
0.0
 11
45.089562
 21
191.933556
 31
0.0
  0
LINE
  5
114
100
AcDbEntity
  8
Layer_1
 62
7
100
AcDbLine
 10
45.089562
 20
191.933556
 30
0.0
 11
44.267259
 21
187.780658
 31
0.0
  0
LINE
  5
115
100
AcDbEntity
  8
Layer_1
 62
7
100
AcDbLine
 10
44.267259
 20
187.780658
 30
0.0
 11
43.261694
 21
183.647045
 31
0.0
  0
LINE
  5
116
100
AcDbEntity
  8
Layer_1
 62
7
100
AcDbLine
 10
43.261694
 20
183.647045
 30
0.0
 11
42.072673
 21
179.532727
 31
0.0
  0
LINE
  5
117
100
AcDbEntity
  8
Layer_1
 62
7
100
AcDbLine
 10
42.072673
 20
179.532727
 30
0.0
 11
40.700000
 21
175.437720
 31
0.0
  0
LINE
  5
118
100
AcDbEntity
  8
Layer_1
 62
7
100
AcDbLine
 10
40.700000
 20
175.437720
 30
0.0
 11
39.279149
 21
171.361626
 31
0.0
  0
LINE
  5
119
100
AcDbEntity
  8
Layer_1
 62
7
100
AcDbLine
 10
39.279149
 20
171.361626
 30
0.0
 11
37.791422
 21
167.304179
 31
0.0
  0
LINE
  5
11a
100
AcDbEntity
  8
Layer_1
 62
7
100
AcDbLine
 10
37.791422
 20
167.304179
 30
0.0
 11
36.236627
 21
163.265586
 31
0.0
  0
LINE
  5
11b
100
AcDbEntity
  8
Layer_1
 62
7
100
AcDbLine
 10
36.236627
 20
163.265586
 30
0.0
 11
34.614576
 21
159.246057
 31
0.0
  0
LINE
  5
11c
100
AcDbEntity
  8
Layer_1
 62
7
100
AcDbLine
 10
34.614576
 20
159.246057
 30
0.0
 11
32.925078
 21
155.245798
 31
0.0
  0
LINE
  5
11d
100
AcDbEntity
  8
Layer_1
 62
7
100
AcDbLine
 10
32.925078
 20
155.245798
 30
0.0
 11
31.167942
 21
151.265016
 31
0.0
  0
LINE
  5
11e
100
AcDbEntity
  8
Layer_1
 62
7
100
AcDbLine
 10
31.167942
 20
151.265016
 30
0.0
 11
29.342980
 21
147.303920
 31
0.0
  0
LINE
  5
11f
100
AcDbEntity
  8
Layer_1
 62
7
100
AcDbLine
 10
29.342980
 20
147.303920
 30
0.0
 11
27.450000
 21
143.362720
 31
0.0
  0
LINE
  5
120
100
AcDbEntity
  8
Layer_1
 62
7
100
AcDbLine
 10
27.450000
 20
143.362720
 30
0.0
 11
25.518121
 21
139.523408
 31
0.0
  0
LINE
  5
121
100
AcDbEntity
  8
Layer_1
 62
7
100
AcDbLine
 10
25.518121
 20
139.523408
 30
0.0
 11
23.576587
 21
135.713552
 31
0.0
  0
LINE
  5
122
100
AcDbEntity
  8
Layer_1
 62
7
100
AcDbLine
 10
23.576587
 20
135.713552
 30
0.0
 11
21.625406
 21
131.932968
 31
0.0
  0
LINE
  5
123
100
AcDbEntity
  8
Layer_1
 62
7
100
AcDbLine
 10
21.625406
 20
131.932968
 30
0.0
 11
19.664583
 21
128.181472
 31
0.0
  0
LINE
  5
124
100
AcDbEntity
  8
Layer_1
 62
7
100
AcDbLine
 10
19.664583
 20
128.181472
 30
0.0
 11
17.694125
 21
124.458888
 31
0.0
  0
LINE
  5
125
100
AcDbEntity
  8
Layer_1
 62
7
100
AcDbLine
 10
17.694125
 20
124.458888
 30
0.0
 11
15.714037
 21
120.765024
 31
0.0
  0
LINE
  5
126
100
AcDbEntity
  8
Layer_1
 62
7
100
AcDbLine
 10
15.714037
 20
120.765024
 30
0.0
 11
13.724326
 21
117.099696
 31
0.0
  0
LINE
  5
127
100
AcDbEntity
  8
Layer_1
 62
7
100
AcDbLine
 10
13.724326
 20
117.099696
 30
0.0
 11
11.725000
 21
113.462720
 31
0.0
  0
LINE
  5
128
100
AcDbEntity
  8
Layer_1
 62
7
100
AcDbLine
 10
11.725000
 20
113.462720
 30
0.0
 11
9.855394
 21
109.941016
 31
0.0
  0
LINE
  5
129
100
AcDbEntity
  8
Layer_1
 62
7
100
AcDbLine
 10
9.855394
 20
109.941016
 30
0.0
 11
8.100811
 21
106.467456
 31
0.0
  0
LINE
  5
12a
100
AcDbEntity
  8
Layer_1
 62
7
100
AcDbLine
 10
8.100811
 20
106.467456
 30
0.0
 11
6.461452
 21
103.042056
 31
0.0
  0
LINE
  5
12b
100
AcDbEntity
  8
Layer_1
 62
7
100
AcDbLine
 10
6.461452
 20
103.042056
 30
0.0
 11
4.937516
 21
99.664816
 31
0.0
  0
LINE
  5
12c
100
AcDbEntity
  8
Layer_1
 62
7
100
AcDbLine
 10
4.937516
 20
99.664816
 30
0.0
 11
3.529202
 21
96.335752
 31
0.0
  0
LINE
  5
12d
100
AcDbEntity
  8
Layer_1
 62
7
100
AcDbLine
 10
3.529202
 20
96.335752
 30
0.0
 11
2.236712
 21
93.054872
 31
0.0
  0
LINE
  5
12e
100
AcDbEntity
  8
Layer_1
 62
7
100
AcDbLine
 10
2.236712
 20
93.054872
 30
0.0
 11
1.060245
 21
89.822192
 31
0.0
  0
LINE
  5
12f
100
AcDbEntity
  8
Layer_1
 62
7
100
AcDbLine
 10
1.060245
 20
89.822192
 30
0.0
 11
0.000000
 21
86.637720
 31
0.0
  0
LINE
  5
130
100
AcDbEntity
  8
Layer_1
 62
7
100
AcDbLine
 10
0.000000
 20
86.637720
 30
0.0
 11
9.328125
 21
86.637720
 31
0.0
  0
LINE
  5
131
100
AcDbEntity
  8
Layer_1
 62
7
100
AcDbLine
 10
9.328125
 20
86.637720
 30
0.0
 11
18.656250
 21
86.637720
 31
0.0
  0
LINE
  5
132
100
AcDbEntity
  8
Layer_1
 62
7
100
AcDbLine
 10
18.656250
 20
86.637720
 30
0.0
 11
27.984375
 21
86.637720
 31
0.0
  0
LINE
  5
133
100
AcDbEntity
  8
Layer_1
 62
7
100
AcDbLine
 10
27.984375
 20
86.637720
 30
0.0
 11
37.312500
 21
86.637720
 31
0.0
  0
LINE
  5
134
100
AcDbEntity
  8
Layer_1
 62
7
100
AcDbLine
 10
37.312500
 20
86.637720
 30
0.0
 11
46.640625
 21
86.637720
 31
0.0
  0
LINE
  5
135
100
AcDbEntity
  8
Layer_1
 62
7
100
AcDbLine
 10
46.640625
 20
86.637720
 30
0.0
 11
55.968750
 21
86.637720
 31
0.0
  0
LINE
  5
136
100
AcDbEntity
  8
Layer_1
 62
7
100
AcDbLine
 10
55.968750
 20
86.637720
 30
0.0
 11
65.296875
 21
86.637720
 31
0.0
  0
LINE
  5
137
100
AcDbEntity
  8
Layer_1
 62
7
100
AcDbLine
 10
65.296875
 20
86.637720
 30
0.0
 11
74.625000
 21
86.637720
 31
0.0
  0
LINE
  5
138
100
AcDbEntity
  8
Layer_1
 62
7
100
AcDbLine
 10
74.625000
 20
86.637720
 30
0.0
 11
72.428125
 21
76.231472
 31
0.0
  0
LINE
  5
139
100
AcDbEntity
  8
Layer_1
 62
7
100
AcDbLine
 10
72.428125
 20
76.231472
 30
0.0
 11
70.231250
 21
65.825224
 31
0.0
  0
LINE
  5
13a
100
AcDbEntity
  8
Layer_1
 62
7
100
AcDbLine
 10
70.231250
 20
65.825224
 30
0.0
 11
68.034375
 21
55.418968
 31
0.0
  0
LINE
  5
13b
100
AcDbEntity
  8
Layer_1
 62
7
100
AcDbLine
 10
68.034375
 20
55.418968
 30
0.0
 11
65.837500
 21
45.012720
 31
0.0
  0
LINE
  5
13c
100
AcDbEntity
  8
Layer_1
 62
7
100
AcDbLine
 10
65.837500
 20
45.012720
 30
0.0
 11
63.640625
 21
34.606472
 31
0.0
  0
LINE
  5
13d
100
AcDbEntity
  8
Layer_1
 62
7
100
AcDbLine
 10
63.640625
 20
34.606472
 30
0.0
 11
61.443750
 21
24.200224
 31
0.0
  0
LINE
  5
13e
100
AcDbEntity
  8
Layer_1
 62
7
100
AcDbLine
 10
61.443750
 20
24.200224
 30
0.0
 11
59.246875
 21
13.793968
 31
0.0
  0
LINE
  5
13f
100
AcDbEntity
  8
Layer_1
 62
7
100
AcDbLine
 10
59.246875
 20
13.793968
 30
0.0
 11
57.050000
 21
3.387720
 31
0.0
  0
LINE
  5
140
100
AcDbEntity
  8
Layer_1
 62
7
100
AcDbLine
 10
57.050000
 20
3.387720
 30
0.0
 11
62.600000
 21
3.387720
 31
0.0
  0
LINE
  5
141
100
AcDbEntity
  8
Layer_1
 62
7
100
AcDbLine
 10
62.600000
 20
3.387720
 30
0.0
 11
68.150000
 21
3.387720
 31
0.0
  0
LINE
  5
142
100
AcDbEntity
  8
Layer_1
 62
7
100
AcDbLine
 10
68.150000
 20
3.387720
 30
0.0
 11
73.700000
 21
3.387720
 31
0.0
  0
LINE
  5
143
100
AcDbEntity
  8
Layer_1
 62
7
100
AcDbLine
 10
73.700000
 20
3.387720
 30
0.0
 11
79.250000
 21
3.387720
 31
0.0
  0
LINE
  5
144
100
AcDbEntity
  8
Layer_1
 62
7
100
AcDbLine
 10
79.250000
 20
3.387720
 30
0.0
 11
84.800000
 21
3.387720
 31
0.0
  0
LINE
  5
145
100
AcDbEntity
  8
Layer_1
 62
7
100
AcDbLine
 10
84.800000
 20
3.387720
 30
0.0
 11
90.350000
 21
3.387720
 31
0.0
  0
LINE
  5
146
100
AcDbEntity
  8
Layer_1
 62
7
100
AcDbLine
 10
90.350000
 20
3.387720
 30
0.0
 11
95.900000
 21
3.387720
 31
0.0
  0
LINE
  5
147
100
AcDbEntity
  8
Layer_1
 62
7
100
AcDbLine
 10
95.900000
 20
3.387720
 30
0.0
 11
101.450000
 21
3.387720
 31
0.0
  0
LINE
  5
148
100
AcDbEntity
  8
Layer_1
 62
7
100
AcDbLine
 10
101.450000
 20
3.387720
 30
0.0
 11
103.646872
 21
13.793968
 31
0.0
  0
LINE
  5
149
100
AcDbEntity
  8
Layer_1
 62
7
100
AcDbLine
 10
103.646872
 20
13.793968
 30
0.0
 11
105.843752
 21
24.200224
 31
0.0
  0
LINE
  5
14a
100
AcDbEntity
  8
Layer_1
 62
7
100
AcDbLine
 10
105.843752
 20
24.200224
 30
0.0
 11
108.040624
 21
34.606472
 31
0.0
  0
LINE
  5
14b
100
AcDbEntity
  8
Layer_1
 62
7
100
AcDbLine
 10
108.040624
 20
34.606472
 30
0.0
 11
110.237496
 21
45.012720
 31
0.0
  0
LINE
  5
14c
100
AcDbEntity
  8
Layer_1
 62
7
100
AcDbLine
 10
110.237496
 20
45.012720
 30
0.0
 11
112.434376
 21
55.418968
 31
0.0
  0
LINE
  5
14d
100
AcDbEntity
  8
Layer_1
 62
7
100
AcDbLine
 10
112.434376
 20
55.418968
 30
0.0
 11
114.631248
 21
65.825224
 31
0.0
  0
LINE
  5
14e
100
AcDbEntity
  8
Layer_1
 62
7
100
AcDbLine
 10
114.631248
 20
65.825224
 30
0.0
 11
116.828128
 21
76.231472
 31
0.0
  0
LINE
  5
14f
100
AcDbEntity
  8
Layer_1
 62
7
100
AcDbLine
 10
116.828128
 20
76.231472
 30
0.0
 11
119.025000
 21
86.637720
 31
0.0
  0
LINE
  5
150
100
AcDbEntity
  8
Layer_1
 62
7
100
AcDbLine
 10
119.025000
 20
86.637720
 30
0.0
 11
121.375000
 21
86.637720
 31
0.0
  0
LINE
  5
151
100
AcDbEntity
  8
Layer_1
 62
7
100
AcDbLine
 10
121.375000
 20
86.637720
 30
0.0
 11
123.725000
 21
86.637720
 31
0.0
  0
LINE
  5
152
100
AcDbEntity
  8
Layer_1
 62
7
100
AcDbLine
 10
123.725000
 20
86.637720
 30
0.0
 11
126.075000
 21
86.637720
 31
0.0
  0
LINE
  5
153
100
AcDbEntity
  8
Layer_1
 62
7
100
AcDbLine
 10
126.075000
 20
86.637720
 30
0.0
 11
128.425000
 21
86.637720
 31
0.0
  0
LINE
  5
154
100
AcDbEntity
  8
Layer_1
 62
7
100
AcDbLine
 10
128.425000
 20
86.637720
 30
0.0
 11
130.775000
 21
86.637720
 31
0.0
  0
LINE
  5
155
100
AcDbEntity
  8
Layer_1
 62
7
100
AcDbLine
 10
130.775000
 20
86.637720
 30
0.0
 11
133.125000
 21
86.637720
 31
0.0
  0
LINE
  5
156
100
AcDbEntity
  8
Layer_1
 62
7
100
AcDbLine
 10
133.125000
 20
86.637720
 30
0.0
 11
135.475000
 21
86.637720
 31
0.0
  0
LINE
  5
157
100
AcDbEntity
  8
Layer_1
 62
7
100
AcDbLine
 10
135.475000
 20
86.637720
 30
0.0
 11
137.825000
 21
86.637720
 31
0.0
  0
LINE
  5
158
100
AcDbEntity
  8
Layer_1
 62
7
100
AcDbLine
 10
137.825000
 20
86.637720
 30
0.0
 11
138.596872
 21
89.681472
 31
0.0
  0
LINE
  5
159
100
AcDbEntity
  8
Layer_1
 62
7
100
AcDbLine
 10
138.596872
 20
89.681472
 30
0.0
 11
139.368752
 21
92.725224
 31
0.0
  0
LINE
  5
15a
100
AcDbEntity
  8
Layer_1
 62
7
100
AcDbLine
 10
139.368752
 20
92.725224
 30
0.0
 11
140.140624
 21
95.768968
 31
0.0
  0
LINE
  5
15b
100
AcDbEntity
  8
Layer_1
 62
7
100
AcDbLine
 10
140.140624
 20
95.768968
 30
0.0
 11
140.912496
 21
98.812720
 31
0.0
  0
LINE
  5
15c
100
AcDbEntity
  8
Layer_1
 62
7
100
AcDbLine
 10
140.912496
 20
98.812720
 30
0.0
 11
141.684376
 21
101.856472
 31
0.0
  0
LINE
  5
15d
100
AcDbEntity
  8
Layer_1
 62
7
100
AcDbLine
 10
141.684376
 20
101.856472
 30
0.0
 11
142.456248
 21
104.900224
 31
0.0
  0
LINE
  5
15e
100
AcDbEntity
  8
Layer_1
 62
7
100
AcDbLine
 10
142.456248
 20
104.900224
 30
0.0
 11
143.228128
 21
107.943968
 31
0.0
  0
LINE
  5
15f
100
AcDbEntity
  8
Layer_1
 62
7
100
AcDbLine
 10
143.228128
 20
107.943968
 30
0.0
 11
144.000000
 21
110.987720
 31
0.0
  0
LINE
  5
160
100
AcDbEntity
  8
Layer_1
 62
7
100
AcDbLine
 10
144.000000
 20
110.987720
 30
0.0
 11
141.531248
 21
110.987720
 31
0.0
  0
LINE
  5
161
100
AcDbEntity
  8
Layer_1
 62
7
100
AcDbLine
 10
141.531248
 20
110.987720
 30
0.0
 11
139.062496
 21
110.987720
 31
0.0
  0
LINE
  5
162
100
AcDbEntity
  8
Layer_1
 62
7
100
AcDbLine
 10
139.062496
 20
110.987720
 30
0.0
 11
136.593752
 21
110.987720
 31
0.0
  0
LINE
  5
163
100
AcDbEntity
  8
Layer_1
 62
7
100
AcDbLine
 10
136.593752
 20
110.987720
 30
0.0
 11
134.125000
 21
110.987720
 31
0.0
  0
LINE
  5
164
100
AcDbEntity
  8
Layer_1
 62
7
100
AcDbLine
 10
134.125000
 20
110.987720
 30
0.0
 11
131.656248
 21
110.987720
 31
0.0
  0
LINE
  5
165
100
AcDbEntity
  8
Layer_1
 62
7
100
AcDbLine
 10
131.656248
 20
110.987720
 30
0.0
 11
129.187496
 21
110.987720
 31
0.0
  0
LINE
  5
166
100
AcDbEntity
  8
Layer_1
 62
7
100
AcDbLine
 10
129.187496
 20
110.987720
 30
0.0
 11
126.718752
 21
110.987720
 31
0.0
  0
LINE
  5
167
100
AcDbEntity
  8
Layer_1
 62
7
100
AcDbLine
 10
126.718752
 20
110.987720
 30
0.0
 11
124.250000
 21
110.987720
 31
0.0
  0
LINE
  5
168
100
AcDbEntity
  8
Layer_1
 62
7
100
AcDbLine
 10
124.250000
 20
110.987720
 30
0.0
 11
125.978128
 21
119.050224
 31
0.0
  0
LINE
  5
169
100
AcDbEntity
  8
Layer_1
 62
7
100
AcDbLine
 10
125.978128
 20
119.050224
 30
0.0
 11
127.706248
 21
127.112720
 31
0.0
  0
LINE
  5
16a
100
AcDbEntity
  8
Layer_1
 62
7
100
AcDbLine
 10
127.706248
 20
127.112720
 30
0.0
 11
129.434376
 21
135.175216
 31
0.0
  0
LINE
  5
16b
100
AcDbEntity
  8
Layer_1
 62
7
100
AcDbLine
 10
129.434376
 20
135.175216
 30
0.0
 11
131.162496
 21
143.237720
 31
0.0
  0
LINE
  5
16c
100
AcDbEntity
  8
Layer_1
 62
7
100
AcDbLine
 10
131.162496
 20
143.237720
 30
0.0
 11
132.890624
 21
151.300216
 31
0.0
  0
LINE
  5
16d
100
AcDbEntity
  8
Layer_1
 62
7
100
AcDbLine
 10
132.890624
 20
151.300216
 30
0.0
 11
134.618752
 21
159.362720
 31
0.0
  0
LINE
  5
16e
100
AcDbEntity
  8
Layer_1
 62
7
100
AcDbLine
 10
134.618752
 20
159.362720
 30
0.0
 11
136.346872
 21
167.425220
 31
0.0
  0
LINE
  5
16f
100
AcDbEntity
  8
Layer_1
 62
7
100
AcDbLine
 10
136.346872
 20
167.425220
 30
0.0
 11
138.075000
 21
175.487720
 31
0.0
  0
LINE
  5
170
100
AcDbEntity
  8
Layer_1
 62
7
100
AcDbLine
 10
138.075000
 20
175.487720
 30
0.0
 11
138.501240
 21
174.339297
 31
0.0
  0
LINE
  5
171
100
AcDbEntity
  8
Layer_1
 62
7
100
AcDbLine
 10
138.501240
 20
174.339297
 30
0.0
 11
138.973112
 21
173.242122
 31
0.0
  0
LINE
  5
172
100
AcDbEntity
  8
Layer_1
 62
7
100
AcDbLine
 10
138.973112
 20
173.242122
 30
0.0
 11
139.490392
 21
172.196238
 31
0.0
  0
LINE
  5
173
100
AcDbEntity
  8
Layer_1
 62
7
100
AcDbLine
 10
139.490392
 20
172.196238
 30
0.0
 11
140.052848
 21
171.201690
 31
0.0
  0
LINE
  5
174
100
AcDbEntity
  8
Layer_1
 62
7
100
AcDbLine
 10
140.052848
 20
171.201690
 30
0.0
 11
140.660264
 21
170.258521
 31
0.0
  0
LINE
  5
175
100
AcDbEntity
  8
Layer_1
 62
7
100
AcDbLine
 10
140.660264
 20
170.258521
 30
0.0
 11
141.312408
 21
169.366774
 31
0.0
  0
LINE
  5
176
100
AcDbEntity
  8
Layer_1
 62
7
100
AcDbLine
 10
141.312408
 20
169.366774
 30
0.0
 11
142.009064
 21
168.526492
 31
0.0
  0
LINE
  5
177
100
AcDbEntity
  8
Layer_1
 62
7
100
AcDbLine
 10
142.009064
 20
168.526492
 30
0.0
 11
142.750000
 21
167.737720
 31
0.0
  0
LINE
  5
178
100
AcDbEntity
  8
Layer_1
 62
7
100
AcDbLine
 10
142.750000
 20
167.737720
 30
0.0
 11
144.479536
 21
166.220162
 31
0.0
  0
LINE
  5
179
100
AcDbEntity
  8
Layer_1
 62
7
100
AcDbLine
 10
144.479536
 20
166.220162
 30
0.0
 11
146.276544
 21
164.904937
 31
0.0
  0
LINE
  5
17a
100
AcDbEntity
  8
Layer_1
 62
7
100
AcDbLine
 10
146.276544
 20
164.904937
 30
0.0
 11
148.141008
 21
163.792047
 31
0.0
  0
LINE
  5
17b
100
AcDbEntity
  8
Layer_1
 62
7
100
AcDbLine
 10
148.141008
 20
163.792047
 30
0.0
 11
150.072920
 21
162.881496
 31
0.0
  0
LINE
  5
17c
100
AcDbEntity
  8
Layer_1
 62
7
100
AcDbLine
 10
150.072920
 20
162.881496
 30
0.0
 11
152.072288
 21
162.173285
 31
0.0
  0
LINE
  5
17d
100
AcDbEntity
  8
Layer_1
 62
7
100
AcDbLine
 10
152.072288
 20
162.173285
 30
0.0
 11
154.139088
 21
161.667418
 31
0.0
  0
LINE
  5
17e
100
AcDbEntity
  8
Layer_1
 62
7
100
AcDbLine
 10
154.139088
 20
161.667418
 30
0.0
 11
156.273328
 21
161.363894
 31
0.0
  0
LINE
  5
17f
100
AcDbEntity
  8
Layer_1
 62
7
100
AcDbLine
 10
156.273328
 20
161.363894
 30
0.0
 11
158.475000
 21
161.262720
 31
0.0
  0
LINE
  5
180
100
AcDbEntity
  8
Layer_1
 62
7
100
AcDbLine
 10
158.475000
 20
161.262720
 30
0.0
 11
159.944384
 21
161.306080
 31
0.0
  0
LINE
  5
181
100
AcDbEntity
  8
Layer_1
 62
7
100
AcDbLine
 10
159.944384
 20
161.306080
 30
0.0
 11
161.423416
 21
161.436161
 31
0.0
  0
LINE
  5
182
100
AcDbEntity
  8
Layer_1
 62
7
100
AcDbLine
 10
161.423416
 20
161.436161
 30
0.0
 11
162.912096
 21
161.652961
 31
0.0
  0
LINE
  5
183
100
AcDbEntity
  8
Layer_1
 62
7
100
AcDbLine
 10
162.912096
 20
161.652961
 30
0.0
 11
164.410416
 21
161.956479
 31
0.0
  0
LINE
  5
184
100
AcDbEntity
  8
Layer_1
 62
7
100
AcDbLine
 10
164.410416
 20
161.956479
 30
0.0
 11
165.918376
 21
162.346715
 31
0.0
  0
LINE
  5
185
100
AcDbEntity
  8
Layer_1
 62
7
100
AcDbLine
 10
165.918376
 20
162.346715
 30
0.0
 11
167.435960
 21
162.823668
 31
0.0
  0
LINE
  5
186
100
AcDbEntity
  8
Layer_1
 62
7
100
AcDbLine
 10
167.435960
 20
162.823668
 30
0.0
 11
168.963168
 21
163.387336
 31
0.0
  0
LINE
  5
187
100
AcDbEntity
  8
Layer_1
 62
7
100
AcDbLine
 10
168.963168
 20
163.387336
 30
0.0
 11
170.500000
 21
164.037719
 31
0.0
  0
LINE
  5
188
100
AcDbEntity
  8
Layer_1
 62
7
100
AcDbLine
 10
170.500000
 20
164.037719
 30
0.0
 11
172.026840
 21
164.764830
 31
0.0
  0
LINE
  5
189
100
AcDbEntity
  8
Layer_1
 62
7
100
AcDbLine
 10
172.026840
 20
164.764830
 30
0.0
 11
173.524200
 21
165.558810
 31
0.0
  0
LINE
  5
18a
100
AcDbEntity
  8
Layer_1
 62
7
100
AcDbLine
 10
173.524200
 20
165.558810
 30
0.0
 11
174.992272
 21
166.419853
 31
0.0
  0
LINE
  5
18b
100
AcDbEntity
  8
Layer_1
 62
7
100
AcDbLine
 10
174.992272
 20
166.419853
 30
0.0
 11
176.431248
 21
167.348148
 31
0.0
  0
LINE
  5
18c
100
AcDbEntity
  8
Layer_1
 62
7
100
AcDbLine
 10
176.431248
 20
167.348148
 30
0.0
 11
177.841320
 21
168.343890
 31
0.0
  0
LINE
  5
18d
100
AcDbEntity
  8
Layer_1
 62
7
100
AcDbLine
 10
177.841320
 20
168.343890
 30
0.0
 11
179.222672
 21
169.407271
 31
0.0
  0
LINE
  5
18e
100
AcDbEntity
  8
Layer_1
 62
7
100
AcDbLine
 10
179.222672
 20
169.407271
 30
0.0
 11
180.575504
 21
170.538483
 31
0.0
  0
LINE
  5
18f
100
AcDbEntity
  8
Layer_1
 62
7
100
AcDbLine
 10
180.575504
 20
170.538483
 30
0.0
 11
181.900000
 21
171.737719
 31
0.0
  0
LINE
  5
190
100
AcDbEntity
  8
Layer_1
 62
7
100
AcDbLine
 10
181.900000
 20
171.737719
 30
0.0
 11
180.271640
 21
172.344388
 31
0.0
  0
LINE
  5
191
100
AcDbEntity
  8
Layer_1
 62
7
100
AcDbLine
 10
180.271640
 20
172.344388
 30
0.0
 11
178.778152
 21
173.085374
 31
0.0
  0
LINE
  5
192
100
AcDbEntity
  8
Layer_1
 62
7
100
AcDbLine
 10
178.778152
 20
173.085374
 30
0.0
 11
177.419560
 21
173.960871
 31
0.0
  0
LINE
  5
193
100
AcDbEntity
  8
Layer_1
 62
7
100
AcDbLine
 10
177.419560
 20
173.960871
 30
0.0
 11
176.195856
 21
174.971069
 31
0.0
  0
LINE
  5
194
100
AcDbEntity
  8
Layer_1
 62
7
100
AcDbLine
 10
176.195856
 20
174.971069
 30
0.0
 11
175.107040
 21
176.116161
 31
0.0
  0
LINE
  5
195
100
AcDbEntity
  8
Layer_1
 62
7
100
AcDbLine
 10
175.107040
 20
176.116161
 30
0.0
 11
174.153128
 21
177.396338
 31
0.0
  0
LINE
  5
196
100
AcDbEntity
  8
Layer_1
 62
7
100
AcDbLine
 10
174.153128
 20
177.396338
 30
0.0
 11
173.334112
 21
178.811794
 31
0.0
  0
LINE
  5
197
100
AcDbEntity
  8
Layer_1
 62
7
100
AcDbLine
 10
173.334112
 20
178.811794
 30
0.0
 11
172.650000
 21
180.362719
 31
0.0
  0
LINE
  5
198
100
AcDbEntity
  8
Layer_1
 62
7
100
AcDbLine
 10
172.650000
 20
180.362719
 30
0.0
 11
172.071528
 21
182.054431
 31
0.0
  0
LINE
  5
199
100
AcDbEntity
  8
Layer_1
 62
7
100
AcDbLine
 10
172.071528
 20
182.054431
 30
0.0
 11
171.569544
 21
183.737697
 31
0.0
  0
LINE
  5
19a
100
AcDbEntity
  8
Layer_1
 62
7
100
AcDbLine
 10
171.569544
 20
183.737697
 30
0.0
 11
171.144248
 21
185.412118
 31
0.0
  0
LINE
  5
19b
100
AcDbEntity
  8
Layer_1
 62
7
100
AcDbLine
 10
171.144248
 20
185.412118
 30
0.0
 11
170.795840
 21
187.077302
 31
0.0
  0
LINE
  5
19c
100
AcDbEntity
  8
Layer_1
 62
7
100
AcDbLine
 10
170.795840
 20
187.077302
 30
0.0
 11
170.524520
 21
188.732849
 31
0.0
  0
LINE
  5
19d
100
AcDbEntity
  8
Layer_1
 62
7
100
AcDbLine
 10
170.524520
 20
188.732849
 30
0.0
 11
170.330472
 21
190.378365
 31
0.0
  0
LINE
  5
19e
100
AcDbEntity
  8
Layer_1
 62
7
100
AcDbLine
 10
170.330472
 20
190.378365
 30
0.0
 11
170.213904
 21
192.013454
 31
0.0
  0
LINE
  5
19f
100
AcDbEntity
  8
Layer_1
 62
7
100
AcDbLine
 10
170.213904
 20
192.013454
 30
0.0
 11
170.175024
 21
193.637719
 31
0.0
  0
LINE
  5
1a0
100
AcDbEntity
  8
Layer_1
 62
7
100
AcDbLine
 10
170.175024
 20
193.637719
 30
0.0
 11
170.189504
 21
194.639077
 31
0.0
  0
LINE
  5
1a1
100
AcDbEntity
  8
Layer_1
 62
7
100
AcDbLine
 10
170.189504
 20
194.639077
 30
0.0
 11
170.232864
 21
195.639271
 31
0.0
  0
LINE
  5
1a2
100
AcDbEntity
  8
Layer_1
 62
7
100
AcDbLine
 10
170.232864
 20
195.639271
 30
0.0
 11
170.305104
 21
196.638690
 31
0.0
  0
LINE
  5
1a3
100
AcDbEntity
  8
Layer_1
 62
7
100
AcDbLine
 10
170.305104
 20
196.638690
 30
0.0
 11
170.406280
 21
197.637722
 31
0.0
  0
LINE
  5
1a4
100
AcDbEntity
  8
Layer_1
 62
7
100
AcDbLine
 10
170.406280
 20
197.637722
 30
0.0
 11
170.536360
 21
198.636752
 31
0.0
  0
LINE
  5
1a5
100
AcDbEntity
  8
Layer_1
 62
7
100
AcDbLine
 10
170.536360
 20
198.636752
 30
0.0
 11
170.695344
 21
199.636170
 31
0.0
  0
LINE
  5
1a6
100
AcDbEntity
  8
Layer_1
 62
7
100
AcDbLine
 10
170.695344
 20
199.636170
 30
0.0
 11
170.883232
 21
200.636364
 31
0.0
  0
LINE
  5
1a7
100
AcDbEntity
  8
Layer_1
 62
7
100
AcDbLine
 10
170.883232
 20
200.636364
 30
0.0
 11
171.100024
 21
201.637719
 31
0.0
  0
LINE
  5
1a8
100
AcDbEntity
  8
Layer_1
 62
7
100
AcDbLine
 10
171.100024
 20
201.637719
 30
0.0
 11
171.355720
 21
202.625696
 31
0.0
  0
LINE
  5
1a9
100
AcDbEntity
  8
Layer_1
 62
7
100
AcDbLine
 10
171.355720
 20
202.625696
 30
0.0
 11
171.660176
 21
203.585361
 31
0.0
  0
LINE
  5
1aa
100
AcDbEntity
  8
Layer_1
 62
7
100
AcDbLine
 10
171.660176
 20
203.585361
 30
0.0
 11
172.013208
 21
204.516517
 31
0.0
  0
LINE
  5
1ab
100
AcDbEntity
  8
Layer_1
 62
7
100
AcDbLine
 10
172.013208
 20
204.516517
 30
0.0
 11
172.414608
 21
205.418966
 31
0.0
  0
LINE
  5
1ac
100
AcDbEntity
  8
Layer_1
 62
7
100
AcDbLine
 10
172.414608
 20
205.418966
 30
0.0
 11
172.864192
 21
206.292508
 31
0.0
  0
LINE
  5
1ad
100
AcDbEntity
  8
Layer_1
 62
7
100
AcDbLine
 10
172.864192
 20
206.292508
 30
0.0
 11
173.361752
 21
207.136946
 31
0.0
  0
LINE
  5
1ae
100
AcDbEntity
  8
Layer_1
 62
7
100
AcDbLine
 10
173.361752
 20
207.136946
 30
0.0
 11
173.907096
 21
207.952083
 31
0.0
  0
LINE
  5
1af
100
AcDbEntity
  8
Layer_1
 62
7
100
AcDbLine
 10
173.907096
 20
207.952083
 30
0.0
 11
174.500024
 21
208.737719
 31
0.0
  0
LINE
  5
1b0
100
AcDbEntity
  8
Layer_1
 62
7
100
AcDbLine
 10
174.500024
 20
208.737719
 30
0.0
 11
175.140776
 21
209.561895
 31
0.0
  0
LINE
  5
1b1
100
AcDbEntity
  8
Layer_1
 62
7
100
AcDbLine
 10
175.140776
 20
209.561895
 30
0.0
 11
175.829704
 21
210.338486
 31
0.0
  0
LINE
  5
1b2
100
AcDbEntity
  8
Layer_1
 62
7
100
AcDbLine
 10
175.829704
 20
210.338486
 30
0.0
 11
176.566824
 21
211.067296
 31
0.0
  0
LINE
  5
1b3
100
AcDbEntity
  8
Layer_1
 62
7
100
AcDbLine
 10
176.566824
 20
211.067296
 30
0.0
 11
177.352112
 21
211.748127
 31
0.0
  0
LINE
  5
1b4
100
AcDbEntity
  8
Layer_1
 62
7
100
AcDbLine
 10
177.352112
 20
211.748127
 30
0.0
 11
178.185584
 21
212.380782
 31
0.0
  0
LINE
  5
1b5
100
AcDbEntity
  8
Layer_1
 62
7
100
AcDbLine
 10
178.185584
 20
212.380782
 30
0.0
 11
179.067224
 21
212.965064
 31
0.0
  0
LINE
  5
1b6
100
AcDbEntity
  8
Layer_1
 62
7
100
AcDbLine
 10
179.067224
 20
212.965064
 30
0.0
 11
179.997040
 21
213.500775
 31
0.0
  0
LINE
  5
1b7
100
AcDbEntity
  8
Layer_1
 62
7
100
AcDbLine
 10
179.997040
 20
213.500775
 30
0.0
 11
180.975024
 21
213.987719
 31
0.0
  0
LINE
  5
1b8
100
AcDbEntity
  8
Layer_1
 62
7
100
AcDbLine
 10
180.975024
 20
213.987719
 30
0.0
 11
182.088264
 21
214.421307
 31
0.0
  0
LINE
  5
1b9
100
AcDbEntity
  8
Layer_1
 62
7
100
AcDbLine
 10
182.088264
 20
214.421307
 30
0.0
 11
183.269544
 21
214.797086
 31
0.0
  0
LINE
  5
1ba
100
AcDbEntity
  8
Layer_1
 62
7
100
AcDbLine
 10
183.269544
 20
214.797086
 30
0.0
 11
184.518672
 21
215.115054
 31
0.0
  0
LINE
  5
1bb
100
AcDbEntity
  8
Layer_1
 62
7
100
AcDbLine
 10
184.518672
 20
215.115054
 30
0.0
 11
185.835448
 21
215.375211
 31
0.0
  0
LINE
  5
1bc
100
AcDbEntity
  8
Layer_1
 62
7
100
AcDbLine
 10
185.835448
 20
215.375211
 30
0.0
 11
187.219672
 21
215.577558
 31
0.0
  0
LINE
  5
1bd
100
AcDbEntity
  8
Layer_1
 62
7
100
AcDbLine
 10
187.219672
 20
215.577558
 30
0.0
 11
188.671136
 21
215.722091
 31
0.0
  0
LINE
  5
1be
100
AcDbEntity
  8
Layer_1
 62
7
100
AcDbLine
 10
188.671136
 20
215.722091
 30
0.0
 11
190.189656
 21
215.808812
 31
0.0
  0
LINE
  5
1bf
100
AcDbEntity
  8
Layer_1
 62
7
100
AcDbLine
 10
190.189656
 20
215.808812
 30
0.0
 11
191.775024
 21
215.837716
 31
0.0
  0
LINE
  5
1c0
100
AcDbEntity
  8
Layer_1
 62
7
100
AcDbLine
 10
191.775024
 20
215.837716
 30
0.0
 11
194.602624
 21
215.736542
 31
0.0
  0
LINE
  5
1c1
100
AcDbEntity
  8
Layer_1
 62
7
100
AcDbLine
 10
194.602624
 20
215.736542
 30
0.0
 11
197.227320
 21
215.433018
 31
0.0
  0
LINE
  5
1c2
100
AcDbEntity
  8
Layer_1
 62
7
100
AcDbLine
 10
197.227320
 20
215.433018
 30
0.0
 11
199.649296
 21
214.927151
 31
0.0
  0
LINE
  5
1c3
100
AcDbEntity
  8
Layer_1
 62
7
100
AcDbLine
 10
199.649296
 20
214.927151
 30
0.0
 11
201.868744
 21
214.218940
 31
0.0
  0
LINE
  5
1c4
100
AcDbEntity
  8
Layer_1
 62
7
100
AcDbLine
 10
201.868744
 20
214.218940
 30
0.0
 11
203.885848
 21
213.308389
 31
0.0
  0
LINE
  5
1c5
100
AcDbEntity
  8
Layer_1
 62
7
100
AcDbLine
 10
203.885848
 20
213.308389
 30
0.0
 11
205.700808
 21
212.195499
 31
0.0
  0
LINE
  5
1c6
100
AcDbEntity
  8
Layer_1
 62
7
100
AcDbLine
 10
205.700808
 20
212.195499
 30
0.0
 11
207.313800
 21
210.880274
 31
0.0
  0
LINE
  5
1c7
100
AcDbEntity
  8
Layer_1
 62
7
100
AcDbLine
 10
207.313800
 20
210.880274
 30
0.0
 11
208.725024
 21
209.362716
 31
0.0
  0
LINE
  5
1c8
100
AcDbEntity
  8
Layer_1
 62
7
100
AcDbLine
 10
208.725024
 20
209.362716
 30
0.0
 11
209.953880
 21
207.618363
 31
0.0
  0
LINE
  5
1c9
100
AcDbEntity
  8
Layer_1
 62
7
100
AcDbLine
 10
209.953880
 20
207.618363
 30
0.0
 11
211.019528
 21
205.622882
 31
0.0
  0
LINE
  5
1ca
100
AcDbEntity
  8
Layer_1
 62
7
100
AcDbLine
 10
211.019528
 20
205.622882
 30
0.0
 11
211.921776
 21
203.376477
 31
0.0
  0
LINE
  5
1cb
100
AcDbEntity
  8
Layer_1
 62
7
100
AcDbLine
 10
211.921776
 20
203.376477
 30
0.0
 11
212.660416
 21
200.879350
 31
0.0
  0
LINE
  5
1cc
100
AcDbEntity
  8
Layer_1
 62
7
100
AcDbLine
 10
212.660416
 20
200.879350
 30
0.0
 11
213.235264
 21
198.131708
 31
0.0
  0
LINE
  5
1cd
100
AcDbEntity
  8
Layer_1
 62
7
100
AcDbLine
 10
213.235264
 20
198.131708
 30
0.0
 11
213.646112
 21
195.133752
 31
0.0
  0
LINE
  5
1ce
100
AcDbEntity
  8
Layer_1
 62
7
100
AcDbLine
 10
213.646112
 20
195.133752
 30
0.0
 11
213.892760
 21
191.885687
 31
0.0
  0
LINE
  5
1cf
100
AcDbEntity
  8
Layer_1
 62
7
100
AcDbLine
 10
213.892760
 20
191.885687
 30
0.0
 11
213.975024
 21
188.387716
 31
0.0
  0
LINE
  5
1d0
100
AcDbEntity
  8
Layer_1
 62
7
100
AcDbLine
 10
213.975024
 20
188.387716
 30
0.0
 11
213.853864
 21
183.806128
 31
0.0
  0
LINE
  5
1d1
100
AcDbEntity
  8
Layer_1
 62
7
100
AcDbLine
 10
213.853864
 20
183.806128
 30
0.0
 11
213.490640
 21
179.311217
 31
0.0
  0
LINE
  5
1d2
100
AcDbEntity
  8
Layer_1
 62
7
100
AcDbLine
 10
213.490640
 20
179.311217
 30
0.0
 11
212.885744
 21
174.902995
 31
0.0
  0
LINE
  5
1d3
100
AcDbEntity
  8
Layer_1
 62
7
100
AcDbLine
 10
212.885744
 20
174.902995
 30
0.0
 11
212.039576
 21
170.581478
 31
0.0
  0
LINE
  5
1d4
100
AcDbEntity
  8
Layer_1
 62
7
100
AcDbLine
 10
212.039576
 20
170.581478
 30
0.0
 11
210.952520
 21
166.346678
 31
0.0
  0
LINE
  5
1d5
100
AcDbEntity
  8
Layer_1
 62
7
100
AcDbLine
 10
210.952520
 20
166.346678
 30
0.0
 11
209.624984
 21
162.198609
 31
0.0
  0
LINE
  5
1d6
100
AcDbEntity
  8
Layer_1
 62
7
100
AcDbLine
 10
209.624984
 20
162.198609
 30
0.0
 11
208.057352
 21
158.137283
 31
0.0
  0
LINE
  5
1d7
100
AcDbEntity
  8
Layer_1
 62
7
100
AcDbLine
 10
208.057352
 20
158.137283
 30
0.0
 11
206.250024
 21
154.162716
 31
0.0
  0
LINE
  5
1d8
100
AcDbEntity
  8
Layer_1
 62
7
100
AcDbLine
 10
206.250024
 20
154.162716
 30
0.0
 11
204.337768
 21
150.255956
 31
0.0
  0
LINE
  5
1d9
100
AcDbEntity
  8
Layer_1
 62
7
100
AcDbLine
 10
204.337768
 20
150.255956
 30
0.0
 11
202.300824
 21
146.397924
 31
0.0
  0
LINE
  5
1da
100
AcDbEntity
  8
Layer_1
 62
7
100
AcDbLine
 10
202.300824
 20
146.397924
 30
0.0
 11
200.138992
 21
142.588436
 31
0.0
  0
LINE
  5
1db
100
AcDbEntity
  8
Layer_1
 62
7
100
AcDbLine
 10
200.138992
 20
142.588436
 30
0.0
 11
197.852088
 21
138.827308
 31
0.0
  0
LINE
  5
1dc
100
AcDbEntity
  8
Layer_1
 62
7
100
AcDbLine
 10
197.852088
 20
138.827308
 30
0.0
 11
195.439928
 21
135.114356
 31
0.0
  0
LINE
  5
1dd
100
AcDbEntity
  8
Layer_1
 62
7
100
AcDbLine
 10
195.439928
 20
135.114356
 30
0.0
 11
192.902328
 21
131.449396
 31
0.0
  0
LINE
  5
1de
100
AcDbEntity
  8
Layer_1
 62
7
100
AcDbLine
 10
192.902328
 20
131.449396
 30
0.0
 11
190.239088
 21
127.832244
 31
0.0
  0
LINE
  5
1df
100
AcDbEntity
  8
Layer_1
 62
7
100
AcDbLine
 10
190.239088
 20
127.832244
 30
0.0
 11
187.450024
 21
124.262716
 31
0.0
  0
LINE
  5
1e0
100
AcDbEntity
  8
Layer_1
 62
7
100
AcDbLine
 10
187.450024
 20
124.262716
 30
0.0
 11
184.641688
 21
120.802924
 31
0.0
  0
LINE
  5
1e1
100
AcDbEntity
  8
Layer_1
 62
7
100
AcDbLine
 10
184.641688
 20
120.802924
 30
0.0
 11
181.766464
 21
117.361196
 31
0.0
  0
LINE
  5
1e2
100
AcDbEntity
  8
Layer_1
 62
7
100
AcDbLine
 10
181.766464
 20
117.361196
 30
0.0
 11
178.824160
 21
113.937940
 31
0.0
  0
LINE
  5
1e3
100
AcDbEntity
  8
Layer_1
 62
7
100
AcDbLine
 10
178.824160
 20
113.937940
 30
0.0
 11
175.814600
 21
110.533556
 31
0.0
  0
LINE
  5
1e4
100
AcDbEntity
  8
Layer_1
 62
7
100
AcDbLine
 10
175.814600
 20
110.533556
 30
0.0
 11
172.737592
 21
107.148436
 31
0.0
  0
LINE
  5
1e5
100
AcDbEntity
  8
Layer_1
 62
7
100
AcDbLine
 10
172.737592
 20
107.148436
 30
0.0
 11
169.592952
 21
103.782988
 31
0.0
  0
LINE
  5
1e6
100
AcDbEntity
  8
Layer_1
 62
7
100
AcDbLine
 10
169.592952
 20
103.782988
 30
0.0
 11
166.380488
 21
100.437612
 31
0.0
  0
LINE
  5
1e7
100
AcDbEntity
  8
Layer_1
 62
7
100
AcDbLine
 10
166.380488
 20
100.437612
 30
0.0
 11
163.100024
 21
97.112716
 31
0.0
  0
LINE
  5
1e8
100
AcDbEntity
  8
Layer_1
 62
7
100
AcDbLine
 10
163.100024
 20
97.112716
 30
0.0
 11
159.885936
 21
93.870796
 31
0.0
  0
LINE
  5
1e9
100
AcDbEntity
  8
Layer_1
 62
7
100
AcDbLine
 10
159.885936
 20
93.870796
 30
0.0
 11
156.718816
 21
90.619788
 31
0.0
  0
LINE
  5
1ea
100
AcDbEntity
  8
Layer_1
 62
7
100
AcDbLine
 10
156.718816
 20
90.619788
 30
0.0
 11
153.599080
 21
87.359516
 31
0.0
  0
LINE
  5
1eb
100
AcDbEntity
  8
Layer_1
 62
7
100
AcDbLine
 10
153.599080
 20
87.359516
 30
0.0
 11
150.527112
 21
84.089796
 31
0.0
  0
LINE
  5
1ec
100
AcDbEntity
  8
Layer_1
 62
7
100
AcDbLine
 10
150.527112
 20
84.089796
 30
0.0
 11
147.503328
 21
80.810444
 31
0.0
  0
LINE
  5
1ed
100
AcDbEntity
  8
Layer_1
 62
7
100
AcDbLine
 10
147.503328
 20
80.810444
 30
0.0
 11
144.528120
 21
77.521268
 31
0.0
  0
LINE
  5
1ee
100
AcDbEntity
  8
Layer_1
 62
7
100
AcDbLine
 10
144.528120
 20
77.521268
 30
0.0
 11
141.601880
 21
74.222084
 31
0.0
  0
LINE
  5
1ef
100
AcDbEntity
  8
Layer_1
 62
7
100
AcDbLine
 10
141.601880
 20
74.222084
 30
0.0
 11
138.725024
 21
70.912716
 31
0.0
  0
LINE
  5
1f0
100
AcDbEntity
  8
Layer_1
 62
7
100
AcDbLine
 10
138.725024
 20
70.912716
 30
0.0
 11
136.003408
 21
67.578900
 31
0.0
  0
LINE
  5
1f1
100
AcDbEntity
  8
Layer_1
 62
7
100
AcDbLine
 10
136.003408
 20
67.578900
 30
0.0
 11
133.388344
 21
64.206508
 31
0.0
  0
LINE
  5
1f2
100
AcDbEntity
  8
Layer_1
 62
7
100
AcDbLine
 10
133.388344
 20
64.206508
 30
0.0
 11
130.879648
 21
60.795548
 31
0.0
  0
LINE
  5
1f3
100
AcDbEntity
  8
Layer_1
 62
7
100
AcDbLine
 10
130.879648
 20
60.795548
 30
0.0
 11
128.477128
 21
57.346044
 31
0.0
  0
LINE
  5
1f4
100
AcDbEntity
  8
Layer_1
 62
7
100
AcDbLine
 10
128.477128
 20
57.346044
 30
0.0
 11
126.180592
 21
53.857996
 31
0.0
  0
LINE
  5
1f5
100
AcDbEntity
  8
Layer_1
 62
7
100
AcDbLine
 10
126.180592
 20
53.857996
 30
0.0
 11
123.989848
 21
50.331420
 31
0.0
  0
LINE
  5
1f6
100
AcDbEntity
  8
Layer_1
 62
7
100
AcDbLine
 10
123.989848
 20
50.331420
 30
0.0
 11
121.904728
 21
46.766324
 31
0.0
  0
LINE
  5
1f7
100
AcDbEntity
  8
Layer_1
 62
7
100
AcDbLine
 10
121.904728
 20
46.766324
 30
0.0
 11
119.925024
 21
43.162716
 31
0.0
  0
LINE
  5
1f8
100
AcDbEntity
  8
Layer_1
 62
7
100
AcDbLine
 10
119.925024
 20
43.162716
 30
0.0
 11
118.190672
 21
39.583196
 31
0.0
  0
LINE
  5
1f9
100
AcDbEntity
  8
Layer_1
 62
7
100
AcDbLine
 10
118.190672
 20
39.583196
 30
0.0
 11
116.687560
 21
35.936196
 31
0.0
  0
LINE
  5
1fa
100
AcDbEntity
  8
Layer_1
 62
7
100
AcDbLine
 10
116.687560
 20
35.936196
 30
0.0
 11
115.415688
 21
32.221724
 31
0.0
  0
LINE
  5
1fb
100
AcDbEntity
  8
Layer_1
 62
7
100
AcDbLine
 10
115.415688
 20
32.221724
 30
0.0
 11
114.375056
 21
28.439788
 31
0.0
  0
LINE
  5
1fc
100
AcDbEntity
  8
Layer_1
 62
7
100
AcDbLine
 10
114.375056
 20
28.439788
 30
0.0
 11
113.565672
 21
24.590412
 31
0.0
  0
LINE
  5
1fd
100
AcDbEntity
  8
Layer_1
 62
7
100
AcDbLine
 10
113.565672
 20
24.590412
 30
0.0
 11
112.987536
 21
20.673596
 31
0.0
  0
LINE
  5
1fe
100
AcDbEntity
  8
Layer_1
 62
7
100
AcDbLine
 10
112.987536
 20
20.673596
 30
0.0
 11
112.640656
 21
16.689364
 31
0.0
  0
LINE
  5
1ff
100
AcDbEntity
  8
Layer_1
 62
7
100
AcDbLine
 10
112.640656
 20
16.689364
 30
0.0
 11
112.525024
 21
12.637716
 31
0.0
  0
LINE
  5
200
100
AcDbEntity
  8
Layer_1
 62
7
100
AcDbLine
 10
112.525024
 20
12.637716
 30
0.0
 11
112.525024
 21
11.981468
 31
0.0
  0
LINE
  5
201
100
AcDbEntity
  8
Layer_1
 62
7
100
AcDbLine
 10
112.525024
 20
11.981468
 30
0.0
 11
112.525024
 21
11.325220
 31
0.0
  0
LINE
  5
202
100
AcDbEntity
  8
Layer_1
 62
7
100
AcDbLine
 10
112.525024
 20
11.325220
 30
0.0
 11
112.525024
 21
10.668964
 31
0.0
  0
LINE
  5
203
100
AcDbEntity
  8
Layer_1
 62
7
100
AcDbLine
 10
112.525024
 20
10.668964
 30
0.0
 11
112.525024
 21
10.012716
 31
0.0
  0
LINE
  5
204
100
AcDbEntity
  8
Layer_1
 62
7
100
AcDbLine
 10
112.525024
 20
10.012716
 30
0.0
 11
112.525024
 21
9.356468
 31
0.0
  0
LINE
  5
205
100
AcDbEntity
  8
Layer_1
 62
7
100
AcDbLine
 10
112.525024
 20
9.356468
 30
0.0
 11
112.525024
 21
8.700220
 31
0.0
  0
LINE
  5
206
100
AcDbEntity
  8
Layer_1
 62
7
100
AcDbLine
 10
112.525024
 20
8.700220
 30
0.0
 11
112.525024
 21
8.043964
 31
0.0
  0
LINE
  5
207
100
AcDbEntity
  8
Layer_1
 62
7
100
AcDbLine
 10
112.525024
 20
8.043964
 30
0.0
 11
112.525024
 21
7.387716
 31
0.0
  0
LINE
  5
208
100
AcDbEntity
  8
Layer_1
 62
7
100
AcDbLine
 10
112.525024
 20
7.387716
 30
0.0
 11
112.535024
 21
6.771412
 31
0.0
  0
LINE
  5
209
100
AcDbEntity
  8
Layer_1
 62
7
100
AcDbLine
 10
112.535024
 20
6.771412
 30
0.0
 11
112.564864
 21
6.155692
 31
0.0
  0
LINE
  5
20a
100
AcDbEntity
  8
Layer_1
 62
7
100
AcDbLine
 10
112.564864
 20
6.155692
 30
0.0
 11
112.614384
 21
5.540356
 31
0.0
  0
LINE
  5
20b
100
AcDbEntity
  8
Layer_1
 62
7
100
AcDbLine
 10
112.614384
 20
5.540356
 30
0.0
 11
112.683344
 21
4.925220
 31
0.0
  0
LINE
  5
20c
100
AcDbEntity
  8
Layer_1
 62
7
100
AcDbLine
 10
112.683344
 20
4.925220
 30
0.0
 11
112.771592
 21
4.310076
 31
0.0
  0
LINE
  5
20d
100
AcDbEntity
  8
Layer_1
 62
7
100
AcDbLine
 10
112.771592
 20
4.310076
 30
0.0
 11
112.878920
 21
3.694740
 31
0.0
  0
LINE
  5
20e
100
AcDbEntity
  8
Layer_1
 62
7
100
AcDbLine
 10
112.878920
 20
3.694740
 30
0.0
 11
113.005120
 21
3.079020
 31
0.0
  0
LINE
  5
20f
100
AcDbEntity
  8
Layer_1
 62
7
100
AcDbLine
 10
113.005120
 20
3.079020
 30
0.0
 11
113.150008
 21
2.462716
 31
0.0
  0
LINE
  5
210
100
AcDbEntity
  8
Layer_1
 62
7
100
AcDbLine
 10
113.150008
 20
2.462716
 30
0.0
 11
113.703320
 21
2.698420
 31
0.0
  0
LINE
  5
211
100
AcDbEntity
  8
Layer_1
 62
7
100
AcDbLine
 10
113.703320
 20
2.698420
 30
0.0
 11
114.284376
 21
2.943180
 31
0.0
  0
LINE
  5
212
100
AcDbEntity
  8
Layer_1
 62
7
100
AcDbLine
 10
114.284376
 20
2.943180
 30
0.0
 11
114.893560
 21
3.197188
 31
0.0
  0
LINE
  5
213
100
AcDbEntity
  8
Layer_1
 62
7
100
AcDbLine
 10
114.893560
 20
3.197188
 30
0.0
 11
115.531264
 21
3.460636
 31
0.0
  0
LINE
  5
214
100
AcDbEntity
  8
Layer_1
 62
7
100
AcDbLine
 10
115.531264
 20
3.460636
 30
0.0
 11
116.197872
 21
3.733716
 31
0.0
  0
LINE
  5
215
100
AcDbEntity
  8
Layer_1
 62
7
100
AcDbLine
 10
116.197872
 20
3.733716
 30
0.0
 11
116.893768
 21
4.016628
 31
0.0
  0
LINE
  5
216
100
AcDbEntity
  8
Layer_1
 62
7
100
AcDbLine
 10
116.893768
 20
4.016628
 30
0.0
 11
117.619352
 21
4.309564
 31
0.0
  0
LINE
  5
217
100
AcDbEntity
  8
Layer_1
 62
7
100
AcDbLine
 10
117.619352
 20
4.309564
 30
0.0
 11
118.375008
 21
4.612716
 31
0.0
  0
LINE
  5
218
100
AcDbEntity
  8
Layer_1
 62
7
100
AcDbLine
 10
118.375008
 20
4.612716
 30
0.0
 11
119.218096
 21
4.993308
 31
0.0
  0
LINE
  5
219
100
AcDbEntity
  8
Layer_1
 62
7
100
AcDbLine
 10
119.218096
 20
4.993308
 30
0.0
 11
120.051560
 21
5.364276
 31
0.0
  0
LINE
  5
21a
100
AcDbEntity
  8
Layer_1
 62
7
100
AcDbLine
 10
120.051560
 20
5.364276
 30
0.0
 11
120.875392
 21
5.725604
 31
0.0
  0
LINE
  5
21b
100
AcDbEntity
  8
Layer_1
 62
7
100
AcDbLine
 10
120.875392
 20
5.725604
 30
0.0
 11
121.689584
 21
6.077300
 31
0.0
  0
LINE
  5
21c
100
AcDbEntity
  8
Layer_1
 62
7
100
AcDbLine
 10
121.689584
 20
6.077300
 30
0.0
 11
122.494152
 21
6.419356
 31
0.0
  0
LINE
  5
21d
100
AcDbEntity
  8
Layer_1
 62
7
100
AcDbLine
 10
122.494152
 20
6.419356
 30
0.0
 11
123.289080
 21
6.751780
 31
0.0
  0
LINE
  5
21e
100
AcDbEntity
  8
Layer_1
 62
7
100
AcDbLine
 10
123.289080
 20
6.751780
 30
0.0
 11
124.074360
 21
7.074572
 31
0.0
  0
LINE
  5
21f
100
AcDbEntity
  8
Layer_1
 62
7
100
AcDbLine
 10
124.074360
 20
7.074572
 30
0.0
 11
124.850008
 21
7.387716
 31
0.0
  0
LINE
  5
220
100
AcDbEntity
  8
Layer_1
 62
7
100
AcDbLine
 10
124.850008
 20
7.387716
 30
0.0
 11
125.693096
 21
7.763852
 31
0.0
  0
LINE
  5
221
100
AcDbEntity
  8
Layer_1
 62
7
100
AcDbLine
 10
125.693096
 20
7.763852
 30
0.0
 11
126.526560
 21
8.121300
 31
0.0
  0
LINE
  5
222
100
AcDbEntity
  8
Layer_1
 62
7
100
AcDbLine
 10
126.526560
 20
8.121300
 30
0.0
 11
127.350392
 21
8.459876
 31
0.0
  0
LINE
  5
223
100
AcDbEntity
  8
Layer_1
 62
7
100
AcDbLine
 10
127.350392
 20
8.459876
 30
0.0
 11
128.164592
 21
8.779380
 31
0.0
  0
LINE
  5
224
100
AcDbEntity
  8
Layer_1
 62
7
100
AcDbLine
 10
128.164592
 20
8.779380
 30
0.0
 11
128.969152
 21
9.079612
 31
0.0
  0
LINE
  5
225
100
AcDbEntity
  8
Layer_1
 62
7
100
AcDbLine
 10
128.969152
 20
9.079612
 30
0.0
 11
129.764080
 21
9.360372
 31
0.0
  0
LINE
  5
226
100
AcDbEntity
  8
Layer_1
 62
7
100
AcDbLine
 10
129.764080
 20
9.360372
 30
0.0
 11
130.549368
 21
9.621476
 31
0.0
  0
LINE
  5
227
100
AcDbEntity
  8
Layer_1
 62
7
100
AcDbLine
 10
130.549368
 20
9.621476
 30
0.0
 11
131.325008
 21
9.862716
 31
0.0
  0
LINE
  5
228
100
AcDbEntity
  8
Layer_1
 62
7
100
AcDbLine
 10
131.325008
 20
9.862716
 30
0.0
 11
132.163640
 21
10.151420
 31
0.0
  0
LINE
  5
229
100
AcDbEntity
  8
Layer_1
 62
7
100
AcDbLine
 10
132.163640
 20
10.151420
 30
0.0
 11
132.983592
 21
10.400988
 31
0.0
  0
LINE
  5
22a
100
AcDbEntity
  8
Layer_1
 62
7
100
AcDbLine
 10
132.983592
 20
10.400988
 30
0.0
 11
133.784664
 21
10.611636
 31
0.0
  0
LINE
  5
22b
100
AcDbEntity
  8
Layer_1
 62
7
100
AcDbLine
 10
133.784664
 20
10.611636
 30
0.0
 11
134.566672
 21
10.783540
 31
0.0
  0
LINE
  5
22c
100
AcDbEntity
  8
Layer_1
 62
7
100
AcDbLine
 10
134.566672
 20
10.783540
 30
0.0
 11
135.329408
 21
10.916908
 31
0.0
  0
LINE
  5
22d
100
AcDbEntity
  8
Layer_1
 62
7
100
AcDbLine
 10
135.329408
 20
10.916908
 30
0.0
 11
136.072672
 21
11.011932
 31
0.0
  0
LINE
  5
22e
100
AcDbEntity
  8
Layer_1
 62
7
100
AcDbLine
 10
136.072672
 20
11.011932
 30
0.0
 11
136.796272
 21
11.068812
 31
0.0
  0
LINE
  5
22f
100
AcDbEntity
  8
Layer_1
 62
7
100
AcDbLine
 10
136.796272
 20
11.068812
 30
0.0
 11
137.500008
 21
11.087692
 31
0.0
  0
LINE
  5
230
100
AcDbEntity
  8
Layer_1
 62
7
100
AcDbLine
 10
137.500008
 20
11.087692
 30
0.0
 11
140.313520
 21
11.058812
 31
0.0
  0
LINE
  5
231
100
AcDbEntity
  8
Layer_1
 62
7
100
AcDbLine
 10
140.313520
 20
11.058812
 30
0.0
 11
143.049968
 21
10.972084
 31
0.0
  0
LINE
  5
232
100
AcDbEntity
  8
Layer_1
 62
7
100
AcDbLine
 10
143.049968
 20
10.972084
 30
0.0
 11
145.709352
 21
10.827556
 31
0.0
  0
LINE
  5
233
100
AcDbEntity
  8
Layer_1
 62
7
100
AcDbLine
 10
145.709352
 20
10.827556
 30
0.0
 11
148.291664
 21
10.625204
 31
0.0
  0
LINE
  5
234
100
AcDbEntity
  8
Layer_1
 62
7
100
AcDbLine
 10
148.291664
 20
10.625204
 30
0.0
 11
150.796896
 21
10.365052
 31
0.0
  0
LINE
  5
235
100
AcDbEntity
  8
Layer_1
 62
7
100
AcDbLine
 10
150.796896
 20
10.365052
 30
0.0
 11
153.225032
 21
10.047084
 31
0.0
  0
LINE
  5
236
100
AcDbEntity
  8
Layer_1
 62
7
100
AcDbLine
 10
153.225032
 20
10.047084
 30
0.0
 11
155.576072
 21
9.671300
 31
0.0
  0
LINE
  5
237
100
AcDbEntity
  8
Layer_1
 62
7
100
AcDbLine
 10
155.576072
 20
9.671300
 30
0.0
 11
157.850008
 21
9.237716
 31
0.0
  0
LINE
  5
238
100
AcDbEntity
  8
Layer_1
 62
7
100
AcDbLine
 10
157.850008
 20
9.237716
 30
0.0
 11
160.076120
 21
8.842668
 31
0.0
  0
LINE
  5
239
100
AcDbEntity
  8
Layer_1
 62
7
100
AcDbLine
 10
160.076120
 20
8.842668
 30
0.0
 11
162.283568
 21
8.428348
 31
0.0
  0
LINE
  5
23a
100
AcDbEntity
  8
Layer_1
 62
7
100
AcDbLine
 10
162.283568
 20
8.428348
 30
0.0
 11
164.472152
 21
7.994748
 31
0.0
  0
LINE
  5
23b
100
AcDbEntity
  8
Layer_1
 62
7
100
AcDbLine
 10
164.472152
 20
7.994748
 30
0.0
 11
166.641672
 21
7.541884
 31
0.0
  0
LINE
  5
23c
100
AcDbEntity
  8
Layer_1
 62
7
100
AcDbLine
 10
166.641672
 20
7.541884
 30
0.0
 11
168.791912
 21
7.069740
 31
0.0
  0
LINE
  5
23d
100
AcDbEntity
  8
Layer_1
 62
7
100
AcDbLine
 10
168.791912
 20
7.069740
 30
0.0
 11
170.922688
 21
6.578332
 31
0.0
  0
LINE
  5
23e
100
AcDbEntity
  8
Layer_1
 62
7
100
AcDbLine
 10
170.922688
 20
6.578332
 30
0.0
 11
173.033784
 21
6.067660
 31
0.0
  0
LINE
  5
23f
100
AcDbEntity
  8
Layer_1
 62
7
100
AcDbLine
 10
173.033784
 20
6.067660
 30
0.0
 11
175.125008
 21
5.537716
 31
0.0
  0
LINE
  5
240
100
AcDbEntity
  8
Layer_1
 62
7
100
AcDbLine
 10
175.125008
 20
5.537716
 30
0.0
 11
177.282600
 21
5.007772
 31
0.0
  0
LINE
  5
241
100
AcDbEntity
  8
Layer_1
 62
7
100
AcDbLine
 10
177.282600
 20
5.007772
 30
0.0
 11
179.439040
 21
4.497100
 31
0.0
  0
LINE
  5
242
100
AcDbEntity
  8
Layer_1
 62
7
100
AcDbLine
 10
179.439040
 20
4.497100
 30
0.0
 11
181.594712
 21
4.005692
 31
0.0
  0
LINE
  5
243
100
AcDbEntity
  8
Layer_1
 62
7
100
AcDbLine
 10
181.594712
 20
4.005692
 30
0.0
 11
183.750008
 21
3.533556
 31
0.0
  0
LINE
  5
244
100
AcDbEntity
  8
Layer_1
 62
7
100
AcDbLine
 10
183.750008
 20
3.533556
 30
0.0
 11
185.905296
 21
3.080684
 31
0.0
  0
LINE
  5
245
100
AcDbEntity
  8
Layer_1
 62
7
100
AcDbLine
 10
185.905296
 20
3.080684
 30
0.0
 11
188.060968
 21
2.647084
 31
0.0
  0
LINE
  5
246
100
AcDbEntity
  8
Layer_1
 62
7
100
AcDbLine
 10
188.060968
 20
2.647084
 30
0.0
 11
190.217416
 21
2.232764
 31
0.0
  0
LINE
  5
247
100
AcDbEntity
  8
Layer_1
 62
7
100
AcDbLine
 10
190.217416
 20
2.232764
 30
0.0
 11
192.375008
 21
1.837716
 31
0.0
  0
LINE
  5
248
100
AcDbEntity
  8
Layer_1
 62
7
100
AcDbLine
 10
192.375008
 20
1.837716
 30
0.0
 11
194.567040
 21
1.404132
 31
0.0
  0
LINE
  5
249
100
AcDbEntity
  8
Layer_1
 62
7
100
AcDbLine
 10
194.567040
 20
1.404132
 30
0.0
 11
196.826544
 21
1.028348
 31
0.0
  0
LINE
  5
24a
100
AcDbEntity
  8
Layer_1
 62
7
100
AcDbLine
 10
196.826544
 20
1.028348
 30
0.0
 11
199.153512
 21
0.710380
 31
0.0
  0
LINE
  5
24b
100
AcDbEntity
  8
Layer_1
 62
7
100
AcDbLine
 10
199.153512
 20
0.710380
 30
0.0
 11
201.547928
 21
0.450228
 31
0.0
  0
LINE
  5
24c
100
AcDbEntity
  8
Layer_1
 62
7
100
AcDbLine
 10
201.547928
 20
0.450228
 30
0.0
 11
204.009800
 21
0.247876
 31
0.0
  0
LINE
  5
24d
100
AcDbEntity
  8
Layer_1
 62
7
100
AcDbLine
 10
204.009800
 20
0.247876
 30
0.0
 11
206.539104
 21
0.103348
 31
0.0
  0
LINE
  5
24e
100
AcDbEntity
  8
Layer_1
 62
7
100
AcDbLine
 10
206.539104
 20
0.103348
 30
0.0
 11
209.135848
 21
0.016620
 31
0.0
  0
LINE
  5
24f
100
AcDbEntity
  8
Layer_1
 62
7
100
AcDbLine
 10
209.135848
 20
0.016620
 30
0.0
 11
211.800008
 21
-0.012260
 31
0.0
  0
LINE
  5
250
100
AcDbEntity
  8
Layer_1
 62
7
100
AcDbLine
 10
211.800008
 20
-0.012260
 30
0.0
 11
214.806936
 21
0.031100
 31
0.0
  0
LINE
  5
251
100
AcDbEntity
  8
Layer_1
 62
7
100
AcDbLine
 10
214.806936
 20
0.031100
 30
0.0
 11
217.660904
 21
0.161180
 31
0.0
  0
LINE
  5
252
100
AcDbEntity
  8
Layer_1
 62
7
100
AcDbLine
 10
217.660904
 20
0.161180
 30
0.0
 11
220.361496
 21
0.377980
 31
0.0
  0
LINE
  5
253
100
AcDbEntity
  8
Layer_1
 62
7
100
AcDbLine
 10
220.361496
 20
0.377980
 30
0.0
 11
222.908320
 21
0.681500
 31
0.0
  0
LINE
  5
254
100
AcDbEntity
  8
Layer_1
 62
7
100
AcDbLine
 10
222.908320
 20
0.681500
 30
0.0
 11
225.300984
 21
1.071740
 31
0.0
  0
LINE
  5
255
100
AcDbEntity
  8
Layer_1
 62
7
100
AcDbLine
 10
225.300984
 20
1.071740
 30
0.0
 11
227.539088
 21
1.548692
 31
0.0
  0
LINE
  5
256
100
AcDbEntity
  8
Layer_1
 62
7
100
AcDbLine
 10
227.539088
 20
1.548692
 30
0.0
 11
229.622224
 21
2.112356
 31
0.0
  0
LINE
  5
257
100
AcDbEntity
  8
Layer_1
 62
7
100
AcDbLine
 10
229.622224
 20
2.112356
 30
0.0
 11
231.550008
 21
2.762740
 31
0.0
  0
LINE
  5
258
100
AcDbEntity
  8
Layer_1
 62
7
100
AcDbLine
 10
231.550008
 20
2.762740
 30
0.0
 11
233.418544
 21
3.423476
 31
0.0
  0
LINE
  5
259
100
AcDbEntity
  8
Layer_1
 62
7
100
AcDbLine
 10
233.418544
 20
3.423476
 30
0.0
 11
235.170296
 21
4.172108
 31
0.0
  0
LINE
  5
25a
100
AcDbEntity
  8
Layer_1
 62
7
100
AcDbLine
 10
235.170296
 20
4.172108
 30
0.0
 11
236.805648
 21
5.008252
 31
0.0
  0
LINE
  5
25b
100
AcDbEntity
  8
Layer_1
 62
7
100
AcDbLine
 10
236.805648
 20
5.008252
 30
0.0
 11
238.324992
 21
5.931500
 31
0.0
  0
LINE
  5
25c
100
AcDbEntity
  8
Layer_1
 62
7
100
AcDbLine
 10
238.324992
 20
5.931500
 30
0.0
 11
239.728720
 21
6.941468
 31
0.0
  0
LINE
  5
25d
100
AcDbEntity
  8
Layer_1
 62
7
100
AcDbLine
 10
239.728720
 20
6.941468
 30
0.0
 11
241.017200
 21
8.037764
 31
0.0
  0
LINE
  5
25e
100
AcDbEntity
  8
Layer_1
 62
7
100
AcDbLine
 10
241.017200
 20
8.037764
 30
0.0
 11
242.190840
 21
9.219980
 31
0.0
  0
LINE
  5
25f
100
AcDbEntity
  8
Layer_1
 62
7
100
AcDbLine
 10
242.190840
 20
9.219980
 30
0.0
 11
243.250008
 21
10.487740
 31
0.0
  0
LINE
  5
260
100
AcDbEntity
  8
Layer_1
 62
7
100
AcDbLine
 10
243.250008
 20
10.487740
 30
0.0
 11
244.286520
 21
11.841148
 31
0.0
  0
LINE
  5
261
100
AcDbEntity
  8
Layer_1
 62
7
100
AcDbLine
 10
244.286520
 20
11.841148
 30
0.0
 11
245.237488
 21
13.280700
 31
0.0
  0
LINE
  5
262
100
AcDbEntity
  8
Layer_1
 62
7
100
AcDbLine
 10
245.237488
 20
13.280700
 30
0.0
 11
246.102528
 21
14.806588
 31
0.0
  0
LINE
  5
263
100
AcDbEntity
  8
Layer_1
 62
7
100
AcDbLine
 10
246.102528
 20
14.806588
 30
0.0
 11
246.881248
 21
16.419004
 31
0.0
  0
LINE
  5
264
100
AcDbEntity
  8
Layer_1
 62
7
100
AcDbLine
 10
246.881248
 20
16.419004
 30
0.0
 11
247.573248
 21
18.118140
 31
0.0
  0
LINE
  5
265
100
AcDbEntity
  8
Layer_1
 62
7
100
AcDbLine
 10
247.573248
 20
18.118140
 30
0.0
 11
248.178136
 21
19.904180
 31
0.0
  0
LINE
  5
266
100
AcDbEntity
  8
Layer_1
 62
7
100
AcDbLine
 10
248.178136
 20
19.904180
 30
0.0
 11
248.695520
 21
21.777316
 31
0.0
  0
LINE
  5
267
100
AcDbEntity
  8
Layer_1
 62
7
100
AcDbLine
 10
248.695520
 20
21.777316
 30
0.0
 11
249.125008
 21
23.737740
 31
0.0
  0
LINE
  5
268
100
AcDbEntity
  8
Layer_1
 62
7
100
AcDbLine
 10
249.125008
 20
23.737740
 30
0.0
 11
249.485616
 21
25.862332
 31
0.0
  0
LINE
  5
269
100
AcDbEntity
  8
Layer_1
 62
7
100
AcDbLine
 10
249.485616
 20
25.862332
 30
0.0
 11
249.796872
 21
28.073660
 31
0.0
  0
LINE
  5
26a
100
AcDbEntity
  8
Layer_1
 62
7
100
AcDbLine
 10
249.796872
 20
28.073660
 30
0.0
 11
250.059176
 21
30.371716
 31
0.0
  0
LINE
  5
26b
100
AcDbEntity
  8
Layer_1
 62
7
100
AcDbLine
 10
250.059176
 20
30.371716
 30
0.0
 11
250.272920
 21
32.756508
 31
0.0
  0
LINE
  5
26c
100
AcDbEntity
  8
Layer_1
 62
7
100
AcDbLine
 10
250.272920
 20
32.756508
 30
0.0
 11
250.438480
 21
35.228004
 31
0.0
  0
LINE
  5
26d
100
AcDbEntity
  8
Layer_1
 62
7
100
AcDbLine
 10
250.438480
 20
35.228004
 30
0.0
 11
250.556256
 21
37.786220
 31
0.0
  0
LINE
  5
26e
100
AcDbEntity
  8
Layer_1
 62
7
100
AcDbLine
 10
250.556256
 20
37.786220
 30
0.0
 11
250.626656
 21
40.431132
 31
0.0
  0
LINE
  5
26f
100
AcDbEntity
  8
Layer_1
 62
7
100
AcDbLine
 10
250.626656
 20
40.431132
 30
0.0
 11
250.650016
 21
43.162740
 31
0.0
  0
LINE
  5
270
100
AcDbEntity
  8
Layer_1
 62
7
100
AcDbLine
 10
250.650016
 20
43.162740
 30
0.0
 11
250.650016
 21
43.972116
 31
0.0
  0
LINE
  5
271
100
AcDbEntity
  8
Layer_1
 62
7
100
AcDbLine
 10
250.650016
 20
43.972116
 30
0.0
 11
250.650016
 21
44.781492
 31
0.0
  0
LINE
  5
272
100
AcDbEntity
  8
Layer_1
 62
7
100
AcDbLine
 10
250.650016
 20
44.781492
 30
0.0
 11
250.650016
 21
45.590868
 31
0.0
  0
LINE
  5
273
100
AcDbEntity
  8
Layer_1
 62
7
100
AcDbLine
 10
250.650016
 20
45.590868
 30
0.0
 11
250.650016
 21
46.400244
 31
0.0
  0
LINE
  5
274
100
AcDbEntity
  8
Layer_1
 62
7
100
AcDbLine
 10
250.650016
 20
46.400244
 30
0.0
 11
250.650016
 21
47.209612
 31
0.0
  0
LINE
  5
275
100
AcDbEntity
  8
Layer_1
 62
7
100
AcDbLine
 10
250.650016
 20
47.209612
 30
0.0
 11
250.650016
 21
48.018988
 31
0.0
  0
LINE
  5
276
100
AcDbEntity
  8
Layer_1
 62
7
100
AcDbLine
 10
250.650016
 20
48.018988
 30
0.0
 11
250.650016
 21
48.828364
 31
0.0
  0
LINE
  5
277
100
AcDbEntity
  8
Layer_1
 62
7
100
AcDbLine
 10
250.650016
 20
48.828364
 30
0.0
 11
250.650016
 21
49.637740
 31
0.0
  0
LINE
  5
278
100
AcDbEntity
  8
Layer_1
 62
7
100
AcDbLine
 10
250.650016
 20
49.637740
 30
0.0
 11
250.645216
 21
50.490820
 31
0.0
  0
LINE
  5
279
100
AcDbEntity
  8
Layer_1
 62
7
100
AcDbLine
 10
250.645216
 20
50.490820
 30
0.0
 11
250.631696
 21
51.354132
 31
0.0
  0
LINE
  5
27a
100
AcDbEntity
  8
Layer_1
 62
7
100
AcDbLine
 10
250.631696
 20
51.354132
 30
0.0
 11
250.608976
 21
52.227484
 31
0.0
  0
LINE
  5
27b
100
AcDbEntity
  8
Layer_1
 62
7
100
AcDbLine
 10
250.608976
 20
52.227484
 30
0.0
 11
250.576736
 21
53.110660
 31
0.0
  0
LINE
  5
27c
100
AcDbEntity
  8
Layer_1
 62
7
100
AcDbLine
 10
250.576736
 20
53.110660
 30
0.0
 11
250.534896
 21
54.003468
 31
0.0
  0
LINE
  5
27d
100
AcDbEntity
  8
Layer_1
 62
7
100
AcDbLine
 10
250.534896
 20
54.003468
 30
0.0
 11
250.483216
 21
54.905724
 31
0.0
  0
LINE
  5
27e
100
AcDbEntity
  8
Layer_1
 62
7
100
AcDbLine
 10
250.483216
 20
54.905724
 30
0.0
 11
250.421536
 21
55.817212
 31
0.0
  0
LINE
  5
27f
100
AcDbEntity
  8
Layer_1
 62
7
100
AcDbLine
 10
250.421536
 20
55.817212
 30
0.0
 11
250.349616
 21
56.737740
 31
0.0
  0
LINE
  5
280
100
AcDbEntity
  8
Layer_1
 62
7
100
AcDbLine
 10
250.349616
 20
56.737740
 30
0.0
 11
249.275280
 21
55.373628
 31
0.0
  0
LINE
  5
281
100
AcDbEntity
  8
Layer_1
 62
7
100
AcDbLine
 10
249.275280
 20
55.373628
 30
0.0
 11
248.210568
 21
54.056508
 31
0.0
  0
LINE
  5
282
100
AcDbEntity
  8
Layer_1
 62
7
100
AcDbLine
 10
248.210568
 20
54.056508
 30
0.0
 11
247.155488
 21
52.786780
 31
0.0
  0
LINE
  5
283
100
AcDbEntity
  8
Layer_1
 62
7
100
AcDbLine
 10
247.155488
 20
52.786780
 30
0.0
 11
246.110032
 21
51.564836
 31
0.0
  0
LINE
  5
284
100
AcDbEntity
  8
Layer_1
 62
7
100
AcDbLine
 10
246.110032
 20
51.564836
 30
0.0
 11
245.074216
 21
50.391060
 31
0.0
  0
LINE
  5
285
100
AcDbEntity
  8
Layer_1
 62
7
100
AcDbLine
 10
245.074216
 20
50.391060
 30
0.0
 11
244.048040
 21
49.265860
 31
0.0
  0
LINE
  5
286
100
AcDbEntity
  8
Layer_1
 62
7
100
AcDbLine
 10
244.048040
 20
49.265860
 30
0.0
 11
243.031504
 21
48.189620
 31
0.0
  0
LINE
  5
287
100
AcDbEntity
  8
Layer_1
 62
7
100
AcDbLine
 10
243.031504
 20
48.189620
 30
0.0
 11
242.024616
 21
47.162740
 31
0.0
  0
LINE
  5
288
100
AcDbEntity
  8
Layer_1
 62
7
100
AcDbLine
 10
242.024616
 20
47.162740
 30
0.0
 11
241.007736
 21
46.180292
 31
0.0
  0
LINE
  5
289
100
AcDbEntity
  8
Layer_1
 62
7
100
AcDbLine
 10
241.007736
 20
46.180292
 30
0.0
 11
239.961344
 21
45.236972
 31
0.0
  0
LINE
  5
28a
100
AcDbEntity
  8
Layer_1
 62
7
100
AcDbLine
 10
239.961344
 20
45.236972
 30
0.0
 11
238.885656
 21
44.332572
 31
0.0
  0
LINE
  5
28b
100
AcDbEntity
  8
Layer_1
 62
7
100
AcDbLine
 10
238.885656
 20
44.332572
 30
0.0
 11
237.780864
 21
43.466908
 31
0.0
  0
LINE
  5
28c
100
AcDbEntity
  8
Layer_1
 62
7
100
AcDbLine
 10
237.780864
 20
43.466908
 30
0.0
 11
236.647160
 21
42.639788
 31
0.0
  0
LINE
  5
28d
100
AcDbEntity
  8
Layer_1
 62
7
100
AcDbLine
 10
236.647160
 20
42.639788
 30
0.0
 11
235.484752
 21
41.851012
 31
0.0
  0
LINE
  5
28e
100
AcDbEntity
  8
Layer_1
 62
7
100
AcDbLine
 10
235.484752
 20
41.851012
 30
0.0
 11
234.293840
 21
41.100396
 31
0.0
  0
LINE
  5
28f
100
AcDbEntity
  8
Layer_1
 62
7
100
AcDbLine
 10
234.293840
 20
41.100396
 30
0.0
 11
233.074616
 21
40.387740
 31
0.0
  0
LINE
  5
290
100
AcDbEntity
  8
Layer_1
 62
7
100
AcDbLine
 10
233.074616
 20
40.387740
 30
0.0
 11
231.895008
 21
39.790348
 31
0.0
  0
LINE
  5
291
100
AcDbEntity
  8
Layer_1
 62
7
100
AcDbLine
 10
231.895008
 20
39.790348
 30
0.0
 11
230.668376
 21
39.231500
 31
0.0
  0
LINE
  5
292
100
AcDbEntity
  8
Layer_1
 62
7
100
AcDbLine
 10
230.668376
 20
39.231500
 30
0.0
 11
229.394352
 21
38.711188
 31
0.0
  0
LINE
  5
293
100
AcDbEntity
  8
Layer_1
 62
7
100
AcDbLine
 10
229.394352
 20
38.711188
 30
0.0
 11
228.072528
 21
38.229412
 31
0.0
  0
LINE
  5
294
100
AcDbEntity
  8
Layer_1
 62
7
100
AcDbLine
 10
228.072528
 20
38.229412
 30
0.0
 11
226.702536
 21
37.786180
 31
0.0
  0
LINE
  5
295
100
AcDbEntity
  8
Layer_1
 62
7
100
AcDbLine
 10
226.702536
 20
37.786180
 30
0.0
 11
225.283968
 21
37.381492
 31
0.0
  0
LINE
  5
296
100
AcDbEntity
  8
Layer_1
 62
7
100
AcDbLine
 10
225.283968
 20
37.381492
 30
0.0
 11
223.816464
 21
37.015340
 31
0.0
  0
LINE
  5
297
100
AcDbEntity
  8
Layer_1
 62
7
100
AcDbLine
 10
223.816464
 20
37.015340
 30
0.0
 11
222.299616
 21
36.687740
 31
0.0
  0
LINE
  5
298
100
AcDbEntity
  8
Layer_1
 62
7
100
AcDbLine
 10
222.299616
 20
36.687740
 30
0.0
 11
220.795792
 21
36.399036
 31
0.0
  0
LINE
  5
299
100
AcDbEntity
  8
Layer_1
 62
7
100
AcDbLine
 10
220.795792
 20
36.399036
 30
0.0
 11
219.213696
 21
36.149468
 31
0.0
  0
LINE
  5
29a
100
AcDbEntity
  8
Layer_1
 62
7
100
AcDbLine
 10
219.213696
 20
36.149468
 30
0.0
 11
217.553720
 21
35.938820
 31
0.0
  0
LINE
  5
29b
100
AcDbEntity
  8
Layer_1
 62
7
100
AcDbLine
 10
217.553720
 20
35.938820
 30
0.0
 11
215.816272
 21
35.766916
 31
0.0
  0
LINE
  5
29c
100
AcDbEntity
  8
Layer_1
 62
7
100
AcDbLine
 10
215.816272
 20
35.766916
 30
0.0
 11
214.001744
 21
35.633548
 31
0.0
  0
LINE
  5
29d
100
AcDbEntity
  8
Layer_1
 62
7
100
AcDbLine
 10
214.001744
 20
35.633548
 30
0.0
 11
212.110520
 21
35.538524
 31
0.0
  0
LINE
  5
29e
100
AcDbEntity
  8
Layer_1
 62
7
100
AcDbLine
 10
212.110520
 20
35.538524
 30
0.0
 11
210.143016
 21
35.481644
 31
0.0
  0
LINE
  5
29f
100
AcDbEntity
  8
Layer_1
 62
7
100
AcDbLine
 10
210.143016
 20
35.481644
 30
0.0
 11
208.099616
 21
35.462764
 31
0.0
  0
LINE
  5
2a0
100
AcDbEntity
  8
Layer_1
 62
7
100
AcDbLine
 10
208.099616
 20
35.462764
 30
0.0
 11
204.182864
 21
35.506124
 31
0.0
  0
LINE
  5
2a1
100
AcDbEntity
  8
Layer_1
 62
7
100
AcDbLine
 10
204.182864
 20
35.506124
 30
0.0
 11
200.294976
 21
35.636204
 31
0.0
  0
LINE
  5
2a2
100
AcDbEntity
  8
Layer_1
 62
7
100
AcDbLine
 10
200.294976
 20
35.636204
 30
0.0
 11
196.435976
 21
35.853004
 31
0.0
  0
LINE
  5
2a3
100
AcDbEntity
  8
Layer_1
 62
7
100
AcDbLine
 10
196.435976
 20
35.853004
 30
0.0
 11
192.605872
 21
36.156524
 31
0.0
  0
LINE
  5
2a4
100
AcDbEntity
  8
Layer_1
 62
7
100
AcDbLine
 10
192.605872
 20
36.156524
 30
0.0
 11
188.804672
 21
36.546764
 31
0.0
  0
LINE
  5
2a5
100
AcDbEntity
  8
Layer_1
 62
7
100
AcDbLine
 10
188.804672
 20
36.546764
 30
0.0
 11
185.032384
 21
37.023716
 31
0.0
  0
LINE
  5
2a6
100
AcDbEntity
  8
Layer_1
 62
7
100
AcDbLine
 10
185.032384
 20
37.023716
 30
0.0
 11
181.289032
 21
37.587380
 31
0.0
  0
LINE
  5
2a7
100
AcDbEntity
  8
Layer_1
 62
7
100
AcDbLine
 10
181.289032
 20
37.587380
 30
0.0
 11
177.574616
 21
38.237764
 31
0.0
  0
LINE
  5
2a8
100
AcDbEntity
  8
Layer_1
 62
7
100
AcDbLine
 10
177.574616
 20
38.237764
 30
0.0
 11
173.918016
 21
38.888148
 31
0.0
  0
LINE
  5
2a9
100
AcDbEntity
  8
Layer_1
 62
7
100
AcDbLine
 10
173.918016
 20
38.888148
 30
0.0
 11
170.348104
 21
39.451812
 31
0.0
  0
LINE
  5
2aa
100
AcDbEntity
  8
Layer_1
 62
7
100
AcDbLine
 10
170.348104
 20
39.451812
 30
0.0
 11
166.864888
 21
39.928764
 31
0.0
  0
LINE
  5
2ab
100
AcDbEntity
  8
Layer_1
 62
7
100
AcDbLine
 10
166.864888
 20
39.928764
 30
0.0
 11
163.468376
 21
40.319004
 31
0.0
  0
LINE
  5
2ac
100
AcDbEntity
  8
Layer_1
 62
7
100
AcDbLine
 10
163.468376
 20
40.319004
 30
0.0
 11
160.158584
 21
40.622524
 31
0.0
  0
LINE
  5
2ad
100
AcDbEntity
  8
Layer_1
 62
7
100
AcDbLine
 10
160.158584
 20
40.622524
 30
0.0
 11
156.935520
 21
40.839324
 31
0.0
  0
LINE
  5
2ae
100
AcDbEntity
  8
Layer_1
 62
7
100
AcDbLine
 10
156.935520
 20
40.839324
 30
0.0
 11
153.799192
 21
40.969404
 31
0.0
  0
LINE
  5
2af
100
AcDbEntity
  8
Layer_1
 62
7
100
AcDbLine
 10
153.799192
 20
40.969404
 30
0.0
 11
150.749616
 21
41.012764
 31
0.0
  0
LINE
  5
2b0
100
AcDbEntity
  8
Layer_1
 62
7
100
AcDbLine
 10
150.749616
 20
41.012764
 30
0.0
 11
150.518368
 21
41.007164
 31
0.0
  0
LINE
  5
2b1
100
AcDbEntity
  8
Layer_1
 62
7
100
AcDbLine
 10
150.518368
 20
41.007164
 30
0.0
 11
150.287120
 21
40.990844
 31
0.0
  0
LINE
  5
2b2
100
AcDbEntity
  8
Layer_1
 62
7
100
AcDbLine
 10
150.287120
 20
40.990844
 30
0.0
 11
150.055864
 21
40.964124
 31
0.0
  0
LINE
  5
2b3
100
AcDbEntity
  8
Layer_1
 62
7
100
AcDbLine
 10
150.055864
 20
40.964124
 30
0.0
 11
149.824616
 21
40.927324
 31
0.0
  0
LINE
  5
2b4
100
AcDbEntity
  8
Layer_1
 62
7
100
AcDbLine
 10
149.824616
 20
40.927324
 30
0.0
 11
149.593368
 21
40.880924
 31
0.0
  0
LINE
  5
2b5
100
AcDbEntity
  8
Layer_1
 62
7
100
AcDbLine
 10
149.593368
 20
40.880924
 30
0.0
 11
149.362112
 21
40.825244
 31
0.0
  0
LINE
  5
2b6
100
AcDbEntity
  8
Layer_1
 62
7
100
AcDbLine
 10
149.362112
 20
40.825244
 30
0.0
 11
149.130864
 21
40.760764
 31
0.0
  0
LINE
  5
2b7
100
AcDbEntity
  8
Layer_1
 62
7
100
AcDbLine
 10
149.130864
 20
40.760764
 30
0.0
 11
148.899616
 21
40.687804
 31
0.0
  0
LINE
  5
2b8
100
AcDbEntity
  8
Layer_1
 62
7
100
AcDbLine
 10
148.899616
 20
40.687804
 30
0.0
 11
148.668368
 21
40.687804
 31
0.0
  0
LINE
  5
2b9
100
AcDbEntity
  8
Layer_1
 62
7
100
AcDbLine
 10
148.668368
 20
40.687804
 30
0.0
 11
148.437112
 21
40.687804
 31
0.0
  0
LINE
  5
2ba
100
AcDbEntity
  8
Layer_1
 62
7
100
AcDbLine
 10
148.437112
 20
40.687804
 30
0.0
 11
148.205864
 21
40.687804
 31
0.0
  0
LINE
  5
2bb
100
AcDbEntity
  8
Layer_1
 62
7
100
AcDbLine
 10
148.205864
 20
40.687804
 30
0.0
 11
147.974616
 21
40.687804
 31
0.0
  0
LINE
  5
2bc
100
AcDbEntity
  8
Layer_1
 62
7
100
AcDbLine
 10
147.974616
 20
40.687804
 30
0.0
 11
147.743368
 21
40.687804
 31
0.0
  0
LINE
  5
2bd
100
AcDbEntity
  8
Layer_1
 62
7
100
AcDbLine
 10
147.743368
 20
40.687804
 30
0.0
 11
147.512112
 21
40.687804
 31
0.0
  0
LINE
  5
2be
100
AcDbEntity
  8
Layer_1
 62
7
100
AcDbLine
 10
147.512112
 20
40.687804
 30
0.0
 11
147.280864
 21
40.687804
 31
0.0
  0
LINE
  5
2bf
100
AcDbEntity
  8
Layer_1
 62
7
100
AcDbLine
 10
147.280864
 20
40.687804
 30
0.0
 11
147.049616
 21
40.687804
 31
0.0
  0
LINE
  5
2c0
100
AcDbEntity
  8
Layer_1
 62
7
100
AcDbLine
 10
147.049616
 20
40.687804
 30
0.0
 11
148.514904
 21
43.371956
 31
0.0
  0
LINE
  5
2c1
100
AcDbEntity
  8
Layer_1
 62
7
100
AcDbLine
 10
148.514904
 20
43.371956
 30
0.0
 11
150.135544
 21
46.028396
 31
0.0
  0
LINE
  5
2c2
100
AcDbEntity
  8
Layer_1
 62
7
100
AcDbLine
 10
150.135544
 20
46.028396
 30
0.0
 11
151.911144
 21
48.656732
 31
0.0
  0
LINE
  5
2c3
100
AcDbEntity
  8
Layer_1
 62
7
100
AcDbLine
 10
151.911144
 20
48.656732
 30
0.0
 11
153.841304
 21
51.256556
 31
0.0
  0
LINE
  5
2c4
100
AcDbEntity
  8
Layer_1
 62
7
100
AcDbLine
 10
153.841304
 20
51.256556
 30
0.0
 11
155.925624
 21
53.827468
 31
0.0
  0
LINE
  5
2c5
100
AcDbEntity
  8
Layer_1
 62
7
100
AcDbLine
 10
155.925624
 20
53.827468
 30
0.0
 11
158.163720
 21
56.369084
 31
0.0
  0
LINE
  5
2c6
100
AcDbEntity
  8
Layer_1
 62
7
100
AcDbLine
 10
158.163720
 20
56.369084
 30
0.0
 11
160.555176
 21
58.880996
 31
0.0
  0
LINE
  5
2c7
100
AcDbEntity
  8
Layer_1
 62
7
100
AcDbLine
 10
160.555176
 20
58.880996
 30
0.0
 11
163.099616
 21
61.362804
 31
0.0
  0
LINE
  5
2c8
100
AcDbEntity
  8
Layer_1
 62
7
100
AcDbLine
 10
163.099616
 20
61.362804
 30
0.0
 11
165.748616
 21
63.906524
 31
0.0
  0
LINE
  5
2c9
100
AcDbEntity
  8
Layer_1
 62
7
100
AcDbLine
 10
165.748616
 20
63.906524
 30
0.0
 11
168.454272
 21
66.450276
 31
0.0
  0
LINE
  5
2ca
100
AcDbEntity
  8
Layer_1
 62
7
100
AcDbLine
 10
168.454272
 20
66.450276
 30
0.0
 11
171.216984
 21
68.994036
 31
0.0
  0
LINE
  5
2cb
100
AcDbEntity
  8
Layer_1
 62
7
100
AcDbLine
 10
171.216984
 20
68.994036
 30
0.0
 11
174.037128
 21
71.537804
 31
0.0
  0
LINE
  5
2cc
100
AcDbEntity
  8
Layer_1
 62
7
100
AcDbLine
 10
174.037128
 20
71.537804
 30
0.0
 11
176.915080
 21
74.081572
 31
0.0
  0
LINE
  5
2cd
100
AcDbEntity
  8
Layer_1
 62
7
100
AcDbLine
 10
176.915080
 20
74.081572
 30
0.0
 11
179.851224
 21
76.625332
 31
0.0
  0
LINE
  5
2ce
100
AcDbEntity
  8
Layer_1
 62
7
100
AcDbLine
 10
179.851224
 20
76.625332
 30
0.0
 11
182.845944
 21
79.169084
 31
0.0
  0
LINE
  5
2cf
100
AcDbEntity
  8
Layer_1
 62
7
100
AcDbLine
 10
182.845944
 20
79.169084
 30
0.0
 11
185.899616
 21
81.712804
 31
0.0
  0
LINE
  5
2d0
100
AcDbEntity
  8
Layer_1
 62
7
100
AcDbLine
 10
185.899616
 20
81.712804
 30
0.0
 11
189.060712
 21
84.265444
 31
0.0
  0
LINE
  5
2d1
100
AcDbEntity
  8
Layer_1
 62
7
100
AcDbLine
 10
189.060712
 20
84.265444
 30
0.0
 11
192.223016
 21
86.836212
 31
0.0
  0
LINE
  5
2d2
100
AcDbEntity
  8
Layer_1
 62
7
100
AcDbLine
 10
192.223016
 20
86.836212
 30
0.0
 11
195.386112
 21
89.425476
 31
0.0
  0
LINE
  5
2d3
100
AcDbEntity
  8
Layer_1
 62
7
100
AcDbLine
 10
195.386112
 20
89.425476
 30
0.0
 11
198.549616
 21
92.033636
 31
0.0
  0
LINE
  5
2d4
100
AcDbEntity
  8
Layer_1
 62
7
100
AcDbLine
 10
198.549616
 20
92.033636
 30
0.0
 11
201.713120
 21
94.661068
 31
0.0
  0
LINE
  5
2d5
100
AcDbEntity
  8
Layer_1
 62
7
100
AcDbLine
 10
201.713120
 20
94.661068
 30
0.0
 11
204.876216
 21
97.308148
 31
0.0
  0
LINE
  5
2d6
100
AcDbEntity
  8
Layer_1
 62
7
100
AcDbLine
 10
204.876216
 20
97.308148
 30
0.0
 11
208.038520
 21
99.975268
 31
0.0
  0
LINE
  5
2d7
100
AcDbEntity
  8
Layer_1
 62
7
100
AcDbLine
 10
208.038520
 20
99.975268
 30
0.0
 11
211.199616
 21
102.662804
 31
0.0
  0
LINE
  5
2d8
100
AcDbEntity
  8
Layer_1
 62
7
100
AcDbLine
 10
211.199616
 20
102.662804
 30
0.0
 11
214.398184
 21
105.384780
 31
0.0
  0
LINE
  5
2d9
100
AcDbEntity
  8
Layer_1
 62
7
100
AcDbLine
 10
214.398184
 20
105.384780
 30
0.0
 11
217.519104
 21
108.154956
 31
0.0
  0
LINE
  5
2da
100
AcDbEntity
  8
Layer_1
 62
7
100
AcDbLine
 10
217.519104
 20
108.154956
 30
0.0
 11
220.562576
 21
110.973332
 31
0.0
  0
LINE
  5
2db
100
AcDbEntity
  8
Layer_1
 62
7
100
AcDbLine
 10
220.562576
 20
110.973332
 30
0.0
 11
223.528776
 21
113.839892
 31
0.0
  0
LINE
  5
2dc
100
AcDbEntity
  8
Layer_1
 62
7
100
AcDbLine
 10
223.528776
 20
113.839892
 30
0.0
 11
226.417896
 21
116.754628
 31
0.0
  0
LINE
  5
2dd
100
AcDbEntity
  8
Layer_1
 62
7
100
AcDbLine
 10
226.417896
 20
116.754628
 30
0.0
 11
229.230112
 21
119.717532
 31
0.0
  0
LINE
  5
2de
100
AcDbEntity
  8
Layer_1
 62
7
100
AcDbLine
 10
229.230112
 20
119.717532
 30
0.0
 11
231.965624
 21
122.728596
 31
0.0
  0
LINE
  5
2df
100
AcDbEntity
  8
Layer_1
 62
7
100
AcDbLine
 10
231.965624
 20
122.728596
 30
0.0
 11
234.624616
 21
125.787804
 31
0.0
  0
LINE
  5
2e0
100
AcDbEntity
  8
Layer_1
 62
7
100
AcDbLine
 10
234.624616
 20
125.787804
 30
0.0
 11
237.182432
 21
128.900372
 31
0.0
  0
LINE
  5
2e1
100
AcDbEntity
  8
Layer_1
 62
7
100
AcDbLine
 10
237.182432
 20
128.900372
 30
0.0
 11
239.614424
 21
132.071364
 31
0.0
  0
LINE
  5
2e2
100
AcDbEntity
  8
Layer_1
 62
7
100
AcDbLine
 10
239.614424
 20
132.071364
 30
0.0
 11
241.920776
 21
135.300580
 31
0.0
  0
LINE
  5
2e3
100
AcDbEntity
  8
Layer_1
 62
7
100
AcDbLine
 10
241.920776
 20
135.300580
 30
0.0
 11
244.101680
 21
138.587812
 31
0.0
  0
LINE
  5
2e4
100
AcDbEntity
  8
Layer_1
 62
7
100
AcDbLine
 10
244.101680
 20
138.587812
 30
0.0
 11
246.157336
 21
141.932860
 31
0.0
  0
LINE
  5
2e5
100
AcDbEntity
  8
Layer_1
 62
7
100
AcDbLine
 10
246.157336
 20
141.932860
 30
0.0
 11
248.087912
 21
145.335508
 31
0.0
  0
LINE
  5
2e6
100
AcDbEntity
  8
Layer_1
 62
7
100
AcDbLine
 10
248.087912
 20
145.335508
 30
0.0
 11
249.893608
 21
148.795556
 31
0.0
  0
LINE
  5
2e7
100
AcDbEntity
  8
Layer_1
 62
7
100
AcDbLine
 10
249.893608
 20
148.795556
 30
0.0
 11
251.574616
 21
152.312804
 31
0.0
  0
LINE
  5
2e8
100
AcDbEntity
  8
Layer_1
 62
7
100
AcDbLine
 10
251.574616
 20
152.312804
 30
0.0
 11
253.165152
 21
155.984218
 31
0.0
  0
LINE
  5
2e9
100
AcDbEntity
  8
Layer_1
 62
7
100
AcDbLine
 10
253.165152
 20
155.984218
 30
0.0
 11
254.544896
 21
159.752607
 31
0.0
  0
LINE
  5
2ea
100
AcDbEntity
  8
Layer_1
 62
7
100
AcDbLine
 10
254.544896
 20
159.752607
 30
0.0
 11
255.713456
 21
163.617766
 31
0.0
  0
LINE
  5
2eb
100
AcDbEntity
  8
Layer_1
 62
7
100
AcDbLine
 10
255.713456
 20
163.617766
 30
0.0
 11
256.670424
 21
167.579484
 31
0.0
  0
LINE
  5
2ec
100
AcDbEntity
  8
Layer_1
 62
7
100
AcDbLine
 10
256.670424
 20
167.579484
 30
0.0
 11
257.415416
 21
171.637555
 31
0.0
  0
LINE
  5
2ed
100
AcDbEntity
  8
Layer_1
 62
7
100
AcDbLine
 10
257.415416
 20
171.637555
 30
0.0
 11
257.948040
 21
175.791770
 31
0.0
  0
LINE
  5
2ee
100
AcDbEntity
  8
Layer_1
 62
7
100
AcDbLine
 10
257.948040
 20
175.791770
 30
0.0
 11
258.267904
 21
180.041923
 31
0.0
  0
LINE
  5
2ef
100
AcDbEntity
  8
Layer_1
 62
7
100
AcDbLine
 10
258.267904
 20
180.041923
 30
0.0
 11
258.374616
 21
184.387804
 31
0.0
  0
LINE
  5
2f0
100
AcDbEntity
  8
Layer_1
 62
7
100
AcDbLine
 10
258.374616
 20
184.387804
 30
0.0
 11
258.321256
 21
187.205772
 31
0.0
  0
LINE
  5
2f1
100
AcDbEntity
  8
Layer_1
 62
7
100
AcDbLine
 10
258.321256
 20
187.205772
 30
0.0
 11
258.161320
 21
189.955731
 31
0.0
  0
LINE
  5
2f2
100
AcDbEntity
  8
Layer_1
 62
7
100
AcDbLine
 10
258.161320
 20
189.955731
 30
0.0
 11
257.895008
 21
192.637870
 31
0.0
  0
LINE
  5
2f3
100
AcDbEntity
  8
Layer_1
 62
7
100
AcDbLine
 10
257.895008
 20
192.637870
 30
0.0
 11
257.522512
 21
195.252376
 31
0.0
  0
LINE
  5
2f4
100
AcDbEntity
  8
Layer_1
 62
7
100
AcDbLine
 10
257.522512
 20
195.252376
 30
0.0
 11
257.044024
 21
197.799435
 31
0.0
  0
LINE
  5
2f5
100
AcDbEntity
  8
Layer_1
 62
7
100
AcDbLine
 10
257.044024
 20
197.799435
 30
0.0
 11
256.459752
 21
200.279234
 31
0.0
  0
LINE
  5
2f6
100
AcDbEntity
  8
Layer_1
 62
7
100
AcDbLine
 10
256.459752
 20
200.279234
 30
0.0
 11
255.769880
 21
202.691962
 31
0.0
  0
LINE
  5
2f7
100
AcDbEntity
  8
Layer_1
 62
7
100
AcDbLine
 10
255.769880
 20
202.691962
 30
0.0
 11
254.975000
 21
205.037720
 31
0.0
  0
LINE
  5
2f8
100
AcDbEntity
  8
Layer_1
 62
7
100
AcDbLine
 10
254.975000
 20
205.037720
 30
0.0
 11
254.141544
 21
207.306834
 31
0.0
  0
LINE
  5
2f9
100
AcDbEntity
  8
Layer_1
 62
7
100
AcDbLine
 10
254.141544
 20
207.306834
 30
0.0
 11
253.182816
 21
209.489250
 31
0.0
  0
LINE
  5
2fa
100
AcDbEntity
  8
Layer_1
 62
7
100
AcDbLine
 10
253.182816
 20
209.489250
 30
0.0
 11
252.098824
 21
211.584961
 31
0.0
  0
LINE
  5
2fb
100
AcDbEntity
  8
Layer_1
 62
7
100
AcDbLine
 10
252.098824
 20
211.584961
 30
0.0
 11
250.889568
 21
213.593960
 31
0.0
  0
LINE
  5
2fc
100
AcDbEntity
  8
Layer_1
 62
7
100
AcDbLine
 10
250.889568
 20
213.593960
 30
0.0
 11
249.555048
 21
215.516242
 31
0.0
  0
LINE
  5
2fd
100
AcDbEntity
  8
Layer_1
 62
7
100
AcDbLine
 10
249.555048
 20
215.516242
 30
0.0
 11
248.095280
 21
217.351800
 31
0.0
  0
LINE
  5
2fe
100
AcDbEntity
  8
Layer_1
 62
7
100
AcDbLine
 10
248.095280
 20
217.351800
 30
0.0
 11
246.510264
 21
219.100628
 31
0.0
  0
LINE
  5
2ff
100
AcDbEntity
  8
Layer_1
 62
7
100
AcDbLine
 10
246.510264
 20
219.100628
 30
0.0
 11
244.800000
 21
220.762720
 31
0.0
  0
LINE
  5
300
100
AcDbEntity
  8
Layer_1
 62
7
100
AcDbLine
 10
244.800000
 20
220.762720
 30
0.0
 11
243.031560
 21
222.333631
 31
0.0
  0
LINE
  5
301
100
AcDbEntity
  8
Layer_1
 62
7
100
AcDbLine
 10
243.031560
 20
222.333631
 30
0.0
 11
241.117976
 21
223.808787
 31
0.0
  0
LINE
  5
302
100
AcDbEntity
  8
Layer_1
 62
7
100
AcDbLine
 10
241.117976
 20
223.808787
 30
0.0
 11
239.059472
 21
225.187989
 31
0.0
  0
LINE
  5
303
100
AcDbEntity
  8
Layer_1
 62
7
100
AcDbLine
 10
239.059472
 20
225.187989
 30
0.0
 11
236.856224
 21
226.471038
 31
0.0
  0
LINE
  5
304
100
AcDbEntity
  8
Layer_1
 62
7
100
AcDbLine
 10
236.856224
 20
226.471038
 30
0.0
 11
234.508456
 21
227.657735
 31
0.0
  0
LINE
  5
305
100
AcDbEntity
  8
Layer_1
 62
7
100
AcDbLine
 10
234.508456
 20
227.657735
 30
0.0
 11
232.016360
 21
228.747880
 31
0.0
  0
LINE
  5
306
100
AcDbEntity
  8
Layer_1
 62
7
100
AcDbLine
 10
232.016360
 20
228.747880
 30
0.0
 11
229.380144
 21
229.741275
 31
0.0
  0
LINE
  5
307
100
AcDbEntity
  8
Layer_1
 62
7
100
AcDbLine
 10
229.380144
 20
229.741275
 30
0.0
 11
226.600000
 21
230.637720
 31
0.0
  0
LINE
  5
308
100
AcDbEntity
  8
Layer_1
 62
7
100
AcDbLine
 10
226.600000
 20
230.637720
 30
0.0
 11
223.752760
 21
231.504895
 31
0.0
  0
LINE
  5
309
100
AcDbEntity
  8
Layer_1
 62
7
100
AcDbLine
 10
223.752760
 20
231.504895
 30
0.0
 11
220.760960
 21
232.256452
 31
0.0
  0
LINE
  5
30a
100
AcDbEntity
  8
Layer_1
 62
7
100
AcDbLine
 10
220.760960
 20
232.256452
 30
0.0
 11
217.624616
 21
232.892389
 31
0.0
  0
LINE
  5
30b
100
AcDbEntity
  8
Layer_1
 62
7
100
AcDbLine
 10
217.624616
 20
232.892389
 30
0.0
 11
214.343728
 21
233.412704
 31
0.0
  0
LINE
  5
30c
100
AcDbEntity
  8
Layer_1
 62
7
100
AcDbLine
 10
214.343728
 20
233.412704
 30
0.0
 11
210.918312
 21
233.817396
 31
0.0
  0
LINE
  5
30d
100
AcDbEntity
  8
Layer_1
 62
7
100
AcDbLine
 10
210.918312
 20
233.817396
 30
0.0
 11
207.348384
 21
234.106464
 31
0.0
  0
LINE
  5
30e
100
AcDbEntity
  8
Layer_1
 62
7
100
AcDbLine
 10
207.348384
 20
234.106464
 30
0.0
 11
203.633936
 21
234.279906
 31
0.0
  0
LINE
  5
30f
100
AcDbEntity
  8
Layer_1
 62
7
100
AcDbLine
 10
203.633936
 20
234.279906
 30
0.0
 11
199.775000
 21
234.337720
 31
0.0
  0
LINE
  5
310
100
AcDbEntity
  8
Layer_1
 62
7
100
AcDbLine
 10
199.775000
 20
234.337720
 30
0.0
 11
195.468016
 21
234.269912
 31
0.0
  0
LINE
  5
311
100
AcDbEntity
  8
Layer_1
 62
7
100
AcDbLine
 10
195.468016
 20
234.269912
 30
0.0
 11
191.334440
 21
234.066619
 31
0.0
  0
LINE
  5
312
100
AcDbEntity
  8
Layer_1
 62
7
100
AcDbLine
 10
191.334440
 20
234.066619
 30
0.0
 11
187.374272
 21
233.728039
 31
0.0
  0
LINE
  5
313
100
AcDbEntity
  8
Layer_1
 62
7
100
AcDbLine
 10
187.374272
 20
233.728039
 30
0.0
 11
183.587520
 21
233.254368
 31
0.0
  0
LINE
  5
314
100
AcDbEntity
  8
Layer_1
 62
7
100
AcDbLine
 10
183.587520
 20
233.254368
 30
0.0
 11
179.974216
 21
232.645804
 31
0.0
  0
LINE
  5
315
100
AcDbEntity
  8
Layer_1
 62
7
100
AcDbLine
 10
179.974216
 20
232.645804
 30
0.0
 11
176.534344
 21
231.902543
 31
0.0
  0
LINE
  5
316
100
AcDbEntity
  8
Layer_1
 62
7
100
AcDbLine
 10
176.534344
 20
231.902543
 30
0.0
 11
173.267936
 21
231.024783
 31
0.0
  0
LINE
  5
317
100
AcDbEntity
  8
Layer_1
 62
7
100
AcDbLine
 10
173.267936
 20
231.024783
 30
0.0
 11
170.175000
 21
230.012720
 31
0.0
  0
LINE
  5
318
100
AcDbEntity
  8
Layer_1
 62
7
100
AcDbLine
 10
170.175000
 20
230.012720
 30
0.0
 11
167.236592
 21
228.972462
 31
0.0
  0
LINE
  5
319
100
AcDbEntity
  8
Layer_1
 62
7
100
AcDbLine
 10
167.236592
 20
228.972462
 30
0.0
 11
164.433640
 21
227.855696
 31
0.0
  0
LINE
  5
31a
100
AcDbEntity
  8
Layer_1
 62
7
100
AcDbLine
 10
164.433640
 20
227.855696
 30
0.0
 11
161.765960
 21
226.662230
 31
0.0
  0
LINE
  5
31b
100
AcDbEntity
  8
Layer_1
 62
7
100
AcDbLine
 10
161.765960
 20
226.662230
 30
0.0
 11
159.233352
 21
225.391874
 31
0.0
  0
LINE
  5
31c
100
AcDbEntity
  8
Layer_1
 62
7
100
AcDbLine
 10
159.233352
 20
225.391874
 30
0.0
 11
156.835648
 21
224.044436
 31
0.0
  0
LINE
  5
31d
100
AcDbEntity
  8
Layer_1
 62
7
100
AcDbLine
 10
156.835648
 20
224.044436
 30
0.0
 11
154.572640
 21
222.619726
 31
0.0
  0
LINE
  5
31e
100
AcDbEntity
  8
Layer_1
 62
7
100
AcDbLine
 10
154.572640
 20
222.619726
 30
0.0
 11
152.444152
 21
221.117550
 31
0.0
  0
LINE
  5
31f
100
AcDbEntity
  8
Layer_1
 62
7
100
AcDbLine
 10
152.444152
 20
221.117550
 30
0.0
 11
150.450000
 21
219.537720
 31
0.0
  0
LINE
  5
320
100
AcDbEntity
  8
Layer_1
 62
7
100
AcDbLine
 10
150.450000
 20
219.537720
 30
0.0
 11
149.955432
 21
219.098990
 31
0.0
  0
LINE
  5
321
100
AcDbEntity
  8
Layer_1
 62
7
100
AcDbLine
 10
149.955432
 20
219.098990
 30
0.0
 11
149.470112
 21
218.656340
 31
0.0
  0
LINE
  5
322
100
AcDbEntity
  8
Layer_1
 62
7
100
AcDbLine
 10
149.470112
 20
218.656340
 30
0.0
 11
148.993992
 21
218.209674
 31
0.0
  0
LINE
  5
323
100
AcDbEntity
  8
Layer_1
 62
7
100
AcDbLine
 10
148.993992
 20
218.209674
 30
0.0
 11
148.527032
 21
217.758897
 31
0.0
  0
LINE
  5
324
100
AcDbEntity
  8
Layer_1
 62
7
100
AcDbLine
 10
148.527032
 20
217.758897
 30
0.0
 11
148.069200
 21
217.303909
 31
0.0
  0
LINE
  5
325
100
AcDbEntity
  8
Layer_1
 62
7
100
AcDbLine
 10
148.069200
 20
217.303909
 30
0.0
 11
147.620440
 21
216.844614
 31
0.0
  0
LINE
  5
326
100
AcDbEntity
  8
Layer_1
 62
7
100
AcDbLine
 10
147.620440
 20
216.844614
 30
0.0
 11
147.180720
 21
216.380918
 31
0.0
  0
LINE
  5
327
100
AcDbEntity
  8
Layer_1
 62
7
100
AcDbLine
 10
147.180720
 20
216.380918
 30
0.0
 11
146.750000
 21
215.912720
 31
0.0
  0
LINE
  5
328
100
AcDbEntity
  8
Layer_1
 62
7
100
AcDbLine
 10
146.750000
 20
215.912720
 30
0.0
 11
147.253128
 21
218.253345
 31
0.0
  0
LINE
  5
329
100
AcDbEntity
  8
Layer_1
 62
7
100
AcDbLine
 10
147.253128
 20
218.253345
 30
0.0
 11
147.756248
 21
220.593970
 31
0.0
  0
LINE
  5
32a
100
AcDbEntity
  8
Layer_1
 62
7
100
AcDbLine
 10
147.756248
 20
220.593970
 30
0.0
 11
148.259376
 21
222.934595
 31
0.0
  0
LINE
  5
32b
100
AcDbEntity
  8
Layer_1
 62
7
100
AcDbLine
 10
148.259376
 20
222.934595
 30
0.0
 11
148.762496
 21
225.275220
 31
0.0
  0
LINE
  5
32c
100
AcDbEntity
  8
Layer_1
 62
7
100
AcDbLine
 10
148.762496
 20
225.275220
 30
0.0
 11
149.265624
 21
227.615845
 31
0.0
  0
LINE
  5
32d
100
AcDbEntity
  8
Layer_1
 62
7
100
AcDbLine
 10
149.265624
 20
227.615845
 30
0.0
 11
149.768752
 21
229.956470
 31
0.0
  0
LINE
  5
32e
100
AcDbEntity
  8
Layer_1
 62
7
100
AcDbLine
 10
149.768752
 20
229.956470
 30
0.0
 11
150.271872
 21
232.297095
 31
0.0
  0
LINE
  5
32f
100
AcDbEntity
  8
Layer_1
 62
7
100
AcDbLine
 10
150.271872
 20
232.297095
 30
0.0
 11
150.775000
 21
234.637720
 31
0.0
  0
LINE
  5
330
100
AcDbEntity
  8
Layer_1
 62
7
100
AcDbLine
 10
150.775000
 20
234.637720
 30
0.0
 11
145.071872
 21
233.865845
 31
0.0
  0
LINE
  5
331
100
AcDbEntity
  8
Layer_1
 62
7
100
AcDbLine
 10
145.071872
 20
233.865845
 30
0.0
 11
139.368752
 21
233.093970
 31
0.0
  0
LINE
  5
332
100
AcDbEntity
  8
Layer_1
 62
7
100
AcDbLine
 10
139.368752
 20
233.093970
 30
0.0
 11
133.665624
 21
232.322095
 31
0.0
  0
LINE
  5
333
100
AcDbEntity
  8
Layer_1
 62
7
100
AcDbLine
 10
133.665624
 20
232.322095
 30
0.0
 11
127.962496
 21
231.550220
 31
0.0
  0
LINE
  5
334
100
AcDbEntity
  8
Layer_1
 62
7
100
AcDbLine
 10
127.962496
 20
231.550220
 30
0.0
 11
122.259376
 21
230.778345
 31
0.0
  0
LINE
  5
335
100
AcDbEntity
  8
Layer_1
 62
7
100
AcDbLine
 10
122.259376
 20
230.778345
 30
0.0
 11
116.556248
 21
230.006470
 31
0.0
  0
LINE
  5
336
100
AcDbEntity
  8
Layer_1
 62
7
100
AcDbLine
 10
116.556248
 20
230.006470
 30
0.0
 11
110.853128
 21
229.234595
 31
0.0
  0
LINE
  5
337
100
AcDbEntity
  8
Layer_1
 62
7
100
AcDbLine
 10
110.853128
 20
229.234595
 30
0.0
 11
105.150000
 21
228.462720
 31
0.0
  0
LINE
  5
338
100
AcDbEntity
  8
Layer_1
 62
7
100
AcDbLine
 10
105.150000
 20
228.462720
 30
0.0
 11
101.987504
 21
213.778345
 31
0.0
  0
LINE
  5
339
100
AcDbEntity
  8
Layer_1
 62
7
100
AcDbLine
 10
101.987504
 20
213.778345
 30
0.0
 11
98.825000
 21
199.093970
 31
0.0
  0
LINE
  5
33a
100
AcDbEntity
  8
Layer_1
 62
7
100
AcDbLine
 10
98.825000
 20
199.093970
 30
0.0
 11
95.662504
 21
184.409595
 31
0.0
  0
LINE
  5
33b
100
AcDbEntity
  8
Layer_1
 62
7
100
AcDbLine
 10
95.662504
 20
184.409595
 30
0.0
 11
92.500000
 21
169.725220
 31
0.0
  0
LINE
  5
33c
100
AcDbEntity
  8
Layer_1
 62
7
100
AcDbLine
 10
92.500000
 20
169.725220
 30
0.0
 11
89.337504
 21
155.040845
 31
0.0
  0
LINE
  5
33d
100
AcDbEntity
  8
Layer_1
 62
7
100
AcDbLine
 10
89.337504
 20
155.040845
 30
0.0
 11
86.175000
 21
140.356472
 31
0.0
  0
LINE
  5
33e
100
AcDbEntity
  8
Layer_1
 62
7
100
AcDbLine
 10
86.175000
 20
140.356472
 30
0.0
 11
83.012504
 21
125.672096
 31
0.0
  0
LINE
  5
33f
100
AcDbEntity
  8
Layer_1
 62
7
100
AcDbLine
 10
83.012504
 20
125.672096
 30
0.0
 11
79.850000
 21
110.987720
 31
0.0
  0
LINE
  5
340
100
AcDbEntity
  8
Layer_1
 62
7
100
AcDbLine
 10
79.850000
 20
110.987720
 30
0.0
 11
74.225000
 21
110.987720
 31
0.0
  0
LINE
  5
341
100
AcDbEntity
  8
Layer_1
 62
7
100
AcDbLine
 10
74.225000
 20
110.987720
 30
0.0
 11
68.600000
 21
110.987720
 31
0.0
  0
LINE
  5
342
100
AcDbEntity
  8
Layer_1
 62
7
100
AcDbLine
 10
68.600000
 20
110.987720
 30
0.0
 11
62.975000
 21
110.987720
 31
0.0
  0
LINE
  5
343
100
AcDbEntity
  8
Layer_1
 62
7
100
AcDbLine
 10
62.975000
 20
110.987720
 30
0.0
 11
57.350000
 21
110.987720
 31
0.0
  0
LINE
  5
344
100
AcDbEntity
  8
Layer_1
 62
7
100
AcDbLine
 10
57.350000
 20
110.987720
 30
0.0
 11
51.725000
 21
110.987720
 31
0.0
  0
LINE
  5
345
100
AcDbEntity
  8
Layer_1
 62
7
100
AcDbLine
 10
51.725000
 20
110.987720
 30
0.0
 11
46.100000
 21
110.987720
 31
0.0
  0
LINE
  5
346
100
AcDbEntity
  8
Layer_1
 62
7
100
AcDbLine
 10
46.100000
 20
110.987720
 30
0.0
 11
40.475000
 21
110.987720
 31
0.0
  0
LINE
  5
347
100
AcDbEntity
  8
Layer_1
 62
7
100
AcDbLine
 10
40.475000
 20
110.987720
 30
0.0
 11
34.850000
 21
110.987720
 31
0.0
  0
LINE
  5
348
100
AcDbEntity
  8
Layer_1
 62
7
100
AcDbLine
 10
34.850000
 20
110.987720
 30
0.0
 11
36.333838
 21
113.758232
 31
0.0
  0
LINE
  5
349
100
AcDbEntity
  8
Layer_1
 62
7
100
AcDbLine
 10
36.333838
 20
113.758232
 30
0.0
 11
37.856232
 21
116.519720
 31
0.0
  0
LINE
  5
34a
100
AcDbEntity
  8
Layer_1
 62
7
100
AcDbLine
 10
37.856232
 20
116.519720
 30
0.0
 11
39.417178
 21
119.271976
 31
0.0
  0
LINE
  5
34b
100
AcDbEntity
  8
Layer_1
 62
7
100
AcDbLine
 10
39.417178
 20
119.271976
 30
0.0
 11
41.016670
 21
122.014800
 31
0.0
  0
LINE
  5
34c
100
AcDbEntity
  8
Layer_1
 62
7
100
AcDbLine
 10
41.016670
 20
122.014800
 30
0.0
 11
42.654703
 21
124.747992
 31
0.0
  0
LINE
  5
34d
100
AcDbEntity
  8
Layer_1
 62
7
100
AcDbLine
 10
42.654703
 20
124.747992
 30
0.0
 11
44.331273
 21
127.471344
 31
0.0
  0
LINE
  5
34e
100
AcDbEntity
  8
Layer_1
 62
7
100
AcDbLine
 10
44.331273
 20
127.471344
 30
0.0
 11
46.046374
 21
130.184656
 31
0.0
  0
LINE
  5
34f
100
AcDbEntity
  8
Layer_1
 62
7
100
AcDbLine
 10
46.046374
 20
130.184656
 30
0.0
 11
47.800000
 21
132.887720
 31
0.0
  0
LINE
  5
350
100
AcDbEntity
  8
Layer_1
 62
7
100
AcDbLine
 10
47.800000
 20
132.887720
 30
0.0
 11
49.635526
 21
135.662688
 31
0.0
  0
LINE
  5
351
100
AcDbEntity
  8
Layer_1
 62
7
100
AcDbLine
 10
49.635526
 20
135.662688
 30
0.0
 11
51.442162
 21
138.437680
 31
0.0
  0
LINE
  5
352
100
AcDbEntity
  8
Layer_1
 62
7
100
AcDbLine
 10
51.442162
 20
138.437680
 30
0.0
 11
53.219902
 21
141.212696
 31
0.0
  0
LINE
  5
353
100
AcDbEntity
  8
Layer_1
 62
7
100
AcDbLine
 10
53.219902
 20
141.212696
 30
0.0
 11
54.968744
 21
143.987720
 31
0.0
  0
LINE
  5
354
100
AcDbEntity
  8
Layer_1
 62
7
100
AcDbLine
 10
54.968744
 20
143.987720
 30
0.0
 11
56.688680
 21
146.762736
 31
0.0
  0
LINE
  5
355
100
AcDbEntity
  8
Layer_1
 62
7
100
AcDbLine
 10
56.688680
 20
146.762736
 30
0.0
 11
58.379705
 21
149.537752
 31
0.0
  0
LINE
  5
356
100
AcDbEntity
  8
Layer_1
 62
7
100
AcDbLine
 10
58.379705
 20
149.537752
 30
0.0
 11
60.041814
 21
152.312752
 31
0.0
  0
LINE
  5
357
100
AcDbEntity
  8
Layer_1
 62
7
100
AcDbLine
 10
60.041814
 20
152.312752
 30
0.0
 11
61.675000
 21
155.087720
 31
0.0
  0
LINE
  5
358
100
AcDbEntity
  8
Layer_1
 62
7
100
AcDbLine
 10
61.675000
 20
155.087720
 30
0.0
 11
63.259290
 21
157.944590
 31
0.0
  0
LINE
  5
359
100
AcDbEntity
  8
Layer_1
 62
7
100
AcDbLine
 10
63.259290
 20
157.944590
 30
0.0
 11
64.774975
 21
160.811123
 31
0.0
  0
LINE
  5
35a
100
AcDbEntity
  8
Layer_1
 62
7
100
AcDbLine
 10
64.774975
 20
160.811123
 30
0.0
 11
66.222442
 21
163.687310
 31
0.0
  0
LINE
  5
35b
100
AcDbEntity
  8
Layer_1
 62
7
100
AcDbLine
 10
66.222442
 20
163.687310
 30
0.0
 11
67.602074
 21
166.573140
 31
0.0
  0
LINE
  5
35c
100
AcDbEntity
  8
Layer_1
 62
7
100
AcDbLine
 10
67.602074
 20
166.573140
 30
0.0
 11
68.914260
 21
169.468606
 31
0.0
  0
LINE
  5
35d
100
AcDbEntity
  8
Layer_1
 62
7
100
AcDbLine
 10
68.914260
 20
169.468606
 30
0.0
 11
70.159386
 21
172.373697
 31
0.0
  0
LINE
  5
35e
100
AcDbEntity
  8
Layer_1
 62
7
100
AcDbLine
 10
70.159386
 20
172.373697
 30
0.0
 11
71.337837
 21
175.288405
 31
0.0
  0
LINE
  5
35f
100
AcDbEntity
  8
Layer_1
 62
7
100
AcDbLine
 10
71.337837
 20
175.288405
 30
0.0
 11
72.450000
 21
178.212720
 31
0.0
  0
LINE
  5
360
100
AcDbEntity
  8
Layer_1
 62
7
100
AcDbLine
 10
72.450000
 20
178.212720
 30
0.0
 11
73.533969
 21
181.147030
 31
0.0
  0
LINE
  5
361
100
AcDbEntity
  8
Layer_1
 62
7
100
AcDbLine
 10
73.533969
 20
181.147030
 30
0.0
 11
74.473415
 21
184.091590
 31
0.0
  0
LINE
  5
362
100
AcDbEntity
  8
Layer_1
 62
7
100
AcDbLine
 10
74.473415
 20
184.091590
 30
0.0
 11
75.268336
 21
187.046194
 31
0.0
  0
LINE
  5
363
100
AcDbEntity
  8
Layer_1
 62
7
100
AcDbLine
 10
75.268336
 20
187.046194
 30
0.0
 11
75.918730
 21
190.010638
 31
0.0
  0
LINE
  5
364
100
AcDbEntity
  8
Layer_1
 62
7
100
AcDbLine
 10
75.918730
 20
190.010638
 30
0.0
 11
76.424595
 21
192.984717
 31
0.0
  0
LINE
  5
365
100
AcDbEntity
  8
Layer_1
 62
7
100
AcDbLine
 10
76.424595
 20
192.984717
 30
0.0
 11
76.785930
 21
195.968226
 31
0.0
  0
LINE
  5
366
100
AcDbEntity
  8
Layer_1
 62
7
100
AcDbLine
 10
76.785930
 20
195.968226
 30
0.0
 11
77.002732
 21
198.960962
 31
0.0
  0
LINE
  5
367
100
AcDbEntity
  8
Layer_1
 62
7
100
AcDbLine
 10
77.002732
 20
198.960962
 30
0.0
 11
77.074996
 21
201.962720
 31
0.0
  0
LINE
  5
368
100
AcDbEntity
  8
Layer_1
 62
7
100
AcDbLine
 10
77.074996
 20
201.962720
 30
0.0
 11
77.031636
 21
204.226299
 31
0.0
  0
LINE
  5
369
100
AcDbEntity
  8
Layer_1
 62
7
100
AcDbLine
 10
77.031636
 20
204.226299
 30
0.0
 11
76.901558
 21
206.392372
 31
0.0
  0
LINE
  5
36a
100
AcDbEntity
  8
Layer_1
 62
7
100
AcDbLine
 10
76.901558
 20
206.392372
 30
0.0
 11
76.684757
 21
208.461323
 31
0.0
  0
LINE
  5
36b
100
AcDbEntity
  8
Layer_1
 62
7
100
AcDbLine
 10
76.684757
 20
208.461323
 30
0.0
 11
76.381238
 21
210.433538
 31
0.0
  0
LINE
  5
36c
100
AcDbEntity
  8
Layer_1
 62
7
100
AcDbLine
 10
76.381238
 20
210.433538
 30
0.0
 11
75.991002
 21
212.309400
 31
0.0
  0
LINE
  5
36d
100
AcDbEntity
  8
Layer_1
 62
7
100
AcDbLine
 10
75.991002
 20
212.309400
 30
0.0
 11
75.514049
 21
214.089295
 31
0.0
  0
LINE
  5
36e
100
AcDbEntity
  8
Layer_1
 62
7
100
AcDbLine
 10
75.514049
 20
214.089295
 30
0.0
 11
74.950382
 21
215.773607
 31
0.0
  0
LINE
  5
36f
100
AcDbEntity
  8
Layer_1
 62
7
100
AcDbLine
 10
74.950382
 20
215.773607
 30
0.0
 11
74.300000
 21
217.362720
 31
0.0
  0
LINE
  5
370
100
AcDbEntity
  8
Layer_1
 62
7
100
AcDbLine
 10
74.300000
 20
217.362720
 30
0.0
 11
73.572891
 21
218.938091
 31
0.0
  0
LINE
  5
371
100
AcDbEntity
  8
Layer_1
 62
7
100
AcDbLine
 10
73.572891
 20
218.938091
 30
0.0
 11
72.778912
 21
220.426757
 31
0.0
  0
LINE
  5
372
100
AcDbEntity
  8
Layer_1
 62
7
100
AcDbLine
 10
72.778912
 20
220.426757
 30
0.0
 11
71.917870
 21
221.828714
 31
0.0
  0
LINE
  5
373
100
AcDbEntity
  8
Layer_1
 62
7
100
AcDbLine
 10
71.917870
 20
221.828714
 30
0.0
 11
70.989574
 21
223.143958
 31
0.0
  0
LINE
  5
374
100
AcDbEntity
  8
Layer_1
 62
7
100
AcDbLine
 10
70.989574
 20
223.143958
 30
0.0
 11
69.993831
 21
224.372485
 31
0.0
  0
LINE
  5
375
100
AcDbEntity
  8
Layer_1
 62
7
100
AcDbLine
 10
69.993831
 20
224.372485
 30
0.0
 11
68.930450
 21
225.514290
 31
0.0
  0
LINE
  5
376
100
AcDbEntity
  8
Layer_1
 62
7
100
AcDbLine
 10
68.930450
 20
225.514290
 30
0.0
 11
67.799236
 21
226.569370
 31
0.0
  0
LINE
  5
377
100
AcDbEntity
  8
Layer_1
 62
7
100
AcDbLine
 10
67.799236
 20
226.569370
 30
0.0
 11
66.600000
 21
227.537720
 31
0.0
  0
LINE
  5
378
100
AcDbEntity
  8
Layer_1
 62
7
100
AcDbLine
 10
66.600000
 20
227.537720
 30
0.0
 11
65.419316
 21
228.429344
 31
0.0
  0
LINE
  5
379
100
AcDbEntity
  8
Layer_1
 62
7
100
AcDbLine
 10
65.419316
 20
228.429344
 30
0.0
 11
64.189857
 21
229.254113
 31
0.0
  0
LINE
  5
37a
100
AcDbEntity
  8
Layer_1
 62
7
100
AcDbLine
 10
64.189857
 20
229.254113
 30
0.0
 11
62.911822
 21
230.011829
 31
0.0
  0
LINE
  5
37b
100
AcDbEntity
  8
Layer_1
 62
7
100
AcDbLine
 10
62.911822
 20
230.011829
 30
0.0
 11
61.585412
 21
230.702296
 31
0.0
  0
LINE
  5
37c
100
AcDbEntity
  8
Layer_1
 62
7
100
AcDbLine
 10
61.585412
 20
230.702296
 30
0.0
 11
60.210825
 21
231.325316
 31
0.0
  0
LINE
  5
37d
100
AcDbEntity
  8
Layer_1
 62
7
100
AcDbLine
 10
60.210825
 20
231.325316
 30
0.0
 11
58.788261
 21
231.880691
 31
0.0
  0
LINE
  5
37e
100
AcDbEntity
  8
Layer_1
 62
7
100
AcDbLine
 10
58.788261
 20
231.880691
 30
0.0
 11
57.317919
 21
232.368225
 31
0.0
  0
LINE
  5
37f
100
AcDbEntity
  8
Layer_1
 62
7
100
AcDbLine
 10
57.317919
 20
232.368225
 30
0.0
 11
55.800000
 21
232.787720
 31
0.0
  0
LINE
  5
380
100
AcDbEntity
  8
Layer_1
 62
7
100
AcDbLine
 10
55.800000
 20
232.787720
 30
0.0
 11
54.248715
 21
233.221308
 31
0.0
  0
LINE
  5
381
100
AcDbEntity
  8
Layer_1
 62
7
100
AcDbLine
 10
54.248715
 20
233.221308
 30
0.0
 11
52.678145
 21
233.597086
 31
0.0
  0
LINE
  5
382
100
AcDbEntity
  8
Layer_1
 62
7
100
AcDbLine
 10
52.678145
 20
233.597086
 30
0.0
 11
51.088294
 21
233.915054
 31
0.0
  0
LINE
  5
383
100
AcDbEntity
  8
Layer_1
 62
7
100
AcDbLine
 10
51.088294
 20
233.915054
 30
0.0
 11
49.479166
 21
234.175212
 31
0.0
  0
LINE
  5
384
100
AcDbEntity
  8
Layer_1
 62
7
100
AcDbLine
 10
49.479166
 20
234.175212
 30
0.0
 11
47.850768
 21
234.377558
 31
0.0
  0
LINE
  5
385
100
AcDbEntity
  8
Layer_1
 62
7
100
AcDbLine
 10
47.850768
 20
234.377558
 30
0.0
 11
46.203104
 21
234.522092
 31
0.0
  0
LINE
  5
386
100
AcDbEntity
  8
Layer_1
 62
7
100
AcDbLine
 10
46.203104
 20
234.522092
 30
0.0
 11
44.536180
 21
234.608813
 31
0.0
  0
LINE
  5
387
100
AcDbEntity
  8
Layer_1
 62
7
100
AcDbLine
 10
44.536180
 20
234.608813
 30
0.0
 11
42.850000
 21
234.637720
 31
0.0
  0
ENDSEC
  0
SECTION
  2
OBJECTS
  0
DICTIONARY
  5
C
330
0
100
AcDbDictionary
  3
ACAD_GROUP
350
D
  3
ACAD_MLINESTYLE
350
17
  0
DICTIONARY
  5
D
330
C
100
AcDbDictionary
  0
DICTIONARY
  5
1A
330
C
100
AcDbDictionary
  0
DICTIONARY
  5
17
330
C
100
AcDbDictionary
  3
STANDARD
350
18
  0
DICTIONARY
  5
19
330
C
100
AcDbDictionary
  0
ENDSEC
  0
EOF
