  0
SECTION
  2
HEADER
  9
$ACADVER
  1
AC1014
  9
$HANDSEED
  5
FFFF
  9
$MEASUREMENT
 70
     1
  0
ENDSEC
  0
SECTION
  2
TABLES
  0
TABLE
  2
VPORT
  5
8
330
0
100
AcDbSymbolTable
 70
     4
  0
VPORT
  5
2E
330
8
100
AcDbSymbolTableRecord
100
AcDbViewportTableRecord
  2
*ACTIVE
 70
     0
 10
0.0
 20
0.0
 11
1.0
 21
1.0
 12
210.0
 22
148.5
 13
0.0
 23
0.0
 14
10.0
 24
10.0
 15
10.0
 25
10.0
 16
0.0
 26
0.0
 36
1.0
 17
0.0
 27
0.0
 37
0.0
 40
341.0
 41
1.24
 42
50.0
 43
0.0
 44
0.0
 50
0.0
 51
0.0
 71
     0
 72
   100
 73
     1
 74
     3
 75
     0
 76
     0
 77
     0
 78
     0
  0
ENDTAB
  0
TABLE
  2
LTYPE
  5
5
330
0
100
AcDbSymbolTable
 70
     1
  0
LTYPE
  5
14
330
5
100
AcDbSymbolTableRecord
100
AcDbLinetypeTableRecord
  2
BYBLOCK
 70
     0
  3

 72
    65
 73
     0
 40
0.0
  0
LTYPE
  5
15
330
5
100
AcDbSymbolTableRecord
100
AcDbLinetypeTableRecord
  2
BYLAYER
 70
     0
  3

 72
    65
 73
     0
 40
0.0
  0
LTYPE
  5
16
330
5
100
AcDbSymbolTableRecord
100
AcDbLinetypeTableRecord
  2
CONTINUOUS
 70
     0
  3
Solid line
 72
    65
 73
     0
 40
0.0
  0
ENDTAB
  0
TABLE
  2
LAYER
  5
2
100
AcDbSymbolTable
 70
4
  0
LAYER
  5
50
100
AcDbSymbolTableRecord
100
AcDbLayerTableRecord
  2
0
 70
0
  6
CONTINUOUS
  0
LAYER
  5
51
100
AcDbSymbolTableRecord
100
AcDbLayerTableRecord
  2
fundo
 70
0
  6
CONTINUOUS
  0
LAYER
  5
52
100
AcDbSymbolTableRecord
100
AcDbLayerTableRecord
  2
desenho
 70
0
  6
CONTINUOUS
  0
LAYER
  5
53
100
AcDbSymbolTableRecord
100
AcDbLayerTableRecord
  2
argola
 70
0
  6
CONTINUOUS
  0
ENDTAB
  0
TABLE
  2
STYLE
  5
3
330
0
100
AcDbSymbolTable
 70
     1
  0
STYLE
  5
11
330
3
100
AcDbSymbolTableRecord
100
AcDbTextStyleTableRecord
  2
STANDARD
 70
     0
 40
0.0
 41
1.0
 50
0.0
 71
     0
 42
2.5
  3
txt
  4

  0
ENDTAB
  0
TABLE
  2
VIEW
  5
6
330
0
100
AcDbSymbolTable
 70
     0
  0
ENDTAB
  0
TABLE
  2
UCS
  5
7
330
0
100
AcDbSymbolTable
 70
     0
  0
ENDTAB
  0
TABLE
  2
APPID
  5
9
330
0
100
AcDbSymbolTable
 70
     2
  0
APPID
  5
12
330
9
100
AcDbSymbolTableRecord
100
AcDbRegAppTableRecord
  2
ACAD
 70
     0
  0
ENDTAB
  0
TABLE
  2
DIMSTYLE
  5
A
330
0
100
AcDbSymbolTable
 70
     1
  0
DIMSTYLE
105
27
330
A
100
AcDbSymbolTableRecord
100
AcDbDimStyleTableRecord
  2
ISO-25
 70
     0
  3

  4

  5

  6

  7

 40
1.0
 41
2.5
 42
0.625
 43
3.75
 44
1.25
 45
0.0
 46
0.0
 47
0.0
 48
0.0
140
2.5
141
2.5
142
0.0
143
0.03937007874016
144
1.0
145
0.0
146
1.0
147
0.625
 71
     0
 72
     0
 73
     0
 74
     0
 75
     0
 76
     0
 77
     1
 78
     8
170
     0
171
     3
172
     1
173
     0
174
     0
175
     0
176
     0
177
     0
178
     0
270
     2
271
     2
272
     2
273
     2
274
     3
340
11
275
     0
280
     0
281
     0
282
     0
283
     0
284
     8
285
     0
286
     0
287
     3
288
     0
  0
ENDTAB
  0
TABLE
  2
BLOCK_RECORD
  5
1
330
0
100
AcDbSymbolTable
 70
     1
  0
BLOCK_RECORD
  5
1F
330
1
100
AcDbSymbolTableRecord
100
AcDbBlockTableRecord
  2
*MODEL_SPACE
  0
BLOCK_RECORD
  5
1B
330
1
100
AcDbSymbolTableRecord
100
AcDbBlockTableRecord
  2
*PAPER_SPACE
  0
ENDTAB
  0
ENDSEC
  0
SECTION
  2
BLOCKS
  0
BLOCK
  5
20
330
1F
100
AcDbEntity
  8
0
100
AcDbBlockBegin
  2
*MODEL_SPACE
 70
     0
 10
0.0
 20
0.0
 30
0.0
  3
*MODEL_SPACE
  1

  0
ENDBLK
  5
21
330
1F
100
AcDbEntity
  8
0
100
AcDbBlockEnd
  0
BLOCK
  5
1C
330
1B
100
AcDbEntity
 67
     1
  8
0
100
AcDbBlockBegin
  2
*PAPER_SPACE
  1

  0
ENDBLK
  5
1D
330
1B
100
AcDbEntity
 67
     1
  8
0
100
AcDbBlockEnd
  0
ENDSEC
  0
SECTION
  2
ENTITIES
  0
LINE
  5
100
100
AcDbEntity
  8
fundo
 62
7
100
AcDbLine
 10
22.140798
 20
49.982344
 30
0.0
 11
20.030382
 21
49.720441
 31
0.0
  0
LINE
  5
101
100
AcDbEntity
  8
fundo
 62
7
100
AcDbLine
 10
20.030382
 20
49.720441
 30
0.0
 11
18.012709
 21
49.165680
 31
0.0
  0
LINE
  5
102
100
AcDbEntity
  8
fundo
 62
7
100
AcDbLine
 10
18.012709
 20
49.165680
 30
0.0
 11
16.084340
 21
48.360127
 31
0.0
  0
LINE
  5
103
100
AcDbEntity
  8
fundo
 62
7
100
AcDbLine
 10
16.084340
 20
48.360127
 30
0.0
 11
14.241834
 21
47.345849
 31
0.0
  0
LINE
  5
104
100
AcDbEntity
  8
fundo
 62
7
100
AcDbLine
 10
14.241834
 20
47.345849
 30
0.0
 11
12.481751
 21
46.164910
 31
0.0
  0
LINE
  5
105
100
AcDbEntity
  8
fundo
 62
7
100
AcDbLine
 10
12.481751
 20
46.164910
 30
0.0
 11
10.800651
 21
44.859377
 31
0.0
  0
LINE
  5
106
100
AcDbEntity
  8
fundo
 62
7
100
AcDbLine
 10
10.800651
 20
44.859377
 30
0.0
 11
9.195093
 21
43.471316
 31
0.0
  0
LINE
  5
107
100
AcDbEntity
  8
fundo
 62
7
100
AcDbLine
 10
9.195093
 20
43.471316
 30
0.0
 11
7.661637
 21
42.042790
 31
0.0
  0
LINE
  5
108
100
AcDbEntity
  8
fundo
 62
7
100
AcDbLine
 10
7.661637
 20
42.042790
 30
0.0
 11
7.354365
 21
41.736692
 31
0.0
  0
LINE
  5
109
100
AcDbEntity
  8
fundo
 62
7
100
AcDbLine
 10
7.354365
 20
41.736692
 30
0.0
 11
7.396187
 21
41.577508
 31
0.0
  0
LINE
  5
10a
100
AcDbEntity
  8
fundo
 62
7
100
AcDbLine
 10
7.396187
 20
41.577508
 30
0.0
 11
7.703562
 21
41.530082
 31
0.0
  0
LINE
  5
10b
100
AcDbEntity
  8
fundo
 62
7
100
AcDbLine
 10
7.703562
 20
41.530082
 30
0.0
 11
8.192948
 21
41.559254
 31
0.0
  0
LINE
  5
10c
100
AcDbEntity
  8
fundo
 62
7
100
AcDbLine
 10
8.192948
 20
41.559254
 30
0.0
 11
8.780803
 21
41.629867
 31
0.0
  0
LINE
  5
10d
100
AcDbEntity
  8
fundo
 62
7
100
AcDbLine
 10
8.780803
 20
41.629867
 30
0.0
 11
9.383586
 21
41.706762
 31
0.0
  0
LINE
  5
10e
100
AcDbEntity
  8
fundo
 62
7
100
AcDbLine
 10
9.383586
 20
41.706762
 30
0.0
 11
9.917755
 21
41.754780
 31
0.0
  0
LINE
  5
10f
100
AcDbEntity
  8
fundo
 62
7
100
AcDbLine
 10
9.917755
 20
41.754780
 30
0.0
 11
10.299767
 21
41.738764
 31
0.0
  0
LINE
  5
110
100
AcDbEntity
  8
fundo
 62
7
100
AcDbLine
 10
10.299767
 20
41.738764
 30
0.0
 11
12.073508
 21
41.781180
 31
0.0
  0
LINE
  5
111
100
AcDbEntity
  8
fundo
 62
7
100
AcDbLine
 10
12.073508
 20
41.781180
 30
0.0
 11
13.815124
 21
41.557115
 31
0.0
  0
LINE
  5
112
100
AcDbEntity
  8
fundo
 62
7
100
AcDbLine
 10
13.815124
 20
41.557115
 30
0.0
 11
15.500628
 21
41.085824
 31
0.0
  0
LINE
  5
113
100
AcDbEntity
  8
fundo
 62
7
100
AcDbLine
 10
15.500628
 20
41.085824
 30
0.0
 11
17.106031
 21
40.386560
 31
0.0
  0
LINE
  5
114
100
AcDbEntity
  8
fundo
 62
7
100
AcDbLine
 10
17.106031
 20
40.386560
 30
0.0
 11
18.607345
 21
39.478576
 31
0.0
  0
LINE
  5
115
100
AcDbEntity
  8
fundo
 62
7
100
AcDbLine
 10
18.607345
 20
39.478576
 30
0.0
 11
19.980583
 21
38.381126
 31
0.0
  0
LINE
  5
116
100
AcDbEntity
  8
fundo
 62
7
100
AcDbLine
 10
19.980583
 20
38.381126
 30
0.0
 11
21.201755
 21
37.113465
 31
0.0
  0
LINE
  5
117
100
AcDbEntity
  8
fundo
 62
7
100
AcDbLine
 10
21.201755
 20
37.113465
 30
0.0
 11
22.246874
 21
35.694844
 31
0.0
  0
LINE
  5
118
100
AcDbEntity
  8
fundo
 62
7
100
AcDbLine
 10
22.246874
 20
35.694844
 30
0.0
 11
22.965128
 21
34.580826
 31
0.0
  0
LINE
  5
119
100
AcDbEntity
  8
fundo
 62
7
100
AcDbLine
 10
22.965128
 20
34.580826
 30
0.0
 11
23.611553
 21
33.426300
 31
0.0
  0
LINE
  5
11a
100
AcDbEntity
  8
fundo
 62
7
100
AcDbLine
 10
23.611553
 20
33.426300
 30
0.0
 11
24.187134
 21
32.235961
 31
0.0
  0
LINE
  5
11b
100
AcDbEntity
  8
fundo
 62
7
100
AcDbLine
 10
24.187134
 20
32.235961
 30
0.0
 11
24.692857
 21
31.014503
 31
0.0
  0
LINE
  5
11c
100
AcDbEntity
  8
fundo
 62
7
100
AcDbLine
 10
24.692857
 20
31.014503
 30
0.0
 11
25.129707
 21
29.766620
 31
0.0
  0
LINE
  5
11d
100
AcDbEntity
  8
fundo
 62
7
100
AcDbLine
 10
25.129707
 20
29.766620
 30
0.0
 11
25.498670
 21
28.497008
 31
0.0
  0
LINE
  5
11e
100
AcDbEntity
  8
fundo
 62
7
100
AcDbLine
 10
25.498670
 20
28.497008
 30
0.0
 11
25.800732
 21
27.210360
 31
0.0
  0
LINE
  5
11f
100
AcDbEntity
  8
fundo
 62
7
100
AcDbLine
 10
25.800732
 20
27.210360
 30
0.0
 11
26.036879
 21
25.911370
 31
0.0
  0
LINE
  5
120
100
AcDbEntity
  8
fundo
 62
7
100
AcDbLine
 10
26.036879
 20
25.911370
 30
0.0
 11
23.399664
 21
25.988744
 31
0.0
  0
LINE
  5
121
100
AcDbEntity
  8
fundo
 62
7
100
AcDbLine
 10
23.399664
 20
25.988744
 30
0.0
 11
20.927928
 21
25.151267
 31
0.0
  0
LINE
  5
122
100
AcDbEntity
  8
fundo
 62
7
100
AcDbLine
 10
20.927928
 20
25.151267
 30
0.0
 11
18.640725
 21
23.758017
 31
0.0
  0
LINE
  5
123
100
AcDbEntity
  8
fundo
 62
7
100
AcDbLine
 10
18.640725
 20
23.758017
 30
0.0
 11
16.557110
 21
22.168076
 31
0.0
  0
LINE
  5
124
100
AcDbEntity
  8
fundo
 62
7
100
AcDbLine
 10
16.557110
 20
22.168076
 30
0.0
 11
15.739518
 21
21.755470
 31
0.0
  0
LINE
  5
125
100
AcDbEntity
  8
fundo
 62
7
100
AcDbLine
 10
15.739518
 20
21.755470
 30
0.0
 11
14.816260
 21
21.444190
 31
0.0
  0
LINE
  5
126
100
AcDbEntity
  8
fundo
 62
7
100
AcDbLine
 10
14.816260
 20
21.444190
 30
0.0
 11
13.888372
 21
21.378526
 31
0.0
  0
LINE
  5
127
100
AcDbEntity
  8
fundo
 62
7
100
AcDbLine
 10
13.888372
 20
21.378526
 30
0.0
 11
13.056887
 21
21.702768
 31
0.0
  0
LINE
  5
128
100
AcDbEntity
  8
fundo
 62
7
100
AcDbLine
 10
13.056887
 20
21.702768
 30
0.0
 11
12.870054
 21
22.711453
 31
0.0
  0
LINE
  5
129
100
AcDbEntity
  8
fundo
 62
7
100
AcDbLine
 10
12.870054
 20
22.711453
 30
0.0
 11
13.062743
 21
23.744132
 31
0.0
  0
LINE
  5
12a
100
AcDbEntity
  8
fundo
 62
7
100
AcDbLine
 10
13.062743
 20
23.744132
 30
0.0
 11
13.653570
 21
24.528747
 31
0.0
  0
LINE
  5
12b
100
AcDbEntity
  8
fundo
 62
7
100
AcDbLine
 10
13.653570
 20
24.528747
 30
0.0
 11
14.661156
 21
24.793242
 31
0.0
  0
LINE
  5
12c
100
AcDbEntity
  8
fundo
 62
7
100
AcDbLine
 10
14.661156
 20
24.793242
 30
0.0
 11
16.541083
 21
24.757496
 31
0.0
  0
LINE
  5
12d
100
AcDbEntity
  8
fundo
 62
7
100
AcDbLine
 10
16.541083
 20
24.757496
 30
0.0
 11
18.449574
 21
24.794608
 31
0.0
  0
LINE
  5
12e
100
AcDbEntity
  8
fundo
 62
7
100
AcDbLine
 10
18.449574
 20
24.794608
 30
0.0
 11
20.267791
 21
25.176545
 31
0.0
  0
LINE
  5
12f
100
AcDbEntity
  8
fundo
 62
7
100
AcDbLine
 10
20.267791
 20
25.176545
 30
0.0
 11
21.876893
 21
26.175276
 31
0.0
  0
LINE
  5
130
100
AcDbEntity
  8
fundo
 62
7
100
AcDbLine
 10
21.876893
 20
26.175276
 30
0.0
 11
22.933314
 21
27.716034
 31
0.0
  0
LINE
  5
131
100
AcDbEntity
  8
fundo
 62
7
100
AcDbLine
 10
22.933314
 20
27.716034
 30
0.0
 11
23.129081
 21
29.543196
 31
0.0
  0
LINE
  5
132
100
AcDbEntity
  8
fundo
 62
7
100
AcDbLine
 10
23.129081
 20
29.543196
 30
0.0
 11
22.559857
 21
31.320182
 31
0.0
  0
LINE
  5
133
100
AcDbEntity
  8
fundo
 62
7
100
AcDbLine
 10
22.559857
 20
31.320182
 30
0.0
 11
21.321302
 21
32.710412
 31
0.0
  0
LINE
  5
134
100
AcDbEntity
  8
fundo
 62
7
100
AcDbLine
 10
21.321302
 20
32.710412
 30
0.0
 11
20.563046
 21
33.690291
 31
0.0
  0
LINE
  5
135
100
AcDbEntity
  8
fundo
 62
7
100
AcDbLine
 10
20.563046
 20
33.690291
 30
0.0
 11
19.429035
 21
34.157397
 31
0.0
  0
LINE
  5
136
100
AcDbEntity
  8
fundo
 62
7
100
AcDbLine
 10
19.429035
 20
34.157397
 30
0.0
 11
18.206369
 21
34.067688
 31
0.0
  0
LINE
  5
137
100
AcDbEntity
  8
fundo
 62
7
100
AcDbLine
 10
18.206369
 20
34.067688
 30
0.0
 11
17.182149
 21
33.377121
 31
0.0
  0
LINE
  5
138
100
AcDbEntity
  8
fundo
 62
7
100
AcDbLine
 10
17.182149
 20
33.377121
 30
0.0
 11
16.244043
 21
33.369733
 31
0.0
  0
LINE
  5
139
100
AcDbEntity
  8
fundo
 62
7
100
AcDbLine
 10
16.244043
 20
33.369733
 30
0.0
 11
15.405624
 21
33.453968
 31
0.0
  0
LINE
  5
13a
100
AcDbEntity
  8
fundo
 62
7
100
AcDbLine
 10
15.405624
 20
33.453968
 30
0.0
 11
14.603983
 21
33.751324
 31
0.0
  0
LINE
  5
13b
100
AcDbEntity
  8
fundo
 62
7
100
AcDbLine
 10
14.603983
 20
33.751324
 30
0.0
 11
13.776211
 21
34.383301
 31
0.0
  0
LINE
  5
13c
100
AcDbEntity
  8
fundo
 62
7
100
AcDbLine
 10
13.776211
 20
34.383301
 30
0.0
 11
13.142892
 21
35.163437
 31
0.0
  0
LINE
  5
13d
100
AcDbEntity
  8
fundo
 62
7
100
AcDbLine
 10
13.142892
 20
35.163437
 30
0.0
 11
12.656118
 21
35.883550
 31
0.0
  0
LINE
  5
13e
100
AcDbEntity
  8
fundo
 62
7
100
AcDbLine
 10
12.656118
 20
35.883550
 30
0.0
 11
12.068627
 21
36.419754
 31
0.0
  0
LINE
  5
13f
100
AcDbEntity
  8
fundo
 62
7
100
AcDbLine
 10
12.068627
 20
36.419754
 30
0.0
 11
11.133154
 21
36.648162
 31
0.0
  0
LINE
  5
140
100
AcDbEntity
  8
fundo
 62
7
100
AcDbLine
 10
11.133154
 20
36.648162
 30
0.0
 11
10.146273
 21
36.631277
 31
0.0
  0
LINE
  5
141
100
AcDbEntity
  8
fundo
 62
7
100
AcDbLine
 10
10.146273
 20
36.631277
 30
0.0
 11
9.213300
 21
36.599556
 31
0.0
  0
LINE
  5
142
100
AcDbEntity
  8
fundo
 62
7
100
AcDbLine
 10
9.213300
 20
36.599556
 30
0.0
 11
8.297274
 21
36.667193
 31
0.0
  0
LINE
  5
143
100
AcDbEntity
  8
fundo
 62
7
100
AcDbLine
 10
8.297274
 20
36.667193
 30
0.0
 11
7.361236
 21
36.948379
 31
0.0
  0
LINE
  5
144
100
AcDbEntity
  8
fundo
 62
7
100
AcDbLine
 10
7.361236
 20
36.948379
 30
0.0
 11
6.346556
 21
37.195865
 31
0.0
  0
LINE
  5
145
100
AcDbEntity
  8
fundo
 62
7
100
AcDbLine
 10
6.346556
 20
37.195865
 30
0.0
 11
5.144330
 21
37.168083
 31
0.0
  0
LINE
  5
146
100
AcDbEntity
  8
fundo
 62
7
100
AcDbLine
 10
5.144330
 20
37.168083
 30
0.0
 11
4.171087
 21
36.752642
 31
0.0
  0
LINE
  5
147
100
AcDbEntity
  8
fundo
 62
7
100
AcDbLine
 10
4.171087
 20
36.752642
 30
0.0
 11
3.843355
 21
35.837147
 31
0.0
  0
LINE
  5
148
100
AcDbEntity
  8
fundo
 62
7
100
AcDbLine
 10
3.843355
 20
35.837147
 30
0.0
 11
3.825239
 21
34.908283
 31
0.0
  0
LINE
  5
149
100
AcDbEntity
  8
fundo
 62
7
100
AcDbLine
 10
3.825239
 20
34.908283
 30
0.0
 11
3.544054
 21
34.222492
 31
0.0
  0
LINE
  5
14a
100
AcDbEntity
  8
fundo
 62
7
100
AcDbLine
 10
3.544054
 20
34.222492
 30
0.0
 11
3.021959
 21
33.674172
 31
0.0
  0
LINE
  5
14b
100
AcDbEntity
  8
fundo
 62
7
100
AcDbLine
 10
3.021959
 20
33.674172
 30
0.0
 11
2.281115
 21
33.157721
 31
0.0
  0
LINE
  5
14c
100
AcDbEntity
  8
fundo
 62
7
100
AcDbLine
 10
2.281115
 20
33.157721
 30
0.0
 11
1.467075
 21
32.711701
 31
0.0
  0
LINE
  5
14d
100
AcDbEntity
  8
fundo
 62
7
100
AcDbLine
 10
1.467075
 20
32.711701
 30
0.0
 11
0.557926
 21
32.148854
 31
0.0
  0
LINE
  5
14e
100
AcDbEntity
  8
fundo
 62
7
100
AcDbLine
 10
0.557926
 20
32.148854
 30
0.0
 11
0.111326
 21
31.524892
 31
0.0
  0
LINE
  5
14f
100
AcDbEntity
  8
fundo
 62
7
100
AcDbLine
 10
0.111326
 20
31.524892
 30
0.0
 11
0.684931
 21
30.895527
 31
0.0
  0
LINE
  5
150
100
AcDbEntity
  8
fundo
 62
7
100
AcDbLine
 10
0.684931
 20
30.895527
 30
0.0
 11
1.974984
 21
30.247499
 31
0.0
  0
LINE
  5
151
100
AcDbEntity
  8
fundo
 62
7
100
AcDbLine
 10
1.974984
 20
30.247499
 30
0.0
 11
3.194740
 21
29.578978
 31
0.0
  0
LINE
  5
152
100
AcDbEntity
  8
fundo
 62
7
100
AcDbLine
 10
3.194740
 20
29.578978
 30
0.0
 11
4.377461
 21
28.866129
 31
0.0
  0
LINE
  5
153
100
AcDbEntity
  8
fundo
 62
7
100
AcDbLine
 10
4.377461
 20
28.866129
 30
0.0
 11
5.556412
 21
28.085117
 31
0.0
  0
LINE
  5
154
100
AcDbEntity
  8
fundo
 62
7
100
AcDbLine
 10
5.556412
 20
28.085117
 30
0.0
 11
6.102417
 21
27.042064
 31
0.0
  0
LINE
  5
155
100
AcDbEntity
  8
fundo
 62
7
100
AcDbLine
 10
6.102417
 20
27.042064
 30
0.0
 11
7.100766
 21
26.447608
 31
0.0
  0
LINE
  5
156
100
AcDbEntity
  8
fundo
 62
7
100
AcDbLine
 10
7.100766
 20
26.447608
 30
0.0
 11
8.261025
 21
26.387167
 31
0.0
  0
LINE
  5
157
100
AcDbEntity
  8
fundo
 62
7
100
AcDbLine
 10
8.261025
 20
26.387167
 30
0.0
 11
9.292760
 21
26.946155
 31
0.0
  0
LINE
  5
158
100
AcDbEntity
  8
fundo
 62
7
100
AcDbLine
 10
9.292760
 20
26.946155
 30
0.0
 11
9.943832
 21
26.942120
 31
0.0
  0
LINE
  5
159
100
AcDbEntity
  8
fundo
 62
7
100
AcDbLine
 10
9.943832
 20
26.942120
 30
0.0
 11
10.672150
 21
26.981148
 31
0.0
  0
LINE
  5
15a
100
AcDbEntity
  8
fundo
 62
7
100
AcDbLine
 10
10.672150
 20
26.981148
 30
0.0
 11
11.063227
 21
26.870727
 31
0.0
  0
LINE
  5
15b
100
AcDbEntity
  8
fundo
 62
7
100
AcDbLine
 10
11.063227
 20
26.870727
 30
0.0
 11
10.702572
 21
26.418343
 31
0.0
  0
LINE
  5
15c
100
AcDbEntity
  8
fundo
 62
7
100
AcDbLine
 10
10.702572
 20
26.418343
 30
0.0
 11
9.714399
 21
24.405796
 31
0.0
  0
LINE
  5
15d
100
AcDbEntity
  8
fundo
 62
7
100
AcDbLine
 10
9.714399
 20
24.405796
 30
0.0
 11
9.494850
 21
22.112665
 31
0.0
  0
LINE
  5
15e
100
AcDbEntity
  8
fundo
 62
7
100
AcDbLine
 10
9.494850
 20
22.112665
 30
0.0
 11
10.151749
 21
19.984396
 31
0.0
  0
LINE
  5
15f
100
AcDbEntity
  8
fundo
 62
7
100
AcDbLine
 10
10.151749
 20
19.984396
 30
0.0
 11
11.792919
 21
18.466449
 31
0.0
  0
LINE
  5
160
100
AcDbEntity
  8
fundo
 62
7
100
AcDbLine
 10
11.792919
 20
18.466449
 30
0.0
 11
14.076380
 21
17.971847
 31
0.0
  0
LINE
  5
161
100
AcDbEntity
  8
fundo
 62
7
100
AcDbLine
 10
14.076380
 20
17.971847
 30
0.0
 11
16.361054
 21
18.339297
 31
0.0
  0
LINE
  5
162
100
AcDbEntity
  8
fundo
 62
7
100
AcDbLine
 10
16.361054
 20
18.339297
 30
0.0
 11
18.500686
 21
19.350220
 31
0.0
  0
LINE
  5
163
100
AcDbEntity
  8
fundo
 62
7
100
AcDbLine
 10
18.500686
 20
19.350220
 30
0.0
 11
20.349019
 21
20.786040
 31
0.0
  0
LINE
  5
164
100
AcDbEntity
  8
fundo
 62
7
100
AcDbLine
 10
20.349019
 20
20.786040
 30
0.0
 11
21.242419
 21
21.420283
 31
0.0
  0
LINE
  5
165
100
AcDbEntity
  8
fundo
 62
7
100
AcDbLine
 10
21.242419
 20
21.420283
 30
0.0
 11
22.198355
 21
21.978174
 31
0.0
  0
LINE
  5
166
100
AcDbEntity
  8
fundo
 62
7
100
AcDbLine
 10
22.198355
 20
21.978174
 30
0.0
 11
23.210589
 21
22.408781
 31
0.0
  0
LINE
  5
167
100
AcDbEntity
  8
fundo
 62
7
100
AcDbLine
 10
23.210589
 20
22.408781
 30
0.0
 11
24.272880
 21
22.661161
 31
0.0
  0
LINE
  5
168
100
AcDbEntity
  8
fundo
 62
7
100
AcDbLine
 10
24.272880
 20
22.661161
 30
0.0
 11
22.445176
 21
21.734250
 31
0.0
  0
LINE
  5
169
100
AcDbEntity
  8
fundo
 62
7
100
AcDbLine
 10
22.445176
 20
21.734250
 30
0.0
 11
20.847407
 21
20.470258
 31
0.0
  0
LINE
  5
16a
100
AcDbEntity
  8
fundo
 62
7
100
AcDbLine
 10
20.847407
 20
20.470258
 30
0.0
 11
19.535200
 21
18.912742
 31
0.0
  0
LINE
  5
16b
100
AcDbEntity
  8
fundo
 62
7
100
AcDbLine
 10
19.535200
 20
18.912742
 30
0.0
 11
18.564183
 21
17.105249
 31
0.0
  0
LINE
  5
16c
100
AcDbEntity
  8
fundo
 62
7
100
AcDbLine
 10
18.564183
 20
17.105249
 30
0.0
 11
17.583641
 21
15.818528
 31
0.0
  0
LINE
  5
16d
100
AcDbEntity
  8
fundo
 62
7
100
AcDbLine
 10
17.583641
 20
15.818528
 30
0.0
 11
16.227724
 21
15.010325
 31
0.0
  0
LINE
  5
16e
100
AcDbEntity
  8
fundo
 62
7
100
AcDbLine
 10
16.227724
 20
15.010325
 30
0.0
 11
14.659740
 21
14.643642
 31
0.0
  0
LINE
  5
16f
100
AcDbEntity
  8
fundo
 62
7
100
AcDbLine
 10
14.659740
 20
14.643642
 30
0.0
 11
13.042999
 21
14.681485
 31
0.0
  0
LINE
  5
170
100
AcDbEntity
  8
fundo
 62
7
100
AcDbLine
 10
13.042999
 20
14.681485
 30
0.0
 11
12.197160
 21
14.755049
 31
0.0
  0
LINE
  5
171
100
AcDbEntity
  8
fundo
 62
7
100
AcDbLine
 10
12.197160
 20
14.755049
 30
0.0
 11
11.596537
 21
14.349234
 31
0.0
  0
LINE
  5
172
100
AcDbEntity
  8
fundo
 62
7
100
AcDbLine
 10
11.596537
 20
14.349234
 30
0.0
 11
11.134582
 21
13.676698
 31
0.0
  0
LINE
  5
173
100
AcDbEntity
  8
fundo
 62
7
100
AcDbLine
 10
11.134582
 20
13.676698
 30
0.0
 11
10.704750
 21
12.950092
 31
0.0
  0
LINE
  5
174
100
AcDbEntity
  8
fundo
 62
7
100
AcDbLine
 10
10.704750
 20
12.950092
 30
0.0
 11
9.752357
 21
11.300178
 31
0.0
  0
LINE
  5
175
100
AcDbEntity
  8
fundo
 62
7
100
AcDbLine
 10
9.752357
 20
11.300178
 30
0.0
 11
9.160495
 21
9.503427
 31
0.0
  0
LINE
  5
176
100
AcDbEntity
  8
fundo
 62
7
100
AcDbLine
 10
9.160495
 20
9.503427
 30
0.0
 11
8.972138
 21
7.630076
 31
0.0
  0
LINE
  5
177
100
AcDbEntity
  8
fundo
 62
7
100
AcDbLine
 10
8.972138
 20
7.630076
 30
0.0
 11
9.230256
 21
5.750363
 31
0.0
  0
LINE
  5
178
100
AcDbEntity
  8
fundo
 62
7
100
AcDbLine
 10
9.230256
 20
5.750363
 30
0.0
 11
9.524363
 21
4.451192
 31
0.0
  0
LINE
  5
179
100
AcDbEntity
  8
fundo
 62
7
100
AcDbLine
 10
9.524363
 20
4.451192
 30
0.0
 11
10.121165
 21
3.245460
 31
0.0
  0
LINE
  5
17a
100
AcDbEntity
  8
fundo
 62
7
100
AcDbLine
 10
10.121165
 20
3.245460
 30
0.0
 11
11.051386
 21
2.358043
 31
0.0
  0
LINE
  5
17b
100
AcDbEntity
  8
fundo
 62
7
100
AcDbLine
 10
11.051386
 20
2.358043
 30
0.0
 11
12.345750
 21
2.013820
 31
0.0
  0
LINE
  5
17c
100
AcDbEntity
  8
fundo
 62
7
100
AcDbLine
 10
12.345750
 20
2.013820
 30
0.0
 11
14.680016
 21
1.750357
 31
0.0
  0
LINE
  5
17d
100
AcDbEntity
  8
fundo
 62
7
100
AcDbLine
 10
14.680016
 20
1.750357
 30
0.0
 11
17.060456
 21
1.619284
 31
0.0
  0
LINE
  5
17e
100
AcDbEntity
  8
fundo
 62
7
100
AcDbLine
 10
17.060456
 20
1.619284
 30
0.0
 11
19.393408
 21
1.846998
 31
0.0
  0
LINE
  5
17f
100
AcDbEntity
  8
fundo
 62
7
100
AcDbLine
 10
19.393408
 20
1.846998
 30
0.0
 11
21.585209
 21
2.659888
 31
0.0
  0
LINE
  5
180
100
AcDbEntity
  8
fundo
 62
7
100
AcDbLine
 10
21.585209
 20
2.659888
 30
0.0
 11
22.128544
 21
3.572556
 31
0.0
  0
LINE
  5
181
100
AcDbEntity
  8
fundo
 62
7
100
AcDbLine
 10
22.128544
 20
3.572556
 30
0.0
 11
22.152011
 21
4.644732
 31
0.0
  0
LINE
  5
182
100
AcDbEntity
  8
fundo
 62
7
100
AcDbLine
 10
22.152011
 20
4.644732
 30
0.0
 11
21.852143
 21
5.743646
 31
0.0
  0
LINE
  5
183
100
AcDbEntity
  8
fundo
 62
7
100
AcDbLine
 10
21.852143
 20
5.743646
 30
0.0
 11
21.425477
 21
6.736535
 31
0.0
  0
LINE
  5
184
100
AcDbEntity
  8
fundo
 62
7
100
AcDbLine
 10
21.425477
 20
6.736535
 30
0.0
 11
20.855672
 21
7.452826
 31
0.0
  0
LINE
  5
185
100
AcDbEntity
  8
fundo
 62
7
100
AcDbLine
 10
20.855672
 20
7.452826
 30
0.0
 11
20.073925
 21
7.830202
 31
0.0
  0
LINE
  5
186
100
AcDbEntity
  8
fundo
 62
7
100
AcDbLine
 10
20.073925
 20
7.830202
 30
0.0
 11
19.182512
 21
7.914505
 31
0.0
  0
LINE
  5
187
100
AcDbEntity
  8
fundo
 62
7
100
AcDbLine
 10
19.182512
 20
7.914505
 30
0.0
 11
18.283709
 21
7.751570
 31
0.0
  0
LINE
  5
188
100
AcDbEntity
  8
fundo
 62
7
100
AcDbLine
 10
18.283709
 20
7.751570
 30
0.0
 11
17.744618
 21
7.693847
 31
0.0
  0
LINE
  5
189
100
AcDbEntity
  8
fundo
 62
7
100
AcDbLine
 10
17.744618
 20
7.693847
 30
0.0
 11
17.139193
 21
7.644012
 31
0.0
  0
LINE
  5
18a
100
AcDbEntity
  8
fundo
 62
7
100
AcDbLine
 10
17.139193
 20
7.644012
 30
0.0
 11
16.577149
 21
7.665037
 31
0.0
  0
LINE
  5
18b
100
AcDbEntity
  8
fundo
 62
7
100
AcDbLine
 10
16.577149
 20
7.665037
 30
0.0
 11
16.168199
 21
7.819927
 31
0.0
  0
LINE
  5
18c
100
AcDbEntity
  8
fundo
 62
7
100
AcDbLine
 10
16.168199
 20
7.819927
 30
0.0
 11
16.968864
 21
8.478091
 31
0.0
  0
LINE
  5
18d
100
AcDbEntity
  8
fundo
 62
7
100
AcDbLine
 10
16.968864
 20
8.478091
 30
0.0
 11
17.997946
 21
8.779225
 31
0.0
  0
LINE
  5
18e
100
AcDbEntity
  8
fundo
 62
7
100
AcDbLine
 10
17.997946
 20
8.779225
 30
0.0
 11
19.108443
 21
8.910337
 31
0.0
  0
LINE
  5
18f
100
AcDbEntity
  8
fundo
 62
7
100
AcDbLine
 10
19.108443
 20
8.910337
 30
0.0
 11
20.153355
 21
9.058436
 31
0.0
  0
LINE
  5
190
100
AcDbEntity
  8
fundo
 62
7
100
AcDbLine
 10
20.153355
 20
9.058436
 30
0.0
 11
21.713944
 21
9.240218
 31
0.0
  0
LINE
  5
191
100
AcDbEntity
  8
fundo
 62
7
100
AcDbLine
 10
21.713944
 20
9.240218
 30
0.0
 11
23.275159
 21
9.508908
 31
0.0
  0
LINE
  5
192
100
AcDbEntity
  8
fundo
 62
7
100
AcDbLine
 10
23.275159
 20
9.508908
 30
0.0
 11
24.761979
 21
9.989310
 31
0.0
  0
LINE
  5
193
100
AcDbEntity
  8
fundo
 62
7
100
AcDbLine
 10
24.761979
 20
9.989310
 30
0.0
 11
26.099386
 21
10.806227
 31
0.0
  0
LINE
  5
194
100
AcDbEntity
  8
fundo
 62
7
100
AcDbLine
 10
26.099386
 20
10.806227
 30
0.0
 11
26.338755
 21
10.394028
 31
0.0
  0
LINE
  5
195
100
AcDbEntity
  8
fundo
 62
7
100
AcDbLine
 10
26.338755
 20
10.394028
 30
0.0
 11
26.493403
 21
9.992064
 31
0.0
  0
LINE
  5
196
100
AcDbEntity
  8
fundo
 62
7
100
AcDbLine
 10
26.493403
 20
9.992064
 30
0.0
 11
26.482294
 21
9.589172
 31
0.0
  0
LINE
  5
197
100
AcDbEntity
  8
fundo
 62
7
100
AcDbLine
 10
26.482294
 20
9.589172
 30
0.0
 11
26.224394
 21
9.174178
 31
0.0
  0
LINE
  5
198
100
AcDbEntity
  8
fundo
 62
7
100
AcDbLine
 10
26.224394
 20
9.174178
 30
0.0
 11
25.836423
 21
8.601502
 31
0.0
  0
LINE
  5
199
100
AcDbEntity
  8
fundo
 62
7
100
AcDbLine
 10
25.836423
 20
8.601502
 30
0.0
 11
25.380136
 21
8.087058
 31
0.0
  0
LINE
  5
19a
100
AcDbEntity
  8
fundo
 62
7
100
AcDbLine
 10
25.380136
 20
8.087058
 30
0.0
 11
24.868517
 21
7.624824
 31
0.0
  0
LINE
  5
19b
100
AcDbEntity
  8
fundo
 62
7
100
AcDbLine
 10
24.868517
 20
7.624824
 30
0.0
 11
24.314550
 21
7.208777
 31
0.0
  0
LINE
  5
19c
100
AcDbEntity
  8
fundo
 62
7
100
AcDbLine
 10
24.314550
 20
7.208777
 30
0.0
 11
24.797518
 21
5.732168
 31
0.0
  0
LINE
  5
19d
100
AcDbEntity
  8
fundo
 62
7
100
AcDbLine
 10
24.797518
 20
5.732168
 30
0.0
 11
25.666603
 21
4.465526
 31
0.0
  0
LINE
  5
19e
100
AcDbEntity
  8
fundo
 62
7
100
AcDbLine
 10
25.666603
 20
4.465526
 30
0.0
 11
26.856254
 21
3.499260
 31
0.0
  0
LINE
  5
19f
100
AcDbEntity
  8
fundo
 62
7
100
AcDbLine
 10
26.856254
 20
3.499260
 30
0.0
 11
28.300914
 21
2.923783
 31
0.0
  0
LINE
  5
1a0
100
AcDbEntity
  8
fundo
 62
7
100
AcDbLine
 10
28.300914
 20
2.923783
 30
0.0
 11
30.807598
 21
2.211911
 31
0.0
  0
LINE
  5
1a1
100
AcDbEntity
  8
fundo
 62
7
100
AcDbLine
 10
30.807598
 20
2.211911
 30
0.0
 11
33.355009
 21
1.603562
 31
0.0
  0
LINE
  5
1a2
100
AcDbEntity
  8
fundo
 62
7
100
AcDbLine
 10
33.355009
 20
1.603562
 30
0.0
 11
35.934565
 21
1.184806
 31
0.0
  0
LINE
  5
1a3
100
AcDbEntity
  8
fundo
 62
7
100
AcDbLine
 10
35.934565
 20
1.184806
 30
0.0
 11
38.537676
 21
1.041719
 31
0.0
  0
LINE
  5
1a4
100
AcDbEntity
  8
fundo
 62
7
100
AcDbLine
 10
38.537676
 20
1.041719
 30
0.0
 11
39.339520
 21
1.072704
 31
0.0
  0
LINE
  5
1a5
100
AcDbEntity
  8
fundo
 62
7
100
AcDbLine
 10
39.339520
 20
1.072704
 30
0.0
 11
39.904317
 21
1.355903
 31
0.0
  0
LINE
  5
1a6
100
AcDbEntity
  8
fundo
 62
7
100
AcDbLine
 10
39.904317
 20
1.355903
 30
0.0
 11
40.211276
 21
1.900186
 31
0.0
  0
LINE
  5
1a7
100
AcDbEntity
  8
fundo
 62
7
100
AcDbLine
 10
40.211276
 20
1.900186
 30
0.0
 11
40.239609
 21
2.714417
 31
0.0
  0
LINE
  5
1a8
100
AcDbEntity
  8
fundo
 62
7
100
AcDbLine
 10
40.239609
 20
2.714417
 30
0.0
 11
40.299990
 21
4.187309
 31
0.0
  0
LINE
  5
1a9
100
AcDbEntity
  8
fundo
 62
7
100
AcDbLine
 10
40.299990
 20
4.187309
 30
0.0
 11
40.034557
 21
5.655655
 31
0.0
  0
LINE
  5
1aa
100
AcDbEntity
  8
fundo
 62
7
100
AcDbLine
 10
40.034557
 20
5.655655
 30
0.0
 11
39.338521
 21
6.908927
 31
0.0
  0
LINE
  5
1ab
100
AcDbEntity
  8
fundo
 62
7
100
AcDbLine
 10
39.338521
 20
6.908927
 30
0.0
 11
38.107095
 21
7.736589
 31
0.0
  0
LINE
  5
1ac
100
AcDbEntity
  8
fundo
 62
7
100
AcDbLine
 10
38.107095
 20
7.736589
 30
0.0
 11
37.233431
 21
7.992833
 31
0.0
  0
LINE
  5
1ad
100
AcDbEntity
  8
fundo
 62
7
100
AcDbLine
 10
37.233431
 20
7.992833
 30
0.0
 11
36.319254
 21
8.046873
 31
0.0
  0
LINE
  5
1ae
100
AcDbEntity
  8
fundo
 62
7
100
AcDbLine
 10
36.319254
 20
8.046873
 30
0.0
 11
35.420469
 21
7.888476
 31
0.0
  0
LINE
  5
1af
100
AcDbEntity
  8
fundo
 62
7
100
AcDbLine
 10
35.420469
 20
7.888476
 30
0.0
 11
34.592982
 21
7.507408
 31
0.0
  0
LINE
  5
1b0
100
AcDbEntity
  8
fundo
 62
7
100
AcDbLine
 10
34.592982
 20
7.507408
 30
0.0
 11
34.180139
 21
7.674610
 31
0.0
  0
LINE
  5
1b1
100
AcDbEntity
  8
fundo
 62
7
100
AcDbLine
 10
34.180139
 20
7.674610
 30
0.0
 11
33.815229
 21
7.870871
 31
0.0
  0
LINE
  5
1b2
100
AcDbEntity
  8
fundo
 62
7
100
AcDbLine
 10
33.815229
 20
7.870871
 30
0.0
 11
33.721133
 21
8.078120
 31
0.0
  0
LINE
  5
1b3
100
AcDbEntity
  8
fundo
 62
7
100
AcDbLine
 10
33.721133
 20
8.078120
 30
0.0
 11
34.120729
 21
8.278289
 31
0.0
  0
LINE
  5
1b4
100
AcDbEntity
  8
fundo
 62
7
100
AcDbLine
 10
34.120729
 20
8.278289
 30
0.0
 11
35.637648
 21
9.314234
 31
0.0
  0
LINE
  5
1b5
100
AcDbEntity
  8
fundo
 62
7
100
AcDbLine
 10
35.637648
 20
9.314234
 30
0.0
 11
36.960531
 21
10.600668
 31
0.0
  0
LINE
  5
1b6
100
AcDbEntity
  8
fundo
 62
7
100
AcDbLine
 10
36.960531
 20
10.600668
 30
0.0
 11
37.979903
 21
12.118363
 31
0.0
  0
LINE
  5
1b7
100
AcDbEntity
  8
fundo
 62
7
100
AcDbLine
 10
37.979903
 20
12.118363
 30
0.0
 11
38.586291
 21
13.848089
 31
0.0
  0
LINE
  5
1b8
100
AcDbEntity
  8
fundo
 62
7
100
AcDbLine
 10
38.586291
 20
13.848089
 30
0.0
 11
39.044177
 21
13.835107
 31
0.0
  0
LINE
  5
1b9
100
AcDbEntity
  8
fundo
 62
7
100
AcDbLine
 10
39.044177
 20
13.835107
 30
0.0
 11
39.530669
 21
13.894263
 31
0.0
  0
LINE
  5
1ba
100
AcDbEntity
  8
fundo
 62
7
100
AcDbLine
 10
39.530669
 20
13.894263
 30
0.0
 11
39.885270
 21
13.814011
 31
0.0
  0
LINE
  5
1bb
100
AcDbEntity
  8
fundo
 62
7
100
AcDbLine
 10
39.885270
 20
13.814011
 30
0.0
 11
39.947489
 21
13.382789
 31
0.0
  0
LINE
  5
1bc
100
AcDbEntity
  8
fundo
 62
7
100
AcDbLine
 10
39.947489
 20
13.382789
 30
0.0
 11
40.748901
 21
11.346336
 31
0.0
  0
LINE
  5
1bd
100
AcDbEntity
  8
fundo
 62
7
100
AcDbLine
 10
40.748901
 20
11.346336
 30
0.0
 11
42.387433
 21
9.832027
 31
0.0
  0
LINE
  5
1be
100
AcDbEntity
  8
fundo
 62
7
100
AcDbLine
 10
42.387433
 20
9.832027
 30
0.0
 11
44.472767
 21
9.129497
 31
0.0
  0
LINE
  5
1bf
100
AcDbEntity
  8
fundo
 62
7
100
AcDbLine
 10
44.472767
 20
9.129497
 30
0.0
 11
46.614580
 21
9.528376
 31
0.0
  0
LINE
  5
1c0
100
AcDbEntity
  8
fundo
 62
7
100
AcDbLine
 10
46.614580
 20
9.528376
 30
0.0
 11
47.568745
 21
8.881926
 31
0.0
  0
LINE
  5
1c1
100
AcDbEntity
  8
fundo
 62
7
100
AcDbLine
 10
47.568745
 20
8.881926
 30
0.0
 11
48.424251
 21
8.061952
 31
0.0
  0
LINE
  5
1c2
100
AcDbEntity
  8
fundo
 62
7
100
AcDbLine
 10
48.424251
 20
8.061952
 30
0.0
 11
49.100664
 21
7.115760
 31
0.0
  0
LINE
  5
1c3
100
AcDbEntity
  8
fundo
 62
7
100
AcDbLine
 10
49.100664
 20
7.115760
 30
0.0
 11
49.517543
 21
6.090658
 31
0.0
  0
LINE
  5
1c4
100
AcDbEntity
  8
fundo
 62
7
100
AcDbLine
 10
49.517543
 20
6.090658
 30
0.0
 11
48.647339
 21
5.846578
 31
0.0
  0
LINE
  5
1c5
100
AcDbEntity
  8
fundo
 62
7
100
AcDbLine
 10
48.647339
 20
5.846578
 30
0.0
 11
47.918525
 21
5.360569
 31
0.0
  0
LINE
  5
1c6
100
AcDbEntity
  8
fundo
 62
7
100
AcDbLine
 10
47.918525
 20
5.360569
 30
0.0
 11
47.270424
 21
4.746518
 31
0.0
  0
LINE
  5
1c7
100
AcDbEntity
  8
fundo
 62
7
100
AcDbLine
 10
47.270424
 20
4.746518
 30
0.0
 11
46.642359
 21
4.118311
 31
0.0
  0
LINE
  5
1c8
100
AcDbEntity
  8
fundo
 62
7
100
AcDbLine
 10
46.642359
 20
4.118311
 30
0.0
 11
46.236884
 21
3.232368
 31
0.0
  0
LINE
  5
1c9
100
AcDbEntity
  8
fundo
 62
7
100
AcDbLine
 10
46.236884
 20
3.232368
 30
0.0
 11
46.523616
 21
2.428610
 31
0.0
  0
LINE
  5
1ca
100
AcDbEntity
  8
fundo
 62
7
100
AcDbLine
 10
46.523616
 20
2.428610
 30
0.0
 11
47.246481
 21
1.955783
 31
0.0
  0
LINE
  5
1cb
100
AcDbEntity
  8
fundo
 62
7
100
AcDbLine
 10
47.246481
 20
1.955783
 30
0.0
 11
48.149400
 21
2.062624
 31
0.0
  0
LINE
  5
1cc
100
AcDbEntity
  8
fundo
 62
7
100
AcDbLine
 10
48.149400
 20
2.062624
 30
0.0
 11
49.473874
 21
1.616132
 31
0.0
  0
LINE
  5
1cd
100
AcDbEntity
  8
fundo
 62
7
100
AcDbLine
 10
49.473874
 20
1.616132
 30
0.0
 11
50.814701
 21
1.896263
 31
0.0
  0
LINE
  5
1ce
100
AcDbEntity
  8
fundo
 62
7
100
AcDbLine
 10
50.814701
 20
1.896263
 30
0.0
 11
52.164976
 21
2.426251
 31
0.0
  0
LINE
  5
1cf
100
AcDbEntity
  8
fundo
 62
7
100
AcDbLine
 10
52.164976
 20
2.426251
 30
0.0
 11
53.517797
 21
2.729335
 31
0.0
  0
LINE
  5
1d0
100
AcDbEntity
  8
fundo
 62
7
100
AcDbLine
 10
53.517797
 20
2.729335
 30
0.0
 11
54.741665
 21
2.544572
 31
0.0
  0
LINE
  5
1d1
100
AcDbEntity
  8
fundo
 62
7
100
AcDbLine
 10
54.741665
 20
2.544572
 30
0.0
 11
55.853482
 21
1.951022
 31
0.0
  0
LINE
  5
1d2
100
AcDbEntity
  8
fundo
 62
7
100
AcDbLine
 10
55.853482
 20
1.951022
 30
0.0
 11
56.967668
 21
1.329936
 31
0.0
  0
LINE
  5
1d3
100
AcDbEntity
  8
fundo
 62
7
100
AcDbLine
 10
56.967668
 20
1.329936
 30
0.0
 11
58.198650
 21
1.062561
 31
0.0
  0
LINE
  5
1d4
100
AcDbEntity
  8
fundo
 62
7
100
AcDbLine
 10
58.198650
 20
1.062561
 30
0.0
 11
58.794184
 21
1.004068
 31
0.0
  0
LINE
  5
1d5
100
AcDbEntity
  8
fundo
 62
7
100
AcDbLine
 10
58.794184
 20
1.004068
 30
0.0
 11
59.189823
 21
0.832776
 31
0.0
  0
LINE
  5
1d6
100
AcDbEntity
  8
fundo
 62
7
100
AcDbLine
 10
59.189823
 20
0.832776
 30
0.0
 11
59.537558
 21
0.556252
 31
0.0
  0
LINE
  5
1d7
100
AcDbEntity
  8
fundo
 62
7
100
AcDbLine
 10
59.537558
 20
0.556252
 30
0.0
 11
59.989384
 21
0.182048
 31
0.0
  0
LINE
  5
1d8
100
AcDbEntity
  8
fundo
 62
7
100
AcDbLine
 10
59.989384
 20
0.182048
 30
0.0
 11
60.146144
 21
0.621708
 31
0.0
  0
LINE
  5
1d9
100
AcDbEntity
  8
fundo
 62
7
100
AcDbLine
 10
60.146144
 20
0.621708
 30
0.0
 11
60.289496
 21
1.043531
 31
0.0
  0
LINE
  5
1da
100
AcDbEntity
  8
fundo
 62
7
100
AcDbLine
 10
60.289496
 20
1.043531
 30
0.0
 11
60.406325
 21
1.536006
 31
0.0
  0
LINE
  5
1db
100
AcDbEntity
  8
fundo
 62
7
100
AcDbLine
 10
60.406325
 20
1.536006
 30
0.0
 11
60.483516
 21
2.187632
 31
0.0
  0
LINE
  5
1dc
100
AcDbEntity
  8
fundo
 62
7
100
AcDbLine
 10
60.483516
 20
2.187632
 30
0.0
 11
60.434076
 21
2.668502
 31
0.0
  0
LINE
  5
1dd
100
AcDbEntity
  8
fundo
 62
7
100
AcDbLine
 10
60.434076
 20
2.668502
 30
0.0
 11
60.205538
 21
3.130121
 31
0.0
  0
LINE
  5
1de
100
AcDbEntity
  8
fundo
 62
7
100
AcDbLine
 10
60.205538
 20
3.130121
 30
0.0
 11
60.062164
 21
3.551078
 31
0.0
  0
LINE
  5
1df
100
AcDbEntity
  8
fundo
 62
7
100
AcDbLine
 10
60.062164
 20
3.551078
 30
0.0
 11
60.268225
 21
3.909963
 31
0.0
  0
LINE
  5
1e0
100
AcDbEntity
  8
fundo
 62
7
100
AcDbLine
 10
60.268225
 20
3.909963
 30
0.0
 11
60.345537
 21
4.938133
 31
0.0
  0
LINE
  5
1e1
100
AcDbEntity
  8
fundo
 62
7
100
AcDbLine
 10
60.345537
 20
4.938133
 30
0.0
 11
59.807627
 21
5.760977
 31
0.0
  0
LINE
  5
1e2
100
AcDbEntity
  8
fundo
 62
7
100
AcDbLine
 10
59.807627
 20
5.760977
 30
0.0
 11
58.921853
 21
6.345860
 31
0.0
  0
LINE
  5
1e3
100
AcDbEntity
  8
fundo
 62
7
100
AcDbLine
 10
58.921853
 20
6.345860
 30
0.0
 11
57.955578
 21
6.660140
 31
0.0
  0
LINE
  5
1e4
100
AcDbEntity
  8
fundo
 62
7
100
AcDbLine
 10
57.955578
 20
6.660140
 30
0.0
 11
57.259358
 21
6.933184
 31
0.0
  0
LINE
  5
1e5
100
AcDbEntity
  8
fundo
 62
7
100
AcDbLine
 10
57.259358
 20
6.933184
 30
0.0
 11
56.518655
 21
7.013240
 31
0.0
  0
LINE
  5
1e6
100
AcDbEntity
  8
fundo
 62
7
100
AcDbLine
 10
56.518655
 20
7.013240
 30
0.0
 11
55.763727
 21
6.961886
 31
0.0
  0
LINE
  5
1e7
100
AcDbEntity
  8
fundo
 62
7
100
AcDbLine
 10
55.763727
 20
6.961886
 30
0.0
 11
55.024836
 21
6.840706
 31
0.0
  0
LINE
  5
1e8
100
AcDbEntity
  8
fundo
 62
7
100
AcDbLine
 10
55.024836
 20
6.840706
 30
0.0
 11
54.254662
 21
8.433876
 31
0.0
  0
LINE
  5
1e9
100
AcDbEntity
  8
fundo
 62
7
100
AcDbLine
 10
54.254662
 20
8.433876
 30
0.0
 11
53.340965
 21
9.962496
 31
0.0
  0
LINE
  5
1ea
100
AcDbEntity
  8
fundo
 62
7
100
AcDbLine
 10
53.340965
 20
9.962496
 30
0.0
 11
52.366370
 21
11.440733
 31
0.0
  0
LINE
  5
1eb
100
AcDbEntity
  8
fundo
 62
7
100
AcDbLine
 10
52.366370
 20
11.440733
 30
0.0
 11
51.413495
 21
12.882756
 31
0.0
  0
LINE
  5
1ec
100
AcDbEntity
  8
fundo
 62
7
100
AcDbLine
 10
51.413495
 20
12.882756
 30
0.0
 11
51.889454
 21
13.424987
 31
0.0
  0
LINE
  5
1ed
100
AcDbEntity
  8
fundo
 62
7
100
AcDbLine
 10
51.889454
 20
13.424987
 30
0.0
 11
52.401109
 21
13.912032
 31
0.0
  0
LINE
  5
1ee
100
AcDbEntity
  8
fundo
 62
7
100
AcDbLine
 10
52.401109
 20
13.912032
 30
0.0
 11
52.927668
 21
14.381001
 31
0.0
  0
LINE
  5
1ef
100
AcDbEntity
  8
fundo
 62
7
100
AcDbLine
 10
52.927668
 20
14.381001
 30
0.0
 11
53.448348
 21
14.868994
 31
0.0
  0
LINE
  5
1f0
100
AcDbEntity
  8
fundo
 62
7
100
AcDbLine
 10
53.448348
 20
14.868994
 30
0.0
 11
53.976809
 21
16.012829
 31
0.0
  0
LINE
  5
1f1
100
AcDbEntity
  8
fundo
 62
7
100
AcDbLine
 10
53.976809
 20
16.012829
 30
0.0
 11
54.161117
 21
17.248203
 31
0.0
  0
LINE
  5
1f2
100
AcDbEntity
  8
fundo
 62
7
100
AcDbLine
 10
54.161117
 20
17.248203
 30
0.0
 11
54.055016
 21
18.505853
 31
0.0
  0
LINE
  5
1f3
100
AcDbEntity
  8
fundo
 62
7
100
AcDbLine
 10
54.055016
 20
18.505853
 30
0.0
 11
53.712254
 21
19.716525
 31
0.0
  0
LINE
  5
1f4
100
AcDbEntity
  8
fundo
 62
7
100
AcDbLine
 10
53.712254
 20
19.716525
 30
0.0
 11
54.190985
 21
20.062670
 31
0.0
  0
LINE
  5
1f5
100
AcDbEntity
  8
fundo
 62
7
100
AcDbLine
 10
54.190985
 20
20.062670
 30
0.0
 11
54.684414
 21
20.547737
 31
0.0
  0
LINE
  5
1f6
100
AcDbEntity
  8
fundo
 62
7
100
AcDbLine
 10
54.684414
 20
20.547737
 30
0.0
 11
55.143180
 21
20.808183
 31
0.0
  0
LINE
  5
1f7
100
AcDbEntity
  8
fundo
 62
7
100
AcDbLine
 10
55.143180
 20
20.808183
 30
0.0
 11
55.517923
 21
20.480463
 31
0.0
  0
LINE
  5
1f8
100
AcDbEntity
  8
fundo
 62
7
100
AcDbLine
 10
55.517923
 20
20.480463
 30
0.0
 11
56.419654
 21
19.853972
 31
0.0
  0
LINE
  5
1f9
100
AcDbEntity
  8
fundo
 62
7
100
AcDbLine
 10
56.419654
 20
19.853972
 30
0.0
 11
57.437003
 21
19.405507
 31
0.0
  0
LINE
  5
1fa
100
AcDbEntity
  8
fundo
 62
7
100
AcDbLine
 10
57.437003
 20
19.405507
 30
0.0
 11
58.513430
 21
19.265914
 31
0.0
  0
LINE
  5
1fb
100
AcDbEntity
  8
fundo
 62
7
100
AcDbLine
 10
58.513430
 20
19.265914
 30
0.0
 11
59.592379
 21
19.566047
 31
0.0
  0
LINE
  5
1fc
100
AcDbEntity
  8
fundo
 62
7
100
AcDbLine
 10
59.592379
 20
19.566047
 30
0.0
 11
60.707185
 21
19.891452
 31
0.0
  0
LINE
  5
1fd
100
AcDbEntity
  8
fundo
 62
7
100
AcDbLine
 10
60.707185
 20
19.891452
 30
0.0
 11
61.405203
 21
20.237544
 31
0.0
  0
LINE
  5
1fe
100
AcDbEntity
  8
fundo
 62
7
100
AcDbLine
 10
61.405203
 20
20.237544
 30
0.0
 11
61.359711
 21
20.620547
 31
0.0
  0
LINE
  5
1ff
100
AcDbEntity
  8
fundo
 62
7
100
AcDbLine
 10
61.359711
 20
20.620547
 30
0.0
 11
60.243991
 21
21.056674
 31
0.0
  0
LINE
  5
200
100
AcDbEntity
  8
fundo
 62
7
100
AcDbLine
 10
60.243991
 20
21.056674
 30
0.0
 11
59.725092
 21
21.206260
 31
0.0
  0
LINE
  5
201
100
AcDbEntity
  8
fundo
 62
7
100
AcDbLine
 10
59.725092
 20
21.206260
 30
0.0
 11
59.529286
 21
21.519803
 31
0.0
  0
LINE
  5
202
100
AcDbEntity
  8
fundo
 62
7
100
AcDbLine
 10
59.529286
 20
21.519803
 30
0.0
 11
59.514582
 21
21.945609
 31
0.0
  0
LINE
  5
203
100
AcDbEntity
  8
fundo
 62
7
100
AcDbLine
 10
59.514582
 20
21.945609
 30
0.0
 11
59.538994
 21
22.431977
 31
0.0
  0
LINE
  5
204
100
AcDbEntity
  8
fundo
 62
7
100
AcDbLine
 10
59.538994
 20
22.431977
 30
0.0
 11
59.300003
 21
23.401130
 31
0.0
  0
LINE
  5
205
100
AcDbEntity
  8
fundo
 62
7
100
AcDbLine
 10
59.300003
 20
23.401130
 30
0.0
 11
59.105769
 21
24.393904
 31
0.0
  0
LINE
  5
206
100
AcDbEntity
  8
fundo
 62
7
100
AcDbLine
 10
59.105769
 20
24.393904
 30
0.0
 11
59.119457
 21
25.372789
 31
0.0
  0
LINE
  5
207
100
AcDbEntity
  8
fundo
 62
7
100
AcDbLine
 10
59.119457
 20
25.372789
 30
0.0
 11
59.504261
 21
26.300278
 31
0.0
  0
LINE
  5
208
100
AcDbEntity
  8
fundo
 62
7
100
AcDbLine
 10
59.504261
 20
26.300278
 30
0.0
 11
60.081643
 21
26.827751
 31
0.0
  0
LINE
  5
209
100
AcDbEntity
  8
fundo
 62
7
100
AcDbLine
 10
60.081643
 20
26.827751
 30
0.0
 11
60.601448
 21
27.422915
 31
0.0
  0
LINE
  5
20a
100
AcDbEntity
  8
fundo
 62
7
100
AcDbLine
 10
60.601448
 20
27.422915
 30
0.0
 11
61.004981
 21
28.081800
 31
0.0
  0
LINE
  5
20b
100
AcDbEntity
  8
fundo
 62
7
100
AcDbLine
 10
61.004981
 20
28.081800
 30
0.0
 11
61.233535
 21
28.800436
 31
0.0
  0
LINE
  5
20c
100
AcDbEntity
  8
fundo
 62
7
100
AcDbLine
 10
61.233535
 20
28.800436
 30
0.0
 11
61.832154
 21
29.463273
 31
0.0
  0
LINE
  5
20d
100
AcDbEntity
  8
fundo
 62
7
100
AcDbLine
 10
61.832154
 20
29.463273
 30
0.0
 11
61.757732
 21
30.268933
 31
0.0
  0
LINE
  5
20e
100
AcDbEntity
  8
fundo
 62
7
100
AcDbLine
 10
61.757732
 20
30.268933
 30
0.0
 11
61.193767
 21
30.915034
 31
0.0
  0
LINE
  5
20f
100
AcDbEntity
  8
fundo
 62
7
100
AcDbLine
 10
61.193767
 20
30.915034
 30
0.0
 11
60.323755
 21
31.099194
 31
0.0
  0
LINE
  5
210
100
AcDbEntity
  8
fundo
 62
7
100
AcDbLine
 10
60.323755
 20
31.099194
 30
0.0
 11
59.952337
 21
31.103368
 31
0.0
  0
LINE
  5
211
100
AcDbEntity
  8
fundo
 62
7
100
AcDbLine
 10
59.952337
 20
31.103368
 30
0.0
 11
59.545683
 21
31.042765
 31
0.0
  0
LINE
  5
212
100
AcDbEntity
  8
fundo
 62
7
100
AcDbLine
 10
59.545683
 20
31.042765
 30
0.0
 11
59.274580
 21
31.098924
 31
0.0
  0
LINE
  5
213
100
AcDbEntity
  8
fundo
 62
7
100
AcDbLine
 10
59.274580
 20
31.098924
 30
0.0
 11
59.309804
 21
31.453383
 31
0.0
  0
LINE
  5
214
100
AcDbEntity
  8
fundo
 62
7
100
AcDbLine
 10
59.309804
 20
31.453383
 30
0.0
 11
59.371159
 21
32.205792
 31
0.0
  0
LINE
  5
215
100
AcDbEntity
  8
fundo
 62
7
100
AcDbLine
 10
59.371159
 20
32.205792
 30
0.0
 11
58.946491
 21
32.784263
 31
0.0
  0
LINE
  5
216
100
AcDbEntity
  8
fundo
 62
7
100
AcDbLine
 10
58.946491
 20
32.784263
 30
0.0
 11
58.248592
 21
33.049748
 31
0.0
  0
LINE
  5
217
100
AcDbEntity
  8
fundo
 62
7
100
AcDbLine
 10
58.248592
 20
33.049748
 30
0.0
 11
57.490244
 21
32.863195
 31
0.0
  0
LINE
  5
218
100
AcDbEntity
  8
fundo
 62
7
100
AcDbLine
 10
57.490244
 20
32.863195
 30
0.0
 11
57.047779
 21
32.621684
 31
0.0
  0
LINE
  5
219
100
AcDbEntity
  8
fundo
 62
7
100
AcDbLine
 10
57.047779
 20
32.621684
 30
0.0
 11
56.628806
 21
32.377799
 31
0.0
  0
LINE
  5
21a
100
AcDbEntity
  8
fundo
 62
7
100
AcDbLine
 10
56.628806
 20
32.377799
 30
0.0
 11
56.194342
 21
32.170002
 31
0.0
  0
LINE
  5
21b
100
AcDbEntity
  8
fundo
 62
7
100
AcDbLine
 10
56.194342
 20
32.170002
 30
0.0
 11
55.705406
 21
32.036754
 31
0.0
  0
LINE
  5
21c
100
AcDbEntity
  8
fundo
 62
7
100
AcDbLine
 10
55.705406
 20
32.036754
 30
0.0
 11
54.771121
 21
31.194105
 31
0.0
  0
LINE
  5
21d
100
AcDbEntity
  8
fundo
 62
7
100
AcDbLine
 10
54.771121
 20
31.194105
 30
0.0
 11
54.428249
 21
30.009339
 31
0.0
  0
LINE
  5
21e
100
AcDbEntity
  8
fundo
 62
7
100
AcDbLine
 10
54.428249
 20
30.009339
 30
0.0
 11
54.534709
 21
28.716682
 31
0.0
  0
LINE
  5
21f
100
AcDbEntity
  8
fundo
 62
7
100
AcDbLine
 10
54.534709
 20
28.716682
 30
0.0
 11
54.948415
 21
27.550357
 31
0.0
  0
LINE
  5
220
100
AcDbEntity
  8
fundo
 62
7
100
AcDbLine
 10
54.948415
 20
27.550357
 30
0.0
 11
54.719878
 21
26.951736
 31
0.0
  0
LINE
  5
221
100
AcDbEntity
  8
fundo
 62
7
100
AcDbLine
 10
54.719878
 20
26.951736
 30
0.0
 11
54.621701
 21
26.307773
 31
0.0
  0
LINE
  5
222
100
AcDbEntity
  8
fundo
 62
7
100
AcDbLine
 10
54.621701
 20
26.307773
 30
0.0
 11
54.416816
 21
25.761705
 31
0.0
  0
LINE
  5
223
100
AcDbEntity
  8
fundo
 62
7
100
AcDbLine
 10
54.416816
 20
25.761705
 30
0.0
 11
53.868156
 21
25.456761
 31
0.0
  0
LINE
  5
224
100
AcDbEntity
  8
fundo
 62
7
100
AcDbLine
 10
53.868156
 20
25.456761
 30
0.0
 11
53.302690
 21
25.178205
 31
0.0
  0
LINE
  5
225
100
AcDbEntity
  8
fundo
 62
7
100
AcDbLine
 10
53.302690
 20
25.178205
 30
0.0
 11
52.703233
 21
24.883508
 31
0.0
  0
LINE
  5
226
100
AcDbEntity
  8
fundo
 62
7
100
AcDbLine
 10
52.703233
 20
24.883508
 30
0.0
 11
52.121181
 21
24.641844
 31
0.0
  0
LINE
  5
227
100
AcDbEntity
  8
fundo
 62
7
100
AcDbLine
 10
52.121181
 20
24.641844
 30
0.0
 11
51.607923
 21
24.522388
 31
0.0
  0
LINE
  5
228
100
AcDbEntity
  8
fundo
 62
7
100
AcDbLine
 10
51.607923
 20
24.522388
 30
0.0
 11
51.788994
 21
26.033953
 31
0.0
  0
LINE
  5
229
100
AcDbEntity
  8
fundo
 62
7
100
AcDbLine
 10
51.788994
 20
26.033953
 30
0.0
 11
51.669445
 21
27.544423
 31
0.0
  0
LINE
  5
22a
100
AcDbEntity
  8
fundo
 62
7
100
AcDbLine
 10
51.669445
 20
27.544423
 30
0.0
 11
51.203140
 21
28.971050
 31
0.0
  0
LINE
  5
22b
100
AcDbEntity
  8
fundo
 62
7
100
AcDbLine
 10
51.203140
 20
28.971050
 30
0.0
 11
50.343954
 21
30.231083
 31
0.0
  0
LINE
  5
22c
100
AcDbEntity
  8
fundo
 62
7
100
AcDbLine
 10
50.343954
 20
30.231083
 30
0.0
 11
49.959325
 21
30.739550
 31
0.0
  0
LINE
  5
22d
100
AcDbEntity
  8
fundo
 62
7
100
AcDbLine
 10
49.959325
 20
30.739550
 30
0.0
 11
49.947189
 21
31.312445
 31
0.0
  0
LINE
  5
22e
100
AcDbEntity
  8
fundo
 62
7
100
AcDbLine
 10
49.947189
 20
31.312445
 30
0.0
 11
50.272332
 21
31.690168
 31
0.0
  0
LINE
  5
22f
100
AcDbEntity
  8
fundo
 62
7
100
AcDbLine
 10
50.272332
 20
31.690168
 30
0.0
 11
50.899545
 21
31.613116
 31
0.0
  0
LINE
  5
230
100
AcDbEntity
  8
fundo
 62
7
100
AcDbLine
 10
50.899545
 20
31.613116
 30
0.0
 11
51.829448
 21
31.017261
 31
0.0
  0
LINE
  5
231
100
AcDbEntity
  8
fundo
 62
7
100
AcDbLine
 10
51.829448
 20
31.017261
 30
0.0
 11
52.691047
 21
30.325649
 31
0.0
  0
LINE
  5
232
100
AcDbEntity
  8
fundo
 62
7
100
AcDbLine
 10
52.691047
 20
30.325649
 30
0.0
 11
53.531951
 21
29.597173
 31
0.0
  0
LINE
  5
233
100
AcDbEntity
  8
fundo
 62
7
100
AcDbLine
 10
53.531951
 20
29.597173
 30
0.0
 11
54.399770
 21
28.890720
 31
0.0
  0
LINE
  5
234
100
AcDbEntity
  8
fundo
 62
7
100
AcDbLine
 10
54.399770
 20
28.890720
 30
0.0
 11
54.372366
 21
30.805655
 31
0.0
  0
LINE
  5
235
100
AcDbEntity
  8
fundo
 62
7
100
AcDbLine
 10
54.372366
 20
30.805655
 30
0.0
 11
54.413760
 21
32.728619
 31
0.0
  0
LINE
  5
236
100
AcDbEntity
  8
fundo
 62
7
100
AcDbLine
 10
54.413760
 20
32.728619
 30
0.0
 11
54.406478
 21
34.645950
 31
0.0
  0
LINE
  5
237
100
AcDbEntity
  8
fundo
 62
7
100
AcDbLine
 10
54.406478
 20
34.645950
 30
0.0
 11
54.233084
 21
36.543985
 31
0.0
  0
LINE
  5
238
100
AcDbEntity
  8
fundo
 62
7
100
AcDbLine
 10
54.233084
 20
36.543985
 30
0.0
 11
53.205645
 21
37.854105
 31
0.0
  0
LINE
  5
239
100
AcDbEntity
  8
fundo
 62
7
100
AcDbLine
 10
53.205645
 20
37.854105
 30
0.0
 11
51.685139
 21
38.473554
 31
0.0
  0
LINE
  5
23a
100
AcDbEntity
  8
fundo
 62
7
100
AcDbLine
 10
51.685139
 20
38.473554
 30
0.0
 11
49.952436
 21
38.670927
 31
0.0
  0
LINE
  5
23b
100
AcDbEntity
  8
fundo
 62
7
100
AcDbLine
 10
49.952436
 20
38.670927
 30
0.0
 11
48.288397
 21
38.714816
 31
0.0
  0
LINE
  5
23c
100
AcDbEntity
  8
fundo
 62
7
100
AcDbLine
 10
48.288397
 20
38.714816
 30
0.0
 11
46.508882
 21
38.791179
 31
0.0
  0
LINE
  5
23d
100
AcDbEntity
  8
fundo
 62
7
100
AcDbLine
 10
46.508882
 20
38.791179
 30
0.0
 11
44.716119
 21
38.875631
 31
0.0
  0
LINE
  5
23e
100
AcDbEntity
  8
fundo
 62
7
100
AcDbLine
 10
44.716119
 20
38.875631
 30
0.0
 11
42.954143
 21
39.107850
 31
0.0
  0
LINE
  5
23f
100
AcDbEntity
  8
fundo
 62
7
100
AcDbLine
 10
42.954143
 20
39.107850
 30
0.0
 11
41.266982
 21
39.627514
 31
0.0
  0
LINE
  5
240
100
AcDbEntity
  8
fundo
 62
7
100
AcDbLine
 10
41.266982
 20
39.627514
 30
0.0
 11
40.302045
 21
40.339895
 31
0.0
  0
LINE
  5
241
100
AcDbEntity
  8
fundo
 62
7
100
AcDbLine
 10
40.302045
 20
40.339895
 30
0.0
 11
39.421847
 21
41.171546
 31
0.0
  0
LINE
  5
242
100
AcDbEntity
  8
fundo
 62
7
100
AcDbLine
 10
39.421847
 20
41.171546
 30
0.0
 11
38.575271
 21
42.048941
 31
0.0
  0
LINE
  5
243
100
AcDbEntity
  8
fundo
 62
7
100
AcDbLine
 10
38.575271
 20
42.048941
 30
0.0
 11
37.711199
 21
42.898556
 31
0.0
  0
LINE
  5
244
100
AcDbEntity
  8
fundo
 62
7
100
AcDbLine
 10
37.711199
 20
42.898556
 30
0.0
 11
37.685263
 21
41.375416
 31
0.0
  0
LINE
  5
245
100
AcDbEntity
  8
fundo
 62
7
100
AcDbLine
 10
37.685263
 20
41.375416
 30
0.0
 11
37.533806
 21
39.821145
 31
0.0
  0
LINE
  5
246
100
AcDbEntity
  8
fundo
 62
7
100
AcDbLine
 10
37.533806
 20
39.821145
 30
0.0
 11
37.540494
 21
38.295066
 31
0.0
  0
LINE
  5
247
100
AcDbEntity
  8
fundo
 62
7
100
AcDbLine
 10
37.540494
 20
38.295066
 30
0.0
 11
37.988996
 21
36.856505
 31
0.0
  0
LINE
  5
248
100
AcDbEntity
  8
fundo
 62
7
100
AcDbLine
 10
37.988996
 20
36.856505
 30
0.0
 11
38.285081
 21
36.551223
 31
0.0
  0
LINE
  5
249
100
AcDbEntity
  8
fundo
 62
7
100
AcDbLine
 10
38.285081
 20
36.551223
 30
0.0
 11
38.532410
 21
36.284519
 31
0.0
  0
LINE
  5
24a
100
AcDbEntity
  8
fundo
 62
7
100
AcDbLine
 10
38.532410
 20
36.284519
 30
0.0
 11
38.631303
 21
35.989551
 31
0.0
  0
LINE
  5
24b
100
AcDbEntity
  8
fundo
 62
7
100
AcDbLine
 10
38.631303
 20
35.989551
 30
0.0
 11
38.482084
 21
35.599480
 31
0.0
  0
LINE
  5
24c
100
AcDbEntity
  8
fundo
 62
7
100
AcDbLine
 10
38.482084
 20
35.599480
 30
0.0
 11
38.364945
 21
33.588060
 31
0.0
  0
LINE
  5
24d
100
AcDbEntity
  8
fundo
 62
7
100
AcDbLine
 10
38.364945
 20
33.588060
 30
0.0
 11
38.364835
 21
31.564585
 31
0.0
  0
LINE
  5
24e
100
AcDbEntity
  8
fundo
 62
7
100
AcDbLine
 10
38.364835
 20
31.564585
 30
0.0
 11
38.399043
 21
29.537595
 31
0.0
  0
LINE
  5
24f
100
AcDbEntity
  8
fundo
 62
7
100
AcDbLine
 10
38.399043
 20
29.537595
 30
0.0
 11
38.384847
 21
27.515633
 31
0.0
  0
LINE
  5
250
100
AcDbEntity
  8
fundo
 62
7
100
AcDbLine
 10
38.384847
 20
27.515633
 30
0.0
 11
37.569710
 21
29.204220
 31
0.0
  0
LINE
  5
251
100
AcDbEntity
  8
fundo
 62
7
100
AcDbLine
 10
37.569710
 20
29.204220
 30
0.0
 11
36.913964
 21
30.951602
 31
0.0
  0
LINE
  5
252
100
AcDbEntity
  8
fundo
 62
7
100
AcDbLine
 10
36.913964
 20
30.951602
 30
0.0
 11
36.366185
 21
32.739030
 31
0.0
  0
LINE
  5
253
100
AcDbEntity
  8
fundo
 62
7
100
AcDbLine
 10
36.366185
 20
32.739030
 30
0.0
 11
35.874954
 21
34.547756
 31
0.0
  0
LINE
  5
254
100
AcDbEntity
  8
fundo
 62
7
100
AcDbLine
 10
35.874954
 20
34.547756
 30
0.0
 11
35.388846
 21
36.359034
 31
0.0
  0
LINE
  5
255
100
AcDbEntity
  8
fundo
 62
7
100
AcDbLine
 10
35.388846
 20
36.359034
 30
0.0
 11
34.856437
 21
38.154115
 31
0.0
  0
LINE
  5
256
100
AcDbEntity
  8
fundo
 62
7
100
AcDbLine
 10
34.856437
 20
38.154115
 30
0.0
 11
34.226308
 21
39.914252
 31
0.0
  0
LINE
  5
257
100
AcDbEntity
  8
fundo
 62
7
100
AcDbLine
 10
34.226308
 20
39.914252
 30
0.0
 11
33.447033
 21
41.620697
 31
0.0
  0
LINE
  5
258
100
AcDbEntity
  8
fundo
 62
7
100
AcDbLine
 10
33.447033
 20
41.620697
 30
0.0
 11
32.693669
 21
43.105244
 31
0.0
  0
LINE
  5
259
100
AcDbEntity
  8
fundo
 62
7
100
AcDbLine
 10
32.693669
 20
43.105244
 30
0.0
 11
31.796807
 21
44.540533
 31
0.0
  0
LINE
  5
25a
100
AcDbEntity
  8
fundo
 62
7
100
AcDbLine
 10
31.796807
 20
44.540533
 30
0.0
 11
30.760583
 21
45.887313
 31
0.0
  0
LINE
  5
25b
100
AcDbEntity
  8
fundo
 62
7
100
AcDbLine
 10
30.760583
 20
45.887313
 30
0.0
 11
29.589135
 21
47.106334
 31
0.0
  0
LINE
  5
25c
100
AcDbEntity
  8
fundo
 62
7
100
AcDbLine
 10
29.589135
 20
47.106334
 30
0.0
 11
28.286606
 21
48.158347
 31
0.0
  0
LINE
  5
25d
100
AcDbEntity
  8
fundo
 62
7
100
AcDbLine
 10
28.286606
 20
48.158347
 30
0.0
 11
26.857132
 21
49.004102
 31
0.0
  0
LINE
  5
25e
100
AcDbEntity
  8
fundo
 62
7
100
AcDbLine
 10
26.857132
 20
49.004102
 30
0.0
 11
25.304854
 21
49.604348
 31
0.0
  0
LINE
  5
25f
100
AcDbEntity
  8
fundo
 62
7
100
AcDbLine
 10
25.304854
 20
49.604348
 30
0.0
 11
23.633909
 21
49.919835
 31
0.0
  0
LINE
  5
260
100
AcDbEntity
  8
fundo
 62
7
100
AcDbLine
 10
23.633909
 20
49.919835
 30
0.0
 11
23.447968
 21
49.940525
 31
0.0
  0
LINE
  5
261
100
AcDbEntity
  8
fundo
 62
7
100
AcDbLine
 10
23.447968
 20
49.940525
 30
0.0
 11
23.261792
 21
49.957535
 31
0.0
  0
LINE
  5
262
100
AcDbEntity
  8
fundo
 62
7
100
AcDbLine
 10
23.261792
 20
49.957535
 30
0.0
 11
23.075400
 21
49.970867
 31
0.0
  0
LINE
  5
263
100
AcDbEntity
  8
fundo
 62
7
100
AcDbLine
 10
23.075400
 20
49.970867
 30
0.0
 11
22.888808
 21
49.980522
 31
0.0
  0
LINE
  5
264
100
AcDbEntity
  8
fundo
 62
7
100
AcDbLine
 10
22.888808
 20
49.980522
 30
0.0
 11
22.702030
 21
49.986496
 31
0.0
  0
LINE
  5
265
100
AcDbEntity
  8
fundo
 62
7
100
AcDbLine
 10
22.702030
 20
49.986496
 30
0.0
 11
22.515085
 21
49.988782
 31
0.0
  0
LINE
  5
266
100
AcDbEntity
  8
fundo
 62
7
100
AcDbLine
 10
22.515085
 20
49.988782
 30
0.0
 11
22.327989
 21
49.987399
 31
0.0
  0
LINE
  5
267
100
AcDbEntity
  8
fundo
 62
7
100
AcDbLine
 10
22.327989
 20
49.987399
 30
0.0
 11
22.140759
 21
49.982331
 31
0.0
  0
LINE
  5
268
100
AcDbEntity
  8
fundo
 62
7
100
AcDbLine
 10
22.140759
 20
49.982331
 30
0.0
 11
22.140778
 21
49.982332
 31
0.0
  0
LINE
  5
269
100
AcDbEntity
  8
fundo
 62
7
100
AcDbLine
 10
22.140778
 20
49.982332
 30
0.0
 11
22.140798
 21
49.982344
 31
0.0
  0
LINE
  5
26a
100
AcDbEntity
  8
fundo
 62
7
100
AcDbLine
 10
17.341882
 20
29.883844
 30
0.0
 11
17.861644
 21
29.516478
 31
0.0
  0
LINE
  5
26b
100
AcDbEntity
  8
fundo
 62
7
100
AcDbLine
 10
17.861644
 20
29.516478
 30
0.0
 11
18.457513
 21
29.292931
 31
0.0
  0
LINE
  5
26c
100
AcDbEntity
  8
fundo
 62
7
100
AcDbLine
 10
18.457513
 20
29.292931
 30
0.0
 11
19.089354
 21
29.224208
 31
0.0
  0
LINE
  5
26d
100
AcDbEntity
  8
fundo
 62
7
100
AcDbLine
 10
19.089354
 20
29.224208
 30
0.0
 11
19.717033
 21
29.321308
 31
0.0
  0
LINE
  5
26e
100
AcDbEntity
  8
fundo
 62
7
100
AcDbLine
 10
19.717033
 20
29.321308
 30
0.0
 11
19.631722
 21
28.766947
 31
0.0
  0
LINE
  5
26f
100
AcDbEntity
  8
fundo
 62
7
100
AcDbLine
 10
19.631722
 20
28.766947
 30
0.0
 11
19.173586
 21
28.415522
 31
0.0
  0
LINE
  5
270
100
AcDbEntity
  8
fundo
 62
7
100
AcDbLine
 10
19.173586
 20
28.415522
 30
0.0
 11
18.551382
 21
28.230514
 31
0.0
  0
LINE
  5
271
100
AcDbEntity
  8
fundo
 62
7
100
AcDbLine
 10
18.551382
 20
28.230514
 30
0.0
 11
17.973867
 21
28.175402
 31
0.0
  0
LINE
  5
272
100
AcDbEntity
  8
fundo
 62
7
100
AcDbLine
 10
17.973867
 20
28.175402
 30
0.0
 11
17.045518
 21
28.212906
 31
0.0
  0
LINE
  5
273
100
AcDbEntity
  8
fundo
 62
7
100
AcDbLine
 10
17.045518
 20
28.212906
 30
0.0
 11
16.116948
 21
28.251722
 31
0.0
  0
LINE
  5
274
100
AcDbEntity
  8
fundo
 62
7
100
AcDbLine
 10
16.116948
 20
28.251722
 30
0.0
 11
15.189694
 21
28.257584
 31
0.0
  0
LINE
  5
275
100
AcDbEntity
  8
fundo
 62
7
100
AcDbLine
 10
15.189694
 20
28.257584
 30
0.0
 11
14.265298
 21
28.196224
 31
0.0
  0
LINE
  5
276
100
AcDbEntity
  8
fundo
 62
7
100
AcDbLine
 10
14.265298
 20
28.196224
 30
0.0
 11
15.006399
 21
28.691082
 31
0.0
  0
LINE
  5
277
100
AcDbEntity
  8
fundo
 62
7
100
AcDbLine
 10
15.006399
 20
28.691082
 30
0.0
 11
15.732543
 21
29.282170
 31
0.0
  0
LINE
  5
278
100
AcDbEntity
  8
fundo
 62
7
100
AcDbLine
 10
15.732543
 20
29.282170
 30
0.0
 11
16.494210
 21
29.752187
 31
0.0
  0
LINE
  5
279
100
AcDbEntity
  8
fundo
 62
7
100
AcDbLine
 10
16.494210
 20
29.752187
 30
0.0
 11
17.341882
 21
29.883831
 31
0.0
  0
LINE
  5
27a
100
AcDbEntity
  8
fundo
 62
7
100
AcDbLine
 10
17.341882
 20
29.883831
 30
0.0
 11
17.341882
 21
29.883834
 31
0.0
  0
LINE
  5
27b
100
AcDbEntity
  8
fundo
 62
7
100
AcDbLine
 10
17.341882
 20
29.883834
 30
0.0
 11
17.341882
 21
29.883838
 31
0.0
  0
LINE
  5
27c
100
AcDbEntity
  8
fundo
 62
7
100
AcDbLine
 10
17.341882
 20
29.883838
 30
0.0
 11
17.341882
 21
29.883841
 31
0.0
  0
LINE
  5
27d
100
AcDbEntity
  8
fundo
 62
7
100
AcDbLine
 10
17.341882
 20
29.883841
 30
0.0
 11
17.341882
 21
29.883844
 31
0.0
  0
LINE
  5
27e
100
AcDbEntity
  8
fundo
 62
7
100
AcDbLine
 10
41.621205
 20
22.390312
 30
0.0
 11
42.252053
 21
22.053525
 31
0.0
  0
LINE
  5
27f
100
AcDbEntity
  8
fundo
 62
7
100
AcDbLine
 10
42.252053
 20
22.053525
 30
0.0
 11
42.631010
 21
21.461824
 31
0.0
  0
LINE
  5
280
100
AcDbEntity
  8
fundo
 62
7
100
AcDbLine
 10
42.631010
 20
21.461824
 30
0.0
 11
42.687364
 21
20.761416
 31
0.0
  0
LINE
  5
281
100
AcDbEntity
  8
fundo
 62
7
100
AcDbLine
 10
42.687364
 20
20.761416
 30
0.0
 11
42.350416
 21
20.098498
 31
0.0
  0
LINE
  5
282
100
AcDbEntity
  8
fundo
 62
7
100
AcDbLine
 10
42.350416
 20
20.098498
 30
0.0
 11
42.154955
 21
19.802427
 31
0.0
  0
LINE
  5
283
100
AcDbEntity
  8
fundo
 62
7
100
AcDbLine
 10
42.154955
 20
19.802427
 30
0.0
 11
41.990473
 21
20.033573
 31
0.0
  0
LINE
  5
284
100
AcDbEntity
  8
fundo
 62
7
100
AcDbLine
 10
41.990473
 20
20.033573
 30
0.0
 11
41.797616
 21
20.465596
 31
0.0
  0
LINE
  5
285
100
AcDbEntity
  8
fundo
 62
7
100
AcDbLine
 10
41.797616
 20
20.465596
 30
0.0
 11
41.517031
 21
20.772154
 31
0.0
  0
LINE
  5
286
100
AcDbEntity
  8
fundo
 62
7
100
AcDbLine
 10
41.517031
 20
20.772154
 30
0.0
 11
41.180585
 21
21.010909
 31
0.0
  0
LINE
  5
287
100
AcDbEntity
  8
fundo
 62
7
100
AcDbLine
 10
41.180585
 20
21.010909
 30
0.0
 11
40.744343
 21
21.210632
 31
0.0
  0
LINE
  5
288
100
AcDbEntity
  8
fundo
 62
7
100
AcDbLine
 10
40.744343
 20
21.210632
 30
0.0
 11
40.399287
 21
21.442867
 31
0.0
  0
LINE
  5
289
100
AcDbEntity
  8
fundo
 62
7
100
AcDbLine
 10
40.399287
 20
21.442867
 30
0.0
 11
40.336399
 21
21.779163
 31
0.0
  0
LINE
  5
28a
100
AcDbEntity
  8
fundo
 62
7
100
AcDbLine
 10
40.336399
 20
21.779163
 30
0.0
 11
40.621117
 21
22.014923
 31
0.0
  0
LINE
  5
28b
100
AcDbEntity
  8
fundo
 62
7
100
AcDbLine
 10
40.621117
 20
22.014923
 30
0.0
 11
40.923893
 21
22.205595
 31
0.0
  0
LINE
  5
28c
100
AcDbEntity
  8
fundo
 62
7
100
AcDbLine
 10
40.923893
 20
22.205595
 30
0.0
 11
41.254124
 21
22.335835
 31
0.0
  0
LINE
  5
28d
100
AcDbEntity
  8
fundo
 62
7
100
AcDbLine
 10
41.254124
 20
22.335835
 30
0.0
 11
41.621205
 21
22.390312
 31
0.0
  0
LINE
  5
28e
100
AcDbEntity
  8
desenho
 62
7
100
AcDbLine
 10
22.175518
 20
48.871165
 30
0.0
 11
19.880342
 21
48.560058
 31
0.0
  0
LINE
  5
28f
100
AcDbEntity
  8
desenho
 62
7
100
AcDbLine
 10
19.880342
 20
48.560058
 30
0.0
 11
17.690125
 21
47.853378
 31
0.0
  0
LINE
  5
290
100
AcDbEntity
  8
desenho
 62
7
100
AcDbLine
 10
17.690125
 20
47.853378
 30
0.0
 11
15.666836
 21
46.885836
 31
0.0
  0
LINE
  5
291
100
AcDbEntity
  8
desenho
 62
7
100
AcDbLine
 10
15.666836
 20
46.885836
 30
0.0
 11
13.872449
 21
45.792138
 31
0.0
  0
LINE
  5
292
100
AcDbEntity
  8
desenho
 62
7
100
AcDbLine
 10
13.872449
 20
45.792138
 30
0.0
 11
12.368935
 21
44.706991
 31
0.0
  0
LINE
  5
293
100
AcDbEntity
  8
desenho
 62
7
100
AcDbLine
 10
12.368935
 20
44.706991
 30
0.0
 11
11.218269
 21
43.765107
 31
0.0
  0
LINE
  5
294
100
AcDbEntity
  8
desenho
 62
7
100
AcDbLine
 10
11.218269
 20
43.765107
 30
0.0
 11
10.482422
 21
43.101189
 31
0.0
  0
LINE
  5
295
100
AcDbEntity
  8
desenho
 62
7
100
AcDbLine
 10
10.482422
 20
43.101189
 30
0.0
 11
10.223370
 21
42.849949
 31
0.0
  0
LINE
  5
296
100
AcDbEntity
  8
desenho
 62
7
100
AcDbLine
 10
10.223370
 20
42.849949
 30
0.0
 11
14.775637
 21
42.473558
 31
0.0
  0
LINE
  5
297
100
AcDbEntity
  8
desenho
 62
7
100
AcDbLine
 10
14.775637
 20
42.473558
 30
0.0
 11
18.450804
 21
40.925980
 31
0.0
  0
LINE
  5
298
100
AcDbEntity
  8
desenho
 62
7
100
AcDbLine
 10
18.450804
 20
40.925980
 30
0.0
 11
21.332132
 21
38.583662
 31
0.0
  0
LINE
  5
299
100
AcDbEntity
  8
desenho
 62
7
100
AcDbLine
 10
21.332132
 20
38.583662
 30
0.0
 11
23.502881
 21
35.823058
 31
0.0
  0
LINE
  5
29a
100
AcDbEntity
  8
desenho
 62
7
100
AcDbLine
 10
23.502881
 20
35.823058
 30
0.0
 11
25.046308
 21
33.020618
 31
0.0
  0
LINE
  5
29b
100
AcDbEntity
  8
desenho
 62
7
100
AcDbLine
 10
25.046308
 20
33.020618
 30
0.0
 11
26.045673
 21
30.552792
 31
0.0
  0
LINE
  5
29c
100
AcDbEntity
  8
desenho
 62
7
100
AcDbLine
 10
26.045673
 20
30.552792
 30
0.0
 11
26.584234
 21
28.796034
 31
0.0
  0
LINE
  5
29d
100
AcDbEntity
  8
desenho
 62
7
100
AcDbLine
 10
26.584234
 20
28.796034
 30
0.0
 11
26.745253
 21
28.126791
 31
0.0
  0
LINE
  5
29e
100
AcDbEntity
  8
desenho
 62
7
100
AcDbLine
 10
26.745253
 20
28.126791
 30
0.0
 11
27.966135
 21
23.300500
 31
0.0
  0
LINE
  5
29f
100
AcDbEntity
  8
desenho
 62
7
100
AcDbLine
 10
27.966135
 20
23.300500
 30
0.0
 11
29.759440
 21
19.814214
 31
0.0
  0
LINE
  5
2a0
100
AcDbEntity
  8
desenho
 62
7
100
AcDbLine
 10
29.759440
 20
19.814214
 30
0.0
 11
31.898561
 21
17.453262
 31
0.0
  0
LINE
  5
2a1
100
AcDbEntity
  8
desenho
 62
7
100
AcDbLine
 10
31.898561
 20
17.453262
 30
0.0
 11
34.156891
 21
16.002965
 31
0.0
  0
LINE
  5
2a2
100
AcDbEntity
  8
desenho
 62
7
100
AcDbLine
 10
34.156891
 20
16.002965
 30
0.0
 11
36.307830
 21
15.248651
 31
0.0
  0
LINE
  5
2a3
100
AcDbEntity
  8
desenho
 62
7
100
AcDbLine
 10
36.307830
 20
15.248651
 30
0.0
 11
38.124774
 21
14.975642
 31
0.0
  0
LINE
  5
2a4
100
AcDbEntity
  8
desenho
 62
7
100
AcDbLine
 10
38.124774
 20
14.975642
 30
0.0
 11
39.381116
 21
14.969264
 31
0.0
  0
LINE
  5
2a5
100
AcDbEntity
  8
desenho
 62
7
100
AcDbLine
 10
39.381116
 20
14.969264
 30
0.0
 11
39.850253
 21
15.014845
 31
0.0
  0
LINE
  5
2a6
100
AcDbEntity
  8
desenho
 62
7
100
AcDbLine
 10
39.850253
 20
15.014845
 30
0.0
 11
40.021348
 21
15.226594
 31
0.0
  0
LINE
  5
2a7
100
AcDbEntity
  8
desenho
 62
7
100
AcDbLine
 10
40.021348
 20
15.226594
 30
0.0
 11
40.187034
 21
15.556844
 31
0.0
  0
LINE
  5
2a8
100
AcDbEntity
  8
desenho
 62
7
100
AcDbLine
 10
40.187034
 20
15.556844
 30
0.0
 11
40.341944
 21
15.960365
 31
0.0
  0
LINE
  5
2a9
100
AcDbEntity
  8
desenho
 62
7
100
AcDbLine
 10
40.341944
 20
15.960365
 30
0.0
 11
40.480708
 21
16.391932
 31
0.0
  0
LINE
  5
2aa
100
AcDbEntity
  8
desenho
 62
7
100
AcDbLine
 10
40.480708
 20
16.391932
 30
0.0
 11
40.597962
 21
16.806323
 31
0.0
  0
LINE
  5
2ab
100
AcDbEntity
  8
desenho
 62
7
100
AcDbLine
 10
40.597962
 20
16.806323
 30
0.0
 11
40.688337
 21
17.158310
 31
0.0
  0
LINE
  5
2ac
100
AcDbEntity
  8
desenho
 62
7
100
AcDbLine
 10
40.688337
 20
17.158310
 30
0.0
 11
40.746465
 21
17.402668
 31
0.0
  0
LINE
  5
2ad
100
AcDbEntity
  8
desenho
 62
7
100
AcDbLine
 10
40.746465
 20
17.402668
 30
0.0
 11
40.766978
 21
17.494169
 31
0.0
  0
LINE
  5
2ae
100
AcDbEntity
  8
desenho
 62
7
100
AcDbLine
 10
40.766978
 20
17.494169
 30
0.0
 11
41.014235
 21
18.318579
 31
0.0
  0
LINE
  5
2af
100
AcDbEntity
  8
desenho
 62
7
100
AcDbLine
 10
41.014235
 20
18.318579
 30
0.0
 11
41.096021
 21
18.952570
 31
0.0
  0
LINE
  5
2b0
100
AcDbEntity
  8
desenho
 62
7
100
AcDbLine
 10
41.096021
 20
18.952570
 30
0.0
 11
41.053178
 21
19.420951
 31
0.0
  0
LINE
  5
2b1
100
AcDbEntity
  8
desenho
 62
7
100
AcDbLine
 10
41.053178
 20
19.420951
 30
0.0
 11
40.926543
 21
19.748534
 31
0.0
  0
LINE
  5
2b2
100
AcDbEntity
  8
desenho
 62
7
100
AcDbLine
 10
40.926543
 20
19.748534
 30
0.0
 11
40.756959
 21
19.960130
 31
0.0
  0
LINE
  5
2b3
100
AcDbEntity
  8
desenho
 62
7
100
AcDbLine
 10
40.756959
 20
19.960130
 30
0.0
 11
40.585264
 21
20.080551
 31
0.0
  0
LINE
  5
2b4
100
AcDbEntity
  8
desenho
 62
7
100
AcDbLine
 10
40.585264
 20
20.080551
 30
0.0
 11
40.452295
 21
20.134610
 31
0.0
  0
LINE
  5
2b5
100
AcDbEntity
  8
desenho
 62
7
100
AcDbLine
 10
40.452295
 20
20.134610
 30
0.0
 11
40.398899
 21
20.147122
 31
0.0
  0
LINE
  5
2b6
100
AcDbEntity
  8
desenho
 62
7
100
AcDbLine
 10
40.398899
 20
20.147122
 30
0.0
 11
39.692445
 21
20.586265
 31
0.0
  0
LINE
  5
2b7
100
AcDbEntity
  8
desenho
 62
7
100
AcDbLine
 10
39.692445
 20
20.586265
 30
0.0
 11
39.198533
 21
21.287732
 31
0.0
  0
LINE
  5
2b8
100
AcDbEntity
  8
desenho
 62
7
100
AcDbLine
 10
39.198533
 20
21.287732
 30
0.0
 11
38.880687
 21
22.152620
 31
0.0
  0
LINE
  5
2b9
100
AcDbEntity
  8
desenho
 62
7
100
AcDbLine
 10
38.880687
 20
22.152620
 30
0.0
 11
38.702429
 21
23.082031
 31
0.0
  0
LINE
  5
2ba
100
AcDbEntity
  8
desenho
 62
7
100
AcDbLine
 10
38.702429
 20
23.082031
 30
0.0
 11
38.627282
 21
23.977063
 31
0.0
  0
LINE
  5
2bb
100
AcDbEntity
  8
desenho
 62
7
100
AcDbLine
 10
38.627282
 20
23.977063
 30
0.0
 11
38.618770
 21
24.738820
 31
0.0
  0
LINE
  5
2bc
100
AcDbEntity
  8
desenho
 62
7
100
AcDbLine
 10
38.618770
 20
24.738820
 30
0.0
 11
38.640416
 21
25.268401
 31
0.0
  0
LINE
  5
2bd
100
AcDbEntity
  8
desenho
 62
7
100
AcDbLine
 10
38.640416
 20
25.268401
 30
0.0
 11
38.655728
 21
25.466904
 31
0.0
  0
LINE
  5
2be
100
AcDbEntity
  8
desenho
 62
7
100
AcDbLine
 10
38.655728
 20
25.466904
 30
0.0
 11
37.866613
 21
26.290874
 31
0.0
  0
LINE
  5
2bf
100
AcDbEntity
  8
desenho
 62
7
100
AcDbLine
 10
37.866613
 20
26.290874
 30
0.0
 11
37.154779
 21
27.436807
 31
0.0
  0
LINE
  5
2c0
100
AcDbEntity
  8
desenho
 62
7
100
AcDbLine
 10
37.154779
 20
27.436807
 30
0.0
 11
36.528835
 21
28.771608
 31
0.0
  0
LINE
  5
2c1
100
AcDbEntity
  8
desenho
 62
7
100
AcDbLine
 10
36.528835
 20
28.771608
 30
0.0
 11
35.997392
 21
30.162176
 31
0.0
  0
LINE
  5
2c2
100
AcDbEntity
  8
desenho
 62
7
100
AcDbLine
 10
35.997392
 20
30.162176
 30
0.0
 11
35.569061
 21
31.475417
 31
0.0
  0
LINE
  5
2c3
100
AcDbEntity
  8
desenho
 62
7
100
AcDbLine
 10
35.569061
 20
31.475417
 30
0.0
 11
35.252449
 21
32.578232
 31
0.0
  0
LINE
  5
2c4
100
AcDbEntity
  8
desenho
 62
7
100
AcDbLine
 10
35.252449
 20
32.578232
 30
0.0
 11
35.056168
 21
33.337524
 31
0.0
  0
LINE
  5
2c5
100
AcDbEntity
  8
desenho
 62
7
100
AcDbLine
 10
35.056168
 20
33.337524
 30
0.0
 11
34.988828
 21
33.620200
 31
0.0
  0
LINE
  5
2c6
100
AcDbEntity
  8
desenho
 62
7
100
AcDbLine
 10
34.988828
 20
33.620200
 30
0.0
 11
33.807355
 21
37.758032
 31
0.0
  0
LINE
  5
2c7
100
AcDbEntity
  8
desenho
 62
7
100
AcDbLine
 10
33.807355
 20
37.758032
 30
0.0
 11
32.447542
 21
41.131735
 31
0.0
  0
LINE
  5
2c8
100
AcDbEntity
  8
desenho
 62
7
100
AcDbLine
 10
32.447542
 20
41.131735
 30
0.0
 11
30.938531
 21
43.804594
 31
0.0
  0
LINE
  5
2c9
100
AcDbEntity
  8
desenho
 62
7
100
AcDbLine
 10
30.938531
 20
43.804594
 30
0.0
 11
29.309467
 21
45.839892
 31
0.0
  0
LINE
  5
2ca
100
AcDbEntity
  8
desenho
 62
7
100
AcDbLine
 10
29.309467
 20
45.839892
 30
0.0
 11
27.589491
 21
47.300914
 31
0.0
  0
LINE
  5
2cb
100
AcDbEntity
  8
desenho
 62
7
100
AcDbLine
 10
27.589491
 20
47.300914
 30
0.0
 11
25.807745
 21
48.250943
 31
0.0
  0
LINE
  5
2cc
100
AcDbEntity
  8
desenho
 62
7
100
AcDbLine
 10
25.807745
 20
48.250943
 30
0.0
 11
23.993372
 21
48.753266
 31
0.0
  0
LINE
  5
2cd
100
AcDbEntity
  8
desenho
 62
7
100
AcDbLine
 10
23.993372
 20
48.753266
 30
0.0
 11
22.175518
 21
48.871165
 31
0.0
  0
LINE
  5
2ce
100
AcDbEntity
  8
desenho
 62
7
100
AcDbLine
 10
38.718236
 20
40.322010
 30
0.0
 11
38.680038
 21
39.415704
 31
0.0
  0
LINE
  5
2cf
100
AcDbEntity
  8
desenho
 62
7
100
AcDbLine
 10
38.680038
 20
39.415704
 30
0.0
 11
38.641843
 21
38.509395
 31
0.0
  0
LINE
  5
2d0
100
AcDbEntity
  8
desenho
 62
7
100
AcDbLine
 10
38.641843
 20
38.509395
 30
0.0
 11
38.638020
 21
38.388028
 31
0.0
  0
LINE
  5
2d1
100
AcDbEntity
  8
desenho
 62
7
100
AcDbLine
 10
38.638020
 20
38.388028
 30
0.0
 11
38.641843
 21
38.266324
 31
0.0
  0
LINE
  5
2d2
100
AcDbEntity
  8
desenho
 62
7
100
AcDbLine
 10
38.641843
 20
38.266324
 30
0.0
 11
38.735737
 21
37.865299
 31
0.0
  0
LINE
  5
2d3
100
AcDbEntity
  8
desenho
 62
7
100
AcDbLine
 10
38.735737
 20
37.865299
 30
0.0
 11
38.857134
 21
37.557946
 31
0.0
  0
LINE
  5
2d4
100
AcDbEntity
  8
desenho
 62
7
100
AcDbLine
 10
38.857134
 20
37.557946
 30
0.0
 11
38.970419
 21
37.394880
 31
0.0
  0
LINE
  5
2d5
100
AcDbEntity
  8
desenho
 62
7
100
AcDbLine
 10
38.970419
 20
37.394880
 30
0.0
 11
39.121040
 21
37.259316
 31
0.0
  0
LINE
  5
2d6
100
AcDbEntity
  8
desenho
 62
7
100
AcDbLine
 10
39.121040
 20
37.259316
 30
0.0
 11
40.001569
 21
36.785815
 31
0.0
  0
LINE
  5
2d7
100
AcDbEntity
  8
desenho
 62
7
100
AcDbLine
 10
40.001569
 20
36.785815
 30
0.0
 11
40.607245
 21
36.460654
 31
0.0
  0
LINE
  5
2d8
100
AcDbEntity
  8
desenho
 62
7
100
AcDbLine
 10
40.607245
 20
36.460654
 30
0.0
 11
40.490627
 21
36.375815
 31
0.0
  0
LINE
  5
2d9
100
AcDbEntity
  8
desenho
 62
7
100
AcDbLine
 10
40.490627
 20
36.375815
 30
0.0
 11
40.197497
 21
36.231473
 31
0.0
  0
LINE
  5
2da
100
AcDbEntity
  8
desenho
 62
7
100
AcDbLine
 10
40.197497
 20
36.231473
 30
0.0
 11
39.728216
 21
35.750331
 31
0.0
  0
LINE
  5
2db
100
AcDbEntity
  8
desenho
 62
7
100
AcDbLine
 10
39.728216
 20
35.750331
 30
0.0
 11
39.509953
 21
35.071677
 31
0.0
  0
LINE
  5
2dc
100
AcDbEntity
  8
desenho
 62
7
100
AcDbLine
 10
39.509953
 20
35.071677
 30
0.0
 11
39.494463
 21
34.954032
 31
0.0
  0
LINE
  5
2dd
100
AcDbEntity
  8
desenho
 62
7
100
AcDbLine
 10
39.494463
 20
34.954032
 30
0.0
 11
39.489130
 21
34.835551
 31
0.0
  0
LINE
  5
2de
100
AcDbEntity
  8
desenho
 62
7
100
AcDbLine
 10
39.489130
 20
34.835551
 30
0.0
 11
39.496063
 21
29.908155
 31
0.0
  0
LINE
  5
2df
100
AcDbEntity
  8
desenho
 62
7
100
AcDbLine
 10
39.496063
 20
29.908155
 30
0.0
 11
39.502997
 21
24.980758
 31
0.0
  0
LINE
  5
2e0
100
AcDbEntity
  8
desenho
 62
7
100
AcDbLine
 10
39.502997
 20
24.980758
 30
0.0
 11
39.754791
 21
25.202079
 31
0.0
  0
LINE
  5
2e1
100
AcDbEntity
  8
desenho
 62
7
100
AcDbLine
 10
39.754791
 20
25.202079
 30
0.0
 11
40.246100
 21
25.612743
 31
0.0
  0
LINE
  5
2e2
100
AcDbEntity
  8
desenho
 62
7
100
AcDbLine
 10
40.246100
 20
25.612743
 30
0.0
 11
43.951058
 21
26.860377
 31
0.0
  0
LINE
  5
2e3
100
AcDbEntity
  8
desenho
 62
7
100
AcDbLine
 10
43.951058
 20
26.860377
 30
0.0
 11
47.857695
 21
26.286396
 31
0.0
  0
LINE
  5
2e4
100
AcDbEntity
  8
desenho
 62
7
100
AcDbLine
 10
47.857695
 20
26.286396
 30
0.0
 11
48.805366
 21
25.807977
 31
0.0
  0
LINE
  5
2e5
100
AcDbEntity
  8
desenho
 62
7
100
AcDbLine
 10
48.805366
 20
25.807977
 30
0.0
 11
49.725869
 21
25.196049
 31
0.0
  0
LINE
  5
2e6
100
AcDbEntity
  8
desenho
 62
7
100
AcDbLine
 10
49.725869
 20
25.196049
 30
0.0
 11
50.226123
 21
24.763773
 31
0.0
  0
LINE
  5
2e7
100
AcDbEntity
  8
desenho
 62
7
100
AcDbLine
 10
50.226123
 20
24.763773
 30
0.0
 11
50.482862
 21
24.529340
 31
0.0
  0
LINE
  5
2e8
100
AcDbEntity
  8
desenho
 62
7
100
AcDbLine
 10
50.482862
 20
24.529340
 30
0.0
 11
50.553088
 21
25.027650
 31
0.0
  0
LINE
  5
2e9
100
AcDbEntity
  8
desenho
 62
7
100
AcDbLine
 10
50.553088
 20
25.027650
 30
0.0
 11
50.656484
 21
25.959987
 31
0.0
  0
LINE
  5
2ea
100
AcDbEntity
  8
desenho
 62
7
100
AcDbLine
 10
50.656484
 20
25.959987
 30
0.0
 11
50.584590
 21
27.415830
 31
0.0
  0
LINE
  5
2eb
100
AcDbEntity
  8
desenho
 62
7
100
AcDbLine
 10
50.584590
 20
27.415830
 30
0.0
 11
50.045334
 21
28.730996
 31
0.0
  0
LINE
  5
2ec
100
AcDbEntity
  8
desenho
 62
7
100
AcDbLine
 10
50.045334
 20
28.730996
 30
0.0
 11
49.010239
 21
30.237287
 31
0.0
  0
LINE
  5
2ed
100
AcDbEntity
  8
desenho
 62
7
100
AcDbLine
 10
49.010239
 20
30.237287
 30
0.0
 11
48.864703
 21
31.661738
 31
0.0
  0
LINE
  5
2ee
100
AcDbEntity
  8
desenho
 62
7
100
AcDbLine
 10
48.864703
 20
31.661738
 30
0.0
 11
49.353705
 21
32.459429
 31
0.0
  0
LINE
  5
2ef
100
AcDbEntity
  8
desenho
 62
7
100
AcDbLine
 10
49.353705
 20
32.459429
 30
0.0
 11
50.330074
 21
32.793754
 31
0.0
  0
LINE
  5
2f0
100
AcDbEntity
  8
desenho
 62
7
100
AcDbLine
 10
50.330074
 20
32.793754
 30
0.0
 11
51.206101
 21
32.689081
 31
0.0
  0
LINE
  5
2f1
100
AcDbEntity
  8
desenho
 62
7
100
AcDbLine
 10
51.206101
 20
32.689081
 30
0.0
 11
52.024626
 21
32.252053
 31
0.0
  0
LINE
  5
2f2
100
AcDbEntity
  8
desenho
 62
7
100
AcDbLine
 10
52.024626
 20
32.252053
 30
0.0
 11
52.844649
 21
31.625958
 31
0.0
  0
LINE
  5
2f3
100
AcDbEntity
  8
desenho
 62
7
100
AcDbLine
 10
52.844649
 20
31.625958
 30
0.0
 11
53.281651
 21
31.265879
 31
0.0
  0
LINE
  5
2f4
100
AcDbEntity
  8
desenho
 62
7
100
AcDbLine
 10
53.281651
 20
31.265879
 30
0.0
 11
53.278184
 21
33.404904
 31
0.0
  0
LINE
  5
2f5
100
AcDbEntity
  8
desenho
 62
7
100
AcDbLine
 10
53.278184
 20
33.404904
 30
0.0
 11
53.274717
 21
35.543929
 31
0.0
  0
LINE
  5
2f6
100
AcDbEntity
  8
desenho
 62
7
100
AcDbLine
 10
53.274717
 20
35.543929
 30
0.0
 11
53.272494
 21
35.665715
 31
0.0
  0
LINE
  5
2f7
100
AcDbEntity
  8
desenho
 62
7
100
AcDbLine
 10
53.272494
 20
35.665715
 30
0.0
 11
53.260760
 21
35.787000
 31
0.0
  0
LINE
  5
2f8
100
AcDbEntity
  8
desenho
 62
7
100
AcDbLine
 10
53.260760
 20
35.787000
 30
0.0
 11
52.886208
 21
36.690420
 31
0.0
  0
LINE
  5
2f9
100
AcDbEntity
  8
desenho
 62
7
100
AcDbLine
 10
52.886208
 20
36.690420
 30
0.0
 11
52.038460
 21
37.217647
 31
0.0
  0
LINE
  5
2fa
100
AcDbEntity
  8
desenho
 62
7
100
AcDbLine
 10
52.038460
 20
37.217647
 30
0.0
 11
51.356502
 21
37.403187
 31
0.0
  0
LINE
  5
2fb
100
AcDbEntity
  8
desenho
 62
7
100
AcDbLine
 10
51.356502
 20
37.403187
 30
0.0
 11
50.663373
 21
37.502387
 31
0.0
  0
LINE
  5
2fc
100
AcDbEntity
  8
desenho
 62
7
100
AcDbLine
 10
50.663373
 20
37.502387
 30
0.0
 11
48.706638
 21
37.595448
 31
0.0
  0
LINE
  5
2fd
100
AcDbEntity
  8
desenho
 62
7
100
AcDbLine
 10
48.706638
 20
37.595448
 30
0.0
 11
46.482552
 21
37.655174
 31
0.0
  0
LINE
  5
2fe
100
AcDbEntity
  8
desenho
 62
7
100
AcDbLine
 10
46.482552
 20
37.655174
 30
0.0
 11
44.075343
 21
37.850213
 31
0.0
  0
LINE
  5
2ff
100
AcDbEntity
  8
desenho
 62
7
100
AcDbLine
 10
44.075343
 20
37.850213
 30
0.0
 11
41.350281
 21
38.356608
 31
0.0
  0
LINE
  5
300
100
AcDbEntity
  8
desenho
 62
7
100
AcDbLine
 10
41.350281
 20
38.356608
 30
0.0
 11
40.365774
 21
38.875614
 31
0.0
  0
LINE
  5
301
100
AcDbEntity
  8
desenho
 62
7
100
AcDbLine
 10
40.365774
 20
38.875614
 30
0.0
 11
39.482107
 21
39.571963
 31
0.0
  0
LINE
  5
302
100
AcDbEntity
  8
desenho
 62
7
100
AcDbLine
 10
39.482107
 20
39.571963
 30
0.0
 11
38.975713
 21
40.062161
 31
0.0
  0
LINE
  5
303
100
AcDbEntity
  8
desenho
 62
7
100
AcDbLine
 10
38.975713
 20
40.062161
 30
0.0
 11
38.718170
 21
40.322010
 31
0.0
  0
LINE
  5
304
100
AcDbEntity
  8
desenho
 62
7
100
AcDbLine
 10
38.718170
 20
40.322010
 30
0.0
 11
38.718158
 21
40.322010
 31
0.0
  0
LINE
  5
305
100
AcDbEntity
  8
desenho
 62
7
100
AcDbLine
 10
38.718158
 20
40.322010
 30
0.0
 11
38.718236
 21
40.322010
 31
0.0
  0
LINE
  5
306
100
AcDbEntity
  8
desenho
 62
7
100
AcDbLine
 10
5.271667
 20
36.064796
 30
0.0
 11
5.094989
 21
35.991624
 31
0.0
  0
LINE
  5
307
100
AcDbEntity
  8
desenho
 62
7
100
AcDbLine
 10
5.094989
 20
35.991624
 30
0.0
 11
5.021651
 21
35.814780
 31
0.0
  0
LINE
  5
308
100
AcDbEntity
  8
desenho
 62
7
100
AcDbLine
 10
5.021651
 20
35.814780
 30
0.0
 11
5.021651
 21
34.977922
 31
0.0
  0
LINE
  5
309
100
AcDbEntity
  8
desenho
 62
7
100
AcDbLine
 10
5.021651
 20
34.977922
 30
0.0
 11
5.021651
 21
34.141062
 31
0.0
  0
LINE
  5
30a
100
AcDbEntity
  8
desenho
 62
7
100
AcDbLine
 10
5.021651
 20
34.141062
 30
0.0
 11
5.094989
 21
33.964218
 31
0.0
  0
LINE
  5
30b
100
AcDbEntity
  8
desenho
 62
7
100
AcDbLine
 10
5.094989
 20
33.964218
 30
0.0
 11
5.271667
 21
33.891046
 31
0.0
  0
LINE
  5
30c
100
AcDbEntity
  8
desenho
 62
7
100
AcDbLine
 10
5.271667
 20
33.891046
 30
0.0
 11
5.993935
 21
33.891046
 31
0.0
  0
LINE
  5
30d
100
AcDbEntity
  8
desenho
 62
7
100
AcDbLine
 10
5.993935
 20
33.891046
 30
0.0
 11
6.716203
 21
33.891046
 31
0.0
  0
LINE
  5
30e
100
AcDbEntity
  8
desenho
 62
7
100
AcDbLine
 10
6.716203
 20
33.891046
 30
0.0
 11
6.892965
 21
33.964218
 31
0.0
  0
LINE
  5
30f
100
AcDbEntity
  8
desenho
 62
7
100
AcDbLine
 10
6.892965
 20
33.964218
 30
0.0
 11
6.966219
 21
34.141062
 31
0.0
  0
LINE
  5
310
100
AcDbEntity
  8
desenho
 62
7
100
AcDbLine
 10
6.966219
 20
34.141062
 30
0.0
 11
6.966219
 21
34.325103
 31
0.0
  0
LINE
  5
311
100
AcDbEntity
  8
desenho
 62
7
100
AcDbLine
 10
6.966219
 20
34.325103
 30
0.0
 11
6.966219
 21
34.509141
 31
0.0
  0
LINE
  5
312
100
AcDbEntity
  8
desenho
 62
7
100
AcDbLine
 10
6.966219
 20
34.509141
 30
0.0
 11
8.810085
 21
34.509141
 31
0.0
  0
LINE
  5
313
100
AcDbEntity
  8
desenho
 62
7
100
AcDbLine
 10
8.810085
 20
34.509141
 30
0.0
 11
10.653953
 21
34.509141
 31
0.0
  0
LINE
  5
314
100
AcDbEntity
  8
desenho
 62
7
100
AcDbLine
 10
10.653953
 20
34.509141
 30
0.0
 11
11.740827
 21
33.387543
 31
0.0
  0
LINE
  5
315
100
AcDbEntity
  8
desenho
 62
7
100
AcDbLine
 10
11.740827
 20
33.387543
 30
0.0
 11
12.827702
 21
32.265943
 31
0.0
  0
LINE
  5
316
100
AcDbEntity
  8
desenho
 62
7
100
AcDbLine
 10
12.827702
 20
32.265943
 30
0.0
 11
8.806613
 21
32.265943
 31
0.0
  0
LINE
  5
317
100
AcDbEntity
  8
desenho
 62
7
100
AcDbLine
 10
8.806613
 20
32.265943
 30
0.0
 11
4.785525
 21
32.265943
 31
0.0
  0
LINE
  5
318
100
AcDbEntity
  8
desenho
 62
7
100
AcDbLine
 10
4.785525
 20
32.265943
 30
0.0
 11
4.778591
 21
32.776393
 31
0.0
  0
LINE
  5
319
100
AcDbEntity
  8
desenho
 62
7
100
AcDbLine
 10
4.778591
 20
32.776393
 30
0.0
 11
4.771657
 21
33.286841
 31
0.0
  0
LINE
  5
31a
100
AcDbEntity
  8
desenho
 62
7
100
AcDbLine
 10
4.771657
 20
33.286841
 30
0.0
 11
4.035499
 21
32.849313
 31
0.0
  0
LINE
  5
31b
100
AcDbEntity
  8
desenho
 62
7
100
AcDbLine
 10
4.035499
 20
32.849313
 30
0.0
 11
3.299341
 21
32.411786
 31
0.0
  0
LINE
  5
31c
100
AcDbEntity
  8
desenho
 62
7
100
AcDbLine
 10
3.299341
 20
32.411786
 30
0.0
 11
2.566655
 21
31.974258
 31
0.0
  0
LINE
  5
31d
100
AcDbEntity
  8
desenho
 62
7
100
AcDbLine
 10
2.566655
 20
31.974258
 30
0.0
 11
1.833970
 21
31.536730
 31
0.0
  0
LINE
  5
31e
100
AcDbEntity
  8
desenho
 62
7
100
AcDbLine
 10
1.833970
 20
31.536730
 30
0.0
 11
2.580544
 21
31.116566
 31
0.0
  0
LINE
  5
31f
100
AcDbEntity
  8
desenho
 62
7
100
AcDbLine
 10
2.580544
 20
31.116566
 30
0.0
 11
3.327121
 21
30.696399
 31
0.0
  0
LINE
  5
320
100
AcDbEntity
  8
desenho
 62
7
100
AcDbLine
 10
3.327121
 20
30.696399
 30
0.0
 11
4.073695
 21
30.279706
 31
0.0
  0
LINE
  5
321
100
AcDbEntity
  8
desenho
 62
7
100
AcDbLine
 10
4.073695
 20
30.279706
 30
0.0
 11
4.820271
 21
29.863013
 31
0.0
  0
LINE
  5
322
100
AcDbEntity
  8
desenho
 62
7
100
AcDbLine
 10
4.820271
 20
29.863013
 30
0.0
 11
4.809848
 21
30.429022
 31
0.0
  0
LINE
  5
323
100
AcDbEntity
  8
desenho
 62
7
100
AcDbLine
 10
4.809848
 20
30.429022
 30
0.0
 11
4.799425
 21
30.995029
 31
0.0
  0
LINE
  5
324
100
AcDbEntity
  8
desenho
 62
7
100
AcDbLine
 10
4.799425
 20
30.995029
 30
0.0
 11
9.657372
 21
30.995029
 31
0.0
  0
LINE
  5
325
100
AcDbEntity
  8
desenho
 62
7
100
AcDbLine
 10
9.657372
 20
30.995029
 30
0.0
 11
14.515321
 21
30.995029
 31
0.0
  0
LINE
  5
326
100
AcDbEntity
  8
desenho
 62
7
100
AcDbLine
 10
14.515321
 20
30.995029
 30
0.0
 11
13.171484
 21
30.047053
 31
0.0
  0
LINE
  5
327
100
AcDbEntity
  8
desenho
 62
7
100
AcDbLine
 10
13.171484
 20
30.047053
 30
0.0
 11
11.827650
 21
29.099075
 31
0.0
  0
LINE
  5
328
100
AcDbEntity
  8
desenho
 62
7
100
AcDbLine
 10
11.827650
 20
29.099075
 30
0.0
 11
10.296301
 21
29.095608
 31
0.0
  0
LINE
  5
329
100
AcDbEntity
  8
desenho
 62
7
100
AcDbLine
 10
10.296301
 20
29.095608
 30
0.0
 11
8.764955
 21
29.092141
 31
0.0
  0
LINE
  5
32a
100
AcDbEntity
  8
desenho
 62
7
100
AcDbLine
 10
8.764955
 20
29.092141
 30
0.0
 11
8.355440
 21
29.548466
 31
0.0
  0
LINE
  5
32b
100
AcDbEntity
  8
desenho
 62
7
100
AcDbLine
 10
8.355440
 20
29.548466
 30
0.0
 11
7.751002
 21
29.724126
 31
0.0
  0
LINE
  5
32c
100
AcDbEntity
  8
desenho
 62
7
100
AcDbLine
 10
7.751002
 20
29.724126
 30
0.0
 11
6.945424
 21
29.390745
 31
0.0
  0
LINE
  5
32d
100
AcDbEntity
  8
desenho
 62
7
100
AcDbLine
 10
6.945424
 20
29.390745
 30
0.0
 11
6.612041
 21
28.585165
 31
0.0
  0
LINE
  5
32e
100
AcDbEntity
  8
desenho
 62
7
100
AcDbLine
 10
6.612041
 20
28.585165
 30
0.0
 11
6.945424
 21
27.779754
 31
0.0
  0
LINE
  5
32f
100
AcDbEntity
  8
desenho
 62
7
100
AcDbLine
 10
6.945424
 20
27.779754
 30
0.0
 11
7.751002
 21
27.446203
 31
0.0
  0
LINE
  5
330
100
AcDbEntity
  8
desenho
 62
7
100
AcDbLine
 10
7.751002
 20
27.446203
 30
0.0
 11
8.347755
 21
27.615461
 31
0.0
  0
LINE
  5
331
100
AcDbEntity
  8
desenho
 62
7
100
AcDbLine
 10
8.347755
 20
27.615461
 30
0.0
 11
8.758010
 21
28.057353
 31
0.0
  0
LINE
  5
332
100
AcDbEntity
  8
desenho
 62
7
100
AcDbLine
 10
8.758010
 20
28.057353
 30
0.0
 11
10.449089
 21
28.060820
 31
0.0
  0
LINE
  5
333
100
AcDbEntity
  8
desenho
 62
7
100
AcDbLine
 10
10.449089
 20
28.060820
 30
0.0
 11
12.140170
 21
28.064287
 31
0.0
  0
LINE
  5
334
100
AcDbEntity
  8
desenho
 62
7
100
AcDbLine
 10
12.140170
 20
28.064287
 30
0.0
 11
12.143637
 21
28.060820
 31
0.0
  0
LINE
  5
335
100
AcDbEntity
  8
desenho
 62
7
100
AcDbLine
 10
12.143637
 20
28.060820
 30
0.0
 11
12.147103
 21
28.057353
 31
0.0
  0
LINE
  5
336
100
AcDbEntity
  8
desenho
 62
7
100
AcDbLine
 10
12.147103
 20
28.057353
 30
0.0
 11
12.150570
 21
28.060820
 31
0.0
  0
LINE
  5
337
100
AcDbEntity
  8
desenho
 62
7
100
AcDbLine
 10
12.150570
 20
28.060820
 30
0.0
 11
12.154037
 21
28.064287
 31
0.0
  0
LINE
  5
338
100
AcDbEntity
  8
desenho
 62
7
100
AcDbLine
 10
12.154037
 20
28.064287
 30
0.0
 11
12.167927
 21
28.064287
 31
0.0
  0
LINE
  5
339
100
AcDbEntity
  8
desenho
 62
7
100
AcDbLine
 10
12.167927
 20
28.064287
 30
0.0
 11
12.181817
 21
28.064287
 31
0.0
  0
LINE
  5
33a
100
AcDbEntity
  8
desenho
 62
7
100
AcDbLine
 10
12.181817
 20
28.064287
 30
0.0
 11
12.181817
 21
28.074710
 31
0.0
  0
LINE
  5
33b
100
AcDbEntity
  8
desenho
 62
7
100
AcDbLine
 10
12.181817
 20
28.074710
 30
0.0
 11
12.181817
 21
28.085133
 31
0.0
  0
LINE
  5
33c
100
AcDbEntity
  8
desenho
 62
7
100
AcDbLine
 10
12.181817
 20
28.085133
 30
0.0
 11
14.237503
 21
29.540088
 31
0.0
  0
LINE
  5
33d
100
AcDbEntity
  8
desenho
 62
7
100
AcDbLine
 10
14.237503
 20
29.540088
 30
0.0
 11
16.293189
 21
30.995040
 31
0.0
  0
LINE
  5
33e
100
AcDbEntity
  8
desenho
 62
7
100
AcDbLine
 10
16.293189
 20
30.995040
 30
0.0
 11
17.074488
 21
30.995040
 31
0.0
  0
LINE
  5
33f
100
AcDbEntity
  8
desenho
 62
7
100
AcDbLine
 10
17.074488
 20
30.995040
 30
0.0
 11
17.855788
 21
30.995040
 31
0.0
  0
LINE
  5
340
100
AcDbEntity
  8
desenho
 62
7
100
AcDbLine
 10
17.855788
 20
30.995040
 30
0.0
 11
18.349929
 21
30.516385
 31
0.0
  0
LINE
  5
341
100
AcDbEntity
  8
desenho
 62
7
100
AcDbLine
 10
18.349929
 20
30.516385
 30
0.0
 11
19.036419
 21
30.335276
 31
0.0
  0
LINE
  5
342
100
AcDbEntity
  8
desenho
 62
7
100
AcDbLine
 10
19.036419
 20
30.335276
 30
0.0
 11
19.604364
 21
30.456604
 31
0.0
  0
LINE
  5
343
100
AcDbEntity
  8
desenho
 62
7
100
AcDbLine
 10
19.604364
 20
30.456604
 30
0.0
 11
20.057317
 21
30.786693
 31
0.0
  0
LINE
  5
344
100
AcDbEntity
  8
desenho
 62
7
100
AcDbLine
 10
20.057317
 20
30.786693
 30
0.0
 11
20.314807
 21
30.557946
 31
0.0
  0
LINE
  5
345
100
AcDbEntity
  8
desenho
 62
7
100
AcDbLine
 10
20.314807
 20
30.557946
 30
0.0
 11
20.522625
 21
30.279717
 31
0.0
  0
LINE
  5
346
100
AcDbEntity
  8
desenho
 62
7
100
AcDbLine
 10
20.522625
 20
30.279717
 30
0.0
 11
20.775252
 21
29.682041
 31
0.0
  0
LINE
  5
347
100
AcDbEntity
  8
desenho
 62
7
100
AcDbLine
 10
20.775252
 20
29.682041
 30
0.0
 11
20.890703
 21
29.106031
 31
0.0
  0
LINE
  5
348
100
AcDbEntity
  8
desenho
 62
7
100
AcDbLine
 10
20.890703
 20
29.106031
 30
0.0
 11
19.989646
 21
27.616492
 31
0.0
  0
LINE
  5
349
100
AcDbEntity
  8
desenho
 62
7
100
AcDbLine
 10
19.989646
 20
27.616492
 30
0.0
 11
18.203033
 21
27.071180
 31
0.0
  0
LINE
  5
34a
100
AcDbEntity
  8
desenho
 62
7
100
AcDbLine
 10
18.203033
 20
27.071180
 30
0.0
 11
16.493757
 21
27.119460
 31
0.0
  0
LINE
  5
34b
100
AcDbEntity
  8
desenho
 62
7
100
AcDbLine
 10
16.493757
 20
27.119460
 30
0.0
 11
15.202842
 21
27.147573
 31
0.0
  0
LINE
  5
34c
100
AcDbEntity
  8
desenho
 62
7
100
AcDbLine
 10
15.202842
 20
27.147573
 30
0.0
 11
15.053110
 21
27.123823
 31
0.0
  0
LINE
  5
34d
100
AcDbEntity
  8
desenho
 62
7
100
AcDbLine
 10
15.053110
 20
27.123823
 30
0.0
 11
14.904212
 21
27.105911
 31
0.0
  0
LINE
  5
34e
100
AcDbEntity
  8
desenho
 62
7
100
AcDbLine
 10
14.904212
 20
27.105911
 30
0.0
 11
14.735646
 21
27.103333
 31
0.0
  0
LINE
  5
34f
100
AcDbEntity
  8
desenho
 62
7
100
AcDbLine
 10
14.735646
 20
27.103333
 30
0.0
 11
14.563913
 21
27.105911
 31
0.0
  0
LINE
  5
350
100
AcDbEntity
  8
desenho
 62
7
100
AcDbLine
 10
14.563913
 20
27.105911
 30
0.0
 11
13.196770
 21
26.831227
 31
0.0
  0
LINE
  5
351
100
AcDbEntity
  8
desenho
 62
7
100
AcDbLine
 10
13.196770
 20
26.831227
 30
0.0
 11
12.015140
 21
26.189186
 31
0.0
  0
LINE
  5
352
100
AcDbEntity
  8
desenho
 62
7
100
AcDbLine
 10
12.015140
 20
26.189186
 30
0.0
 11
10.702501
 21
23.723780
 31
0.0
  0
LINE
  5
353
100
AcDbEntity
  8
desenho
 62
7
100
AcDbLine
 10
10.702501
 20
23.723780
 30
0.0
 11
10.903958
 21
20.938852
 31
0.0
  0
LINE
  5
354
100
AcDbEntity
  8
desenho
 62
7
100
AcDbLine
 10
10.903958
 20
20.938852
 30
0.0
 11
11.988082
 21
19.617324
 31
0.0
  0
LINE
  5
355
100
AcDbEntity
  8
desenho
 62
7
100
AcDbLine
 10
11.988082
 20
19.617324
 30
0.0
 11
13.661077
 21
19.112347
 31
0.0
  0
LINE
  5
356
100
AcDbEntity
  8
desenho
 62
7
100
AcDbLine
 10
13.661077
 20
19.112347
 30
0.0
 11
15.782601
 21
19.316138
 31
0.0
  0
LINE
  5
357
100
AcDbEntity
  8
desenho
 62
7
100
AcDbLine
 10
15.782601
 20
19.316138
 30
0.0
 11
17.772450
 21
20.209639
 31
0.0
  0
LINE
  5
358
100
AcDbEntity
  8
desenho
 62
7
100
AcDbLine
 10
17.772450
 20
20.209639
 30
0.0
 11
18.845489
 21
21.007997
 31
0.0
  0
LINE
  5
359
100
AcDbEntity
  8
desenho
 62
7
100
AcDbLine
 10
18.845489
 20
21.007997
 30
0.0
 11
19.925364
 21
21.862522
 31
0.0
  0
LINE
  5
35a
100
AcDbEntity
  8
desenho
 62
7
100
AcDbLine
 10
19.925364
 20
21.862522
 30
0.0
 11
22.138283
 21
23.176023
 31
0.0
  0
LINE
  5
35b
100
AcDbEntity
  8
desenho
 62
7
100
AcDbLine
 10
22.138283
 20
23.176023
 30
0.0
 11
24.606217
 21
23.800145
 31
0.0
  0
LINE
  5
35c
100
AcDbEntity
  8
desenho
 62
7
100
AcDbLine
 10
24.606217
 20
23.800145
 30
0.0
 11
24.987159
 21
23.775895
 31
0.0
  0
LINE
  5
35d
100
AcDbEntity
  8
desenho
 62
7
100
AcDbLine
 10
24.987159
 20
23.775895
 30
0.0
 11
25.356265
 21
23.695972
 31
0.0
  0
LINE
  5
35e
100
AcDbEntity
  8
desenho
 62
7
100
AcDbLine
 10
25.356265
 20
23.695972
 30
0.0
 11
26.063699
 21
23.486874
 31
0.0
  0
LINE
  5
35f
100
AcDbEntity
  8
desenho
 62
7
100
AcDbLine
 10
26.063699
 20
23.486874
 30
0.0
 11
26.592455
 21
23.716795
 31
0.0
  0
LINE
  5
360
100
AcDbEntity
  8
desenho
 62
7
100
AcDbLine
 10
26.592455
 20
23.716795
 30
0.0
 11
26.730352
 21
24.193743
 31
0.0
  0
LINE
  5
361
100
AcDbEntity
  8
desenho
 62
7
100
AcDbLine
 10
26.730352
 20
24.193743
 30
0.0
 11
26.453557
 21
24.591851
 31
0.0
  0
LINE
  5
362
100
AcDbEntity
  8
desenho
 62
7
100
AcDbLine
 10
26.453557
 20
24.591851
 30
0.0
 11
25.374377
 21
24.904011
 31
0.0
  0
LINE
  5
363
100
AcDbEntity
  8
desenho
 62
7
100
AcDbLine
 10
25.374377
 20
24.904011
 30
0.0
 11
24.210359
 21
24.973820
 31
0.0
  0
LINE
  5
364
100
AcDbEntity
  8
desenho
 62
7
100
AcDbLine
 10
24.210359
 20
24.973820
 30
0.0
 11
22.132087
 21
24.471399
 31
0.0
  0
LINE
  5
365
100
AcDbEntity
  8
desenho
 62
7
100
AcDbLine
 10
22.132087
 20
24.471399
 30
0.0
 11
20.286498
 21
23.529283
 31
0.0
  0
LINE
  5
366
100
AcDbEntity
  8
desenho
 62
7
100
AcDbLine
 10
20.286498
 20
23.529283
 30
0.0
 11
17.556798
 21
21.512600
 31
0.0
  0
LINE
  5
367
100
AcDbEntity
  8
desenho
 62
7
100
AcDbLine
 10
17.556798
 20
21.512600
 30
0.0
 11
15.105614
 21
20.397140
 31
0.0
  0
LINE
  5
368
100
AcDbEntity
  8
desenho
 62
7
100
AcDbLine
 10
15.105614
 20
20.397140
 30
0.0
 11
13.289916
 21
20.346692
 31
0.0
  0
LINE
  5
369
100
AcDbEntity
  8
desenho
 62
7
100
AcDbLine
 10
13.289916
 20
20.346692
 30
0.0
 11
11.959580
 21
21.424983
 31
0.0
  0
LINE
  5
36a
100
AcDbEntity
  8
desenho
 62
7
100
AcDbLine
 10
11.959580
 20
21.424983
 30
0.0
 11
11.846600
 21
23.465697
 31
0.0
  0
LINE
  5
36b
100
AcDbEntity
  8
desenho
 62
7
100
AcDbLine
 10
11.846600
 20
23.465697
 30
0.0
 11
12.702683
 21
25.216891
 31
0.0
  0
LINE
  5
36c
100
AcDbEntity
  8
desenho
 62
7
100
AcDbLine
 10
12.702683
 20
25.216891
 30
0.0
 11
15.251318
 21
25.935965
 31
0.0
  0
LINE
  5
36d
100
AcDbEntity
  8
desenho
 62
7
100
AcDbLine
 10
15.251318
 20
25.935965
 30
0.0
 11
18.064135
 21
25.855820
 31
0.0
  0
LINE
  5
36e
100
AcDbEntity
  8
desenho
 62
7
100
AcDbLine
 10
18.064135
 20
25.855820
 30
0.0
 11
20.717804
 21
26.672290
 31
0.0
  0
LINE
  5
36f
100
AcDbEntity
  8
desenho
 62
7
100
AcDbLine
 10
20.717804
 20
26.672290
 30
0.0
 11
22.064389
 21
28.960184
 31
0.0
  0
LINE
  5
370
100
AcDbEntity
  8
desenho
 62
7
100
AcDbLine
 10
22.064389
 20
28.960184
 30
0.0
 11
21.734590
 21
30.454252
 31
0.0
  0
LINE
  5
371
100
AcDbEntity
  8
desenho
 62
7
100
AcDbLine
 10
21.734590
 20
30.454252
 30
0.0
 11
20.842089
 21
31.675634
 31
0.0
  0
LINE
  5
372
100
AcDbEntity
  8
desenho
 62
7
100
AcDbLine
 10
20.842089
 20
31.675634
 30
0.0
 11
20.633023
 21
31.830489
 31
0.0
  0
LINE
  5
373
100
AcDbEntity
  8
desenho
 62
7
100
AcDbLine
 10
20.633023
 20
31.830489
 30
0.0
 11
20.390672
 21
31.974265
 31
0.0
  0
LINE
  5
374
100
AcDbEntity
  8
desenho
 62
7
100
AcDbLine
 10
20.390672
 20
31.974265
 30
0.0
 11
19.919228
 21
32.771686
 31
0.0
  0
LINE
  5
375
100
AcDbEntity
  8
desenho
 62
7
100
AcDbLine
 10
19.919228
 20
32.771686
 30
0.0
 11
19.036419
 21
33.092391
 31
0.0
  0
LINE
  5
376
100
AcDbEntity
  8
desenho
 62
7
100
AcDbLine
 10
19.036419
 20
33.092391
 30
0.0
 11
18.272186
 21
32.861930
 31
0.0
  0
LINE
  5
377
100
AcDbEntity
  8
desenho
 62
7
100
AcDbLine
 10
18.272186
 20
32.861930
 30
0.0
 11
17.772450
 21
32.265950
 31
0.0
  0
LINE
  5
378
100
AcDbEntity
  8
desenho
 62
7
100
AcDbLine
 10
17.772450
 20
32.265950
 30
0.0
 11
16.011920
 21
32.265950
 31
0.0
  0
LINE
  5
379
100
AcDbEntity
  8
desenho
 62
7
100
AcDbLine
 10
16.011920
 20
32.265950
 30
0.0
 11
14.251393
 21
32.265950
 31
0.0
  0
LINE
  5
37a
100
AcDbEntity
  8
desenho
 62
7
100
AcDbLine
 10
14.251393
 20
32.265950
 30
0.0
 11
12.692265
 21
33.880637
 31
0.0
  0
LINE
  5
37b
100
AcDbEntity
  8
desenho
 62
7
100
AcDbLine
 10
12.692265
 20
33.880637
 30
0.0
 11
11.133139
 21
35.495322
 31
0.0
  0
LINE
  5
37c
100
AcDbEntity
  8
desenho
 62
7
100
AcDbLine
 10
11.133139
 20
35.495322
 30
0.0
 11
11.133139
 21
35.516145
 31
0.0
  0
LINE
  5
37d
100
AcDbEntity
  8
desenho
 62
7
100
AcDbLine
 10
11.133139
 20
35.516145
 30
0.0
 11
11.133139
 21
35.536969
 31
0.0
  0
LINE
  5
37e
100
AcDbEntity
  8
desenho
 62
7
100
AcDbLine
 10
11.133139
 20
35.536969
 30
0.0
 11
9.049673
 21
35.540436
 31
0.0
  0
LINE
  5
37f
100
AcDbEntity
  8
desenho
 62
7
100
AcDbLine
 10
9.049673
 20
35.540436
 30
0.0
 11
6.966208
 21
35.543902
 31
0.0
  0
LINE
  5
380
100
AcDbEntity
  8
desenho
 62
7
100
AcDbLine
 10
6.966208
 20
35.543902
 30
0.0
 11
6.966208
 21
35.679329
 31
0.0
  0
LINE
  5
381
100
AcDbEntity
  8
desenho
 62
7
100
AcDbLine
 10
6.966208
 20
35.679329
 30
0.0
 11
6.966208
 21
35.814753
 31
0.0
  0
LINE
  5
382
100
AcDbEntity
  8
desenho
 62
7
100
AcDbLine
 10
6.966208
 20
35.814753
 30
0.0
 11
6.892954
 21
35.991598
 31
0.0
  0
LINE
  5
383
100
AcDbEntity
  8
desenho
 62
7
100
AcDbLine
 10
6.892954
 20
35.991598
 30
0.0
 11
6.716192
 21
36.064769
 31
0.0
  0
LINE
  5
384
100
AcDbEntity
  8
desenho
 62
7
100
AcDbLine
 10
6.716192
 20
36.064769
 30
0.0
 11
5.993924
 21
36.064769
 31
0.0
  0
LINE
  5
385
100
AcDbEntity
  8
desenho
 62
7
100
AcDbLine
 10
5.993924
 20
36.064769
 30
0.0
 11
5.271655
 21
36.064769
 31
0.0
  0
LINE
  5
386
100
AcDbEntity
  8
desenho
 62
7
100
AcDbLine
 10
5.271655
 20
36.064769
 30
0.0
 11
5.271660
 21
36.064787
 31
0.0
  0
LINE
  5
387
100
AcDbEntity
  8
desenho
 62
7
100
AcDbLine
 10
5.271660
 20
36.064787
 30
0.0
 11
5.271667
 21
36.064796
 31
0.0
  0
LINE
  5
388
100
AcDbEntity
  8
desenho
 62
7
100
AcDbLine
 10
58.205586
 20
31.918699
 30
0.0
 11
58.012209
 21
31.864891
 31
0.0
  0
LINE
  5
389
100
AcDbEntity
  8
desenho
 62
7
100
AcDbLine
 10
58.012209
 20
31.864891
 30
0.0
 11
57.865286
 21
31.814525
 31
0.0
  0
LINE
  5
38a
100
AcDbEntity
  8
desenho
 62
7
100
AcDbLine
 10
57.865286
 20
31.814525
 30
0.0
 11
57.684664
 21
31.742910
 31
0.0
  0
LINE
  5
38b
100
AcDbEntity
  8
desenho
 62
7
100
AcDbLine
 10
57.684664
 20
31.742910
 30
0.0
 11
57.538877
 21
31.654793
 31
0.0
  0
LINE
  5
38c
100
AcDbEntity
  8
desenho
 62
7
100
AcDbLine
 10
57.538877
 20
31.654793
 30
0.0
 11
57.337475
 21
31.436335
 31
0.0
  0
LINE
  5
38d
100
AcDbEntity
  8
desenho
 62
7
100
AcDbLine
 10
57.337475
 20
31.436335
 30
0.0
 11
57.136073
 21
31.245045
 31
0.0
  0
LINE
  5
38e
100
AcDbEntity
  8
desenho
 62
7
100
AcDbLine
 10
57.136073
 20
31.245045
 30
0.0
 11
56.821387
 21
31.167958
 31
0.0
  0
LINE
  5
38f
100
AcDbEntity
  8
desenho
 62
7
100
AcDbLine
 10
56.821387
 20
31.167958
 30
0.0
 11
56.448530
 21
31.120037
 31
0.0
  0
LINE
  5
390
100
AcDbEntity
  8
desenho
 62
7
100
AcDbLine
 10
56.448530
 20
31.120037
 30
0.0
 11
55.886912
 21
30.837186
 31
0.0
  0
LINE
  5
391
100
AcDbEntity
  8
desenho
 62
7
100
AcDbLine
 10
55.886912
 20
30.837186
 30
0.0
 11
55.594309
 21
30.328320
 31
0.0
  0
LINE
  5
392
100
AcDbEntity
  8
desenho
 62
7
100
AcDbLine
 10
55.594309
 20
30.328320
 30
0.0
 11
55.538221
 21
29.622942
 31
0.0
  0
LINE
  5
393
100
AcDbEntity
  8
desenho
 62
7
100
AcDbLine
 10
55.538221
 20
29.622942
 30
0.0
 11
55.656813
 21
28.828225
 31
0.0
  0
LINE
  5
394
100
AcDbEntity
  8
desenho
 62
7
100
AcDbLine
 10
55.656813
 20
28.828225
 30
0.0
 11
55.718483
 21
28.577653
 31
0.0
  0
LINE
  5
395
100
AcDbEntity
  8
desenho
 62
7
100
AcDbLine
 10
55.718483
 20
28.577653
 30
0.0
 11
55.823490
 21
28.342083
 31
0.0
  0
LINE
  5
396
100
AcDbEntity
  8
desenho
 62
7
100
AcDbLine
 10
55.823490
 20
28.342083
 30
0.0
 11
56.118704
 21
27.931001
 31
0.0
  0
LINE
  5
397
100
AcDbEntity
  8
desenho
 62
7
100
AcDbLine
 10
56.118704
 20
27.931001
 30
0.0
 11
56.149899
 21
27.647594
 31
0.0
  0
LINE
  5
398
100
AcDbEntity
  8
desenho
 62
7
100
AcDbLine
 10
56.149899
 20
27.647594
 30
0.0
 11
55.845907
 21
26.782539
 31
0.0
  0
LINE
  5
399
100
AcDbEntity
  8
desenho
 62
7
100
AcDbLine
 10
55.845907
 20
26.782539
 30
0.0
 11
55.684592
 21
25.918317
 31
0.0
  0
LINE
  5
39a
100
AcDbEntity
  8
desenho
 62
7
100
AcDbLine
 10
55.684592
 20
25.918317
 30
0.0
 11
55.691748
 21
25.333169
 31
0.0
  0
LINE
  5
39b
100
AcDbEntity
  8
desenho
 62
7
100
AcDbLine
 10
55.691748
 20
25.333169
 30
0.0
 11
55.559573
 21
25.091876
 31
0.0
  0
LINE
  5
39c
100
AcDbEntity
  8
desenho
 62
7
100
AcDbLine
 10
55.559573
 20
25.091876
 30
0.0
 11
55.131046
 21
24.852861
 31
0.0
  0
LINE
  5
39d
100
AcDbEntity
  8
desenho
 62
7
100
AcDbLine
 10
55.131046
 20
24.852861
 30
0.0
 11
54.580344
 21
24.571010
 31
0.0
  0
LINE
  5
39e
100
AcDbEntity
  8
desenho
 62
7
100
AcDbLine
 10
54.580344
 20
24.571010
 30
0.0
 11
53.460746
 21
24.018197
 31
0.0
  0
LINE
  5
39f
100
AcDbEntity
  8
desenho
 62
7
100
AcDbLine
 10
53.460746
 20
24.018197
 30
0.0
 11
52.503823
 21
23.598726
 31
0.0
  0
LINE
  5
3a0
100
AcDbEntity
  8
desenho
 62
7
100
AcDbLine
 10
52.503823
 20
23.598726
 30
0.0
 11
51.194767
 21
23.127029
 31
0.0
  0
LINE
  5
3a1
100
AcDbEntity
  8
desenho
 62
7
100
AcDbLine
 10
51.194767
 20
23.127029
 30
0.0
 11
50.496751
 21
22.890347
 31
0.0
  0
LINE
  5
3a2
100
AcDbEntity
  8
desenho
 62
7
100
AcDbLine
 10
50.496751
 20
22.890347
 30
0.0
 11
50.148618
 21
23.220008
 31
0.0
  0
LINE
  5
3a3
100
AcDbEntity
  8
desenho
 62
7
100
AcDbLine
 10
50.148618
 20
23.220008
 30
0.0
 11
49.482798
 21
23.814017
 31
0.0
  0
LINE
  5
3a4
100
AcDbEntity
  8
desenho
 62
7
100
AcDbLine
 10
49.482798
 20
23.814017
 30
0.0
 11
46.427993
 21
25.371589
 31
0.0
  0
LINE
  5
3a5
100
AcDbEntity
  8
desenho
 62
7
100
AcDbLine
 10
46.427993
 20
25.371589
 30
0.0
 11
43.072668
 21
25.508569
 31
0.0
  0
LINE
  5
3a6
100
AcDbEntity
  8
desenho
 62
7
100
AcDbLine
 10
43.072668
 20
25.508569
 30
0.0
 11
41.341781
 21
24.890948
 31
0.0
  0
LINE
  5
3a7
100
AcDbEntity
  8
desenho
 62
7
100
AcDbLine
 10
41.341781
 20
24.890948
 30
0.0
 11
40.016919
 21
23.737623
 31
0.0
  0
LINE
  5
3a8
100
AcDbEntity
  8
desenho
 62
7
100
AcDbLine
 10
40.016919
 20
23.737623
 30
0.0
 11
39.762347
 21
23.273901
 31
0.0
  0
LINE
  5
3a9
100
AcDbEntity
  8
desenho
 62
7
100
AcDbLine
 10
39.762347
 20
23.273901
 30
0.0
 11
39.593281
 21
22.848678
 31
0.0
  0
LINE
  5
3aa
100
AcDbEntity
  8
desenho
 62
7
100
AcDbLine
 10
39.593281
 20
22.848678
 30
0.0
 11
39.577613
 21
22.749089
 31
0.0
  0
LINE
  5
3ab
100
AcDbEntity
  8
desenho
 62
7
100
AcDbLine
 10
39.577613
 20
22.749089
 30
0.0
 11
39.593281
 21
22.682001
 31
0.0
  0
LINE
  5
3ac
100
AcDbEntity
  8
desenho
 62
7
100
AcDbLine
 10
39.593281
 20
22.682001
 30
0.0
 11
39.793320
 21
22.753479
 31
0.0
  0
LINE
  5
3ad
100
AcDbEntity
  8
desenho
 62
7
100
AcDbLine
 10
39.793320
 20
22.753479
 30
0.0
 11
40.023864
 21
22.959796
 31
0.0
  0
LINE
  5
3ae
100
AcDbEntity
  8
desenho
 62
7
100
AcDbLine
 10
40.023864
 20
22.959796
 30
0.0
 11
40.860777
 21
23.373156
 31
0.0
  0
LINE
  5
3af
100
AcDbEntity
  8
desenho
 62
7
100
AcDbLine
 10
40.860777
 20
23.373156
 30
0.0
 11
41.725361
 21
23.501497
 31
0.0
  0
LINE
  5
3b0
100
AcDbEntity
  8
desenho
 62
7
100
AcDbLine
 10
41.725361
 20
23.501497
 30
0.0
 11
43.064530
 21
22.793897
 31
0.0
  0
LINE
  5
3b1
100
AcDbEntity
  8
desenho
 62
7
100
AcDbLine
 10
43.064530
 20
22.793897
 30
0.0
 11
43.808826
 21
21.431921
 31
0.0
  0
LINE
  5
3b2
100
AcDbEntity
  8
desenho
 62
7
100
AcDbLine
 10
43.808826
 20
21.431921
 30
0.0
 11
43.576449
 21
20.087143
 31
0.0
  0
LINE
  5
3b3
100
AcDbEntity
  8
desenho
 62
7
100
AcDbLine
 10
43.576449
 20
20.087143
 30
0.0
 11
42.878212
 21
18.834534
 31
0.0
  0
LINE
  5
3b4
100
AcDbEntity
  8
desenho
 62
7
100
AcDbLine
 10
42.878212
 20
18.834534
 30
0.0
 11
41.920958
 21
17.488977
 31
0.0
  0
LINE
  5
3b5
100
AcDbEntity
  8
desenho
 62
7
100
AcDbLine
 10
41.920958
 20
17.488977
 30
0.0
 11
41.301723
 21
15.994076
 31
0.0
  0
LINE
  5
3b6
100
AcDbEntity
  8
desenho
 62
7
100
AcDbLine
 10
41.301723
 20
15.994076
 30
0.0
 11
41.100570
 21
13.248430
 31
0.0
  0
LINE
  5
3b7
100
AcDbEntity
  8
desenho
 62
7
100
AcDbLine
 10
41.100570
 20
13.248430
 30
0.0
 11
42.565692
 21
11.070152
 31
0.0
  0
LINE
  5
3b8
100
AcDbEntity
  8
desenho
 62
7
100
AcDbLine
 10
42.565692
 20
11.070152
 30
0.0
 11
44.091789
 21
10.319911
 31
0.0
  0
LINE
  5
3b9
100
AcDbEntity
  8
desenho
 62
7
100
AcDbLine
 10
44.091789
 20
10.319911
 30
0.0
 11
45.670056
 21
10.327045
 31
0.0
  0
LINE
  5
3ba
100
AcDbEntity
  8
desenho
 62
7
100
AcDbLine
 10
45.670056
 20
10.327045
 30
0.0
 11
45.919794
 21
10.421579
 31
0.0
  0
LINE
  5
3bb
100
AcDbEntity
  8
desenho
 62
7
100
AcDbLine
 10
45.919794
 20
10.421579
 30
0.0
 11
46.135363
 21
10.570116
 31
0.0
  0
LINE
  5
3bc
100
AcDbEntity
  8
desenho
 62
7
100
AcDbLine
 10
46.135363
 20
10.570116
 30
0.0
 11
46.352210
 21
10.769379
 31
0.0
  0
LINE
  5
3bd
100
AcDbEntity
  8
desenho
 62
7
100
AcDbLine
 10
46.352210
 20
10.769379
 30
0.0
 11
46.468718
 21
10.882635
 31
0.0
  0
LINE
  5
3be
100
AcDbEntity
  8
desenho
 62
7
100
AcDbLine
 10
46.468718
 20
10.882635
 30
0.0
 11
46.883077
 21
10.655899
 31
0.0
  0
LINE
  5
3bf
100
AcDbEntity
  8
desenho
 62
7
100
AcDbLine
 10
46.883077
 20
10.655899
 30
0.0
 11
47.677128
 21
10.188147
 31
0.0
  0
LINE
  5
3c0
100
AcDbEntity
  8
desenho
 62
7
100
AcDbLine
 10
47.677128
 20
10.188147
 30
0.0
 11
48.933263
 21
9.134469
 31
0.0
  0
LINE
  5
3c1
100
AcDbEntity
  8
desenho
 62
7
100
AcDbLine
 10
48.933263
 20
9.134469
 30
0.0
 11
49.955050
 21
7.861610
 31
0.0
  0
LINE
  5
3c2
100
AcDbEntity
  8
desenho
 62
7
100
AcDbLine
 10
49.955050
 20
7.861610
 30
0.0
 11
50.351324
 21
7.121648
 31
0.0
  0
LINE
  5
3c3
100
AcDbEntity
  8
desenho
 62
7
100
AcDbLine
 10
50.351324
 20
7.121648
 30
0.0
 11
50.663429
 21
6.319846
 31
0.0
  0
LINE
  5
3c4
100
AcDbEntity
  8
desenho
 62
7
100
AcDbLine
 10
50.663429
 20
6.319846
 30
0.0
 11
50.855052
 21
5.569131
 31
0.0
  0
LINE
  5
3c5
100
AcDbEntity
  8
desenho
 62
7
100
AcDbLine
 10
50.855052
 20
5.569131
 30
0.0
 11
50.948169
 21
5.153105
 31
0.0
  0
LINE
  5
3c6
100
AcDbEntity
  8
desenho
 62
7
100
AcDbLine
 10
50.948169
 20
5.153105
 30
0.0
 11
50.426551
 21
5.095963
 31
0.0
  0
LINE
  5
3c7
100
AcDbEntity
  8
desenho
 62
7
100
AcDbLine
 10
50.426551
 20
5.095963
 30
0.0
 11
49.510578
 21
4.958648
 31
0.0
  0
LINE
  5
3c8
100
AcDbEntity
  8
desenho
 62
7
100
AcDbLine
 10
49.510578
 20
4.958648
 30
0.0
 11
49.040852
 21
4.807083
 31
0.0
  0
LINE
  5
3c9
100
AcDbEntity
  8
desenho
 62
7
100
AcDbLine
 10
49.040852
 20
4.807083
 30
0.0
 11
48.642467
 21
4.535010
 31
0.0
  0
LINE
  5
3ca
100
AcDbEntity
  8
desenho
 62
7
100
AcDbLine
 10
48.642467
 20
4.535010
 30
0.0
 11
48.557877
 21
4.346805
 31
0.0
  0
LINE
  5
3cb
100
AcDbEntity
  8
desenho
 62
7
100
AcDbLine
 10
48.557877
 20
4.346805
 30
0.0
 11
48.475790
 21
4.166931
 31
0.0
  0
LINE
  5
3cc
100
AcDbEntity
  8
desenho
 62
7
100
AcDbLine
 10
48.475790
 20
4.166931
 30
0.0
 11
48.258580
 21
4.020284
 31
0.0
  0
LINE
  5
3cd
100
AcDbEntity
  8
desenho
 62
7
100
AcDbLine
 10
48.258580
 20
4.020284
 30
0.0
 11
47.982703
 21
3.889136
 31
0.0
  0
LINE
  5
3ce
100
AcDbEntity
  8
desenho
 62
7
100
AcDbLine
 10
47.982703
 20
3.889136
 30
0.0
 11
47.614153
 21
3.559977
 31
0.0
  0
LINE
  5
3cf
100
AcDbEntity
  8
desenho
 62
7
100
AcDbLine
 10
47.614153
 20
3.559977
 30
0.0
 11
47.364608
 21
3.132143
 31
0.0
  0
LINE
  5
3d0
100
AcDbEntity
  8
desenho
 62
7
100
AcDbLine
 10
47.364608
 20
3.132143
 30
0.0
 11
47.370630
 21
3.063639
 31
0.0
  0
LINE
  5
3d1
100
AcDbEntity
  8
desenho
 62
7
100
AcDbLine
 10
47.370630
 20
3.063639
 30
0.0
 11
47.461832
 21
3.069639
 31
0.0
  0
LINE
  5
3d2
100
AcDbEntity
  8
desenho
 62
7
100
AcDbLine
 10
47.461832
 20
3.069639
 30
0.0
 11
47.610286
 21
3.153895
 31
0.0
  0
LINE
  5
3d3
100
AcDbEntity
  8
desenho
 62
7
100
AcDbLine
 10
47.610286
 20
3.153895
 30
0.0
 11
47.767407
 21
3.257151
 31
0.0
  0
LINE
  5
3d4
100
AcDbEntity
  8
desenho
 62
7
100
AcDbLine
 10
47.767407
 20
3.257151
 30
0.0
 11
48.226185
 21
3.376354
 31
0.0
  0
LINE
  5
3d5
100
AcDbEntity
  8
desenho
 62
7
100
AcDbLine
 10
48.226185
 20
3.376354
 30
0.0
 11
48.579958
 21
3.354375
 31
0.0
  0
LINE
  5
3d6
100
AcDbEntity
  8
desenho
 62
7
100
AcDbLine
 10
48.579958
 20
3.354375
 30
0.0
 11
48.643907
 21
3.243230
 31
0.0
  0
LINE
  5
3d7
100
AcDbEntity
  8
desenho
 62
7
100
AcDbLine
 10
48.643907
 20
3.243230
 30
0.0
 11
48.718856
 21
3.076579
 31
0.0
  0
LINE
  5
3d8
100
AcDbEntity
  8
desenho
 62
7
100
AcDbLine
 10
48.718856
 20
3.076579
 30
0.0
 11
50.254454
 21
2.868762
 31
0.0
  0
LINE
  5
3d9
100
AcDbEntity
  8
desenho
 62
7
100
AcDbLine
 10
50.254454
 20
2.868762
 30
0.0
 11
51.823220
 21
3.507162
 31
0.0
  0
LINE
  5
3da
100
AcDbEntity
  8
desenho
 62
7
100
AcDbLine
 10
51.823220
 20
3.507162
 30
0.0
 11
53.439738
 21
3.840795
 31
0.0
  0
LINE
  5
3db
100
AcDbEntity
  8
desenho
 62
7
100
AcDbLine
 10
53.439738
 20
3.840795
 30
0.0
 11
54.906749
 21
3.708564
 31
0.0
  0
LINE
  5
3dc
100
AcDbEntity
  8
desenho
 62
7
100
AcDbLine
 10
54.906749
 20
3.708564
 30
0.0
 11
56.586467
 21
2.771727
 31
0.0
  0
LINE
  5
3dd
100
AcDbEntity
  8
desenho
 62
7
100
AcDbLine
 10
56.586467
 20
2.771727
 30
0.0
 11
58.504200
 21
2.194579
 31
0.0
  0
LINE
  5
3de
100
AcDbEntity
  8
desenho
 62
7
100
AcDbLine
 10
58.504200
 20
2.194579
 30
0.0
 11
58.641376
 21
2.261001
 31
0.0
  0
LINE
  5
3df
100
AcDbEntity
  8
desenho
 62
7
100
AcDbLine
 10
58.641376
 20
2.261001
 30
0.0
 11
58.733381
 21
2.382091
 31
0.0
  0
LINE
  5
3e0
100
AcDbEntity
  8
desenho
 62
7
100
AcDbLine
 10
58.733381
 20
2.382091
 30
0.0
 11
58.806248
 21
2.422091
 31
0.0
  0
LINE
  5
3e1
100
AcDbEntity
  8
desenho
 62
7
100
AcDbLine
 10
58.806248
 20
2.422091
 30
0.0
 11
58.893114
 21
2.402912
 31
0.0
  0
LINE
  5
3e2
100
AcDbEntity
  8
desenho
 62
7
100
AcDbLine
 10
58.893114
 20
2.402912
 30
0.0
 11
59.192244
 21
2.112171
 31
0.0
  0
LINE
  5
3e3
100
AcDbEntity
  8
desenho
 62
7
100
AcDbLine
 10
59.192244
 20
2.112171
 30
0.0
 11
59.365366
 21
1.895936
 31
0.0
  0
LINE
  5
3e4
100
AcDbEntity
  8
desenho
 62
7
100
AcDbLine
 10
59.365366
 20
1.895936
 30
0.0
 11
59.369455
 21
2.015054
 31
0.0
  0
LINE
  5
3e5
100
AcDbEntity
  8
desenho
 62
7
100
AcDbLine
 10
59.369455
 20
2.015054
 30
0.0
 11
59.365366
 21
2.243180
 31
0.0
  0
LINE
  5
3e6
100
AcDbEntity
  8
desenho
 62
7
100
AcDbLine
 10
59.365366
 20
2.243180
 30
0.0
 11
59.262359
 21
2.608592
 31
0.0
  0
LINE
  5
3e7
100
AcDbEntity
  8
desenho
 62
7
100
AcDbLine
 10
59.262359
 20
2.608592
 30
0.0
 11
59.073681
 21
2.958503
 31
0.0
  0
LINE
  5
3e8
100
AcDbEntity
  8
desenho
 62
7
100
AcDbLine
 10
59.073681
 20
2.958503
 30
0.0
 11
58.951451
 21
3.111875
 31
0.0
  0
LINE
  5
3e9
100
AcDbEntity
  8
desenho
 62
7
100
AcDbLine
 10
58.951451
 20
3.111875
 30
0.0
 11
58.837555
 21
3.264078
 31
0.0
  0
LINE
  5
3ea
100
AcDbEntity
  8
desenho
 62
7
100
AcDbLine
 10
58.837555
 20
3.264078
 30
0.0
 11
58.639569
 21
3.721247
 31
0.0
  0
LINE
  5
3eb
100
AcDbEntity
  8
desenho
 62
7
100
AcDbLine
 10
58.639569
 20
3.721247
 30
0.0
 11
58.351413
 21
4.041905
 31
0.0
  0
LINE
  5
3ec
100
AcDbEntity
  8
desenho
 62
7
100
AcDbLine
 10
58.351413
 20
4.041905
 30
0.0
 11
58.208264
 21
4.106909
 31
0.0
  0
LINE
  5
3ed
100
AcDbEntity
  8
desenho
 62
7
100
AcDbLine
 10
58.208264
 20
4.106909
 30
0.0
 11
58.073617
 21
4.166913
 31
0.0
  0
LINE
  5
3ee
100
AcDbEntity
  8
desenho
 62
7
100
AcDbLine
 10
58.073617
 20
4.166913
 30
0.0
 11
58.024559
 21
4.208056
 31
0.0
  0
LINE
  5
3ef
100
AcDbEntity
  8
desenho
 62
7
100
AcDbLine
 10
58.024559
 20
4.208056
 30
0.0
 11
58.025003
 21
4.278031
 31
0.0
  0
LINE
  5
3f0
100
AcDbEntity
  8
desenho
 62
7
100
AcDbLine
 10
58.025003
 20
4.278031
 30
0.0
 11
58.083118
 21
4.543659
 31
0.0
  0
LINE
  5
3f1
100
AcDbEntity
  8
desenho
 62
7
100
AcDbLine
 10
58.083118
 20
4.543659
 30
0.0
 11
58.122231
 21
4.708614
 31
0.0
  0
LINE
  5
3f2
100
AcDbEntity
  8
desenho
 62
7
100
AcDbLine
 10
58.122231
 20
4.708614
 30
0.0
 11
58.323633
 21
4.708614
 31
0.0
  0
LINE
  5
3f3
100
AcDbEntity
  8
desenho
 62
7
100
AcDbLine
 10
58.323633
 20
4.708614
 30
0.0
 11
58.525035
 21
4.708614
 31
0.0
  0
LINE
  5
3f4
100
AcDbEntity
  8
desenho
 62
7
100
AcDbLine
 10
58.525035
 20
4.708614
 30
0.0
 11
58.642513
 21
4.708581
 31
0.0
  0
LINE
  5
3f5
100
AcDbEntity
  8
desenho
 62
7
100
AcDbLine
 10
58.642513
 20
4.708581
 30
0.0
 11
58.740326
 21
4.701692
 31
0.0
  0
LINE
  5
3f6
100
AcDbEntity
  8
desenho
 62
7
100
AcDbLine
 10
58.740326
 20
4.701692
 30
0.0
 11
59.070181
 21
4.575601
 31
0.0
  0
LINE
  5
3f7
100
AcDbEntity
  8
desenho
 62
7
100
AcDbLine
 10
59.070181
 20
4.575601
 30
0.0
 11
59.282027
 21
4.493345
 31
0.0
  0
LINE
  5
3f8
100
AcDbEntity
  8
desenho
 62
7
100
AcDbLine
 10
59.282027
 20
4.493345
 30
0.0
 11
59.296784
 21
4.591825
 31
0.0
  0
LINE
  5
3f9
100
AcDbEntity
  8
desenho
 62
7
100
AcDbLine
 10
59.296784
 20
4.591825
 30
0.0
 11
59.219532
 21
4.750306
 31
0.0
  0
LINE
  5
3fa
100
AcDbEntity
  8
desenho
 62
7
100
AcDbLine
 10
59.219532
 20
4.750306
 30
0.0
 11
58.796977
 21
5.160083
 31
0.0
  0
LINE
  5
3fb
100
AcDbEntity
  8
desenho
 62
7
100
AcDbLine
 10
58.796977
 20
5.160083
 30
0.0
 11
58.309752
 21
5.396180
 31
0.0
  0
LINE
  5
3fc
100
AcDbEntity
  8
desenho
 62
7
100
AcDbLine
 10
58.309752
 20
5.396180
 30
0.0
 11
57.990259
 21
5.437183
 31
0.0
  0
LINE
  5
3fd
100
AcDbEntity
  8
desenho
 62
7
100
AcDbLine
 10
57.990259
 20
5.437183
 30
0.0
 11
57.698602
 21
5.500353
 31
0.0
  0
LINE
  5
3fe
100
AcDbEntity
  8
desenho
 62
7
100
AcDbLine
 10
57.698602
 20
5.500353
 30
0.0
 11
57.588040
 21
5.566942
 31
0.0
  0
LINE
  5
3ff
100
AcDbEntity
  8
desenho
 62
7
100
AcDbLine
 10
57.588040
 20
5.566942
 30
0.0
 11
57.483311
 21
5.646196
 31
0.0
  0
LINE
  5
400
100
AcDbEntity
  8
desenho
 62
7
100
AcDbLine
 10
57.483311
 20
5.646196
 30
0.0
 11
56.346572
 21
5.899268
 31
0.0
  0
LINE
  5
401
100
AcDbEntity
  8
desenho
 62
7
100
AcDbLine
 10
56.346572
 20
5.899268
 30
0.0
 11
54.983152
 21
5.694810
 31
0.0
  0
LINE
  5
402
100
AcDbEntity
  8
desenho
 62
7
100
AcDbLine
 10
54.983152
 20
5.694810
 30
0.0
 11
54.550376
 21
5.602693
 31
0.0
  0
LINE
  5
403
100
AcDbEntity
  8
desenho
 62
7
100
AcDbLine
 10
54.550376
 20
5.602693
 30
0.0
 11
54.337278
 21
5.555913
 31
0.0
  0
LINE
  5
404
100
AcDbEntity
  8
desenho
 62
7
100
AcDbLine
 10
54.337278
 20
5.555913
 30
0.0
 11
54.193324
 21
5.932325
 31
0.0
  0
LINE
  5
405
100
AcDbEntity
  8
desenho
 62
7
100
AcDbLine
 10
54.193324
 20
5.932325
 30
0.0
 11
53.906695
 21
6.646260
 31
0.0
  0
LINE
  5
406
100
AcDbEntity
  8
desenho
 62
7
100
AcDbLine
 10
53.906695
 20
6.646260
 30
0.0
 11
52.775818
 21
8.758505
 31
0.0
  0
LINE
  5
407
100
AcDbEntity
  8
desenho
 62
7
100
AcDbLine
 10
52.775818
 20
8.758505
 30
0.0
 11
51.607937
 21
10.597900
 31
0.0
  0
LINE
  5
408
100
AcDbEntity
  8
desenho
 62
7
100
AcDbLine
 10
51.607937
 20
10.597900
 30
0.0
 11
50.393083
 21
12.303759
 31
0.0
  0
LINE
  5
409
100
AcDbEntity
  8
desenho
 62
7
100
AcDbLine
 10
50.393083
 20
12.303759
 30
0.0
 11
49.760598
 21
13.160562
 31
0.0
  0
LINE
  5
40a
100
AcDbEntity
  8
desenho
 62
7
100
AcDbLine
 10
49.760598
 20
13.160562
 30
0.0
 11
50.030366
 21
13.310156
 31
0.0
  0
LINE
  5
40b
100
AcDbEntity
  8
desenho
 62
7
100
AcDbLine
 10
50.030366
 20
13.310156
 30
0.0
 11
50.510646
 21
13.598090
 31
0.0
  0
LINE
  5
40c
100
AcDbEntity
  8
desenho
 62
7
100
AcDbLine
 10
50.510646
 20
13.598090
 30
0.0
 11
51.450872
 21
14.734551
 31
0.0
  0
LINE
  5
40d
100
AcDbEntity
  8
desenho
 62
7
100
AcDbLine
 10
51.450872
 20
14.734551
 30
0.0
 11
51.739890
 21
16.251037
 31
0.0
  0
LINE
  5
40e
100
AcDbEntity
  8
desenho
 62
7
100
AcDbLine
 10
51.739890
 20
16.251037
 30
0.0
 11
51.655774
 21
16.703872
 31
0.0
  0
LINE
  5
40f
100
AcDbEntity
  8
desenho
 62
7
100
AcDbLine
 10
51.655774
 20
16.703872
 30
0.0
 11
51.642662
 21
16.987194
 31
0.0
  0
LINE
  5
410
100
AcDbEntity
  8
desenho
 62
7
100
AcDbLine
 10
51.642662
 20
16.987194
 30
0.0
 11
51.787949
 21
16.861549
 31
0.0
  0
LINE
  5
411
100
AcDbEntity
  8
desenho
 62
7
100
AcDbLine
 10
51.787949
 20
16.861549
 30
0.0
 11
51.948237
 21
16.459383
 31
0.0
  0
LINE
  5
412
100
AcDbEntity
  8
desenho
 62
7
100
AcDbLine
 10
51.948237
 20
16.459383
 30
0.0
 11
52.068605
 21
16.077470
 31
0.0
  0
LINE
  5
413
100
AcDbEntity
  8
desenho
 62
7
100
AcDbLine
 10
52.068605
 20
16.077470
 30
0.0
 11
52.128804
 21
15.723225
 31
0.0
  0
LINE
  5
414
100
AcDbEntity
  8
desenho
 62
7
100
AcDbLine
 10
52.128804
 20
15.723225
 30
0.0
 11
52.133893
 21
15.353953
 31
0.0
  0
LINE
  5
415
100
AcDbEntity
  8
desenho
 62
7
100
AcDbLine
 10
52.133893
 20
15.353953
 30
0.0
 11
52.128804
 21
15.160689
 31
0.0
  0
LINE
  5
416
100
AcDbEntity
  8
desenho
 62
7
100
AcDbLine
 10
52.128804
 20
15.160689
 30
0.0
 11
52.184807
 21
15.193358
 31
0.0
  0
LINE
  5
417
100
AcDbEntity
  8
desenho
 62
7
100
AcDbLine
 10
52.184807
 20
15.193358
 30
0.0
 11
52.295481
 21
15.264863
 31
0.0
  0
LINE
  5
418
100
AcDbEntity
  8
desenho
 62
7
100
AcDbLine
 10
52.295481
 20
15.264863
 30
0.0
 11
52.914716
 21
16.362044
 31
0.0
  0
LINE
  5
419
100
AcDbEntity
  8
desenho
 62
7
100
AcDbLine
 10
52.914716
 20
16.362044
 30
0.0
 11
53.059419
 21
17.570565
 31
0.0
  0
LINE
  5
41a
100
AcDbEntity
  8
desenho
 62
7
100
AcDbLine
 10
53.059419
 20
17.570565
 30
0.0
 11
52.902686
 21
18.553990
 31
0.0
  0
LINE
  5
41b
100
AcDbEntity
  8
desenho
 62
7
100
AcDbLine
 10
52.902686
 20
18.553990
 30
0.0
 11
52.594111
 21
19.501243
 31
0.0
  0
LINE
  5
41c
100
AcDbEntity
  8
desenho
 62
7
100
AcDbLine
 10
52.594111
 20
19.501243
 30
0.0
 11
52.417184
 21
19.863099
 31
0.0
  0
LINE
  5
41d
100
AcDbEntity
  8
desenho
 62
7
100
AcDbLine
 10
52.417184
 20
19.863099
 30
0.0
 11
52.323261
 21
20.042944
 31
0.0
  0
LINE
  5
41e
100
AcDbEntity
  8
desenho
 62
7
100
AcDbLine
 10
52.323261
 20
20.042944
 30
0.0
 11
54.191435
 21
21.518733
 31
0.0
  0
LINE
  5
41f
100
AcDbEntity
  8
desenho
 62
7
100
AcDbLine
 10
54.191435
 20
21.518733
 30
0.0
 11
56.059609
 21
22.994521
 31
0.0
  0
LINE
  5
420
100
AcDbEntity
  8
desenho
 62
7
100
AcDbLine
 10
56.059609
 20
22.994521
 30
0.0
 11
56.037475
 21
22.776702
 31
0.0
  0
LINE
  5
421
100
AcDbEntity
  8
desenho
 62
7
100
AcDbLine
 10
56.037475
 20
22.776702
 30
0.0
 11
56.011002
 21
22.362536
 31
0.0
  0
LINE
  5
422
100
AcDbEntity
  8
desenho
 62
7
100
AcDbLine
 10
56.011002
 20
22.362536
 30
0.0
 11
56.136954
 21
21.629574
 31
0.0
  0
LINE
  5
423
100
AcDbEntity
  8
desenho
 62
7
100
AcDbLine
 10
56.136954
 20
21.629574
 30
0.0
 11
56.504089
 21
21.070787
 31
0.0
  0
LINE
  5
424
100
AcDbEntity
  8
desenho
 62
7
100
AcDbLine
 10
56.504089
 20
21.070787
 30
0.0
 11
56.743548
 21
20.960447
 31
0.0
  0
LINE
  5
425
100
AcDbEntity
  8
desenho
 62
7
100
AcDbLine
 10
56.743548
 20
20.960447
 30
0.0
 11
57.018010
 21
20.841606
 31
0.0
  0
LINE
  5
426
100
AcDbEntity
  8
desenho
 62
7
100
AcDbLine
 10
57.018010
 20
20.841606
 30
0.0
 11
57.285445
 21
20.676624
 31
0.0
  0
LINE
  5
427
100
AcDbEntity
  8
desenho
 62
7
100
AcDbLine
 10
57.285445
 20
20.676624
 30
0.0
 11
57.538877
 21
20.522141
 31
0.0
  0
LINE
  5
428
100
AcDbEntity
  8
desenho
 62
7
100
AcDbLine
 10
57.538877
 20
20.522141
 30
0.0
 11
58.093216
 21
20.376854
 31
0.0
  0
LINE
  5
429
100
AcDbEntity
  8
desenho
 62
7
100
AcDbLine
 10
58.093216
 20
20.376854
 30
0.0
 11
58.650058
 21
20.424913
 31
0.0
  0
LINE
  5
42a
100
AcDbEntity
  8
desenho
 62
7
100
AcDbLine
 10
58.650058
 20
20.424913
 30
0.0
 11
58.761899
 21
20.462026
 31
0.0
  0
LINE
  5
42b
100
AcDbEntity
  8
desenho
 62
7
100
AcDbLine
 10
58.761899
 20
20.462026
 30
0.0
 11
58.816736
 21
20.480472
 31
0.0
  0
LINE
  5
42c
100
AcDbEntity
  8
desenho
 62
7
100
AcDbLine
 10
58.816736
 20
20.480472
 30
0.0
 11
58.598777
 21
20.576785
 31
0.0
  0
LINE
  5
42d
100
AcDbEntity
  8
desenho
 62
7
100
AcDbLine
 10
58.598777
 20
20.576785
 30
0.0
 11
58.198641
 21
20.779102
 31
0.0
  0
LINE
  5
42e
100
AcDbEntity
  8
desenho
 62
7
100
AcDbLine
 10
58.198641
 20
20.779102
 30
0.0
 11
57.955181
 21
20.957836
 31
0.0
  0
LINE
  5
42f
100
AcDbEntity
  8
desenho
 62
7
100
AcDbLine
 10
57.955181
 20
20.957836
 30
0.0
 11
57.934735
 21
21.098567
 31
0.0
  0
LINE
  5
430
100
AcDbEntity
  8
desenho
 62
7
100
AcDbLine
 10
57.934735
 20
21.098567
 30
0.0
 11
58.086578
 21
21.257910
 31
0.0
  0
LINE
  5
431
100
AcDbEntity
  8
desenho
 62
7
100
AcDbLine
 10
58.086578
 20
21.257910
 30
0.0
 11
58.268090
 21
21.452756
 31
0.0
  0
LINE
  5
432
100
AcDbEntity
  8
desenho
 62
7
100
AcDbLine
 10
58.268090
 20
21.452756
 30
0.0
 11
58.433211
 21
22.031070
 31
0.0
  0
LINE
  5
433
100
AcDbEntity
  8
desenho
 62
7
100
AcDbLine
 10
58.433211
 20
22.031070
 30
0.0
 11
58.386153
 21
22.633387
 31
0.0
  0
LINE
  5
434
100
AcDbEntity
  8
desenho
 62
7
100
AcDbLine
 10
58.386153
 20
22.633387
 30
0.0
 11
57.988432
 21
24.104064
 31
0.0
  0
LINE
  5
435
100
AcDbEntity
  8
desenho
 62
7
100
AcDbLine
 10
57.988432
 20
24.104064
 30
0.0
 11
58.059743
 21
25.508569
 31
0.0
  0
LINE
  5
436
100
AcDbEntity
  8
desenho
 62
7
100
AcDbLine
 10
58.059743
 20
25.508569
 30
0.0
 11
58.274090
 21
26.349456
 31
0.0
  0
LINE
  5
437
100
AcDbEntity
  8
desenho
 62
7
100
AcDbLine
 10
58.274090
 20
26.349456
 30
0.0
 11
58.643113
 21
27.008665
 31
0.0
  0
LINE
  5
438
100
AcDbEntity
  8
desenho
 62
7
100
AcDbLine
 10
58.643113
 20
27.008665
 30
0.0
 11
59.674901
 21
28.029481
 31
0.0
  0
LINE
  5
439
100
AcDbEntity
  8
desenho
 62
7
100
AcDbLine
 10
59.674901
 20
28.029481
 30
0.0
 11
59.920972
 21
29.217138
 31
0.0
  0
LINE
  5
43a
100
AcDbEntity
  8
desenho
 62
7
100
AcDbLine
 10
59.920972
 20
29.217138
 30
0.0
 11
59.873165
 21
29.296699
 31
0.0
  0
LINE
  5
43b
100
AcDbEntity
  8
desenho
 62
7
100
AcDbLine
 10
59.873165
 20
29.296699
 30
0.0
 11
59.893188
 21
29.349091
 31
0.0
  0
LINE
  5
43c
100
AcDbEntity
  8
desenho
 62
7
100
AcDbLine
 10
59.893188
 20
29.349091
 30
0.0
 11
60.232599
 21
29.581050
 31
0.0
  0
LINE
  5
43d
100
AcDbEntity
  8
desenho
 62
7
100
AcDbLine
 10
60.232599
 20
29.581050
 30
0.0
 11
60.504338
 21
29.717170
 31
0.0
  0
LINE
  5
43e
100
AcDbEntity
  8
desenho
 62
7
100
AcDbLine
 10
60.504338
 20
29.717170
 30
0.0
 11
60.705547
 21
29.776647
 31
0.0
  0
LINE
  5
43f
100
AcDbEntity
  8
desenho
 62
7
100
AcDbLine
 10
60.705547
 20
29.776647
 30
0.0
 11
60.747409
 21
29.869957
 31
0.0
  0
LINE
  5
440
100
AcDbEntity
  8
desenho
 62
7
100
AcDbLine
 10
60.747409
 20
29.869957
 30
0.0
 11
60.273546
 21
29.988049
 31
0.0
  0
LINE
  5
441
100
AcDbEntity
  8
desenho
 62
7
100
AcDbLine
 10
60.273546
 20
29.988049
 30
0.0
 11
59.789015
 21
29.974137
 31
0.0
  0
LINE
  5
442
100
AcDbEntity
  8
desenho
 62
7
100
AcDbLine
 10
59.789015
 20
29.974137
 30
0.0
 11
59.577168
 21
29.875216
 31
0.0
  0
LINE
  5
443
100
AcDbEntity
  8
desenho
 62
7
100
AcDbLine
 10
59.577168
 20
29.875216
 30
0.0
 11
59.372322
 21
29.807460
 31
0.0
  0
LINE
  5
444
100
AcDbEntity
  8
desenho
 62
7
100
AcDbLine
 10
59.372322
 20
29.807460
 30
0.0
 11
59.156530
 21
29.849214
 31
0.0
  0
LINE
  5
445
100
AcDbEntity
  8
desenho
 62
7
100
AcDbLine
 10
59.156530
 20
29.849214
 30
0.0
 11
58.920904
 21
29.911633
 31
0.0
  0
LINE
  5
446
100
AcDbEntity
  8
desenho
 62
7
100
AcDbLine
 10
58.920904
 20
29.911633
 30
0.0
 11
58.610914
 21
29.897655
 31
0.0
  0
LINE
  5
447
100
AcDbEntity
  8
desenho
 62
7
100
AcDbLine
 10
58.610914
 20
29.897655
 30
0.0
 11
58.413928
 21
29.904700
 31
0.0
  0
LINE
  5
448
100
AcDbEntity
  8
desenho
 62
7
100
AcDbLine
 10
58.413928
 20
29.904700
 30
0.0
 11
58.393349
 21
30.030208
 31
0.0
  0
LINE
  5
449
100
AcDbEntity
  8
desenho
 62
7
100
AcDbLine
 10
58.393349
 20
30.030208
 30
0.0
 11
58.400038
 21
30.258889
 31
0.0
  0
LINE
  5
44a
100
AcDbEntity
  8
desenho
 62
7
100
AcDbLine
 10
58.400038
 20
30.258889
 30
0.0
 11
58.259722
 21
30.631579
 31
0.0
  0
LINE
  5
44b
100
AcDbEntity
  8
desenho
 62
7
100
AcDbLine
 10
58.259722
 20
30.631579
 30
0.0
 11
57.934731
 21
30.946433
 31
0.0
  0
LINE
  5
44c
100
AcDbEntity
  8
desenho
 62
7
100
AcDbLine
 10
57.934731
 20
30.946433
 30
0.0
 11
57.828028
 21
31.030522
 31
0.0
  0
LINE
  5
44d
100
AcDbEntity
  8
desenho
 62
7
100
AcDbLine
 10
57.828028
 20
31.030522
 30
0.0
 11
57.774998
 21
31.071440
 31
0.0
  0
LINE
  5
44e
100
AcDbEntity
  8
desenho
 62
7
100
AcDbLine
 10
57.774998
 20
31.071440
 30
0.0
 11
57.867004
 21
31.266702
 31
0.0
  0
LINE
  5
44f
100
AcDbEntity
  8
desenho
 62
7
100
AcDbLine
 10
57.867004
 20
31.266702
 30
0.0
 11
58.066683
 21
31.592307
 31
0.0
  0
LINE
  5
450
100
AcDbEntity
  8
desenho
 62
7
100
AcDbLine
 10
58.066683
 20
31.592307
 30
0.0
 11
58.208637
 21
31.751428
 31
0.0
  0
LINE
  5
451
100
AcDbEntity
  8
desenho
 62
7
100
AcDbLine
 10
58.208637
 20
31.751428
 30
0.0
 11
58.268085
 21
31.918717
 31
0.0
  0
LINE
  5
452
100
AcDbEntity
  8
desenho
 62
7
100
AcDbLine
 10
58.268085
 20
31.918717
 30
0.0
 11
58.247417
 21
31.923984
 31
0.0
  0
LINE
  5
453
100
AcDbEntity
  8
desenho
 62
7
100
AcDbLine
 10
58.247417
 20
31.923984
 30
0.0
 11
58.205592
 21
31.918717
 31
0.0
  0
LINE
  5
454
100
AcDbEntity
  8
desenho
 62
7
100
AcDbLine
 10
58.205592
 20
31.918717
 30
0.0
 11
58.205592
 21
31.918712
 31
0.0
  0
LINE
  5
455
100
AcDbEntity
  8
desenho
 62
7
100
AcDbLine
 10
58.205592
 20
31.918712
 30
0.0
 11
58.205586
 21
31.918699
 31
0.0
  0
LINE
  5
456
100
AcDbEntity
  8
desenho
 62
7
100
AcDbLine
 10
27.259175
 20
22.466709
 30
0.0
 11
26.587354
 21
22.279864
 31
0.0
  0
LINE
  5
457
100
AcDbEntity
  8
desenho
 62
7
100
AcDbLine
 10
26.587354
 20
22.279864
 30
0.0
 11
25.432670
 21
21.925008
 31
0.0
  0
LINE
  5
458
100
AcDbEntity
  8
desenho
 62
7
100
AcDbLine
 10
25.432670
 20
21.925008
 30
0.0
 11
24.093223
 21
21.358223
 31
0.0
  0
LINE
  5
459
100
AcDbEntity
  8
desenho
 62
7
100
AcDbLine
 10
24.093223
 20
21.358223
 30
0.0
 11
22.939456
 21
20.716598
 31
0.0
  0
LINE
  5
45a
100
AcDbEntity
  8
desenho
 62
7
100
AcDbLine
 10
22.939456
 20
20.716598
 30
0.0
 11
21.567313
 21
19.651726
 31
0.0
  0
LINE
  5
45b
100
AcDbEntity
  8
desenho
 62
7
100
AcDbLine
 10
21.567313
 20
19.651726
 30
0.0
 11
20.536525
 21
18.397006
 31
0.0
  0
LINE
  5
45c
100
AcDbEntity
  8
desenho
 62
7
100
AcDbLine
 10
20.536525
 20
18.397006
 30
0.0
 11
19.858316
 21
17.171179
 31
0.0
  0
LINE
  5
45d
100
AcDbEntity
  8
desenho
 62
7
100
AcDbLine
 10
19.858316
 20
17.171179
 30
0.0
 11
19.244777
 21
16.084359
 31
0.0
  0
LINE
  5
45e
100
AcDbEntity
  8
desenho
 62
7
100
AcDbLine
 10
19.244777
 20
16.084359
 30
0.0
 11
17.971362
 21
14.699771
 31
0.0
  0
LINE
  5
45f
100
AcDbEntity
  8
desenho
 62
7
100
AcDbLine
 10
17.971362
 20
14.699771
 30
0.0
 11
16.369594
 21
13.855051
 31
0.0
  0
LINE
  5
460
100
AcDbEntity
  8
desenho
 62
7
100
AcDbLine
 10
16.369594
 20
13.855051
 30
0.0
 11
15.282636
 21
13.608646
 31
0.0
  0
LINE
  5
461
100
AcDbEntity
  8
desenho
 62
7
100
AcDbLine
 10
15.282636
 20
13.608646
 30
0.0
 11
14.091671
 21
13.535586
 31
0.0
  0
LINE
  5
462
100
AcDbEntity
  8
desenho
 62
7
100
AcDbLine
 10
14.091671
 20
13.535586
 30
0.0
 11
12.998602
 21
13.572811
 31
0.0
  0
LINE
  5
463
100
AcDbEntity
  8
desenho
 62
7
100
AcDbLine
 10
12.998602
 20
13.572811
 30
0.0
 11
12.424899
 21
13.605035
 31
0.0
  0
LINE
  5
464
100
AcDbEntity
  8
desenho
 62
7
100
AcDbLine
 10
12.424899
 20
13.605035
 30
0.0
 11
12.084544
 21
13.064919
 31
0.0
  0
LINE
  5
465
100
AcDbEntity
  8
desenho
 62
7
100
AcDbLine
 10
12.084544
 20
13.064919
 30
0.0
 11
11.466505
 21
12.063270
 31
0.0
  0
LINE
  5
466
100
AcDbEntity
  8
desenho
 62
7
100
AcDbLine
 10
11.466505
 20
12.063270
 30
0.0
 11
10.244345
 21
9.378851
 31
0.0
  0
LINE
  5
467
100
AcDbEntity
  8
desenho
 62
7
100
AcDbLine
 10
10.244345
 20
9.378851
 30
0.0
 11
10.216425
 21
6.562921
 31
0.0
  0
LINE
  5
468
100
AcDbEntity
  8
desenho
 62
7
100
AcDbLine
 10
10.216425
 20
6.562921
 30
0.0
 11
10.619335
 21
4.745528
 31
0.0
  0
LINE
  5
469
100
AcDbEntity
  8
desenho
 62
7
100
AcDbLine
 10
10.619335
 20
4.745528
 30
0.0
 11
11.598457
 21
3.319659
 31
0.0
  0
LINE
  5
46a
100
AcDbEntity
  8
desenho
 62
7
100
AcDbLine
 10
11.598457
 20
3.319659
 30
0.0
 11
12.607633
 21
3.100508
 31
0.0
  0
LINE
  5
46b
100
AcDbEntity
  8
desenho
 62
7
100
AcDbLine
 10
12.607633
 20
3.100508
 30
0.0
 11
13.529136
 21
2.979360
 31
0.0
  0
LINE
  5
46c
100
AcDbEntity
  8
desenho
 62
7
100
AcDbLine
 10
13.529136
 20
2.979360
 30
0.0
 11
17.001439
 21
2.744152
 31
0.0
  0
LINE
  5
46d
100
AcDbEntity
  8
desenho
 62
7
100
AcDbLine
 10
17.001439
 20
2.744152
 30
0.0
 11
20.237895
 21
3.215486
 31
0.0
  0
LINE
  5
46e
100
AcDbEntity
  8
desenho
 62
7
100
AcDbLine
 10
20.237895
 20
3.215486
 30
0.0
 11
20.618113
 21
3.362191
 31
0.0
  0
LINE
  5
46f
100
AcDbEntity
  8
desenho
 62
7
100
AcDbLine
 10
20.618113
 20
3.362191
 30
0.0
 11
20.960163
 21
3.583565
 31
0.0
  0
LINE
  5
470
100
AcDbEntity
  8
desenho
 62
7
100
AcDbLine
 10
20.960163
 20
3.583565
 30
0.0
 11
21.036364
 21
3.674655
 31
0.0
  0
LINE
  5
471
100
AcDbEntity
  8
desenho
 62
7
100
AcDbLine
 10
21.036364
 20
3.674655
 30
0.0
 11
21.057387
 21
3.791912
 31
0.0
  0
LINE
  5
472
100
AcDbEntity
  8
desenho
 62
7
100
AcDbLine
 10
21.057387
 20
3.791912
 30
0.0
 11
20.801398
 21
5.424433
 31
0.0
  0
LINE
  5
473
100
AcDbEntity
  8
desenho
 62
7
100
AcDbLine
 10
20.801398
 20
5.424433
 30
0.0
 11
19.946206
 21
6.729598
 31
0.0
  0
LINE
  5
474
100
AcDbEntity
  8
desenho
 62
7
100
AcDbLine
 10
19.946206
 20
6.729598
 30
0.0
 11
19.847004
 21
6.773657
 31
0.0
  0
LINE
  5
475
100
AcDbEntity
  8
desenho
 62
7
100
AcDbLine
 10
19.847004
 20
6.773657
 30
0.0
 11
19.744804
 21
6.799047
 31
0.0
  0
LINE
  5
476
100
AcDbEntity
  8
desenho
 62
7
100
AcDbLine
 10
19.744804
 20
6.799047
 30
0.0
 11
18.885498
 21
6.718931
 31
0.0
  0
LINE
  5
477
100
AcDbEntity
  8
desenho
 62
7
100
AcDbLine
 10
18.885498
 20
6.718931
 30
0.0
 11
17.619669
 21
6.555976
 31
0.0
  0
LINE
  5
478
100
AcDbEntity
  8
desenho
 62
7
100
AcDbLine
 10
17.619669
 20
6.555976
 30
0.0
 11
16.575129
 21
6.563332
 31
0.0
  0
LINE
  5
479
100
AcDbEntity
  8
desenho
 62
7
100
AcDbLine
 10
16.575129
 20
6.563332
 30
0.0
 11
15.487589
 21
6.736536
 31
0.0
  0
LINE
  5
47a
100
AcDbEntity
  8
desenho
 62
7
100
AcDbLine
 10
15.487589
 20
6.736536
 30
0.0
 11
15.196153
 21
6.831709
 31
0.0
  0
LINE
  5
47b
100
AcDbEntity
  8
desenho
 62
7
100
AcDbLine
 10
15.196153
 20
6.831709
 30
0.0
 11
15.050061
 21
6.882379
 31
0.0
  0
LINE
  5
47c
100
AcDbEntity
  8
desenho
 62
7
100
AcDbLine
 10
15.050061
 20
6.882379
 30
0.0
 11
15.032416
 21
6.991748
 31
0.0
  0
LINE
  5
47d
100
AcDbEntity
  8
desenho
 62
7
100
AcDbLine
 10
15.032416
 20
6.991748
 30
0.0
 11
15.001440
 21
7.208789
 31
0.0
  0
LINE
  5
47e
100
AcDbEntity
  8
desenho
 62
7
100
AcDbLine
 10
15.001440
 20
7.208789
 30
0.0
 11
15.465441
 21
8.760165
 31
0.0
  0
LINE
  5
47f
100
AcDbEntity
  8
desenho
 62
7
100
AcDbLine
 10
15.465441
 20
8.760165
 30
0.0
 11
16.862670
 21
9.618664
 31
0.0
  0
LINE
  5
480
100
AcDbEntity
  8
desenho
 62
7
100
AcDbLine
 10
16.862670
 20
9.618664
 30
0.0
 11
17.575299
 21
9.805538
 31
0.0
  0
LINE
  5
481
100
AcDbEntity
  8
desenho
 62
7
100
AcDbLine
 10
17.575299
 20
9.805538
 30
0.0
 11
18.321096
 21
9.945074
 31
0.0
  0
LINE
  5
482
100
AcDbEntity
  8
desenho
 62
7
100
AcDbLine
 10
18.321096
 20
9.945074
 30
0.0
 11
21.277921
 21
10.300096
 31
0.0
  0
LINE
  5
483
100
AcDbEntity
  8
desenho
 62
7
100
AcDbLine
 10
21.277921
 20
10.300096
 30
0.0
 11
24.120075
 21
10.924303
 31
0.0
  0
LINE
  5
484
100
AcDbEntity
  8
desenho
 62
7
100
AcDbLine
 10
24.120075
 20
10.924303
 30
0.0
 11
24.863123
 21
11.278076
 31
0.0
  0
LINE
  5
485
100
AcDbEntity
  8
desenho
 62
7
100
AcDbLine
 10
24.863123
 20
11.278076
 30
0.0
 11
25.474328
 21
11.757689
 31
0.0
  0
LINE
  5
486
100
AcDbEntity
  8
desenho
 62
7
100
AcDbLine
 10
25.474328
 20
11.757689
 30
0.0
 11
25.674203
 21
12.102962
 31
0.0
  0
LINE
  5
487
100
AcDbEntity
  8
desenho
 62
7
100
AcDbLine
 10
25.674203
 20
12.102962
 30
0.0
 11
25.800738
 21
12.486902
 31
0.0
  0
LINE
  5
488
100
AcDbEntity
  8
desenho
 62
7
100
AcDbLine
 10
25.800738
 20
12.486902
 30
0.0
 11
25.785314
 21
13.076857
 31
0.0
  0
LINE
  5
489
100
AcDbEntity
  8
desenho
 62
7
100
AcDbLine
 10
25.785314
 20
13.076857
 30
0.0
 11
25.738227
 21
13.736981
 31
0.0
  0
LINE
  5
48a
100
AcDbEntity
  8
desenho
 62
7
100
AcDbLine
 10
25.738227
 20
13.736981
 30
0.0
 11
26.276150
 21
15.359947
 31
0.0
  0
LINE
  5
48b
100
AcDbEntity
  8
desenho
 62
7
100
AcDbLine
 10
26.276150
 20
15.359947
 30
0.0
 11
27.432779
 21
16.480211
 31
0.0
  0
LINE
  5
48c
100
AcDbEntity
  8
desenho
 62
7
100
AcDbLine
 10
27.432779
 20
16.480211
 30
0.0
 11
28.542876
 21
16.966464
 31
0.0
  0
LINE
  5
48d
100
AcDbEntity
  8
desenho
 62
7
100
AcDbLine
 10
28.542876
 20
16.966464
 30
0.0
 11
29.800985
 21
17.195534
 31
0.0
  0
LINE
  5
48e
100
AcDbEntity
  8
desenho
 62
7
100
AcDbLine
 10
29.800985
 20
17.195534
 30
0.0
 11
30.266875
 21
17.162339
 31
0.0
  0
LINE
  5
48f
100
AcDbEntity
  8
desenho
 62
7
100
AcDbLine
 10
30.266875
 20
17.162339
 30
0.0
 11
30.335741
 21
17.285818
 31
0.0
  0
LINE
  5
490
100
AcDbEntity
  8
desenho
 62
7
100
AcDbLine
 10
30.335741
 20
17.285818
 30
0.0
 11
29.986219
 21
17.750599
 31
0.0
  0
LINE
  5
491
100
AcDbEntity
  8
desenho
 62
7
100
AcDbLine
 10
29.986219
 20
17.750599
 30
0.0
 11
29.439851
 21
18.410889
 31
0.0
  0
LINE
  5
492
100
AcDbEntity
  8
desenho
 62
7
100
AcDbLine
 10
29.439851
 20
18.410889
 30
0.0
 11
28.626884
 21
19.629329
 31
0.0
  0
LINE
  5
493
100
AcDbEntity
  8
desenho
 62
7
100
AcDbLine
 10
28.626884
 20
19.629329
 30
0.0
 11
27.939756
 21
20.883269
 31
0.0
  0
LINE
  5
494
100
AcDbEntity
  8
desenho
 62
7
100
AcDbLine
 10
27.939756
 20
20.883269
 30
0.0
 11
27.485116
 21
21.918419
 31
0.0
  0
LINE
  5
495
100
AcDbEntity
  8
desenho
 62
7
100
AcDbLine
 10
27.485116
 20
21.918419
 30
0.0
 11
27.259175
 21
22.466709
 31
0.0
  0
LINE
  5
496
100
AcDbEntity
  8
desenho
 62
7
100
AcDbLine
 10
31.113586
 20
16.334375
 30
0.0
 11
29.835385
 21
16.126526
 31
0.0
  0
LINE
  5
497
100
AcDbEntity
  8
desenho
 62
7
100
AcDbLine
 10
29.835385
 20
16.126526
 30
0.0
 11
28.689821
 21
15.681556
 31
0.0
  0
LINE
  5
498
100
AcDbEntity
  8
desenho
 62
7
100
AcDbLine
 10
28.689821
 20
15.681556
 30
0.0
 11
27.207060
 21
14.114567
 31
0.0
  0
LINE
  5
499
100
AcDbEntity
  8
desenho
 62
7
100
AcDbLine
 10
27.207060
 20
14.114567
 30
0.0
 11
26.939710
 21
11.924373
 31
0.0
  0
LINE
  5
49a
100
AcDbEntity
  8
desenho
 62
7
100
AcDbLine
 10
26.939710
 20
11.924373
 30
0.0
 11
27.054828
 21
11.458928
 31
0.0
  0
LINE
  5
49b
100
AcDbEntity
  8
desenho
 62
7
100
AcDbLine
 10
27.054828
 20
11.458928
 30
0.0
 11
27.224450
 21
11.028482
 31
0.0
  0
LINE
  5
49c
100
AcDbEntity
  8
desenho
 62
7
100
AcDbLine
 10
27.224450
 20
11.028482
 30
0.0
 11
27.664561
 21
10.367274
 31
0.0
  0
LINE
  5
49d
100
AcDbEntity
  8
desenho
 62
7
100
AcDbLine
 10
27.664561
 20
10.367274
 30
0.0
 11
27.807821
 21
9.965915
 31
0.0
  0
LINE
  5
49e
100
AcDbEntity
  8
desenho
 62
7
100
AcDbLine
 10
27.807821
 20
9.965915
 30
0.0
 11
27.522496
 21
9.282149
 31
0.0
  0
LINE
  5
49f
100
AcDbEntity
  8
desenho
 62
7
100
AcDbLine
 10
27.522496
 20
9.282149
 30
0.0
 11
27.134167
 21
8.521379
 31
0.0
  0
LINE
  5
4a0
100
AcDbEntity
  8
desenho
 62
7
100
AcDbLine
 10
27.134167
 20
8.521379
 30
0.0
 11
26.609800
 21
7.799555
 31
0.0
  0
LINE
  5
4a1
100
AcDbEntity
  8
desenho
 62
7
100
AcDbLine
 10
26.609800
 20
7.799555
 30
0.0
 11
26.009095
 21
7.132402
 31
0.0
  0
LINE
  5
4a2
100
AcDbEntity
  8
desenho
 62
7
100
AcDbLine
 10
26.009095
 20
7.132402
 30
0.0
 11
25.740689
 21
6.915083
 31
0.0
  0
LINE
  5
4a3
100
AcDbEntity
  8
desenho
 62
7
100
AcDbLine
 10
25.740689
 20
6.915083
 30
0.0
 11
25.606292
 21
6.812937
 31
0.0
  0
LINE
  5
4a4
100
AcDbEntity
  8
desenho
 62
7
100
AcDbLine
 10
25.606292
 20
6.812937
 30
0.0
 11
25.681075
 21
6.577117
 31
0.0
  0
LINE
  5
4a5
100
AcDbEntity
  8
desenho
 62
7
100
AcDbLine
 10
25.681075
 20
6.577117
 30
0.0
 11
25.849363
 21
6.118448
 31
0.0
  0
LINE
  5
4a6
100
AcDbEntity
  8
desenho
 62
7
100
AcDbLine
 10
25.849363
 20
6.118448
 30
0.0
 11
26.444705
 21
5.240199
 31
0.0
  0
LINE
  5
4a7
100
AcDbEntity
  8
desenho
 62
7
100
AcDbLine
 10
26.444705
 20
5.240199
 30
0.0
 11
27.210561
 21
4.583629
 31
0.0
  0
LINE
  5
4a8
100
AcDbEntity
  8
desenho
 62
7
100
AcDbLine
 10
27.210561
 20
4.583629
 30
0.0
 11
29.830145
 21
3.616874
 31
0.0
  0
LINE
  5
4a9
100
AcDbEntity
  8
desenho
 62
7
100
AcDbLine
 10
29.830145
 20
3.616874
 30
0.0
 11
32.440060
 21
2.944636
 31
0.0
  0
LINE
  5
4aa
100
AcDbEntity
  8
desenho
 62
7
100
AcDbLine
 10
32.440060
 20
2.944636
 30
0.0
 11
35.216987
 21
2.419213
 31
0.0
  0
LINE
  5
4ab
100
AcDbEntity
  8
desenho
 62
7
100
AcDbLine
 10
35.216987
 20
2.419213
 30
0.0
 11
38.107086
 21
2.125139
 31
0.0
  0
LINE
  5
4ac
100
AcDbEntity
  8
desenho
 62
7
100
AcDbLine
 10
38.107086
 20
2.125139
 30
0.0
 11
38.746460
 21
2.175060
 31
0.0
  0
LINE
  5
4ad
100
AcDbEntity
  8
desenho
 62
7
100
AcDbLine
 10
38.746460
 20
2.175060
 30
0.0
 11
39.065481
 21
2.208478
 31
0.0
  0
LINE
  5
4ae
100
AcDbEntity
  8
desenho
 62
7
100
AcDbLine
 10
39.065481
 20
2.208478
 30
0.0
 11
39.111372
 21
2.599809
 31
0.0
  0
LINE
  5
4af
100
AcDbEntity
  8
desenho
 62
7
100
AcDbLine
 10
39.111372
 20
2.599809
 30
0.0
 11
39.176599
 21
3.319659
 31
0.0
  0
LINE
  5
4b0
100
AcDbEntity
  8
desenho
 62
7
100
AcDbLine
 10
39.176599
 20
3.319659
 30
0.0
 11
39.135429
 21
4.544904
 31
0.0
  0
LINE
  5
4b1
100
AcDbEntity
  8
desenho
 62
7
100
AcDbLine
 10
39.135429
 20
4.544904
 30
0.0
 11
38.843244
 21
5.715645
 31
0.0
  0
LINE
  5
4b2
100
AcDbEntity
  8
desenho
 62
7
100
AcDbLine
 10
38.843244
 20
5.715645
 30
0.0
 11
37.871765
 21
6.616702
 31
0.0
  0
LINE
  5
4b3
100
AcDbEntity
  8
desenho
 62
7
100
AcDbLine
 10
37.871765
 20
6.616702
 30
0.0
 11
36.551432
 21
6.944890
 31
0.0
  0
LINE
  5
4b4
100
AcDbEntity
  8
desenho
 62
7
100
AcDbLine
 10
36.551432
 20
6.944890
 30
0.0
 11
35.871889
 21
6.853662
 31
0.0
  0
LINE
  5
4b5
100
AcDbEntity
  8
desenho
 62
7
100
AcDbLine
 10
35.871889
 20
6.853662
 30
0.0
 11
35.238849
 21
6.604590
 31
0.0
  0
LINE
  5
4b6
100
AcDbEntity
  8
desenho
 62
7
100
AcDbLine
 10
35.238849
 20
6.604590
 30
0.0
 11
34.930800
 21
6.367660
 31
0.0
  0
LINE
  5
4b7
100
AcDbEntity
  8
desenho
 62
7
100
AcDbLine
 10
34.930800
 20
6.367660
 30
0.0
 11
34.766596
 21
6.229566
 31
0.0
  0
LINE
  5
4b8
100
AcDbEntity
  8
desenho
 62
7
100
AcDbLine
 10
34.766596
 20
6.229566
 30
0.0
 11
34.344347
 21
6.401522
 31
0.0
  0
LINE
  5
4b9
100
AcDbEntity
  8
desenho
 62
7
100
AcDbLine
 10
34.344347
 20
6.401522
 30
0.0
 11
33.572076
 21
6.743488
 31
0.0
  0
LINE
  5
4ba
100
AcDbEntity
  8
desenho
 62
7
100
AcDbLine
 10
33.572076
 20
6.743488
 30
0.0
 11
32.848057
 21
7.147043
 31
0.0
  0
LINE
  5
4bb
100
AcDbEntity
  8
desenho
 62
7
100
AcDbLine
 10
32.848057
 20
7.147043
 30
0.0
 11
32.190044
 21
7.611599
 31
0.0
  0
LINE
  5
4bc
100
AcDbEntity
  8
desenho
 62
7
100
AcDbLine
 10
32.190044
 20
7.611599
 30
0.0
 11
31.769046
 21
8.020931
 31
0.0
  0
LINE
  5
4bd
100
AcDbEntity
  8
desenho
 62
7
100
AcDbLine
 10
31.769046
 20
8.020931
 30
0.0
 11
31.558059
 21
8.243583
 31
0.0
  0
LINE
  5
4be
100
AcDbEntity
  8
desenho
 62
7
100
AcDbLine
 10
31.558059
 20
8.243583
 30
0.0
 11
32.229546
 21
8.564133
 31
0.0
  0
LINE
  5
4bf
100
AcDbEntity
  8
desenho
 62
7
100
AcDbLine
 10
32.229546
 20
8.564133
 30
0.0
 11
33.405399
 21
9.153363
 31
0.0
  0
LINE
  5
4c0
100
AcDbEntity
  8
desenho
 62
7
100
AcDbLine
 10
33.405399
 20
9.153363
 30
0.0
 11
35.785412
 21
10.958951
 31
0.0
  0
LINE
  5
4c1
100
AcDbEntity
  8
desenho
 62
7
100
AcDbLine
 10
35.785412
 20
10.958951
 30
0.0
 11
37.357039
 21
13.514752
 31
0.0
  0
LINE
  5
4c2
100
AcDbEntity
  8
desenho
 62
7
100
AcDbLine
 10
37.357039
 20
13.514752
 30
0.0
 11
37.437904
 21
13.813466
 31
0.0
  0
LINE
  5
4c3
100
AcDbEntity
  8
desenho
 62
7
100
AcDbLine
 10
37.437904
 20
13.813466
 30
0.0
 11
37.475102
 21
13.966169
 31
0.0
  0
LINE
  5
4c4
100
AcDbEntity
  8
desenho
 62
7
100
AcDbLine
 10
37.475102
 20
13.966169
 30
0.0
 11
37.284116
 21
13.963947
 31
0.0
  0
LINE
  5
4c5
100
AcDbEntity
  8
desenho
 62
7
100
AcDbLine
 10
37.284116
 20
13.963947
 30
0.0
 11
36.905621
 21
13.966169
 31
0.0
  0
LINE
  5
4c6
100
AcDbEntity
  8
desenho
 62
7
100
AcDbLine
 10
36.905621
 20
13.966169
 30
0.0
 11
34.845630
 21
14.402197
 31
0.0
  0
LINE
  5
4c7
100
AcDbEntity
  8
desenho
 62
7
100
AcDbLine
 10
34.845630
 20
14.402197
 30
0.0
 11
32.912312
 21
15.237083
 31
0.0
  0
LINE
  5
4c8
100
AcDbEntity
  8
desenho
 62
7
100
AcDbLine
 10
32.912312
 20
15.237083
 30
0.0
 11
32.009866
 21
15.894347
 31
0.0
  0
LINE
  5
4c9
100
AcDbEntity
  8
desenho
 62
7
100
AcDbLine
 10
32.009866
 20
15.894347
 30
0.0
 11
31.384437
 21
16.306596
 31
0.0
  0
LINE
  5
4ca
100
AcDbEntity
  8
desenho
 62
7
100
AcDbLine
 10
31.384437
 20
16.306596
 30
0.0
 11
31.257391
 21
16.326775
 31
0.0
  0
LINE
  5
4cb
100
AcDbEntity
  8
desenho
 62
7
100
AcDbLine
 10
31.257391
 20
16.326775
 30
0.0
 11
31.113586
 21
16.334375
 31
0.0
  0
LINE
  5
4cc
100
AcDbEntity
  8
argola
 62
7
100
AcDbLine
 10
22.779815
 20
54.526408
 30
0.0
 11
21.242232
 21
54.215788
 31
0.0
  0
LINE
  5
4cd
100
AcDbEntity
  8
argola
 62
7
100
AcDbLine
 10
21.242232
 20
54.215788
 30
0.0
 11
19.986285
 21
53.368827
 31
0.0
  0
LINE
  5
4ce
100
AcDbEntity
  8
argola
 62
7
100
AcDbLine
 10
19.986285
 20
53.368827
 30
0.0
 11
19.139324
 21
52.112880
 31
0.0
  0
LINE
  5
4cf
100
AcDbEntity
  8
argola
 62
7
100
AcDbLine
 10
19.139324
 20
52.112880
 30
0.0
 11
18.828704
 21
50.575297
 31
0.0
  0
LINE
  5
4d0
100
AcDbEntity
  8
argola
 62
7
100
AcDbLine
 10
18.828704
 20
50.575297
 30
0.0
 11
19.139324
 21
49.037714
 31
0.0
  0
LINE
  5
4d1
100
AcDbEntity
  8
argola
 62
7
100
AcDbLine
 10
19.139324
 20
49.037714
 30
0.0
 11
19.986285
 21
47.781767
 31
0.0
  0
LINE
  5
4d2
100
AcDbEntity
  8
argola
 62
7
100
AcDbLine
 10
19.986285
 20
47.781767
 30
0.0
 11
21.242232
 21
46.934807
 31
0.0
  0
LINE
  5
4d3
100
AcDbEntity
  8
argola
 62
7
100
AcDbLine
 10
21.242232
 20
46.934807
 30
0.0
 11
22.779815
 21
46.624186
 31
0.0
  0
LINE
  5
4d4
100
AcDbEntity
  8
argola
 62
7
100
AcDbLine
 10
22.779815
 20
46.624186
 30
0.0
 11
24.317398
 21
46.934807
 31
0.0
  0
LINE
  5
4d5
100
AcDbEntity
  8
argola
 62
7
100
AcDbLine
 10
24.317398
 20
46.934807
 30
0.0
 11
25.573345
 21
47.781767
 31
0.0
  0
LINE
  5
4d6
100
AcDbEntity
  8
argola
 62
7
100
AcDbLine
 10
25.573345
 20
47.781767
 30
0.0
 11
26.420306
 21
49.037714
 31
0.0
  0
LINE
  5
4d7
100
AcDbEntity
  8
argola
 62
7
100
AcDbLine
 10
26.420306
 20
49.037714
 30
0.0
 11
26.730926
 21
50.575297
 31
0.0
  0
LINE
  5
4d8
100
AcDbEntity
  8
argola
 62
7
100
AcDbLine
 10
26.730926
 20
50.575297
 30
0.0
 11
26.420306
 21
52.112880
 31
0.0
  0
LINE
  5
4d9
100
AcDbEntity
  8
argola
 62
7
100
AcDbLine
 10
26.420306
 20
52.112880
 30
0.0
 11
25.573345
 21
53.368827
 31
0.0
  0
LINE
  5
4da
100
AcDbEntity
  8
argola
 62
7
100
AcDbLine
 10
25.573345
 20
53.368827
 30
0.0
 11
24.317398
 21
54.215788
 31
0.0
  0
LINE
  5
4db
100
AcDbEntity
  8
argola
 62
7
100
AcDbLine
 10
24.317398
 20
54.215788
 30
0.0
 11
22.779815
 21
54.526408
 31
0.0
  0
LINE
  5
4dc
100
AcDbEntity
  8
argola
 62
7
100
AcDbLine
 10
22.779815
 20
52.471478
 30
0.0
 11
23.519966
 21
52.322698
 31
0.0
  0
LINE
  5
4dd
100
AcDbEntity
  8
argola
 62
7
100
AcDbLine
 10
23.519966
 20
52.322698
 30
0.0
 11
24.125643
 21
51.916716
 31
0.0
  0
LINE
  5
4de
100
AcDbEntity
  8
argola
 62
7
100
AcDbLine
 10
24.125643
 20
51.916716
 30
0.0
 11
24.534657
 21
51.314070
 31
0.0
  0
LINE
  5
4df
100
AcDbEntity
  8
argola
 62
7
100
AcDbLine
 10
24.534657
 20
51.314070
 30
0.0
 11
24.684815
 21
50.575297
 31
0.0
  0
LINE
  5
4e0
100
AcDbEntity
  8
argola
 62
7
100
AcDbLine
 10
24.684815
 20
50.575297
 30
0.0
 11
24.534657
 21
49.836525
 31
0.0
  0
LINE
  5
4e1
100
AcDbEntity
  8
argola
 62
7
100
AcDbLine
 10
24.534657
 20
49.836525
 30
0.0
 11
24.125643
 21
49.233879
 31
0.0
  0
LINE
  5
4e2
100
AcDbEntity
  8
argola
 62
7
100
AcDbLine
 10
24.125643
 20
49.233879
 30
0.0
 11
23.519966
 21
48.827897
 31
0.0
  0
LINE
  5
4e3
100
AcDbEntity
  8
argola
 62
7
100
AcDbLine
 10
23.519966
 20
48.827897
 30
0.0
 11
22.779815
 21
48.679117
 31
0.0
  0
LINE
  5
4e4
100
AcDbEntity
  8
argola
 62
7
100
AcDbLine
 10
22.779815
 20
48.679117
 30
0.0
 11
22.041042
 21
48.827897
 31
0.0
  0
LINE
  5
4e5
100
AcDbEntity
  8
argola
 62
7
100
AcDbLine
 10
22.041042
 20
48.827897
 30
0.0
 11
21.438396
 21
49.233879
 31
0.0
  0
LINE
  5
4e6
100
AcDbEntity
  8
argola
 62
7
100
AcDbLine
 10
21.438396
 20
49.233879
 30
0.0
 11
21.032414
 21
49.836525
 31
0.0
  0
LINE
  5
4e7
100
AcDbEntity
  8
argola
 62
7
100
AcDbLine
 10
21.032414
 20
49.836525
 30
0.0
 11
20.883634
 21
50.575297
 31
0.0
  0
LINE
  5
4e8
100
AcDbEntity
  8
argola
 62
7
100
AcDbLine
 10
20.883634
 20
50.575297
 30
0.0
 11
21.032414
 21
51.314070
 31
0.0
  0
LINE
  5
4e9
100
AcDbEntity
  8
argola
 62
7
100
AcDbLine
 10
21.032414
 20
51.314070
 30
0.0
 11
21.438396
 21
51.916716
 31
0.0
  0
LINE
  5
4ea
100
AcDbEntity
  8
argola
 62
7
100
AcDbLine
 10
21.438396
 20
51.916716
 30
0.0
 11
22.041042
 21
52.322698
 31
0.0
  0
LINE
  5
4eb
100
AcDbEntity
  8
argola
 62
7
100
AcDbLine
 10
22.041042
 20
52.322698
 30
0.0
 11
22.779815
 21
52.471478
 31
0.0
  0
ENDSEC
  0
SECTION
  2
OBJECTS
  0
DICTIONARY
  5
C
330
0
100
AcDbDictionary
  3
ACAD_GROUP
350
D
  3
ACAD_MLINESTYLE
350
17
  0
DICTIONARY
  5
D
330
C
100
AcDbDictionary
  0
DICTIONARY
  5
1A
330
C
100
AcDbDictionary
  0
DICTIONARY
  5
17
330
C
100
AcDbDictionary
  3
STANDARD
350
18
  0
DICTIONARY
  5
19
330
C
100
AcDbDictionary
  0
ENDSEC
  0
EOF
