  0
SECTION
  2
HEADER
  9
$ACADVER
  1
AC1014
  9
$HANDSEED
  5
FFFF
  9
$MEASUREMENT
 70
     1
  0
ENDSEC
  0
SECTION
  2
TABLES
  0
TABLE
  2
VPORT
  5
8
330
0
100
AcDbSymbolTable
 70
     4
  0
VPORT
  5
2E
330
8
100
AcDbSymbolTableRecord
100
AcDbViewportTableRecord
  2
*ACTIVE
 70
     0
 10
0.0
 20
0.0
 11
1.0
 21
1.0
 12
210.0
 22
148.5
 13
0.0
 23
0.0
 14
10.0
 24
10.0
 15
10.0
 25
10.0
 16
0.0
 26
0.0
 36
1.0
 17
0.0
 27
0.0
 37
0.0
 40
341.0
 41
1.24
 42
50.0
 43
0.0
 44
0.0
 50
0.0
 51
0.0
 71
     0
 72
   100
 73
     1
 74
     3
 75
     0
 76
     0
 77
     0
 78
     0
  0
ENDTAB
  0
TABLE
  2
LTYPE
  5
5
330
0
100
AcDbSymbolTable
 70
     1
  0
LTYPE
  5
14
330
5
100
AcDbSymbolTableRecord
100
AcDbLinetypeTableRecord
  2
BYBLOCK
 70
     0
  3

 72
    65
 73
     0
 40
0.0
  0
LTYPE
  5
15
330
5
100
AcDbSymbolTableRecord
100
AcDbLinetypeTableRecord
  2
BYLAYER
 70
     0
  3

 72
    65
 73
     0
 40
0.0
  0
LTYPE
  5
16
330
5
100
AcDbSymbolTableRecord
100
AcDbLinetypeTableRecord
  2
CONTINUOUS
 70
     0
  3
Solid line
 72
    65
 73
     0
 40
0.0
  0
ENDTAB
  0
TABLE
  2
LAYER
  5
2
100
AcDbSymbolTable
 70
2
  0
LAYER
  5
50
100
AcDbSymbolTableRecord
100
AcDbLayerTableRecord
  2
0
 70
0
  6
CONTINUOUS
  0
LAYER
  5
51
100
AcDbSymbolTableRecord
100
AcDbLayerTableRecord
  2
Layer_1
 70
0
  6
CONTINUOUS
  0
ENDTAB
  0
TABLE
  2
STYLE
  5
3
330
0
100
AcDbSymbolTable
 70
     1
  0
STYLE
  5
11
330
3
100
AcDbSymbolTableRecord
100
AcDbTextStyleTableRecord
  2
STANDARD
 70
     0
 40
0.0
 41
1.0
 50
0.0
 71
     0
 42
2.5
  3
txt
  4

  0
ENDTAB
  0
TABLE
  2
VIEW
  5
6
330
0
100
AcDbSymbolTable
 70
     0
  0
ENDTAB
  0
TABLE
  2
UCS
  5
7
330
0
100
AcDbSymbolTable
 70
     0
  0
ENDTAB
  0
TABLE
  2
APPID
  5
9
330
0
100
AcDbSymbolTable
 70
     2
  0
APPID
  5
12
330
9
100
AcDbSymbolTableRecord
100
AcDbRegAppTableRecord
  2
ACAD
 70
     0
  0
ENDTAB
  0
TABLE
  2
DIMSTYLE
  5
A
330
0
100
AcDbSymbolTable
 70
     1
  0
DIMSTYLE
105
27
330
A
100
AcDbSymbolTableRecord
100
AcDbDimStyleTableRecord
  2
ISO-25
 70
     0
  3

  4

  5

  6

  7

 40
1.0
 41
2.5
 42
0.625
 43
3.75
 44
1.25
 45
0.0
 46
0.0
 47
0.0
 48
0.0
140
2.5
141
2.5
142
0.0
143
0.03937007874016
144
1.0
145
0.0
146
1.0
147
0.625
 71
     0
 72
     0
 73
     0
 74
     0
 75
     0
 76
     0
 77
     1
 78
     8
170
     0
171
     3
172
     1
173
     0
174
     0
175
     0
176
     0
177
     0
178
     0
270
     2
271
     2
272
     2
273
     2
274
     3
340
11
275
     0
280
     0
281
     0
282
     0
283
     0
284
     8
285
     0
286
     0
287
     3
288
     0
  0
ENDTAB
  0
TABLE
  2
BLOCK_RECORD
  5
1
330
0
100
AcDbSymbolTable
 70
     1
  0
BLOCK_RECORD
  5
1F
330
1
100
AcDbSymbolTableRecord
100
AcDbBlockTableRecord
  2
*MODEL_SPACE
  0
BLOCK_RECORD
  5
1B
330
1
100
AcDbSymbolTableRecord
100
AcDbBlockTableRecord
  2
*PAPER_SPACE
  0
ENDTAB
  0
ENDSEC
  0
SECTION
  2
BLOCKS
  0
BLOCK
  5
20
330
1F
100
AcDbEntity
  8
0
100
AcDbBlockBegin
  2
*MODEL_SPACE
 70
     0
 10
0.0
 20
0.0
 30
0.0
  3
*MODEL_SPACE
  1

  0
ENDBLK
  5
21
330
1F
100
AcDbEntity
  8
0
100
AcDbBlockEnd
  0
BLOCK
  5
1C
330
1B
100
AcDbEntity
 67
     1
  8
0
100
AcDbBlockBegin
  2
*PAPER_SPACE
  1

  0
ENDBLK
  5
1D
330
1B
100
AcDbEntity
 67
     1
  8
0
100
AcDbBlockEnd
  0
ENDSEC
  0
SECTION
  2
ENTITIES
  0
LINE
  5
100
100
AcDbEntity
  8
Layer_1
 62
7
100
AcDbLine
 10
51.650000
 20
145.100000
 30
0.0
 11
41.990440
 21
144.126480
 31
0.0
  0
LINE
  5
101
100
AcDbEntity
  8
Layer_1
 62
7
100
AcDbLine
 10
41.990440
 20
144.126480
 30
0.0
 11
32.993960
 21
141.334304
 31
0.0
  0
LINE
  5
102
100
AcDbEntity
  8
Layer_1
 62
7
100
AcDbLine
 10
32.993960
 20
141.334304
 30
0.0
 11
24.853144
 21
136.916080
 31
0.0
  0
LINE
  5
103
100
AcDbEntity
  8
Layer_1
 62
7
100
AcDbLine
 10
24.853144
 20
136.916080
 30
0.0
 11
17.760600
 21
131.064392
 31
0.0
  0
LINE
  5
104
100
AcDbEntity
  8
Layer_1
 62
7
100
AcDbLine
 10
17.760600
 20
131.064392
 30
0.0
 11
11.908920
 21
123.971848
 31
0.0
  0
LINE
  5
105
100
AcDbEntity
  8
Layer_1
 62
7
100
AcDbLine
 10
11.908920
 20
123.971848
 30
0.0
 11
7.490696
 21
115.831040
 31
0.0
  0
LINE
  5
106
100
AcDbEntity
  8
Layer_1
 62
7
100
AcDbLine
 10
7.490696
 20
115.831040
 30
0.0
 11
4.698520
 21
106.834560
 31
0.0
  0
LINE
  5
107
100
AcDbEntity
  8
Layer_1
 62
7
100
AcDbLine
 10
4.698520
 20
106.834560
 30
0.0
 11
3.725000
 21
97.175000
 31
0.0
  0
LINE
  5
108
100
AcDbEntity
  8
Layer_1
 62
7
100
AcDbLine
 10
3.725000
 20
97.175000
 30
0.0
 11
4.493440
 21
88.579936
 31
0.0
  0
LINE
  5
109
100
AcDbEntity
  8
Layer_1
 62
7
100
AcDbLine
 10
4.493440
 20
88.579936
 30
0.0
 11
6.709216
 21
80.489000
 31
0.0
  0
LINE
  5
10a
100
AcDbEntity
  8
Layer_1
 62
7
100
AcDbLine
 10
6.709216
 20
80.489000
 30
0.0
 11
10.237984
 21
73.036472
 31
0.0
  0
LINE
  5
10b
100
AcDbEntity
  8
Layer_1
 62
7
100
AcDbLine
 10
10.237984
 20
73.036472
 30
0.0
 11
14.945416
 21
66.356640
 31
0.0
  0
LINE
  5
10c
100
AcDbEntity
  8
Layer_1
 62
7
100
AcDbLine
 10
14.945416
 20
66.356640
 30
0.0
 11
20.697168
 21
60.583792
 31
0.0
  0
LINE
  5
10d
100
AcDbEntity
  8
Layer_1
 62
7
100
AcDbLine
 10
20.697168
 20
60.583792
 30
0.0
 11
27.358904
 21
55.852216
 31
0.0
  0
LINE
  5
10e
100
AcDbEntity
  8
Layer_1
 62
7
100
AcDbLine
 10
27.358904
 20
55.852216
 30
0.0
 11
34.796296
 21
52.296184
 31
0.0
  0
LINE
  5
10f
100
AcDbEntity
  8
Layer_1
 62
7
100
AcDbLine
 10
34.796296
 20
52.296184
 30
0.0
 11
42.875000
 21
50.050000
 31
0.0
  0
LINE
  5
110
100
AcDbEntity
  8
Layer_1
 62
7
100
AcDbLine
 10
42.875000
 20
50.050000
 30
0.0
 11
42.875000
 21
46.187504
 31
0.0
  0
LINE
  5
111
100
AcDbEntity
  8
Layer_1
 62
7
100
AcDbLine
 10
42.875000
 20
46.187504
 30
0.0
 11
42.875000
 21
42.325000
 31
0.0
  0
LINE
  5
112
100
AcDbEntity
  8
Layer_1
 62
7
100
AcDbLine
 10
42.875000
 20
42.325000
 30
0.0
 11
35.212496
 21
42.325000
 31
0.0
  0
LINE
  5
113
100
AcDbEntity
  8
Layer_1
 62
7
100
AcDbLine
 10
35.212496
 20
42.325000
 30
0.0
 11
27.550000
 21
42.325000
 31
0.0
  0
LINE
  5
114
100
AcDbEntity
  8
Layer_1
 62
7
100
AcDbLine
 10
27.550000
 20
42.325000
 30
0.0
 11
27.426128
 21
42.273880
 31
0.0
  0
LINE
  5
115
100
AcDbEntity
  8
Layer_1
 62
7
100
AcDbLine
 10
27.426128
 20
42.273880
 30
0.0
 11
27.375008
 21
42.150008
 31
0.0
  0
LINE
  5
116
100
AcDbEntity
  8
Layer_1
 62
7
100
AcDbLine
 10
27.375008
 20
42.150008
 30
0.0
 11
27.375008
 21
33.000008
 31
0.0
  0
LINE
  5
117
100
AcDbEntity
  8
Layer_1
 62
7
100
AcDbLine
 10
27.375008
 20
33.000008
 30
0.0
 11
27.375008
 21
23.850008
 31
0.0
  0
LINE
  5
118
100
AcDbEntity
  8
Layer_1
 62
7
100
AcDbLine
 10
27.375008
 20
23.850008
 30
0.0
 11
27.426128
 21
23.713640
 31
0.0
  0
LINE
  5
119
100
AcDbEntity
  8
Layer_1
 62
7
100
AcDbLine
 10
27.426128
 20
23.713640
 30
0.0
 11
27.550000
 21
23.650040
 31
0.0
  0
LINE
  5
11a
100
AcDbEntity
  8
Layer_1
 62
7
100
AcDbLine
 10
27.550000
 20
23.650040
 30
0.0
 11
35.212496
 21
23.650040
 31
0.0
  0
LINE
  5
11b
100
AcDbEntity
  8
Layer_1
 62
7
100
AcDbLine
 10
35.212496
 20
23.650040
 30
0.0
 11
42.875000
 21
23.650040
 31
0.0
  0
LINE
  5
11c
100
AcDbEntity
  8
Layer_1
 62
7
100
AcDbLine
 10
42.875000
 20
23.650040
 30
0.0
 11
42.875000
 21
13.725040
 31
0.0
  0
LINE
  5
11d
100
AcDbEntity
  8
Layer_1
 62
7
100
AcDbLine
 10
42.875000
 20
13.725040
 30
0.0
 11
42.875000
 21
3.800040
 31
0.0
  0
LINE
  5
11e
100
AcDbEntity
  8
Layer_1
 62
7
100
AcDbLine
 10
42.875000
 20
3.800040
 30
0.0
 11
42.926120
 21
3.676168
 31
0.0
  0
LINE
  5
11f
100
AcDbEntity
  8
Layer_1
 62
7
100
AcDbLine
 10
42.926120
 20
3.676168
 30
0.0
 11
43.049992
 21
3.625048
 31
0.0
  0
LINE
  5
120
100
AcDbEntity
  8
Layer_1
 62
7
100
AcDbLine
 10
43.049992
 20
3.625048
 30
0.0
 11
51.649992
 21
3.625048
 31
0.0
  0
LINE
  5
121
100
AcDbEntity
  8
Layer_1
 62
7
100
AcDbLine
 10
51.649992
 20
3.625048
 30
0.0
 11
60.249992
 21
3.625048
 31
0.0
  0
LINE
  5
122
100
AcDbEntity
  8
Layer_1
 62
7
100
AcDbLine
 10
60.249992
 20
3.625048
 30
0.0
 11
60.373864
 21
3.676168
 31
0.0
  0
LINE
  5
123
100
AcDbEntity
  8
Layer_1
 62
7
100
AcDbLine
 10
60.373864
 20
3.676168
 30
0.0
 11
60.424984
 21
3.800040
 31
0.0
  0
LINE
  5
124
100
AcDbEntity
  8
Layer_1
 62
7
100
AcDbLine
 10
60.424984
 20
3.800040
 30
0.0
 11
60.424984
 21
13.725040
 31
0.0
  0
LINE
  5
125
100
AcDbEntity
  8
Layer_1
 62
7
100
AcDbLine
 10
60.424984
 20
13.725040
 30
0.0
 11
60.424984
 21
23.650040
 31
0.0
  0
LINE
  5
126
100
AcDbEntity
  8
Layer_1
 62
7
100
AcDbLine
 10
60.424984
 20
23.650040
 30
0.0
 11
68.087480
 21
23.650040
 31
0.0
  0
LINE
  5
127
100
AcDbEntity
  8
Layer_1
 62
7
100
AcDbLine
 10
68.087480
 20
23.650040
 30
0.0
 11
75.749984
 21
23.650040
 31
0.0
  0
LINE
  5
128
100
AcDbEntity
  8
Layer_1
 62
7
100
AcDbLine
 10
75.749984
 20
23.650040
 30
0.0
 11
75.873856
 21
23.713640
 31
0.0
  0
LINE
  5
129
100
AcDbEntity
  8
Layer_1
 62
7
100
AcDbLine
 10
75.873856
 20
23.713640
 30
0.0
 11
75.924976
 21
23.850008
 31
0.0
  0
LINE
  5
12a
100
AcDbEntity
  8
Layer_1
 62
7
100
AcDbLine
 10
75.924976
 20
23.850008
 30
0.0
 11
75.924976
 21
33.000008
 31
0.0
  0
LINE
  5
12b
100
AcDbEntity
  8
Layer_1
 62
7
100
AcDbLine
 10
75.924976
 20
33.000008
 30
0.0
 11
75.924976
 21
42.150008
 31
0.0
  0
LINE
  5
12c
100
AcDbEntity
  8
Layer_1
 62
7
100
AcDbLine
 10
75.924976
 20
42.150008
 30
0.0
 11
75.873856
 21
42.273880
 31
0.0
  0
LINE
  5
12d
100
AcDbEntity
  8
Layer_1
 62
7
100
AcDbLine
 10
75.873856
 20
42.273880
 30
0.0
 11
75.749984
 21
42.325000
 31
0.0
  0
LINE
  5
12e
100
AcDbEntity
  8
Layer_1
 62
7
100
AcDbLine
 10
75.749984
 20
42.325000
 30
0.0
 11
68.087480
 21
42.325000
 31
0.0
  0
LINE
  5
12f
100
AcDbEntity
  8
Layer_1
 62
7
100
AcDbLine
 10
68.087480
 20
42.325000
 30
0.0
 11
60.424984
 21
42.325000
 31
0.0
  0
LINE
  5
130
100
AcDbEntity
  8
Layer_1
 62
7
100
AcDbLine
 10
60.424984
 20
42.325000
 30
0.0
 11
60.424984
 21
46.187504
 31
0.0
  0
LINE
  5
131
100
AcDbEntity
  8
Layer_1
 62
7
100
AcDbLine
 10
60.424984
 20
46.187504
 30
0.0
 11
60.424984
 21
50.050000
 31
0.0
  0
LINE
  5
132
100
AcDbEntity
  8
Layer_1
 62
7
100
AcDbLine
 10
60.424984
 20
50.050000
 30
0.0
 11
68.503688
 21
52.296184
 31
0.0
  0
LINE
  5
133
100
AcDbEntity
  8
Layer_1
 62
7
100
AcDbLine
 10
68.503688
 20
52.296184
 30
0.0
 11
75.941080
 21
55.852216
 31
0.0
  0
LINE
  5
134
100
AcDbEntity
  8
Layer_1
 62
7
100
AcDbLine
 10
75.941080
 20
55.852216
 30
0.0
 11
82.602816
 21
60.583792
 31
0.0
  0
LINE
  5
135
100
AcDbEntity
  8
Layer_1
 62
7
100
AcDbLine
 10
82.602816
 20
60.583792
 30
0.0
 11
88.354568
 21
66.356640
 31
0.0
  0
LINE
  5
136
100
AcDbEntity
  8
Layer_1
 62
7
100
AcDbLine
 10
88.354568
 20
66.356640
 30
0.0
 11
93.061992
 21
73.036472
 31
0.0
  0
LINE
  5
137
100
AcDbEntity
  8
Layer_1
 62
7
100
AcDbLine
 10
93.061992
 20
73.036472
 30
0.0
 11
96.590768
 21
80.489000
 31
0.0
  0
LINE
  5
138
100
AcDbEntity
  8
Layer_1
 62
7
100
AcDbLine
 10
96.590768
 20
80.489000
 30
0.0
 11
98.806536
 21
88.579936
 31
0.0
  0
LINE
  5
139
100
AcDbEntity
  8
Layer_1
 62
7
100
AcDbLine
 10
98.806536
 20
88.579936
 30
0.0
 11
99.575000
 21
97.175000
 31
0.0
  0
LINE
  5
13a
100
AcDbEntity
  8
Layer_1
 62
7
100
AcDbLine
 10
99.575000
 20
97.175000
 30
0.0
 11
98.601480
 21
106.834560
 31
0.0
  0
LINE
  5
13b
100
AcDbEntity
  8
Layer_1
 62
7
100
AcDbLine
 10
98.601480
 20
106.834560
 30
0.0
 11
95.809304
 21
115.831040
 31
0.0
  0
LINE
  5
13c
100
AcDbEntity
  8
Layer_1
 62
7
100
AcDbLine
 10
95.809304
 20
115.831040
 30
0.0
 11
91.391080
 21
123.971848
 31
0.0
  0
LINE
  5
13d
100
AcDbEntity
  8
Layer_1
 62
7
100
AcDbLine
 10
91.391080
 20
123.971848
 30
0.0
 11
85.539400
 21
131.064392
 31
0.0
  0
LINE
  5
13e
100
AcDbEntity
  8
Layer_1
 62
7
100
AcDbLine
 10
85.539400
 20
131.064392
 30
0.0
 11
78.446856
 21
136.916080
 31
0.0
  0
LINE
  5
13f
100
AcDbEntity
  8
Layer_1
 62
7
100
AcDbLine
 10
78.446856
 20
136.916080
 30
0.0
 11
70.306040
 21
141.334304
 31
0.0
  0
LINE
  5
140
100
AcDbEntity
  8
Layer_1
 62
7
100
AcDbLine
 10
70.306040
 20
141.334304
 30
0.0
 11
61.309560
 21
144.126480
 31
0.0
  0
LINE
  5
141
100
AcDbEntity
  8
Layer_1
 62
7
100
AcDbLine
 10
61.309560
 20
144.126480
 30
0.0
 11
51.650000
 21
145.100000
 31
0.0
  0
LINE
  5
142
100
AcDbEntity
  8
Layer_1
 62
7
100
AcDbLine
 10
51.650000
 20
127.625000
 30
0.0
 11
57.786736
 21
127.006360
 31
0.0
  0
LINE
  5
143
100
AcDbEntity
  8
Layer_1
 62
7
100
AcDbLine
 10
57.786736
 20
127.006360
 30
0.0
 11
63.502504
 21
125.232088
 31
0.0
  0
LINE
  5
144
100
AcDbEntity
  8
Layer_1
 62
7
100
AcDbLine
 10
63.502504
 20
125.232088
 30
0.0
 11
68.674880
 21
122.424616
 31
0.0
  0
LINE
  5
145
100
AcDbEntity
  8
Layer_1
 62
7
100
AcDbLine
 10
68.674880
 20
122.424616
 30
0.0
 11
73.181392
 21
118.706392
 31
0.0
  0
LINE
  5
146
100
AcDbEntity
  8
Layer_1
 62
7
100
AcDbLine
 10
73.181392
 20
118.706392
 30
0.0
 11
76.899616
 21
114.199872
 31
0.0
  0
LINE
  5
147
100
AcDbEntity
  8
Layer_1
 62
7
100
AcDbLine
 10
76.899616
 20
114.199872
 30
0.0
 11
79.707088
 21
109.027504
 31
0.0
  0
LINE
  5
148
100
AcDbEntity
  8
Layer_1
 62
7
100
AcDbLine
 10
79.707088
 20
109.027504
 30
0.0
 11
81.481360
 21
103.311728
 31
0.0
  0
LINE
  5
149
100
AcDbEntity
  8
Layer_1
 62
7
100
AcDbLine
 10
81.481360
 20
103.311728
 30
0.0
 11
82.100000
 21
97.175000
 31
0.0
  0
LINE
  5
14a
100
AcDbEntity
  8
Layer_1
 62
7
100
AcDbLine
 10
82.100000
 20
97.175000
 30
0.0
 11
81.664880
 21
92.015992
 31
0.0
  0
LINE
  5
14b
100
AcDbEntity
  8
Layer_1
 62
7
100
AcDbLine
 10
81.664880
 20
92.015992
 30
0.0
 11
80.407272
 21
87.137704
 31
0.0
  0
LINE
  5
14c
100
AcDbEntity
  8
Layer_1
 62
7
100
AcDbLine
 10
80.407272
 20
87.137704
 30
0.0
 11
78.398784
 21
82.611776
 31
0.0
  0
LINE
  5
14d
100
AcDbEntity
  8
Layer_1
 62
7
100
AcDbLine
 10
78.398784
 20
82.611776
 30
0.0
 11
75.711048
 21
78.509848
 31
0.0
  0
LINE
  5
14e
100
AcDbEntity
  8
Layer_1
 62
7
100
AcDbLine
 10
75.711048
 20
78.509848
 30
0.0
 11
72.415680
 21
74.903560
 31
0.0
  0
LINE
  5
14f
100
AcDbEntity
  8
Layer_1
 62
7
100
AcDbLine
 10
72.415680
 20
74.903560
 30
0.0
 11
68.584304
 21
71.864568
 31
0.0
  0
LINE
  5
150
100
AcDbEntity
  8
Layer_1
 62
7
100
AcDbLine
 10
68.584304
 20
71.864568
 30
0.0
 11
64.288536
 21
69.464496
 31
0.0
  0
LINE
  5
151
100
AcDbEntity
  8
Layer_1
 62
7
100
AcDbLine
 10
64.288536
 20
69.464496
 30
0.0
 11
59.600000
 21
67.775000
 31
0.0
  0
LINE
  5
152
100
AcDbEntity
  8
Layer_1
 62
7
100
AcDbLine
 10
59.600000
 20
67.775000
 30
0.0
 11
58.656960
 21
68.970088
 31
0.0
  0
LINE
  5
153
100
AcDbEntity
  8
Layer_1
 62
7
100
AcDbLine
 10
58.656960
 20
68.970088
 30
0.0
 11
58.250000
 21
70.000000
 31
0.0
  0
LINE
  5
154
100
AcDbEntity
  8
Layer_1
 62
7
100
AcDbLine
 10
58.250000
 20
70.000000
 30
0.0
 11
58.291280
 21
71.364216
 31
0.0
  0
LINE
  5
155
100
AcDbEntity
  8
Layer_1
 62
7
100
AcDbLine
 10
58.291280
 20
71.364216
 30
0.0
 11
58.749960
 21
72.150000
 31
0.0
  0
LINE
  5
156
100
AcDbEntity
  8
Layer_1
 62
7
100
AcDbLine
 10
58.749960
 20
72.150000
 30
0.0
 11
59.306272
 21
72.590200
 31
0.0
  0
LINE
  5
157
100
AcDbEntity
  8
Layer_1
 62
7
100
AcDbLine
 10
59.306272
 20
72.590200
 30
0.0
 11
59.824960
 21
72.775000
 31
0.0
  0
LINE
  5
158
100
AcDbEntity
  8
Layer_1
 62
7
100
AcDbLine
 10
59.824960
 20
72.775000
 30
0.0
 11
60.453024
 21
72.965384
 31
0.0
  0
LINE
  5
159
100
AcDbEntity
  8
Layer_1
 62
7
100
AcDbLine
 10
60.453024
 20
72.965384
 30
0.0
 11
61.274960
 21
73.425000
 31
0.0
  0
LINE
  5
15a
100
AcDbEntity
  8
Layer_1
 62
7
100
AcDbLine
 10
61.274960
 20
73.425000
 30
0.0
 11
62.012120
 21
73.884616
 31
0.0
  0
LINE
  5
15b
100
AcDbEntity
  8
Layer_1
 62
7
100
AcDbLine
 10
62.012120
 20
73.884616
 30
0.0
 11
62.424960
 21
74.075000
 31
0.0
  0
LINE
  5
15c
100
AcDbEntity
  8
Layer_1
 62
7
100
AcDbLine
 10
62.424960
 20
74.075000
 30
0.0
 11
64.216928
 21
75.181896
 31
0.0
  0
LINE
  5
15d
100
AcDbEntity
  8
Layer_1
 62
7
100
AcDbLine
 10
64.216928
 20
75.181896
 30
0.0
 11
66.424960
 21
77.050000
 31
0.0
  0
LINE
  5
15e
100
AcDbEntity
  8
Layer_1
 62
7
100
AcDbLine
 10
66.424960
 20
77.050000
 30
0.0
 11
67.486320
 21
78.049984
 31
0.0
  0
LINE
  5
15f
100
AcDbEntity
  8
Layer_1
 62
7
100
AcDbLine
 10
67.486320
 20
78.049984
 30
0.0
 11
68.574960
 21
78.900000
 31
0.0
  0
LINE
  5
160
100
AcDbEntity
  8
Layer_1
 62
7
100
AcDbLine
 10
68.574960
 20
78.900000
 30
0.0
 11
74.049152
 21
85.219728
 31
0.0
  0
LINE
  5
161
100
AcDbEntity
  8
Layer_1
 62
7
100
AcDbLine
 10
74.049152
 20
85.219728
 30
0.0
 11
76.724960
 21
92.550000
 31
0.0
  0
LINE
  5
162
100
AcDbEntity
  8
Layer_1
 62
7
100
AcDbLine
 10
76.724960
 20
92.550000
 30
0.0
 11
75.735472
 21
96.079312
 31
0.0
  0
LINE
  5
163
100
AcDbEntity
  8
Layer_1
 62
7
100
AcDbLine
 10
75.735472
 20
96.079312
 30
0.0
 11
73.924960
 21
98.075000
 31
0.0
  0
LINE
  5
164
100
AcDbEntity
  8
Layer_1
 62
7
100
AcDbLine
 10
73.924960
 20
98.075000
 30
0.0
 11
73.695152
 21
98.153240
 31
0.0
  0
LINE
  5
165
100
AcDbEntity
  8
Layer_1
 62
7
100
AcDbLine
 10
73.695152
 20
98.153240
 30
0.0
 11
73.599960
 21
98.325040
 31
0.0
  0
LINE
  5
166
100
AcDbEntity
  8
Layer_1
 62
7
100
AcDbLine
 10
73.599960
 20
98.325040
 30
0.0
 11
71.879760
 21
99.076696
 31
0.0
  0
LINE
  5
167
100
AcDbEntity
  8
Layer_1
 62
7
100
AcDbLine
 10
71.879760
 20
99.076696
 30
0.0
 11
69.624960
 21
99.650040
 31
0.0
  0
LINE
  5
168
100
AcDbEntity
  8
Layer_1
 62
7
100
AcDbLine
 10
69.624960
 20
99.650040
 30
0.0
 11
69.260520
 21
99.759416
 31
0.0
  0
LINE
  5
169
100
AcDbEntity
  8
Layer_1
 62
7
100
AcDbLine
 10
69.260520
 20
99.759416
 30
0.0
 11
68.924960
 21
100.025040
 31
0.0
  0
LINE
  5
16a
100
AcDbEntity
  8
Layer_1
 62
7
100
AcDbLine
 10
68.924960
 20
100.025040
 30
0.0
 11
68.824384
 21
100.573680
 31
0.0
  0
LINE
  5
16b
100
AcDbEntity
  8
Layer_1
 62
7
100
AcDbLine
 10
68.824384
 20
100.573680
 30
0.0
 11
69.399960
 21
101.600040
 31
0.0
  0
LINE
  5
16c
100
AcDbEntity
  8
Layer_1
 62
7
100
AcDbLine
 10
69.399960
 20
101.600040
 30
0.0
 11
69.965896
 21
102.480680
 31
0.0
  0
LINE
  5
16d
100
AcDbEntity
  8
Layer_1
 62
7
100
AcDbLine
 10
69.965896
 20
102.480680
 30
0.0
 11
70.199960
 21
102.975040
 31
0.0
  0
LINE
  5
16e
100
AcDbEntity
  8
Layer_1
 62
7
100
AcDbLine
 10
70.199960
 20
102.975040
 30
0.0
 11
70.430792
 21
103.568336
 31
0.0
  0
LINE
  5
16f
100
AcDbEntity
  8
Layer_1
 62
7
100
AcDbLine
 10
70.430792
 20
103.568336
 30
0.0
 11
70.974960
 21
104.650040
 31
0.0
  0
LINE
  5
170
100
AcDbEntity
  8
Layer_1
 62
7
100
AcDbLine
 10
70.974960
 20
104.650040
 30
0.0
 11
72.526552
 21
108.345936
 31
0.0
  0
LINE
  5
171
100
AcDbEntity
  8
Layer_1
 62
7
100
AcDbLine
 10
72.526552
 20
108.345936
 30
0.0
 11
73.349960
 21
111.400040
 31
0.0
  0
LINE
  5
172
100
AcDbEntity
  8
Layer_1
 62
7
100
AcDbLine
 10
73.349960
 20
111.400040
 30
0.0
 11
72.743752
 21
114.051064
 31
0.0
  0
LINE
  5
173
100
AcDbEntity
  8
Layer_1
 62
7
100
AcDbLine
 10
72.743752
 20
114.051064
 30
0.0
 11
71.624960
 21
116.525040
 31
0.0
  0
LINE
  5
174
100
AcDbEntity
  8
Layer_1
 62
7
100
AcDbLine
 10
71.624960
 20
116.525040
 30
0.0
 11
69.917608
 21
118.433616
 31
0.0
  0
LINE
  5
175
100
AcDbEntity
  8
Layer_1
 62
7
100
AcDbLine
 10
69.917608
 20
118.433616
 30
0.0
 11
68.249960
 21
119.900040
 31
0.0
  0
LINE
  5
176
100
AcDbEntity
  8
Layer_1
 62
7
100
AcDbLine
 10
68.249960
 20
119.900040
 30
0.0
 11
67.152776
 21
120.150624
 31
0.0
  0
LINE
  5
177
100
AcDbEntity
  8
Layer_1
 62
7
100
AcDbLine
 10
67.152776
 20
120.150624
 30
0.0
 11
66.324960
 21
119.550040
 31
0.0
  0
LINE
  5
178
100
AcDbEntity
  8
Layer_1
 62
7
100
AcDbLine
 10
66.324960
 20
119.550040
 30
0.0
 11
65.835720
 21
117.766512
 31
0.0
  0
LINE
  5
179
100
AcDbEntity
  8
Layer_1
 62
7
100
AcDbLine
 10
65.835720
 20
117.766512
 30
0.0
 11
64.874960
 21
112.975040
 31
0.0
  0
LINE
  5
17a
100
AcDbEntity
  8
Layer_1
 62
7
100
AcDbLine
 10
64.874960
 20
112.975040
 30
0.0
 11
64.497664
 21
111.250048
 31
0.0
  0
LINE
  5
17b
100
AcDbEntity
  8
Layer_1
 62
7
100
AcDbLine
 10
64.497664
 20
111.250048
 30
0.0
 11
64.199960
 21
110.225040
 31
0.0
  0
LINE
  5
17c
100
AcDbEntity
  8
Layer_1
 62
7
100
AcDbLine
 10
64.199960
 20
110.225040
 30
0.0
 11
63.600912
 21
107.436912
 31
0.0
  0
LINE
  5
17d
100
AcDbEntity
  8
Layer_1
 62
7
100
AcDbLine
 10
63.600912
 20
107.436912
 30
0.0
 11
63.424960
 21
105.125040
 31
0.0
  0
LINE
  5
17e
100
AcDbEntity
  8
Layer_1
 62
7
100
AcDbLine
 10
63.424960
 20
105.125040
 30
0.0
 11
63.614504
 21
104.801576
 31
0.0
  0
LINE
  5
17f
100
AcDbEntity
  8
Layer_1
 62
7
100
AcDbLine
 10
63.614504
 20
104.801576
 30
0.0
 11
63.799960
 21
104.200040
 31
0.0
  0
LINE
  5
180
100
AcDbEntity
  8
Layer_1
 62
7
100
AcDbLine
 10
63.799960
 20
104.200040
 30
0.0
 11
65.042104
 21
102.284464
 31
0.0
  0
LINE
  5
181
100
AcDbEntity
  8
Layer_1
 62
7
100
AcDbLine
 10
65.042104
 20
102.284464
 30
0.0
 11
66.774960
 21
100.850040
 31
0.0
  0
LINE
  5
182
100
AcDbEntity
  8
Layer_1
 62
7
100
AcDbLine
 10
66.774960
 20
100.850040
 30
0.0
 11
67.320856
 21
100.312368
 31
0.0
  0
LINE
  5
183
100
AcDbEntity
  8
Layer_1
 62
7
100
AcDbLine
 10
67.320856
 20
100.312368
 30
0.0
 11
66.849920
 21
99.675040
 31
0.0
  0
LINE
  5
184
100
AcDbEntity
  8
Layer_1
 62
7
100
AcDbLine
 10
66.849920
 20
99.675040
 30
0.0
 11
63.571808
 21
98.950872
 31
0.0
  0
LINE
  5
185
100
AcDbEntity
  8
Layer_1
 62
7
100
AcDbLine
 10
63.571808
 20
98.950872
 30
0.0
 11
58.849920
 21
98.875032
 31
0.0
  0
LINE
  5
186
100
AcDbEntity
  8
Layer_1
 62
7
100
AcDbLine
 10
58.849920
 20
98.875032
 30
0.0
 11
54.686376
 21
99.513160
 31
0.0
  0
LINE
  5
187
100
AcDbEntity
  8
Layer_1
 62
7
100
AcDbLine
 10
54.686376
 20
99.513160
 30
0.0
 11
52.699920
 21
101.225032
 31
0.0
  0
LINE
  5
188
100
AcDbEntity
  8
Layer_1
 62
7
100
AcDbLine
 10
52.699920
 20
101.225032
 30
0.0
 11
51.378632
 21
102.630904
 31
0.0
  0
LINE
  5
189
100
AcDbEntity
  8
Layer_1
 62
7
100
AcDbLine
 10
51.378632
 20
102.630904
 30
0.0
 11
49.999920
 21
102.100032
 31
0.0
  0
LINE
  5
18a
100
AcDbEntity
  8
Layer_1
 62
7
100
AcDbLine
 10
49.999920
 20
102.100032
 30
0.0
 11
48.470936
 21
100.057480
 31
0.0
  0
LINE
  5
18b
100
AcDbEntity
  8
Layer_1
 62
7
100
AcDbLine
 10
48.470936
 20
100.057480
 30
0.0
 11
48.024920
 21
97.125032
 31
0.0
  0
LINE
  5
18c
100
AcDbEntity
  8
Layer_1
 62
7
100
AcDbLine
 10
48.024920
 20
97.125032
 30
0.0
 11
48.164296
 21
95.119216
 31
0.0
  0
LINE
  5
18d
100
AcDbEntity
  8
Layer_1
 62
7
100
AcDbLine
 10
48.164296
 20
95.119216
 30
0.0
 11
49.074920
 21
93.550032
 31
0.0
  0
LINE
  5
18e
100
AcDbEntity
  8
Layer_1
 62
7
100
AcDbLine
 10
49.074920
 20
93.550032
 30
0.0
 11
50.111200
 21
92.356752
 31
0.0
  0
LINE
  5
18f
100
AcDbEntity
  8
Layer_1
 62
7
100
AcDbLine
 10
50.111200
 20
92.356752
 30
0.0
 11
51.099920
 21
91.675032
 31
0.0
  0
LINE
  5
190
100
AcDbEntity
  8
Layer_1
 62
7
100
AcDbLine
 10
51.099920
 20
91.675032
 30
0.0
 11
55.199968
 21
90.586528
 31
0.0
  0
LINE
  5
191
100
AcDbEntity
  8
Layer_1
 62
7
100
AcDbLine
 10
55.199968
 20
90.586528
 30
0.0
 11
58.399920
 21
90.925032
 31
0.0
  0
LINE
  5
192
100
AcDbEntity
  8
Layer_1
 62
7
100
AcDbLine
 10
58.399920
 20
90.925032
 30
0.0
 11
59.312504
 21
91.223536
 31
0.0
  0
LINE
  5
193
100
AcDbEntity
  8
Layer_1
 62
7
100
AcDbLine
 10
59.312504
 20
91.223536
 30
0.0
 11
60.349920
 21
91.375032
 31
0.0
  0
LINE
  5
194
100
AcDbEntity
  8
Layer_1
 62
7
100
AcDbLine
 10
60.349920
 20
91.375032
 30
0.0
 11
61.289544
 21
91.322072
 31
0.0
  0
LINE
  5
195
100
AcDbEntity
  8
Layer_1
 62
7
100
AcDbLine
 10
61.289544
 20
91.322072
 30
0.0
 11
61.549920
 21
90.850040
 31
0.0
  0
LINE
  5
196
100
AcDbEntity
  8
Layer_1
 62
7
100
AcDbLine
 10
61.549920
 20
90.850040
 30
0.0
 11
61.204560
 21
89.868192
 31
0.0
  0
LINE
  5
197
100
AcDbEntity
  8
Layer_1
 62
7
100
AcDbLine
 10
61.204560
 20
89.868192
 30
0.0
 11
59.674920
 21
88.950040
 31
0.0
  0
LINE
  5
198
100
AcDbEntity
  8
Layer_1
 62
7
100
AcDbLine
 10
59.674920
 20
88.950040
 30
0.0
 11
58.323040
 21
88.559608
 31
0.0
  0
LINE
  5
199
100
AcDbEntity
  8
Layer_1
 62
7
100
AcDbLine
 10
58.323040
 20
88.559608
 30
0.0
 11
56.199920
 21
88.675040
 31
0.0
  0
LINE
  5
19a
100
AcDbEntity
  8
Layer_1
 62
7
100
AcDbLine
 10
56.199920
 20
88.675040
 30
0.0
 11
52.498760
 21
89.409040
 31
0.0
  0
LINE
  5
19b
100
AcDbEntity
  8
Layer_1
 62
7
100
AcDbLine
 10
52.498760
 20
89.409040
 30
0.0
 11
49.624920
 21
90.625040
 31
0.0
  0
LINE
  5
19c
100
AcDbEntity
  8
Layer_1
 62
7
100
AcDbLine
 10
49.624920
 20
90.625040
 30
0.0
 11
48.299664
 21
91.386440
 31
0.0
  0
LINE
  5
19d
100
AcDbEntity
  8
Layer_1
 62
7
100
AcDbLine
 10
48.299664
 20
91.386440
 30
0.0
 11
46.449920
 21
92.375040
 31
0.0
  0
LINE
  5
19e
100
AcDbEntity
  8
Layer_1
 62
7
100
AcDbLine
 10
46.449920
 20
92.375040
 30
0.0
 11
45.337416
 21
92.950040
 31
0.0
  0
LINE
  5
19f
100
AcDbEntity
  8
Layer_1
 62
7
100
AcDbLine
 10
45.337416
 20
92.950040
 30
0.0
 11
44.224920
 21
93.525040
 31
0.0
  0
LINE
  5
1a0
100
AcDbEntity
  8
Layer_1
 62
7
100
AcDbLine
 10
44.224920
 20
93.525040
 30
0.0
 11
42.274920
 21
93.512560
 31
0.0
  0
LINE
  5
1a1
100
AcDbEntity
  8
Layer_1
 62
7
100
AcDbLine
 10
42.274920
 20
93.512560
 30
0.0
 11
40.324920
 21
93.500080
 31
0.0
  0
LINE
  5
1a2
100
AcDbEntity
  8
Layer_1
 62
7
100
AcDbLine
 10
40.324920
 20
93.500080
 30
0.0
 11
37.197392
 21
93.390976
 31
0.0
  0
LINE
  5
1a3
100
AcDbEntity
  8
Layer_1
 62
7
100
AcDbLine
 10
37.197392
 20
93.390976
 30
0.0
 11
35.274920
 21
93.150080
 31
0.0
  0
LINE
  5
1a4
100
AcDbEntity
  8
Layer_1
 62
7
100
AcDbLine
 10
35.274920
 20
93.150080
 30
0.0
 11
32.876120
 21
91.623120
 31
0.0
  0
LINE
  5
1a5
100
AcDbEntity
  8
Layer_1
 62
7
100
AcDbLine
 10
32.876120
 20
91.623120
 30
0.0
 11
30.899920
 21
88.900080
 31
0.0
  0
LINE
  5
1a6
100
AcDbEntity
  8
Layer_1
 62
7
100
AcDbLine
 10
30.899920
 20
88.900080
 30
0.0
 11
29.456720
 21
84.180704
 31
0.0
  0
LINE
  5
1a7
100
AcDbEntity
  8
Layer_1
 62
7
100
AcDbLine
 10
29.456720
 20
84.180704
 30
0.0
 11
31.074920
 21
78.250080
 31
0.0
  0
LINE
  5
1a8
100
AcDbEntity
  8
Layer_1
 62
7
100
AcDbLine
 10
31.074920
 20
78.250080
 30
0.0
 11
33.914776
 21
75.053560
 31
0.0
  0
LINE
  5
1a9
100
AcDbEntity
  8
Layer_1
 62
7
100
AcDbLine
 10
33.914776
 20
75.053560
 30
0.0
 11
37.524920
 21
73.275080
 31
0.0
  0
LINE
  5
1aa
100
AcDbEntity
  8
Layer_1
 62
7
100
AcDbLine
 10
37.524920
 20
73.275080
 30
0.0
 11
38.269344
 21
73.210680
 31
0.0
  0
LINE
  5
1ab
100
AcDbEntity
  8
Layer_1
 62
7
100
AcDbLine
 10
38.269344
 20
73.210680
 30
0.0
 11
38.924920
 21
73.050072
 31
0.0
  0
LINE
  5
1ac
100
AcDbEntity
  8
Layer_1
 62
7
100
AcDbLine
 10
38.924920
 20
73.050072
 30
0.0
 11
39.967848
 21
72.792112
 31
0.0
  0
LINE
  5
1ad
100
AcDbEntity
  8
Layer_1
 62
7
100
AcDbLine
 10
39.967848
 20
72.792112
 30
0.0
 11
41.624920
 21
72.500072
 31
0.0
  0
LINE
  5
1ae
100
AcDbEntity
  8
Layer_1
 62
7
100
AcDbLine
 10
41.624920
 20
72.500072
 30
0.0
 11
44.221784
 21
71.853072
 31
0.0
  0
LINE
  5
1af
100
AcDbEntity
  8
Layer_1
 62
7
100
AcDbLine
 10
44.221784
 20
71.853072
 30
0.0
 11
44.624920
 21
70.175072
 31
0.0
  0
LINE
  5
1b0
100
AcDbEntity
  8
Layer_1
 62
7
100
AcDbLine
 10
44.624920
 20
70.175072
 30
0.0
 11
44.521728
 21
68.894928
 31
0.0
  0
LINE
  5
1b1
100
AcDbEntity
  8
Layer_1
 62
7
100
AcDbLine
 10
44.521728
 20
68.894928
 30
0.0
 11
44.149920
 21
68.225072
 31
0.0
  0
LINE
  5
1b2
100
AcDbEntity
  8
Layer_1
 62
7
100
AcDbLine
 10
44.149920
 20
68.225072
 30
0.0
 11
43.933040
 21
68.042336
 31
0.0
  0
LINE
  5
1b3
100
AcDbEntity
  8
Layer_1
 62
7
100
AcDbLine
 10
43.933040
 20
68.042336
 30
0.0
 11
43.649920
 21
67.800072
 31
0.0
  0
LINE
  5
1b4
100
AcDbEntity
  8
Layer_1
 62
7
100
AcDbLine
 10
43.649920
 20
67.800072
 30
0.0
 11
38.971360
 21
69.494904
 31
0.0
  0
LINE
  5
1b5
100
AcDbEntity
  8
Layer_1
 62
7
100
AcDbLine
 10
38.971360
 20
69.494904
 30
0.0
 11
34.684928
 21
71.896808
 31
0.0
  0
LINE
  5
1b6
100
AcDbEntity
  8
Layer_1
 62
7
100
AcDbLine
 10
34.684928
 20
71.896808
 30
0.0
 11
30.862040
 21
74.934688
 31
0.0
  0
LINE
  5
1b7
100
AcDbEntity
  8
Layer_1
 62
7
100
AcDbLine
 10
30.862040
 20
74.934688
 30
0.0
 11
27.574096
 21
78.537432
 31
0.0
  0
LINE
  5
1b8
100
AcDbEntity
  8
Layer_1
 62
7
100
AcDbLine
 10
27.574096
 20
78.537432
 30
0.0
 11
24.892504
 21
82.633952
 31
0.0
  0
LINE
  5
1b9
100
AcDbEntity
  8
Layer_1
 62
7
100
AcDbLine
 10
24.892504
 20
82.633952
 30
0.0
 11
22.888672
 21
87.153128
 31
0.0
  0
LINE
  5
1ba
100
AcDbEntity
  8
Layer_1
 62
7
100
AcDbLine
 10
22.888672
 20
87.153128
 30
0.0
 11
21.634008
 21
92.023872
 31
0.0
  0
LINE
  5
1bb
100
AcDbEntity
  8
Layer_1
 62
7
100
AcDbLine
 10
21.634008
 20
92.023872
 30
0.0
 11
21.199920
 21
97.175072
 31
0.0
  0
LINE
  5
1bc
100
AcDbEntity
  8
Layer_1
 62
7
100
AcDbLine
 10
21.199920
 20
97.175072
 30
0.0
 11
21.818560
 21
103.311800
 31
0.0
  0
LINE
  5
1bd
100
AcDbEntity
  8
Layer_1
 62
7
100
AcDbLine
 10
21.818560
 20
103.311800
 30
0.0
 11
23.592832
 21
109.027576
 31
0.0
  0
LINE
  5
1be
100
AcDbEntity
  8
Layer_1
 62
7
100
AcDbLine
 10
23.592832
 20
109.027576
 30
0.0
 11
26.400304
 21
114.199944
 31
0.0
  0
LINE
  5
1bf
100
AcDbEntity
  8
Layer_1
 62
7
100
AcDbLine
 10
26.400304
 20
114.199944
 30
0.0
 11
30.118528
 21
118.706464
 31
0.0
  0
LINE
  5
1c0
100
AcDbEntity
  8
Layer_1
 62
7
100
AcDbLine
 10
30.118528
 20
118.706464
 30
0.0
 11
34.625040
 21
122.424688
 31
0.0
  0
LINE
  5
1c1
100
AcDbEntity
  8
Layer_1
 62
7
100
AcDbLine
 10
34.625040
 20
122.424688
 30
0.0
 11
39.797416
 21
125.232160
 31
0.0
  0
LINE
  5
1c2
100
AcDbEntity
  8
Layer_1
 62
7
100
AcDbLine
 10
39.797416
 20
125.232160
 30
0.0
 11
45.513184
 21
127.006432
 31
0.0
  0
LINE
  5
1c3
100
AcDbEntity
  8
Layer_1
 62
7
100
AcDbLine
 10
45.513184
 20
127.006432
 30
0.0
 11
51.649920
 21
127.625072
 31
0.0
  0
LINE
  5
1c4
100
AcDbEntity
  8
Layer_1
 62
7
100
AcDbLine
 10
51.649920
 20
127.625072
 30
0.0
 11
51.649936
 21
127.625056
 31
0.0
  0
LINE
  5
1c5
100
AcDbEntity
  8
Layer_1
 62
7
100
AcDbLine
 10
51.649936
 20
127.625056
 30
0.0
 11
51.650000
 21
127.625000
 31
0.0
  0
LINE
  5
1c6
100
AcDbEntity
  8
Layer_1
 62
7
100
AcDbLine
 10
55.300000
 20
124.550000
 30
0.0
 11
54.860968
 21
124.528320
 31
0.0
  0
LINE
  5
1c7
100
AcDbEntity
  8
Layer_1
 62
7
100
AcDbLine
 10
54.860968
 20
124.528320
 30
0.0
 11
54.475000
 21
124.450000
 31
0.0
  0
LINE
  5
1c8
100
AcDbEntity
  8
Layer_1
 62
7
100
AcDbLine
 10
54.475000
 20
124.450000
 30
0.0
 11
53.078328
 21
123.612736
 31
0.0
  0
LINE
  5
1c9
100
AcDbEntity
  8
Layer_1
 62
7
100
AcDbLine
 10
53.078328
 20
123.612736
 30
0.0
 11
52.525000
 21
122.075000
 31
0.0
  0
LINE
  5
1ca
100
AcDbEntity
  8
Layer_1
 62
7
100
AcDbLine
 10
52.525000
 20
122.075000
 30
0.0
 11
52.357712
 21
121.180288
 31
0.0
  0
LINE
  5
1cb
100
AcDbEntity
  8
Layer_1
 62
7
100
AcDbLine
 10
52.357712
 20
121.180288
 30
0.0
 11
52.150000
 21
120.625000
 31
0.0
  0
LINE
  5
1cc
100
AcDbEntity
  8
Layer_1
 62
7
100
AcDbLine
 10
52.150000
 20
120.625000
 30
0.0
 11
52.000112
 21
120.307992
 31
0.0
  0
LINE
  5
1cd
100
AcDbEntity
  8
Layer_1
 62
7
100
AcDbLine
 10
52.000112
 20
120.307992
 30
0.0
 11
51.974992
 21
119.975000
 31
0.0
  0
LINE
  5
1ce
100
AcDbEntity
  8
Layer_1
 62
7
100
AcDbLine
 10
51.974992
 20
119.975000
 30
0.0
 11
51.953872
 21
119.264272
 31
0.0
  0
LINE
  5
1cf
100
AcDbEntity
  8
Layer_1
 62
7
100
AcDbLine
 10
51.953872
 20
119.264272
 30
0.0
 11
51.824992
 21
118.050000
 31
0.0
  0
LINE
  5
1d0
100
AcDbEntity
  8
Layer_1
 62
7
100
AcDbLine
 10
51.824992
 20
118.050000
 30
0.0
 11
51.670072
 21
116.819776
 31
0.0
  0
LINE
  5
1d1
100
AcDbEntity
  8
Layer_1
 62
7
100
AcDbLine
 10
51.670072
 20
116.819776
 30
0.0
 11
51.574992
 21
116.050000
 31
0.0
  0
LINE
  5
1d2
100
AcDbEntity
  8
Layer_1
 62
7
100
AcDbLine
 10
51.574992
 20
116.050000
 30
0.0
 11
51.475872
 21
115.681944
 31
0.0
  0
LINE
  5
1d3
100
AcDbEntity
  8
Layer_1
 62
7
100
AcDbLine
 10
51.475872
 20
115.681944
 30
0.0
 11
51.324992
 21
115.425000
 31
0.0
  0
LINE
  5
1d4
100
AcDbEntity
  8
Layer_1
 62
7
100
AcDbLine
 10
51.324992
 20
115.425000
 30
0.0
 11
51.143008
 21
111.084432
 31
0.0
  0
LINE
  5
1d5
100
AcDbEntity
  8
Layer_1
 62
7
100
AcDbLine
 10
51.143008
 20
111.084432
 30
0.0
 11
51.399952
 21
106.825000
 31
0.0
  0
LINE
  5
1d6
100
AcDbEntity
  8
Layer_1
 62
7
100
AcDbLine
 10
51.399952
 20
106.825000
 30
0.0
 11
51.591296
 21
106.589376
 31
0.0
  0
LINE
  5
1d7
100
AcDbEntity
  8
Layer_1
 62
7
100
AcDbLine
 10
51.591296
 20
106.589376
 30
0.0
 11
51.674952
 21
106.250000
 31
0.0
  0
LINE
  5
1d8
100
AcDbEntity
  8
Layer_1
 62
7
100
AcDbLine
 10
51.674952
 20
106.250000
 30
0.0
 11
52.287992
 21
104.630888
 31
0.0
  0
LINE
  5
1d9
100
AcDbEntity
  8
Layer_1
 62
7
100
AcDbLine
 10
52.287992
 20
104.630888
 30
0.0
 11
53.424952
 21
103.000000
 31
0.0
  0
LINE
  5
1da
100
AcDbEntity
  8
Layer_1
 62
7
100
AcDbLine
 10
53.424952
 20
103.000000
 30
0.0
 11
54.157048
 21
102.490784
 31
0.0
  0
LINE
  5
1db
100
AcDbEntity
  8
Layer_1
 62
7
100
AcDbLine
 10
54.157048
 20
102.490784
 30
0.0
 11
55.024952
 21
102.100000
 31
0.0
  0
LINE
  5
1dc
100
AcDbEntity
  8
Layer_1
 62
7
100
AcDbLine
 10
55.024952
 20
102.100000
 30
0.0
 11
56.720424
 21
102.010600
 31
0.0
  0
LINE
  5
1dd
100
AcDbEntity
  8
Layer_1
 62
7
100
AcDbLine
 10
56.720424
 20
102.010600
 30
0.0
 11
58.674952
 21
103.525000
 31
0.0
  0
LINE
  5
1de
100
AcDbEntity
  8
Layer_1
 62
7
100
AcDbLine
 10
58.674952
 20
103.525000
 30
0.0
 11
60.549152
 21
105.970160
 31
0.0
  0
LINE
  5
1df
100
AcDbEntity
  8
Layer_1
 62
7
100
AcDbLine
 10
60.549152
 20
105.970160
 30
0.0
 11
61.574952
 21
109.325000
 31
0.0
  0
LINE
  5
1e0
100
AcDbEntity
  8
Layer_1
 62
7
100
AcDbLine
 10
61.574952
 20
109.325000
 30
0.0
 11
62.974600
 21
117.823568
 31
0.0
  0
LINE
  5
1e1
100
AcDbEntity
  8
Layer_1
 62
7
100
AcDbLine
 10
62.974600
 20
117.823568
 30
0.0
 11
62.474952
 21
121.000000
 31
0.0
  0
LINE
  5
1e2
100
AcDbEntity
  8
Layer_1
 62
7
100
AcDbLine
 10
62.474952
 20
121.000000
 30
0.0
 11
59.182960
 21
123.475208
 31
0.0
  0
LINE
  5
1e3
100
AcDbEntity
  8
Layer_1
 62
7
100
AcDbLine
 10
59.182960
 20
123.475208
 30
0.0
 11
55.299952
 21
124.550000
 31
0.0
  0
LINE
  5
1e4
100
AcDbEntity
  8
Layer_1
 62
7
100
AcDbLine
 10
55.299952
 20
124.550000
 30
0.0
 11
55.299968
 21
124.550000
 31
0.0
  0
LINE
  5
1e5
100
AcDbEntity
  8
Layer_1
 62
7
100
AcDbLine
 10
55.299968
 20
124.550000
 30
0.0
 11
55.300000
 21
124.550000
 31
0.0
  0
LINE
  5
1e6
100
AcDbEntity
  8
Layer_1
 62
7
100
AcDbLine
 10
47.475000
 20
123.925000
 30
0.0
 11
44.814272
 21
122.974376
 31
0.0
  0
LINE
  5
1e7
100
AcDbEntity
  8
Layer_1
 62
7
100
AcDbLine
 10
44.814272
 20
122.974376
 30
0.0
 11
41.650000
 21
120.775000
 31
0.0
  0
LINE
  5
1e8
100
AcDbEntity
  8
Layer_1
 62
7
100
AcDbLine
 10
41.650000
 20
120.775000
 30
0.0
 11
40.340848
 21
119.643184
 31
0.0
  0
LINE
  5
1e9
100
AcDbEntity
  8
Layer_1
 62
7
100
AcDbLine
 10
40.340848
 20
119.643184
 30
0.0
 11
39.600000
 21
119.050000
 31
0.0
  0
LINE
  5
1ea
100
AcDbEntity
  8
Layer_1
 62
7
100
AcDbLine
 10
39.600000
 20
119.050000
 30
0.0
 11
38.470832
 21
116.732104
 31
0.0
  0
LINE
  5
1eb
100
AcDbEntity
  8
Layer_1
 62
7
100
AcDbLine
 10
38.470832
 20
116.732104
 30
0.0
 11
38.650000
 21
114.350000
 31
0.0
  0
LINE
  5
1ec
100
AcDbEntity
  8
Layer_1
 62
7
100
AcDbLine
 10
38.650000
 20
114.350000
 30
0.0
 11
38.892976
 21
113.466792
 31
0.0
  0
LINE
  5
1ed
100
AcDbEntity
  8
Layer_1
 62
7
100
AcDbLine
 10
38.892976
 20
113.466792
 30
0.0
 11
39.075000
 21
111.750000
 31
0.0
  0
LINE
  5
1ee
100
AcDbEntity
  8
Layer_1
 62
7
100
AcDbLine
 10
39.075000
 20
111.750000
 30
0.0
 11
39.226960
 21
110.088160
 31
0.0
  0
LINE
  5
1ef
100
AcDbEntity
  8
Layer_1
 62
7
100
AcDbLine
 10
39.226960
 20
110.088160
 30
0.0
 11
39.400000
 21
109.325000
 31
0.0
  0
LINE
  5
1f0
100
AcDbEntity
  8
Layer_1
 62
7
100
AcDbLine
 10
39.400000
 20
109.325000
 30
0.0
 11
39.629824
 21
108.361104
 31
0.0
  0
LINE
  5
1f1
100
AcDbEntity
  8
Layer_1
 62
7
100
AcDbLine
 10
39.629824
 20
108.361104
 30
0.0
 11
39.900000
 21
106.225000
 31
0.0
  0
LINE
  5
1f2
100
AcDbEntity
  8
Layer_1
 62
7
100
AcDbLine
 10
39.900000
 20
106.225000
 30
0.0
 11
40.565144
 21
102.687808
 31
0.0
  0
LINE
  5
1f3
100
AcDbEntity
  8
Layer_1
 62
7
100
AcDbLine
 10
40.565144
 20
102.687808
 30
0.0
 11
42.025000
 21
101.150000
 31
0.0
  0
LINE
  5
1f4
100
AcDbEntity
  8
Layer_1
 62
7
100
AcDbLine
 10
42.025000
 20
101.150000
 30
0.0
 11
43.981368
 21
100.713992
 31
0.0
  0
LINE
  5
1f5
100
AcDbEntity
  8
Layer_1
 62
7
100
AcDbLine
 10
43.981368
 20
100.713992
 30
0.0
 11
45.500000
 21
101.100000
 31
0.0
  0
LINE
  5
1f6
100
AcDbEntity
  8
Layer_1
 62
7
100
AcDbLine
 10
45.500000
 20
101.100000
 30
0.0
 11
45.822256
 21
101.547752
 31
0.0
  0
LINE
  5
1f7
100
AcDbEntity
  8
Layer_1
 62
7
100
AcDbLine
 10
45.822256
 20
101.547752
 30
0.0
 11
46.050000
 21
102.075000
 31
0.0
  0
LINE
  5
1f8
100
AcDbEntity
  8
Layer_1
 62
7
100
AcDbLine
 10
46.050000
 20
102.075000
 30
0.0
 11
46.236752
 21
102.638144
 31
0.0
  0
LINE
  5
1f9
100
AcDbEntity
  8
Layer_1
 62
7
100
AcDbLine
 10
46.236752
 20
102.638144
 30
0.0
 11
46.450000
 21
103.175000
 31
0.0
  0
LINE
  5
1fa
100
AcDbEntity
  8
Layer_1
 62
7
100
AcDbLine
 10
46.450000
 20
103.175000
 30
0.0
 11
46.880992
 21
104.700024
 31
0.0
  0
LINE
  5
1fb
100
AcDbEntity
  8
Layer_1
 62
7
100
AcDbLine
 10
46.880992
 20
104.700024
 30
0.0
 11
47.600000
 21
107.625000
 31
0.0
  0
LINE
  5
1fc
100
AcDbEntity
  8
Layer_1
 62
7
100
AcDbLine
 10
47.600000
 20
107.625000
 30
0.0
 11
49.914920
 21
118.031944
 31
0.0
  0
LINE
  5
1fd
100
AcDbEntity
  8
Layer_1
 62
7
100
AcDbLine
 10
49.914920
 20
118.031944
 30
0.0
 11
49.725000
 21
121.300000
 31
0.0
  0
LINE
  5
1fe
100
AcDbEntity
  8
Layer_1
 62
7
100
AcDbLine
 10
49.725000
 20
121.300000
 30
0.0
 11
48.728456
 21
123.295192
 31
0.0
  0
LINE
  5
1ff
100
AcDbEntity
  8
Layer_1
 62
7
100
AcDbLine
 10
48.728456
 20
123.295192
 30
0.0
 11
47.475000
 21
123.925000
 31
0.0
  0
LINE
  5
200
100
AcDbEntity
  8
Layer_1
 62
7
100
AcDbLine
 10
34.925000
 20
115.850000
 30
0.0
 11
34.111048
 21
115.726256
 31
0.0
  0
LINE
  5
201
100
AcDbEntity
  8
Layer_1
 62
7
100
AcDbLine
 10
34.111048
 20
115.726256
 30
0.0
 11
33.525000
 21
115.500000
 31
0.0
  0
LINE
  5
202
100
AcDbEntity
  8
Layer_1
 62
7
100
AcDbLine
 10
33.525000
 20
115.500000
 30
0.0
 11
32.968272
 21
115.197960
 31
0.0
  0
LINE
  5
203
100
AcDbEntity
  8
Layer_1
 62
7
100
AcDbLine
 10
32.968272
 20
115.197960
 30
0.0
 11
32.350000
 21
114.975000
 31
0.0
  0
LINE
  5
204
100
AcDbEntity
  8
Layer_1
 62
7
100
AcDbLine
 10
32.350000
 20
114.975000
 30
0.0
 11
30.395352
 21
113.792560
 31
0.0
  0
LINE
  5
205
100
AcDbEntity
  8
Layer_1
 62
7
100
AcDbLine
 10
30.395352
 20
113.792560
 30
0.0
 11
28.775000
 21
112.075000
 31
0.0
  0
LINE
  5
206
100
AcDbEntity
  8
Layer_1
 62
7
100
AcDbLine
 10
28.775000
 20
112.075000
 30
0.0
 11
28.236640
 21
106.198512
 31
0.0
  0
LINE
  5
207
100
AcDbEntity
  8
Layer_1
 62
7
100
AcDbLine
 10
28.236640
 20
106.198512
 30
0.0
 11
28.600000
 21
99.675000
 31
0.0
  0
LINE
  5
208
100
AcDbEntity
  8
Layer_1
 62
7
100
AcDbLine
 10
28.600000
 20
99.675000
 30
0.0
 11
30.383536
 21
96.476400
 31
0.0
  0
LINE
  5
209
100
AcDbEntity
  8
Layer_1
 62
7
100
AcDbLine
 10
30.383536
 20
96.476400
 30
0.0
 11
33.800000
 21
94.975000
 31
0.0
  0
LINE
  5
20a
100
AcDbEntity
  8
Layer_1
 62
7
100
AcDbLine
 10
33.800000
 20
94.975000
 30
0.0
 11
35.665112
 21
94.735168
 31
0.0
  0
LINE
  5
20b
100
AcDbEntity
  8
Layer_1
 62
7
100
AcDbLine
 10
35.665112
 20
94.735168
 30
0.0
 11
36.925000
 21
94.850000
 31
0.0
  0
LINE
  5
20c
100
AcDbEntity
  8
Layer_1
 62
7
100
AcDbLine
 10
36.925000
 20
94.850000
 30
0.0
 11
38.176544
 21
98.348704
 31
0.0
  0
LINE
  5
20d
100
AcDbEntity
  8
Layer_1
 62
7
100
AcDbLine
 10
38.176544
 20
98.348704
 30
0.0
 11
37.975000
 21
104.750000
 31
0.0
  0
LINE
  5
20e
100
AcDbEntity
  8
Layer_1
 62
7
100
AcDbLine
 10
37.975000
 20
104.750000
 30
0.0
 11
37.612616
 21
107.517792
 31
0.0
  0
LINE
  5
20f
100
AcDbEntity
  8
Layer_1
 62
7
100
AcDbLine
 10
37.612616
 20
107.517792
 30
0.0
 11
37.325000
 21
110.500000
 31
0.0
  0
LINE
  5
210
100
AcDbEntity
  8
Layer_1
 62
7
100
AcDbLine
 10
37.325000
 20
110.500000
 30
0.0
 11
37.074136
 21
112.729128
 31
0.0
  0
LINE
  5
211
100
AcDbEntity
  8
Layer_1
 62
7
100
AcDbLine
 10
37.074136
 20
112.729128
 30
0.0
 11
36.825000
 21
113.700000
 31
0.0
  0
LINE
  5
212
100
AcDbEntity
  8
Layer_1
 62
7
100
AcDbLine
 10
36.825000
 20
113.700000
 30
0.0
 11
36.699384
 21
113.904432
 31
0.0
  0
LINE
  5
213
100
AcDbEntity
  8
Layer_1
 62
7
100
AcDbLine
 10
36.699384
 20
113.904432
 30
0.0
 11
36.724984
 21
114.275000
 31
0.0
  0
LINE
  5
214
100
AcDbEntity
  8
Layer_1
 62
7
100
AcDbLine
 10
36.724984
 20
114.275000
 30
0.0
 11
36.480728
 21
115.420968
 31
0.0
  0
LINE
  5
215
100
AcDbEntity
  8
Layer_1
 62
7
100
AcDbLine
 10
36.480728
 20
115.420968
 30
0.0
 11
35.149984
 21
115.850000
 31
0.0
  0
LINE
  5
216
100
AcDbEntity
  8
Layer_1
 62
7
100
AcDbLine
 10
35.149984
 20
115.850000
 30
0.0
 11
35.038480
 21
115.851600
 31
0.0
  0
LINE
  5
217
100
AcDbEntity
  8
Layer_1
 62
7
100
AcDbLine
 10
35.038480
 20
115.851600
 30
0.0
 11
34.924984
 21
115.850000
 31
0.0
  0
LINE
  5
218
100
AcDbEntity
  8
Layer_1
 62
7
100
AcDbLine
 10
34.924984
 20
115.850000
 30
0.0
 11
34.925000
 21
115.850000
 31
0.0
  0
ENDSEC
  0
SECTION
  2
OBJECTS
  0
DICTIONARY
  5
C
330
0
100
AcDbDictionary
  3
ACAD_GROUP
350
D
  3
ACAD_MLINESTYLE
350
17
  0
DICTIONARY
  5
D
330
C
100
AcDbDictionary
  0
DICTIONARY
  5
1A
330
C
100
AcDbDictionary
  0
DICTIONARY
  5
17
330
C
100
AcDbDictionary
  3
STANDARD
350
18
  0
DICTIONARY
  5
19
330
C
100
AcDbDictionary
  0
ENDSEC
  0
EOF
