  0
SECTION
  2
HEADER
  9
$ACADVER
  1
AC1014
  9
$HANDSEED
  5
FFFF
  9
$MEASUREMENT
 70
     1
  0
ENDSEC
  0
SECTION
  2
TABLES
  0
TABLE
  2
VPORT
  5
8
330
0
100
AcDbSymbolTable
 70
     4
  0
VPORT
  5
2E
330
8
100
AcDbSymbolTableRecord
100
AcDbViewportTableRecord
  2
*ACTIVE
 70
     0
 10
0.0
 20
0.0
 11
1.0
 21
1.0
 12
210.0
 22
148.5
 13
0.0
 23
0.0
 14
10.0
 24
10.0
 15
10.0
 25
10.0
 16
0.0
 26
0.0
 36
1.0
 17
0.0
 27
0.0
 37
0.0
 40
341.0
 41
1.24
 42
50.0
 43
0.0
 44
0.0
 50
0.0
 51
0.0
 71
     0
 72
   100
 73
     1
 74
     3
 75
     0
 76
     0
 77
     0
 78
     0
  0
ENDTAB
  0
TABLE
  2
LTYPE
  5
5
330
0
100
AcDbSymbolTable
 70
     1
  0
LTYPE
  5
14
330
5
100
AcDbSymbolTableRecord
100
AcDbLinetypeTableRecord
  2
BYBLOCK
 70
     0
  3

 72
    65
 73
     0
 40
0.0
  0
LTYPE
  5
15
330
5
100
AcDbSymbolTableRecord
100
AcDbLinetypeTableRecord
  2
BYLAYER
 70
     0
  3

 72
    65
 73
     0
 40
0.0
  0
LTYPE
  5
16
330
5
100
AcDbSymbolTableRecord
100
AcDbLinetypeTableRecord
  2
CONTINUOUS
 70
     0
  3
Solid line
 72
    65
 73
     0
 40
0.0
  0
ENDTAB
  0
TABLE
  2
LAYER
  5
2
100
AcDbSymbolTable
 70
2
  0
LAYER
  5
50
100
AcDbSymbolTableRecord
100
AcDbLayerTableRecord
  2
0
 70
0
  6
CONTINUOUS
  0
LAYER
  5
51
100
AcDbSymbolTableRecord
100
AcDbLayerTableRecord
  2
Layer_1
 70
0
  6
CONTINUOUS
  0
ENDTAB
  0
TABLE
  2
STYLE
  5
3
330
0
100
AcDbSymbolTable
 70
     1
  0
STYLE
  5
11
330
3
100
AcDbSymbolTableRecord
100
AcDbTextStyleTableRecord
  2
STANDARD
 70
     0
 40
0.0
 41
1.0
 50
0.0
 71
     0
 42
2.5
  3
txt
  4

  0
ENDTAB
  0
TABLE
  2
VIEW
  5
6
330
0
100
AcDbSymbolTable
 70
     0
  0
ENDTAB
  0
TABLE
  2
UCS
  5
7
330
0
100
AcDbSymbolTable
 70
     0
  0
ENDTAB
  0
TABLE
  2
APPID
  5
9
330
0
100
AcDbSymbolTable
 70
     2
  0
APPID
  5
12
330
9
100
AcDbSymbolTableRecord
100
AcDbRegAppTableRecord
  2
ACAD
 70
     0
  0
ENDTAB
  0
TABLE
  2
DIMSTYLE
  5
A
330
0
100
AcDbSymbolTable
 70
     1
  0
DIMSTYLE
105
27
330
A
100
AcDbSymbolTableRecord
100
AcDbDimStyleTableRecord
  2
ISO-25
 70
     0
  3

  4

  5

  6

  7

 40
1.0
 41
2.5
 42
0.625
 43
3.75
 44
1.25
 45
0.0
 46
0.0
 47
0.0
 48
0.0
140
2.5
141
2.5
142
0.0
143
0.03937007874016
144
1.0
145
0.0
146
1.0
147
0.625
 71
     0
 72
     0
 73
     0
 74
     0
 75
     0
 76
     0
 77
     1
 78
     8
170
     0
171
     3
172
     1
173
     0
174
     0
175
     0
176
     0
177
     0
178
     0
270
     2
271
     2
272
     2
273
     2
274
     3
340
11
275
     0
280
     0
281
     0
282
     0
283
     0
284
     8
285
     0
286
     0
287
     3
288
     0
  0
ENDTAB
  0
TABLE
  2
BLOCK_RECORD
  5
1
330
0
100
AcDbSymbolTable
 70
     1
  0
BLOCK_RECORD
  5
1F
330
1
100
AcDbSymbolTableRecord
100
AcDbBlockTableRecord
  2
*MODEL_SPACE
  0
BLOCK_RECORD
  5
1B
330
1
100
AcDbSymbolTableRecord
100
AcDbBlockTableRecord
  2
*PAPER_SPACE
  0
ENDTAB
  0
ENDSEC
  0
SECTION
  2
BLOCKS
  0
BLOCK
  5
20
330
1F
100
AcDbEntity
  8
0
100
AcDbBlockBegin
  2
*MODEL_SPACE
 70
     0
 10
0.0
 20
0.0
 30
0.0
  3
*MODEL_SPACE
  1

  0
ENDBLK
  5
21
330
1F
100
AcDbEntity
  8
0
100
AcDbBlockEnd
  0
BLOCK
  5
1C
330
1B
100
AcDbEntity
 67
     1
  8
0
100
AcDbBlockBegin
  2
*PAPER_SPACE
  1

  0
ENDBLK
  5
1D
330
1B
100
AcDbEntity
 67
     1
  8
0
100
AcDbBlockEnd
  0
ENDSEC
  0
SECTION
  2
ENTITIES
  0
LINE
  5
100
100
AcDbEntity
  8
Layer_1
 62
1
100
AcDbLine
 10
51.650000
 20
166.425000
 30
0.0
 11
48.647720
 21
166.122200
 31
0.0
  0
LINE
  5
101
100
AcDbEntity
  8
Layer_1
 62
1
100
AcDbLine
 10
48.647720
 20
166.122200
 30
0.0
 11
45.851112
 21
165.253800
 31
0.0
  0
LINE
  5
102
100
AcDbEntity
  8
Layer_1
 62
1
100
AcDbLine
 10
45.851112
 20
165.253800
 30
0.0
 11
43.320168
 21
163.879776
 31
0.0
  0
LINE
  5
103
100
AcDbEntity
  8
Layer_1
 62
1
100
AcDbLine
 10
43.320168
 20
163.879776
 30
0.0
 11
41.114872
 21
162.060128
 31
0.0
  0
LINE
  5
104
100
AcDbEntity
  8
Layer_1
 62
1
100
AcDbLine
 10
41.114872
 20
162.060128
 30
0.0
 11
39.295224
 21
159.854832
 31
0.0
  0
LINE
  5
105
100
AcDbEntity
  8
Layer_1
 62
1
100
AcDbLine
 10
39.295224
 20
159.854832
 30
0.0
 11
37.921200
 21
157.323888
 31
0.0
  0
LINE
  5
106
100
AcDbEntity
  8
Layer_1
 62
1
100
AcDbLine
 10
37.921200
 20
157.323888
 30
0.0
 11
37.052800
 21
154.527280
 31
0.0
  0
LINE
  5
107
100
AcDbEntity
  8
Layer_1
 62
1
100
AcDbLine
 10
37.052800
 20
154.527280
 30
0.0
 11
36.750000
 21
151.525000
 31
0.0
  0
LINE
  5
108
100
AcDbEntity
  8
Layer_1
 62
1
100
AcDbLine
 10
36.750000
 20
151.525000
 30
0.0
 11
36.764080
 21
150.893888
 31
0.0
  0
LINE
  5
109
100
AcDbEntity
  8
Layer_1
 62
1
100
AcDbLine
 10
36.764080
 20
150.893888
 30
0.0
 11
36.805680
 21
150.270256
 31
0.0
  0
LINE
  5
10a
100
AcDbEntity
  8
Layer_1
 62
1
100
AcDbLine
 10
36.805680
 20
150.270256
 30
0.0
 11
36.873760
 21
149.654352
 31
0.0
  0
LINE
  5
10b
100
AcDbEntity
  8
Layer_1
 62
1
100
AcDbLine
 10
36.873760
 20
149.654352
 30
0.0
 11
36.967296
 21
149.046440
 31
0.0
  0
LINE
  5
10c
100
AcDbEntity
  8
Layer_1
 62
1
100
AcDbLine
 10
36.967296
 20
149.046440
 30
0.0
 11
37.085216
 21
148.446792
 31
0.0
  0
LINE
  5
10d
100
AcDbEntity
  8
Layer_1
 62
1
100
AcDbLine
 10
37.085216
 20
148.446792
 30
0.0
 11
37.226496
 21
147.855664
 31
0.0
  0
LINE
  5
10e
100
AcDbEntity
  8
Layer_1
 62
1
100
AcDbLine
 10
37.226496
 20
147.855664
 30
0.0
 11
37.390080
 21
147.273312
 31
0.0
  0
LINE
  5
10f
100
AcDbEntity
  8
Layer_1
 62
1
100
AcDbLine
 10
37.390080
 20
147.273312
 30
0.0
 11
37.574936
 21
146.700000
 31
0.0
  0
LINE
  5
110
100
AcDbEntity
  8
Layer_1
 62
1
100
AcDbLine
 10
37.574936
 20
146.700000
 30
0.0
 11
29.817920
 21
143.781960
 31
0.0
  0
LINE
  5
111
100
AcDbEntity
  8
Layer_1
 62
1
100
AcDbLine
 10
29.817920
 20
143.781960
 30
0.0
 11
22.715416
 21
139.703512
 31
0.0
  0
LINE
  5
112
100
AcDbEntity
  8
Layer_1
 62
1
100
AcDbLine
 10
22.715416
 20
139.703512
 30
0.0
 11
16.384488
 21
134.581376
 31
0.0
  0
LINE
  5
113
100
AcDbEntity
  8
Layer_1
 62
1
100
AcDbLine
 10
16.384488
 20
134.581376
 30
0.0
 11
10.942168
 21
128.532256
 31
0.0
  0
LINE
  5
114
100
AcDbEntity
  8
Layer_1
 62
1
100
AcDbLine
 10
10.942168
 20
128.532256
 30
0.0
 11
6.505512
 21
121.672848
 31
0.0
  0
LINE
  5
115
100
AcDbEntity
  8
Layer_1
 62
1
100
AcDbLine
 10
6.505512
 20
121.672848
 30
0.0
 11
3.191552
 21
114.119864
 31
0.0
  0
LINE
  5
116
100
AcDbEntity
  8
Layer_1
 62
1
100
AcDbLine
 10
3.191552
 20
114.119864
 30
0.0
 11
1.117352
 21
105.990016
 31
0.0
  0
LINE
  5
117
100
AcDbEntity
  8
Layer_1
 62
1
100
AcDbLine
 10
1.117352
 20
105.990016
 30
0.0
 11
0.399936
 21
97.400000
 31
0.0
  0
LINE
  5
118
100
AcDbEntity
  8
Layer_1
 62
1
100
AcDbLine
 10
0.399936
 20
97.400000
 30
0.0
 11
1.161976
 21
88.548016
 31
0.0
  0
LINE
  5
119
100
AcDbEntity
  8
Layer_1
 62
1
100
AcDbLine
 10
1.161976
 20
88.548016
 30
0.0
 11
3.362632
 21
80.191912
 31
0.0
  0
LINE
  5
11a
100
AcDbEntity
  8
Layer_1
 62
1
100
AcDbLine
 10
3.362632
 20
80.191912
 30
0.0
 11
6.873744
 21
72.459040
 31
0.0
  0
LINE
  5
11b
100
AcDbEntity
  8
Layer_1
 62
1
100
AcDbLine
 10
6.873744
 20
72.459040
 30
0.0
 11
11.567128
 21
65.476728
 31
0.0
  0
LINE
  5
11c
100
AcDbEntity
  8
Layer_1
 62
1
100
AcDbLine
 10
11.567128
 20
65.476728
 30
0.0
 11
17.314616
 21
59.372328
 31
0.0
  0
LINE
  5
11d
100
AcDbEntity
  8
Layer_1
 62
1
100
AcDbLine
 10
17.314616
 20
59.372328
 30
0.0
 11
23.988024
 21
54.273184
 31
0.0
  0
LINE
  5
11e
100
AcDbEntity
  8
Layer_1
 62
1
100
AcDbLine
 10
23.988024
 20
54.273184
 30
0.0
 11
31.459192
 21
50.306624
 31
0.0
  0
LINE
  5
11f
100
AcDbEntity
  8
Layer_1
 62
1
100
AcDbLine
 10
31.459192
 20
50.306624
 30
0.0
 11
39.599936
 21
47.600000
 31
0.0
  0
LINE
  5
120
100
AcDbEntity
  8
Layer_1
 62
1
100
AcDbLine
 10
39.599936
 20
47.600000
 30
0.0
 11
39.599936
 21
47.225000
 31
0.0
  0
LINE
  5
121
100
AcDbEntity
  8
Layer_1
 62
1
100
AcDbLine
 10
39.599936
 20
47.225000
 30
0.0
 11
39.599936
 21
46.850000
 31
0.0
  0
LINE
  5
122
100
AcDbEntity
  8
Layer_1
 62
1
100
AcDbLine
 10
39.599936
 20
46.850000
 30
0.0
 11
39.599936
 21
46.475000
 31
0.0
  0
LINE
  5
123
100
AcDbEntity
  8
Layer_1
 62
1
100
AcDbLine
 10
39.599936
 20
46.475000
 30
0.0
 11
39.599936
 21
46.100000
 31
0.0
  0
LINE
  5
124
100
AcDbEntity
  8
Layer_1
 62
1
100
AcDbLine
 10
39.599936
 20
46.100000
 30
0.0
 11
39.599936
 21
45.725000
 31
0.0
  0
LINE
  5
125
100
AcDbEntity
  8
Layer_1
 62
1
100
AcDbLine
 10
39.599936
 20
45.725000
 30
0.0
 11
39.599936
 21
45.350000
 31
0.0
  0
LINE
  5
126
100
AcDbEntity
  8
Layer_1
 62
1
100
AcDbLine
 10
39.599936
 20
45.350000
 30
0.0
 11
39.599936
 21
44.975000
 31
0.0
  0
LINE
  5
127
100
AcDbEntity
  8
Layer_1
 62
1
100
AcDbLine
 10
39.599936
 20
44.975000
 30
0.0
 11
39.599936
 21
44.600000
 31
0.0
  0
LINE
  5
128
100
AcDbEntity
  8
Layer_1
 62
1
100
AcDbLine
 10
39.599936
 20
44.600000
 30
0.0
 11
37.781184
 21
44.600000
 31
0.0
  0
LINE
  5
129
100
AcDbEntity
  8
Layer_1
 62
1
100
AcDbLine
 10
37.781184
 20
44.600000
 30
0.0
 11
35.962432
 21
44.600000
 31
0.0
  0
LINE
  5
12a
100
AcDbEntity
  8
Layer_1
 62
1
100
AcDbLine
 10
35.962432
 20
44.600000
 30
0.0
 11
34.143688
 21
44.600000
 31
0.0
  0
LINE
  5
12b
100
AcDbEntity
  8
Layer_1
 62
1
100
AcDbLine
 10
34.143688
 20
44.600000
 30
0.0
 11
32.324936
 21
44.600000
 31
0.0
  0
LINE
  5
12c
100
AcDbEntity
  8
Layer_1
 62
1
100
AcDbLine
 10
32.324936
 20
44.600000
 30
0.0
 11
30.506184
 21
44.600000
 31
0.0
  0
LINE
  5
12d
100
AcDbEntity
  8
Layer_1
 62
1
100
AcDbLine
 10
30.506184
 20
44.600000
 30
0.0
 11
28.687432
 21
44.600000
 31
0.0
  0
LINE
  5
12e
100
AcDbEntity
  8
Layer_1
 62
1
100
AcDbLine
 10
28.687432
 20
44.600000
 30
0.0
 11
26.868688
 21
44.600000
 31
0.0
  0
LINE
  5
12f
100
AcDbEntity
  8
Layer_1
 62
1
100
AcDbLine
 10
26.868688
 20
44.600000
 30
0.0
 11
25.049936
 21
44.600000
 31
0.0
  0
LINE
  5
130
100
AcDbEntity
  8
Layer_1
 62
1
100
AcDbLine
 10
25.049936
 20
44.600000
 30
0.0
 11
24.942040
 21
44.588560
 31
0.0
  0
LINE
  5
131
100
AcDbEntity
  8
Layer_1
 62
1
100
AcDbLine
 10
24.942040
 20
44.588560
 30
0.0
 11
24.842520
 21
44.555840
 31
0.0
  0
LINE
  5
132
100
AcDbEntity
  8
Layer_1
 62
1
100
AcDbLine
 10
24.842520
 20
44.555840
 30
0.0
 11
24.753208
 21
44.504320
 31
0.0
  0
LINE
  5
133
100
AcDbEntity
  8
Layer_1
 62
1
100
AcDbLine
 10
24.753208
 20
44.504320
 30
0.0
 11
24.676008
 21
44.436400
 31
0.0
  0
LINE
  5
134
100
AcDbEntity
  8
Layer_1
 62
1
100
AcDbLine
 10
24.676008
 20
44.436400
 30
0.0
 11
24.612728
 21
44.354576
 31
0.0
  0
LINE
  5
135
100
AcDbEntity
  8
Layer_1
 62
1
100
AcDbLine
 10
24.612728
 20
44.354576
 30
0.0
 11
24.565208
 21
44.261272
 31
0.0
  0
LINE
  5
136
100
AcDbEntity
  8
Layer_1
 62
1
100
AcDbLine
 10
24.565208
 20
44.261272
 30
0.0
 11
24.535368
 21
44.158912
 31
0.0
  0
LINE
  5
137
100
AcDbEntity
  8
Layer_1
 62
1
100
AcDbLine
 10
24.535368
 20
44.158912
 30
0.0
 11
24.524968
 21
44.049944
 31
0.0
  0
LINE
  5
138
100
AcDbEntity
  8
Layer_1
 62
1
100
AcDbLine
 10
24.524968
 20
44.049944
 30
0.0
 11
24.524968
 21
41.256192
 31
0.0
  0
LINE
  5
139
100
AcDbEntity
  8
Layer_1
 62
1
100
AcDbLine
 10
24.524968
 20
41.256192
 30
0.0
 11
24.524968
 21
38.462448
 31
0.0
  0
LINE
  5
13a
100
AcDbEntity
  8
Layer_1
 62
1
100
AcDbLine
 10
24.524968
 20
38.462448
 30
0.0
 11
24.524968
 21
35.668696
 31
0.0
  0
LINE
  5
13b
100
AcDbEntity
  8
Layer_1
 62
1
100
AcDbLine
 10
24.524968
 20
35.668696
 30
0.0
 11
24.524968
 21
32.874944
 31
0.0
  0
LINE
  5
13c
100
AcDbEntity
  8
Layer_1
 62
1
100
AcDbLine
 10
24.524968
 20
32.874944
 30
0.0
 11
24.524968
 21
30.081192
 31
0.0
  0
LINE
  5
13d
100
AcDbEntity
  8
Layer_1
 62
1
100
AcDbLine
 10
24.524968
 20
30.081192
 30
0.0
 11
24.524968
 21
27.287448
 31
0.0
  0
LINE
  5
13e
100
AcDbEntity
  8
Layer_1
 62
1
100
AcDbLine
 10
24.524968
 20
27.287448
 30
0.0
 11
24.524968
 21
24.493696
 31
0.0
  0
LINE
  5
13f
100
AcDbEntity
  8
Layer_1
 62
1
100
AcDbLine
 10
24.524968
 20
24.493696
 30
0.0
 11
24.524968
 21
21.699944
 31
0.0
  0
LINE
  5
140
100
AcDbEntity
  8
Layer_1
 62
1
100
AcDbLine
 10
24.524968
 20
21.699944
 30
0.0
 11
24.535368
 21
21.590976
 31
0.0
  0
LINE
  5
141
100
AcDbEntity
  8
Layer_1
 62
1
100
AcDbLine
 10
24.535368
 20
21.590976
 30
0.0
 11
24.565208
 21
21.488616
 31
0.0
  0
LINE
  5
142
100
AcDbEntity
  8
Layer_1
 62
1
100
AcDbLine
 10
24.565208
 20
21.488616
 30
0.0
 11
24.612728
 21
21.395312
 31
0.0
  0
LINE
  5
143
100
AcDbEntity
  8
Layer_1
 62
1
100
AcDbLine
 10
24.612728
 20
21.395312
 30
0.0
 11
24.676008
 21
21.313488
 31
0.0
  0
LINE
  5
144
100
AcDbEntity
  8
Layer_1
 62
1
100
AcDbLine
 10
24.676008
 20
21.313488
 30
0.0
 11
24.753208
 21
21.245568
 31
0.0
  0
LINE
  5
145
100
AcDbEntity
  8
Layer_1
 62
1
100
AcDbLine
 10
24.753208
 20
21.245568
 30
0.0
 11
24.842520
 21
21.194048
 31
0.0
  0
LINE
  5
146
100
AcDbEntity
  8
Layer_1
 62
1
100
AcDbLine
 10
24.842520
 20
21.194048
 30
0.0
 11
24.942040
 21
21.161328
 31
0.0
  0
LINE
  5
147
100
AcDbEntity
  8
Layer_1
 62
1
100
AcDbLine
 10
24.942040
 20
21.161328
 30
0.0
 11
25.049936
 21
21.149888
 31
0.0
  0
LINE
  5
148
100
AcDbEntity
  8
Layer_1
 62
1
100
AcDbLine
 10
25.049936
 20
21.149888
 30
0.0
 11
26.868688
 21
21.149888
 31
0.0
  0
LINE
  5
149
100
AcDbEntity
  8
Layer_1
 62
1
100
AcDbLine
 10
26.868688
 20
21.149888
 30
0.0
 11
28.687432
 21
21.149888
 31
0.0
  0
LINE
  5
14a
100
AcDbEntity
  8
Layer_1
 62
1
100
AcDbLine
 10
28.687432
 20
21.149888
 30
0.0
 11
30.506184
 21
21.149888
 31
0.0
  0
LINE
  5
14b
100
AcDbEntity
  8
Layer_1
 62
1
100
AcDbLine
 10
30.506184
 20
21.149888
 30
0.0
 11
32.324936
 21
21.149888
 31
0.0
  0
LINE
  5
14c
100
AcDbEntity
  8
Layer_1
 62
1
100
AcDbLine
 10
32.324936
 20
21.149888
 30
0.0
 11
34.143688
 21
21.149888
 31
0.0
  0
LINE
  5
14d
100
AcDbEntity
  8
Layer_1
 62
1
100
AcDbLine
 10
34.143688
 20
21.149888
 30
0.0
 11
35.962432
 21
21.149888
 31
0.0
  0
LINE
  5
14e
100
AcDbEntity
  8
Layer_1
 62
1
100
AcDbLine
 10
35.962432
 20
21.149888
 30
0.0
 11
37.781184
 21
21.149888
 31
0.0
  0
LINE
  5
14f
100
AcDbEntity
  8
Layer_1
 62
1
100
AcDbLine
 10
37.781184
 20
21.149888
 30
0.0
 11
39.599936
 21
21.149888
 31
0.0
  0
LINE
  5
150
100
AcDbEntity
  8
Layer_1
 62
1
100
AcDbLine
 10
39.599936
 20
21.149888
 30
0.0
 11
39.599936
 21
18.621760
 31
0.0
  0
LINE
  5
151
100
AcDbEntity
  8
Layer_1
 62
1
100
AcDbLine
 10
39.599936
 20
18.621760
 30
0.0
 11
39.599936
 21
16.093640
 31
0.0
  0
LINE
  5
152
100
AcDbEntity
  8
Layer_1
 62
1
100
AcDbLine
 10
39.599936
 20
16.093640
 30
0.0
 11
39.599936
 21
13.565512
 31
0.0
  0
LINE
  5
153
100
AcDbEntity
  8
Layer_1
 62
1
100
AcDbLine
 10
39.599936
 20
13.565512
 30
0.0
 11
39.599936
 21
11.037392
 31
0.0
  0
LINE
  5
154
100
AcDbEntity
  8
Layer_1
 62
1
100
AcDbLine
 10
39.599936
 20
11.037392
 30
0.0
 11
39.599936
 21
8.509264
 31
0.0
  0
LINE
  5
155
100
AcDbEntity
  8
Layer_1
 62
1
100
AcDbLine
 10
39.599936
 20
8.509264
 30
0.0
 11
39.599936
 21
5.981136
 31
0.0
  0
LINE
  5
156
100
AcDbEntity
  8
Layer_1
 62
1
100
AcDbLine
 10
39.599936
 20
5.981136
 30
0.0
 11
39.599936
 21
3.453016
 31
0.0
  0
LINE
  5
157
100
AcDbEntity
  8
Layer_1
 62
1
100
AcDbLine
 10
39.599936
 20
3.453016
 30
0.0
 11
39.599936
 21
0.924888
 31
0.0
  0
LINE
  5
158
100
AcDbEntity
  8
Layer_1
 62
1
100
AcDbLine
 10
39.599936
 20
0.924888
 30
0.0
 11
39.611376
 21
0.816992
 31
0.0
  0
LINE
  5
159
100
AcDbEntity
  8
Layer_1
 62
1
100
AcDbLine
 10
39.611376
 20
0.816992
 30
0.0
 11
39.644096
 21
0.717472
 31
0.0
  0
LINE
  5
15a
100
AcDbEntity
  8
Layer_1
 62
1
100
AcDbLine
 10
39.644096
 20
0.717472
 30
0.0
 11
39.695616
 21
0.628160
 31
0.0
  0
LINE
  5
15b
100
AcDbEntity
  8
Layer_1
 62
1
100
AcDbLine
 10
39.695616
 20
0.628160
 30
0.0
 11
39.763536
 21
0.550960
 31
0.0
  0
LINE
  5
15c
100
AcDbEntity
  8
Layer_1
 62
1
100
AcDbLine
 10
39.763536
 20
0.550960
 30
0.0
 11
39.845360
 21
0.487680
 31
0.0
  0
LINE
  5
15d
100
AcDbEntity
  8
Layer_1
 62
1
100
AcDbLine
 10
39.845360
 20
0.487680
 30
0.0
 11
39.938664
 21
0.440160
 31
0.0
  0
LINE
  5
15e
100
AcDbEntity
  8
Layer_1
 62
1
100
AcDbLine
 10
39.938664
 20
0.440160
 30
0.0
 11
40.041024
 21
0.410320
 31
0.0
  0
LINE
  5
15f
100
AcDbEntity
  8
Layer_1
 62
1
100
AcDbLine
 10
40.041024
 20
0.410320
 30
0.0
 11
40.149992
 21
0.399920
 31
0.0
  0
LINE
  5
160
100
AcDbEntity
  8
Layer_1
 62
1
100
AcDbLine
 10
40.149992
 20
0.399920
 30
0.0
 11
42.978120
 21
0.399920
 31
0.0
  0
LINE
  5
161
100
AcDbEntity
  8
Layer_1
 62
1
100
AcDbLine
 10
42.978120
 20
0.399920
 30
0.0
 11
45.806240
 21
0.399920
 31
0.0
  0
LINE
  5
162
100
AcDbEntity
  8
Layer_1
 62
1
100
AcDbLine
 10
45.806240
 20
0.399920
 30
0.0
 11
48.634368
 21
0.399920
 31
0.0
  0
LINE
  5
163
100
AcDbEntity
  8
Layer_1
 62
1
100
AcDbLine
 10
48.634368
 20
0.399920
 30
0.0
 11
51.462488
 21
0.399920
 31
0.0
  0
LINE
  5
164
100
AcDbEntity
  8
Layer_1
 62
1
100
AcDbLine
 10
51.462488
 20
0.399920
 30
0.0
 11
54.290616
 21
0.399920
 31
0.0
  0
LINE
  5
165
100
AcDbEntity
  8
Layer_1
 62
1
100
AcDbLine
 10
54.290616
 20
0.399920
 30
0.0
 11
57.118744
 21
0.399920
 31
0.0
  0
LINE
  5
166
100
AcDbEntity
  8
Layer_1
 62
1
100
AcDbLine
 10
57.118744
 20
0.399920
 30
0.0
 11
59.946864
 21
0.399920
 31
0.0
  0
LINE
  5
167
100
AcDbEntity
  8
Layer_1
 62
1
100
AcDbLine
 10
59.946864
 20
0.399920
 30
0.0
 11
62.774992
 21
0.399920
 31
0.0
  0
LINE
  5
168
100
AcDbEntity
  8
Layer_1
 62
1
100
AcDbLine
 10
62.774992
 20
0.399920
 30
0.0
 11
62.883960
 21
0.410320
 31
0.0
  0
LINE
  5
169
100
AcDbEntity
  8
Layer_1
 62
1
100
AcDbLine
 10
62.883960
 20
0.410320
 30
0.0
 11
62.986320
 21
0.440160
 31
0.0
  0
LINE
  5
16a
100
AcDbEntity
  8
Layer_1
 62
1
100
AcDbLine
 10
62.986320
 20
0.440160
 30
0.0
 11
63.079624
 21
0.487680
 31
0.0
  0
LINE
  5
16b
100
AcDbEntity
  8
Layer_1
 62
1
100
AcDbLine
 10
63.079624
 20
0.487680
 30
0.0
 11
63.161448
 21
0.550960
 31
0.0
  0
LINE
  5
16c
100
AcDbEntity
  8
Layer_1
 62
1
100
AcDbLine
 10
63.161448
 20
0.550960
 30
0.0
 11
63.229368
 21
0.628160
 31
0.0
  0
LINE
  5
16d
100
AcDbEntity
  8
Layer_1
 62
1
100
AcDbLine
 10
63.229368
 20
0.628160
 30
0.0
 11
63.280888
 21
0.717472
 31
0.0
  0
LINE
  5
16e
100
AcDbEntity
  8
Layer_1
 62
1
100
AcDbLine
 10
63.280888
 20
0.717472
 30
0.0
 11
63.313608
 21
0.816992
 31
0.0
  0
LINE
  5
16f
100
AcDbEntity
  8
Layer_1
 62
1
100
AcDbLine
 10
63.313608
 20
0.816992
 30
0.0
 11
63.325048
 21
0.924888
 31
0.0
  0
LINE
  5
170
100
AcDbEntity
  8
Layer_1
 62
1
100
AcDbLine
 10
63.325048
 20
0.924888
 30
0.0
 11
63.325048
 21
3.453016
 31
0.0
  0
LINE
  5
171
100
AcDbEntity
  8
Layer_1
 62
1
100
AcDbLine
 10
63.325048
 20
3.453016
 30
0.0
 11
63.325048
 21
5.981136
 31
0.0
  0
LINE
  5
172
100
AcDbEntity
  8
Layer_1
 62
1
100
AcDbLine
 10
63.325048
 20
5.981136
 30
0.0
 11
63.325048
 21
8.509264
 31
0.0
  0
LINE
  5
173
100
AcDbEntity
  8
Layer_1
 62
1
100
AcDbLine
 10
63.325048
 20
8.509264
 30
0.0
 11
63.325048
 21
11.037392
 31
0.0
  0
LINE
  5
174
100
AcDbEntity
  8
Layer_1
 62
1
100
AcDbLine
 10
63.325048
 20
11.037392
 30
0.0
 11
63.325048
 21
13.565512
 31
0.0
  0
LINE
  5
175
100
AcDbEntity
  8
Layer_1
 62
1
100
AcDbLine
 10
63.325048
 20
13.565512
 30
0.0
 11
63.325048
 21
16.093640
 31
0.0
  0
LINE
  5
176
100
AcDbEntity
  8
Layer_1
 62
1
100
AcDbLine
 10
63.325048
 20
16.093640
 30
0.0
 11
63.325048
 21
18.621760
 31
0.0
  0
LINE
  5
177
100
AcDbEntity
  8
Layer_1
 62
1
100
AcDbLine
 10
63.325048
 20
18.621760
 30
0.0
 11
63.325048
 21
21.149888
 31
0.0
  0
LINE
  5
178
100
AcDbEntity
  8
Layer_1
 62
1
100
AcDbLine
 10
63.325048
 20
21.149888
 30
0.0
 11
65.143800
 21
21.149888
 31
0.0
  0
LINE
  5
179
100
AcDbEntity
  8
Layer_1
 62
1
100
AcDbLine
 10
65.143800
 20
21.149888
 30
0.0
 11
66.962544
 21
21.149888
 31
0.0
  0
LINE
  5
17a
100
AcDbEntity
  8
Layer_1
 62
1
100
AcDbLine
 10
66.962544
 20
21.149888
 30
0.0
 11
68.781296
 21
21.149888
 31
0.0
  0
LINE
  5
17b
100
AcDbEntity
  8
Layer_1
 62
1
100
AcDbLine
 10
68.781296
 20
21.149888
 30
0.0
 11
70.600048
 21
21.149888
 31
0.0
  0
LINE
  5
17c
100
AcDbEntity
  8
Layer_1
 62
1
100
AcDbLine
 10
70.600048
 20
21.149888
 30
0.0
 11
72.418800
 21
21.149888
 31
0.0
  0
LINE
  5
17d
100
AcDbEntity
  8
Layer_1
 62
1
100
AcDbLine
 10
72.418800
 20
21.149888
 30
0.0
 11
74.237544
 21
21.149888
 31
0.0
  0
LINE
  5
17e
100
AcDbEntity
  8
Layer_1
 62
1
100
AcDbLine
 10
74.237544
 20
21.149888
 30
0.0
 11
76.056296
 21
21.149888
 31
0.0
  0
LINE
  5
17f
100
AcDbEntity
  8
Layer_1
 62
1
100
AcDbLine
 10
76.056296
 20
21.149888
 30
0.0
 11
77.875048
 21
21.149888
 31
0.0
  0
LINE
  5
180
100
AcDbEntity
  8
Layer_1
 62
1
100
AcDbLine
 10
77.875048
 20
21.149888
 30
0.0
 11
77.982944
 21
21.161328
 31
0.0
  0
LINE
  5
181
100
AcDbEntity
  8
Layer_1
 62
1
100
AcDbLine
 10
77.982944
 20
21.161328
 30
0.0
 11
78.082464
 21
21.194048
 31
0.0
  0
LINE
  5
182
100
AcDbEntity
  8
Layer_1
 62
1
100
AcDbLine
 10
78.082464
 20
21.194048
 30
0.0
 11
78.171776
 21
21.245568
 31
0.0
  0
LINE
  5
183
100
AcDbEntity
  8
Layer_1
 62
1
100
AcDbLine
 10
78.171776
 20
21.245568
 30
0.0
 11
78.248976
 21
21.313488
 31
0.0
  0
LINE
  5
184
100
AcDbEntity
  8
Layer_1
 62
1
100
AcDbLine
 10
78.248976
 20
21.313488
 30
0.0
 11
78.312256
 21
21.395312
 31
0.0
  0
LINE
  5
185
100
AcDbEntity
  8
Layer_1
 62
1
100
AcDbLine
 10
78.312256
 20
21.395312
 30
0.0
 11
78.359776
 21
21.488616
 31
0.0
  0
LINE
  5
186
100
AcDbEntity
  8
Layer_1
 62
1
100
AcDbLine
 10
78.359776
 20
21.488616
 30
0.0
 11
78.389616
 21
21.590976
 31
0.0
  0
LINE
  5
187
100
AcDbEntity
  8
Layer_1
 62
1
100
AcDbLine
 10
78.389616
 20
21.590976
 30
0.0
 11
78.400016
 21
21.699944
 31
0.0
  0
LINE
  5
188
100
AcDbEntity
  8
Layer_1
 62
1
100
AcDbLine
 10
78.400016
 20
21.699944
 30
0.0
 11
78.400016
 21
24.493696
 31
0.0
  0
LINE
  5
189
100
AcDbEntity
  8
Layer_1
 62
1
100
AcDbLine
 10
78.400016
 20
24.493696
 30
0.0
 11
78.400016
 21
27.287448
 31
0.0
  0
LINE
  5
18a
100
AcDbEntity
  8
Layer_1
 62
1
100
AcDbLine
 10
78.400016
 20
27.287448
 30
0.0
 11
78.400016
 21
30.081192
 31
0.0
  0
LINE
  5
18b
100
AcDbEntity
  8
Layer_1
 62
1
100
AcDbLine
 10
78.400016
 20
30.081192
 30
0.0
 11
78.400016
 21
32.874944
 31
0.0
  0
LINE
  5
18c
100
AcDbEntity
  8
Layer_1
 62
1
100
AcDbLine
 10
78.400016
 20
32.874944
 30
0.0
 11
78.400016
 21
35.668696
 31
0.0
  0
LINE
  5
18d
100
AcDbEntity
  8
Layer_1
 62
1
100
AcDbLine
 10
78.400016
 20
35.668696
 30
0.0
 11
78.400016
 21
38.462448
 31
0.0
  0
LINE
  5
18e
100
AcDbEntity
  8
Layer_1
 62
1
100
AcDbLine
 10
78.400016
 20
38.462448
 30
0.0
 11
78.400016
 21
41.256192
 31
0.0
  0
LINE
  5
18f
100
AcDbEntity
  8
Layer_1
 62
1
100
AcDbLine
 10
78.400016
 20
41.256192
 30
0.0
 11
78.400016
 21
44.049944
 31
0.0
  0
LINE
  5
190
100
AcDbEntity
  8
Layer_1
 62
1
100
AcDbLine
 10
78.400016
 20
44.049944
 30
0.0
 11
78.389616
 21
44.158912
 31
0.0
  0
LINE
  5
191
100
AcDbEntity
  8
Layer_1
 62
1
100
AcDbLine
 10
78.389616
 20
44.158912
 30
0.0
 11
78.359776
 21
44.261272
 31
0.0
  0
LINE
  5
192
100
AcDbEntity
  8
Layer_1
 62
1
100
AcDbLine
 10
78.359776
 20
44.261272
 30
0.0
 11
78.312256
 21
44.354576
 31
0.0
  0
LINE
  5
193
100
AcDbEntity
  8
Layer_1
 62
1
100
AcDbLine
 10
78.312256
 20
44.354576
 30
0.0
 11
78.248976
 21
44.436400
 31
0.0
  0
LINE
  5
194
100
AcDbEntity
  8
Layer_1
 62
1
100
AcDbLine
 10
78.248976
 20
44.436400
 30
0.0
 11
78.171776
 21
44.504320
 31
0.0
  0
LINE
  5
195
100
AcDbEntity
  8
Layer_1
 62
1
100
AcDbLine
 10
78.171776
 20
44.504320
 30
0.0
 11
78.082464
 21
44.555840
 31
0.0
  0
LINE
  5
196
100
AcDbEntity
  8
Layer_1
 62
1
100
AcDbLine
 10
78.082464
 20
44.555840
 30
0.0
 11
77.982944
 21
44.588560
 31
0.0
  0
LINE
  5
197
100
AcDbEntity
  8
Layer_1
 62
1
100
AcDbLine
 10
77.982944
 20
44.588560
 30
0.0
 11
77.875048
 21
44.600000
 31
0.0
  0
LINE
  5
198
100
AcDbEntity
  8
Layer_1
 62
1
100
AcDbLine
 10
77.875048
 20
44.600000
 30
0.0
 11
76.056296
 21
44.600000
 31
0.0
  0
LINE
  5
199
100
AcDbEntity
  8
Layer_1
 62
1
100
AcDbLine
 10
76.056296
 20
44.600000
 30
0.0
 11
74.237544
 21
44.600000
 31
0.0
  0
LINE
  5
19a
100
AcDbEntity
  8
Layer_1
 62
1
100
AcDbLine
 10
74.237544
 20
44.600000
 30
0.0
 11
72.418800
 21
44.600000
 31
0.0
  0
LINE
  5
19b
100
AcDbEntity
  8
Layer_1
 62
1
100
AcDbLine
 10
72.418800
 20
44.600000
 30
0.0
 11
70.600048
 21
44.600000
 31
0.0
  0
LINE
  5
19c
100
AcDbEntity
  8
Layer_1
 62
1
100
AcDbLine
 10
70.600048
 20
44.600000
 30
0.0
 11
68.781296
 21
44.600000
 31
0.0
  0
LINE
  5
19d
100
AcDbEntity
  8
Layer_1
 62
1
100
AcDbLine
 10
68.781296
 20
44.600000
 30
0.0
 11
66.962544
 21
44.600000
 31
0.0
  0
LINE
  5
19e
100
AcDbEntity
  8
Layer_1
 62
1
100
AcDbLine
 10
66.962544
 20
44.600000
 30
0.0
 11
65.143800
 21
44.600000
 31
0.0
  0
LINE
  5
19f
100
AcDbEntity
  8
Layer_1
 62
1
100
AcDbLine
 10
65.143800
 20
44.600000
 30
0.0
 11
63.325048
 21
44.600000
 31
0.0
  0
LINE
  5
1a0
100
AcDbEntity
  8
Layer_1
 62
1
100
AcDbLine
 10
63.325048
 20
44.600000
 30
0.0
 11
63.325048
 21
44.962504
 31
0.0
  0
LINE
  5
1a1
100
AcDbEntity
  8
Layer_1
 62
1
100
AcDbLine
 10
63.325048
 20
44.962504
 30
0.0
 11
63.325048
 21
45.325000
 31
0.0
  0
LINE
  5
1a2
100
AcDbEntity
  8
Layer_1
 62
1
100
AcDbLine
 10
63.325048
 20
45.325000
 30
0.0
 11
63.325048
 21
45.687504
 31
0.0
  0
LINE
  5
1a3
100
AcDbEntity
  8
Layer_1
 62
1
100
AcDbLine
 10
63.325048
 20
45.687504
 30
0.0
 11
63.325048
 21
46.050000
 31
0.0
  0
LINE
  5
1a4
100
AcDbEntity
  8
Layer_1
 62
1
100
AcDbLine
 10
63.325048
 20
46.050000
 30
0.0
 11
63.325048
 21
46.412504
 31
0.0
  0
LINE
  5
1a5
100
AcDbEntity
  8
Layer_1
 62
1
100
AcDbLine
 10
63.325048
 20
46.412504
 30
0.0
 11
63.325048
 21
46.775000
 31
0.0
  0
LINE
  5
1a6
100
AcDbEntity
  8
Layer_1
 62
1
100
AcDbLine
 10
63.325048
 20
46.775000
 30
0.0
 11
63.325048
 21
47.137504
 31
0.0
  0
LINE
  5
1a7
100
AcDbEntity
  8
Layer_1
 62
1
100
AcDbLine
 10
63.325048
 20
47.137504
 30
0.0
 11
63.325048
 21
47.500000
 31
0.0
  0
LINE
  5
1a8
100
AcDbEntity
  8
Layer_1
 62
1
100
AcDbLine
 10
63.325048
 20
47.500000
 30
0.0
 11
71.541080
 21
50.163280
 31
0.0
  0
LINE
  5
1a9
100
AcDbEntity
  8
Layer_1
 62
1
100
AcDbLine
 10
71.541080
 20
50.163280
 30
0.0
 11
79.084824
 21
54.107272
 31
0.0
  0
LINE
  5
1aa
100
AcDbEntity
  8
Layer_1
 62
1
100
AcDbLine
 10
79.084824
 20
54.107272
 30
0.0
 11
85.825864
 21
59.202224
 31
0.0
  0
LINE
  5
1ab
100
AcDbEntity
  8
Layer_1
 62
1
100
AcDbLine
 10
85.825864
 20
59.202224
 30
0.0
 11
91.633744
 21
65.318376
 31
0.0
  0
LINE
  5
1ac
100
AcDbEntity
  8
Layer_1
 62
1
100
AcDbLine
 10
91.633744
 20
65.318376
 30
0.0
 11
96.378032
 21
72.325984
 31
0.0
  0
LINE
  5
1ad
100
AcDbEntity
  8
Layer_1
 62
1
100
AcDbLine
 10
96.378032
 20
72.325984
 30
0.0
 11
99.928304
 21
80.095288
 31
0.0
  0
LINE
  5
1ae
100
AcDbEntity
  8
Layer_1
 62
1
100
AcDbLine
 10
99.928304
 20
80.095288
 30
0.0
 11
102.154120
 21
88.496544
 31
0.0
  0
LINE
  5
1af
100
AcDbEntity
  8
Layer_1
 62
1
100
AcDbLine
 10
102.154120
 20
88.496544
 30
0.0
 11
102.925048
 21
97.400000
 31
0.0
  0
LINE
  5
1b0
100
AcDbEntity
  8
Layer_1
 62
1
100
AcDbLine
 10
102.925048
 20
97.400000
 30
0.0
 11
102.207288
 21
105.995448
 31
0.0
  0
LINE
  5
1b1
100
AcDbEntity
  8
Layer_1
 62
1
100
AcDbLine
 10
102.207288
 20
105.995448
 30
0.0
 11
100.132008
 21
114.129072
 31
0.0
  0
LINE
  5
1b2
100
AcDbEntity
  8
Layer_1
 62
1
100
AcDbLine
 10
100.132008
 20
114.129072
 30
0.0
 11
96.816232
 21
121.684216
 31
0.0
  0
LINE
  5
1b3
100
AcDbEntity
  8
Layer_1
 62
1
100
AcDbLine
 10
96.816232
 20
121.684216
 30
0.0
 11
92.376952
 21
128.544232
 31
0.0
  0
LINE
  5
1b4
100
AcDbEntity
  8
Layer_1
 62
1
100
AcDbLine
 10
92.376952
 20
128.544232
 30
0.0
 11
86.931184
 21
134.592464
 31
0.0
  0
LINE
  5
1b5
100
AcDbEntity
  8
Layer_1
 62
1
100
AcDbLine
 10
86.931184
 20
134.592464
 30
0.0
 11
80.595936
 21
139.712272
 31
0.0
  0
LINE
  5
1b6
100
AcDbEntity
  8
Layer_1
 62
1
100
AcDbLine
 10
80.595936
 20
139.712272
 30
0.0
 11
73.488224
 21
143.787000
 31
0.0
  0
LINE
  5
1b7
100
AcDbEntity
  8
Layer_1
 62
1
100
AcDbLine
 10
73.488224
 20
143.787000
 30
0.0
 11
65.725048
 21
146.700000
 31
0.0
  0
LINE
  5
1b8
100
AcDbEntity
  8
Layer_1
 62
1
100
AcDbLine
 10
65.725048
 20
146.700000
 30
0.0
 11
65.909904
 21
147.273312
 31
0.0
  0
LINE
  5
1b9
100
AcDbEntity
  8
Layer_1
 62
1
100
AcDbLine
 10
65.909904
 20
147.273312
 30
0.0
 11
66.073488
 21
147.855664
 31
0.0
  0
LINE
  5
1ba
100
AcDbEntity
  8
Layer_1
 62
1
100
AcDbLine
 10
66.073488
 20
147.855664
 30
0.0
 11
66.214768
 21
148.446792
 31
0.0
  0
LINE
  5
1bb
100
AcDbEntity
  8
Layer_1
 62
1
100
AcDbLine
 10
66.214768
 20
148.446792
 30
0.0
 11
66.332688
 21
149.046440
 31
0.0
  0
LINE
  5
1bc
100
AcDbEntity
  8
Layer_1
 62
1
100
AcDbLine
 10
66.332688
 20
149.046440
 30
0.0
 11
66.426224
 21
149.654352
 31
0.0
  0
LINE
  5
1bd
100
AcDbEntity
  8
Layer_1
 62
1
100
AcDbLine
 10
66.426224
 20
149.654352
 30
0.0
 11
66.494304
 21
150.270256
 31
0.0
  0
LINE
  5
1be
100
AcDbEntity
  8
Layer_1
 62
1
100
AcDbLine
 10
66.494304
 20
150.270256
 30
0.0
 11
66.535904
 21
150.893888
 31
0.0
  0
LINE
  5
1bf
100
AcDbEntity
  8
Layer_1
 62
1
100
AcDbLine
 10
66.535904
 20
150.893888
 30
0.0
 11
66.549984
 21
151.525000
 31
0.0
  0
LINE
  5
1c0
100
AcDbEntity
  8
Layer_1
 62
1
100
AcDbLine
 10
66.549984
 20
151.525000
 30
0.0
 11
66.247184
 21
154.527280
 31
0.0
  0
LINE
  5
1c1
100
AcDbEntity
  8
Layer_1
 62
1
100
AcDbLine
 10
66.247184
 20
154.527280
 30
0.0
 11
65.378784
 21
157.323888
 31
0.0
  0
LINE
  5
1c2
100
AcDbEntity
  8
Layer_1
 62
1
100
AcDbLine
 10
65.378784
 20
157.323888
 30
0.0
 11
64.004760
 21
159.854832
 31
0.0
  0
LINE
  5
1c3
100
AcDbEntity
  8
Layer_1
 62
1
100
AcDbLine
 10
64.004760
 20
159.854832
 30
0.0
 11
62.185112
 21
162.060128
 31
0.0
  0
LINE
  5
1c4
100
AcDbEntity
  8
Layer_1
 62
1
100
AcDbLine
 10
62.185112
 20
162.060128
 30
0.0
 11
59.979816
 21
163.879776
 31
0.0
  0
LINE
  5
1c5
100
AcDbEntity
  8
Layer_1
 62
1
100
AcDbLine
 10
59.979816
 20
163.879776
 30
0.0
 11
57.448872
 21
165.253800
 31
0.0
  0
LINE
  5
1c6
100
AcDbEntity
  8
Layer_1
 62
1
100
AcDbLine
 10
57.448872
 20
165.253800
 30
0.0
 11
54.652264
 21
166.122200
 31
0.0
  0
LINE
  5
1c7
100
AcDbEntity
  8
Layer_1
 62
1
100
AcDbLine
 10
54.652264
 20
166.122200
 30
0.0
 11
51.650000
 21
166.425000
 31
0.0
  0
LINE
  5
1c8
100
AcDbEntity
  8
Layer_1
 62
1
100
AcDbLine
 10
51.650000
 20
158.800000
 30
0.0
 11
53.114264
 21
158.651928
 31
0.0
  0
LINE
  5
1c9
100
AcDbEntity
  8
Layer_1
 62
1
100
AcDbLine
 10
53.114264
 20
158.651928
 30
0.0
 11
54.478960
 21
158.227360
 31
0.0
  0
LINE
  5
1ca
100
AcDbEntity
  8
Layer_1
 62
1
100
AcDbLine
 10
54.478960
 20
158.227360
 30
0.0
 11
55.714608
 21
157.555800
 31
0.0
  0
LINE
  5
1cb
100
AcDbEntity
  8
Layer_1
 62
1
100
AcDbLine
 10
55.714608
 20
157.555800
 30
0.0
 11
56.791720
 21
156.666720
 31
0.0
  0
LINE
  5
1cc
100
AcDbEntity
  8
Layer_1
 62
1
100
AcDbLine
 10
56.791720
 20
156.666720
 30
0.0
 11
57.680800
 21
155.589608
 31
0.0
  0
LINE
  5
1cd
100
AcDbEntity
  8
Layer_1
 62
1
100
AcDbLine
 10
57.680800
 20
155.589608
 30
0.0
 11
58.352360
 21
154.353968
 31
0.0
  0
LINE
  5
1ce
100
AcDbEntity
  8
Layer_1
 62
1
100
AcDbLine
 10
58.352360
 20
154.353968
 30
0.0
 11
58.776928
 21
152.989264
 31
0.0
  0
LINE
  5
1cf
100
AcDbEntity
  8
Layer_1
 62
1
100
AcDbLine
 10
58.776928
 20
152.989264
 30
0.0
 11
58.925000
 21
151.525000
 31
0.0
  0
LINE
  5
1d0
100
AcDbEntity
  8
Layer_1
 62
1
100
AcDbLine
 10
58.925000
 20
151.525000
 30
0.0
 11
58.911320
 21
151.084592
 31
0.0
  0
LINE
  5
1d1
100
AcDbEntity
  8
Layer_1
 62
1
100
AcDbLine
 10
58.911320
 20
151.084592
 30
0.0
 11
58.871000
 21
150.652192
 31
0.0
  0
LINE
  5
1d2
100
AcDbEntity
  8
Layer_1
 62
1
100
AcDbLine
 10
58.871000
 20
150.652192
 30
0.0
 11
58.804920
 21
150.228224
 31
0.0
  0
LINE
  5
1d3
100
AcDbEntity
  8
Layer_1
 62
1
100
AcDbLine
 10
58.804920
 20
150.228224
 30
0.0
 11
58.714216
 21
149.813136
 31
0.0
  0
LINE
  5
1d4
100
AcDbEntity
  8
Layer_1
 62
1
100
AcDbLine
 10
58.714216
 20
149.813136
 30
0.0
 11
58.599864
 21
149.407336
 31
0.0
  0
LINE
  5
1d5
100
AcDbEntity
  8
Layer_1
 62
1
100
AcDbLine
 10
58.599864
 20
149.407336
 30
0.0
 11
58.462864
 21
149.011264
 31
0.0
  0
LINE
  5
1d6
100
AcDbEntity
  8
Layer_1
 62
1
100
AcDbLine
 10
58.462864
 20
149.011264
 30
0.0
 11
58.304240
 21
148.625336
 31
0.0
  0
LINE
  5
1d7
100
AcDbEntity
  8
Layer_1
 62
1
100
AcDbLine
 10
58.304240
 20
148.625336
 30
0.0
 11
58.125000
 21
148.250000
 31
0.0
  0
LINE
  5
1d8
100
AcDbEntity
  8
Layer_1
 62
1
100
AcDbLine
 10
58.125000
 20
148.250000
 30
0.0
 11
57.330720
 21
148.344536
 31
0.0
  0
LINE
  5
1d9
100
AcDbEntity
  8
Layer_1
 62
1
100
AcDbLine
 10
57.330720
 20
148.344536
 30
0.0
 11
56.532928
 21
148.428480
 31
0.0
  0
LINE
  5
1da
100
AcDbEntity
  8
Layer_1
 62
1
100
AcDbLine
 10
56.532928
 20
148.428480
 30
0.0
 11
55.731688
 21
148.501200
 31
0.0
  0
LINE
  5
1db
100
AcDbEntity
  8
Layer_1
 62
1
100
AcDbLine
 10
55.731688
 20
148.501200
 30
0.0
 11
54.927024
 21
148.562080
 31
0.0
  0
LINE
  5
1dc
100
AcDbEntity
  8
Layer_1
 62
1
100
AcDbLine
 10
54.927024
 20
148.562080
 30
0.0
 11
54.118976
 21
148.610560
 31
0.0
  0
LINE
  5
1dd
100
AcDbEntity
  8
Layer_1
 62
1
100
AcDbLine
 10
54.118976
 20
148.610560
 30
0.0
 11
53.307600
 21
148.645920
 31
0.0
  0
LINE
  5
1de
100
AcDbEntity
  8
Layer_1
 62
1
100
AcDbLine
 10
53.307600
 20
148.645920
 30
0.0
 11
52.492928
 21
148.667600
 31
0.0
  0
LINE
  5
1df
100
AcDbEntity
  8
Layer_1
 62
1
100
AcDbLine
 10
52.492928
 20
148.667600
 30
0.0
 11
51.675000
 21
148.674800
 31
0.0
  0
LINE
  5
1e0
100
AcDbEntity
  8
Layer_1
 62
1
100
AcDbLine
 10
51.675000
 20
148.674800
 30
0.0
 11
50.853888
 21
148.667600
 31
0.0
  0
LINE
  5
1e1
100
AcDbEntity
  8
Layer_1
 62
1
100
AcDbLine
 10
50.853888
 20
148.667600
 30
0.0
 11
50.036048
 21
148.646160
 31
0.0
  0
LINE
  5
1e2
100
AcDbEntity
  8
Layer_1
 62
1
100
AcDbLine
 10
50.036048
 20
148.646160
 30
0.0
 11
49.221528
 21
148.611040
 31
0.0
  0
LINE
  5
1e3
100
AcDbEntity
  8
Layer_1
 62
1
100
AcDbLine
 10
49.221528
 20
148.611040
 30
0.0
 11
48.410360
 21
148.562800
 31
0.0
  0
LINE
  5
1e4
100
AcDbEntity
  8
Layer_1
 62
1
100
AcDbLine
 10
48.410360
 20
148.562800
 30
0.0
 11
47.602584
 21
148.502000
 31
0.0
  0
LINE
  5
1e5
100
AcDbEntity
  8
Layer_1
 62
1
100
AcDbLine
 10
47.602584
 20
148.502000
 30
0.0
 11
46.798240
 21
148.429200
 31
0.0
  0
LINE
  5
1e6
100
AcDbEntity
  8
Layer_1
 62
1
100
AcDbLine
 10
46.798240
 20
148.429200
 30
0.0
 11
45.997368
 21
148.344976
 31
0.0
  0
LINE
  5
1e7
100
AcDbEntity
  8
Layer_1
 62
1
100
AcDbLine
 10
45.997368
 20
148.344976
 30
0.0
 11
45.200000
 21
148.249856
 31
0.0
  0
LINE
  5
1e8
100
AcDbEntity
  8
Layer_1
 62
1
100
AcDbLine
 10
45.200000
 20
148.249856
 30
0.0
 11
45.021640
 21
148.625192
 31
0.0
  0
LINE
  5
1e9
100
AcDbEntity
  8
Layer_1
 62
1
100
AcDbLine
 10
45.021640
 20
148.625192
 30
0.0
 11
44.863424
 21
149.011120
 31
0.0
  0
LINE
  5
1ea
100
AcDbEntity
  8
Layer_1
 62
1
100
AcDbLine
 10
44.863424
 20
149.011120
 30
0.0
 11
44.726488
 21
149.407192
 31
0.0
  0
LINE
  5
1eb
100
AcDbEntity
  8
Layer_1
 62
1
100
AcDbLine
 10
44.726488
 20
149.407192
 30
0.0
 11
44.611936
 21
149.812992
 31
0.0
  0
LINE
  5
1ec
100
AcDbEntity
  8
Layer_1
 62
1
100
AcDbLine
 10
44.611936
 20
149.812992
 30
0.0
 11
44.520896
 21
150.228080
 31
0.0
  0
LINE
  5
1ed
100
AcDbEntity
  8
Layer_1
 62
1
100
AcDbLine
 10
44.520896
 20
150.228080
 30
0.0
 11
44.454496
 21
150.652048
 31
0.0
  0
LINE
  5
1ee
100
AcDbEntity
  8
Layer_1
 62
1
100
AcDbLine
 10
44.454496
 20
150.652048
 30
0.0
 11
44.413856
 21
151.084448
 31
0.0
  0
LINE
  5
1ef
100
AcDbEntity
  8
Layer_1
 62
1
100
AcDbLine
 10
44.413856
 20
151.084448
 30
0.0
 11
44.400016
 21
151.524856
 31
0.0
  0
LINE
  5
1f0
100
AcDbEntity
  8
Layer_1
 62
1
100
AcDbLine
 10
44.400016
 20
151.524856
 30
0.0
 11
44.547016
 21
152.989120
 31
0.0
  0
LINE
  5
1f1
100
AcDbEntity
  8
Layer_1
 62
1
100
AcDbLine
 10
44.547016
 20
152.989120
 30
0.0
 11
44.968744
 21
154.353824
 31
0.0
  0
LINE
  5
1f2
100
AcDbEntity
  8
Layer_1
 62
1
100
AcDbLine
 10
44.968744
 20
154.353824
 30
0.0
 11
45.636312
 21
155.589464
 31
0.0
  0
LINE
  5
1f3
100
AcDbEntity
  8
Layer_1
 62
1
100
AcDbLine
 10
45.636312
 20
155.589464
 30
0.0
 11
46.520800
 21
156.666576
 31
0.0
  0
LINE
  5
1f4
100
AcDbEntity
  8
Layer_1
 62
1
100
AcDbLine
 10
46.520800
 20
156.666576
 30
0.0
 11
47.593312
 21
157.555656
 31
0.0
  0
LINE
  5
1f5
100
AcDbEntity
  8
Layer_1
 62
1
100
AcDbLine
 10
47.593312
 20
157.555656
 30
0.0
 11
48.824960
 21
158.227216
 31
0.0
  0
LINE
  5
1f6
100
AcDbEntity
  8
Layer_1
 62
1
100
AcDbLine
 10
48.824960
 20
158.227216
 30
0.0
 11
50.186824
 21
158.651784
 31
0.0
  0
LINE
  5
1f7
100
AcDbEntity
  8
Layer_1
 62
1
100
AcDbLine
 10
50.186824
 20
158.651784
 30
0.0
 11
51.650000
 21
158.800000
 31
0.0
  0
ENDSEC
  0
SECTION
  2
OBJECTS
  0
DICTIONARY
  5
C
330
0
100
AcDbDictionary
  3
ACAD_GROUP
350
D
  3
ACAD_MLINESTYLE
350
17
  0
DICTIONARY
  5
D
330
C
100
AcDbDictionary
  0
DICTIONARY
  5
1A
330
C
100
AcDbDictionary
  0
DICTIONARY
  5
17
330
C
100
AcDbDictionary
  3
STANDARD
350
18
  0
DICTIONARY
  5
19
330
C
100
AcDbDictionary
  0
ENDSEC
  0
EOF
