  0
SECTION
  2
HEADER
  9
$ACADVER
  1
AC1014
  9
$HANDSEED
  5
FFFF
  9
$MEASUREMENT
 70
     1
  0
ENDSEC
  0
SECTION
  2
TABLES
  0
TABLE
  2
VPORT
  5
8
330
0
100
AcDbSymbolTable
 70
     4
  0
VPORT
  5
2E
330
8
100
AcDbSymbolTableRecord
100
AcDbViewportTableRecord
  2
*ACTIVE
 70
     0
 10
0.0
 20
0.0
 11
1.0
 21
1.0
 12
210.0
 22
148.5
 13
0.0
 23
0.0
 14
10.0
 24
10.0
 15
10.0
 25
10.0
 16
0.0
 26
0.0
 36
1.0
 17
0.0
 27
0.0
 37
0.0
 40
341.0
 41
1.24
 42
50.0
 43
0.0
 44
0.0
 50
0.0
 51
0.0
 71
     0
 72
   100
 73
     1
 74
     3
 75
     0
 76
     0
 77
     0
 78
     0
  0
ENDTAB
  0
TABLE
  2
LTYPE
  5
5
330
0
100
AcDbSymbolTable
 70
     1
  0
LTYPE
  5
14
330
5
100
AcDbSymbolTableRecord
100
AcDbLinetypeTableRecord
  2
BYBLOCK
 70
     0
  3

 72
    65
 73
     0
 40
0.0
  0
LTYPE
  5
15
330
5
100
AcDbSymbolTableRecord
100
AcDbLinetypeTableRecord
  2
BYLAYER
 70
     0
  3

 72
    65
 73
     0
 40
0.0
  0
LTYPE
  5
16
330
5
100
AcDbSymbolTableRecord
100
AcDbLinetypeTableRecord
  2
CONTINUOUS
 70
     0
  3
Solid line
 72
    65
 73
     0
 40
0.0
  0
ENDTAB
  0
TABLE
  2
LAYER
  5
2
100
AcDbSymbolTable
 70
3
  0
LAYER
  5
50
100
AcDbSymbolTableRecord
100
AcDbLayerTableRecord
  2
0
 70
0
  6
CONTINUOUS
  0
LAYER
  5
51
100
AcDbSymbolTableRecord
100
AcDbLayerTableRecord
  2
argola
 70
0
  6
CONTINUOUS
  0
LAYER
  5
52
100
AcDbSymbolTableRecord
100
AcDbLayerTableRecord
  2
pacman
 70
0
  6
CONTINUOUS
  0
ENDTAB
  0
TABLE
  2
STYLE
  5
3
330
0
100
AcDbSymbolTable
 70
     1
  0
STYLE
  5
11
330
3
100
AcDbSymbolTableRecord
100
AcDbTextStyleTableRecord
  2
STANDARD
 70
     0
 40
0.0
 41
1.0
 50
0.0
 71
     0
 42
2.5
  3
txt
  4

  0
ENDTAB
  0
TABLE
  2
VIEW
  5
6
330
0
100
AcDbSymbolTable
 70
     0
  0
ENDTAB
  0
TABLE
  2
UCS
  5
7
330
0
100
AcDbSymbolTable
 70
     0
  0
ENDTAB
  0
TABLE
  2
APPID
  5
9
330
0
100
AcDbSymbolTable
 70
     2
  0
APPID
  5
12
330
9
100
AcDbSymbolTableRecord
100
AcDbRegAppTableRecord
  2
ACAD
 70
     0
  0
ENDTAB
  0
TABLE
  2
DIMSTYLE
  5
A
330
0
100
AcDbSymbolTable
 70
     1
  0
DIMSTYLE
105
27
330
A
100
AcDbSymbolTableRecord
100
AcDbDimStyleTableRecord
  2
ISO-25
 70
     0
  3

  4

  5

  6

  7

 40
1.0
 41
2.5
 42
0.625
 43
3.75
 44
1.25
 45
0.0
 46
0.0
 47
0.0
 48
0.0
140
2.5
141
2.5
142
0.0
143
0.03937007874016
144
1.0
145
0.0
146
1.0
147
0.625
 71
     0
 72
     0
 73
     0
 74
     0
 75
     0
 76
     0
 77
     1
 78
     8
170
     0
171
     3
172
     1
173
     0
174
     0
175
     0
176
     0
177
     0
178
     0
270
     2
271
     2
272
     2
273
     2
274
     3
340
11
275
     0
280
     0
281
     0
282
     0
283
     0
284
     8
285
     0
286
     0
287
     3
288
     0
  0
ENDTAB
  0
TABLE
  2
BLOCK_RECORD
  5
1
330
0
100
AcDbSymbolTable
 70
     1
  0
BLOCK_RECORD
  5
1F
330
1
100
AcDbSymbolTableRecord
100
AcDbBlockTableRecord
  2
*MODEL_SPACE
  0
BLOCK_RECORD
  5
1B
330
1
100
AcDbSymbolTableRecord
100
AcDbBlockTableRecord
  2
*PAPER_SPACE
  0
ENDTAB
  0
ENDSEC
  0
SECTION
  2
BLOCKS
  0
BLOCK
  5
20
330
1F
100
AcDbEntity
  8
0
100
AcDbBlockBegin
  2
*MODEL_SPACE
 70
     0
 10
0.0
 20
0.0
 30
0.0
  3
*MODEL_SPACE
  1

  0
ENDBLK
  5
21
330
1F
100
AcDbEntity
  8
0
100
AcDbBlockEnd
  0
BLOCK
  5
1C
330
1B
100
AcDbEntity
 67
     1
  8
0
100
AcDbBlockBegin
  2
*PAPER_SPACE
  1

  0
ENDBLK
  5
1D
330
1B
100
AcDbEntity
 67
     1
  8
0
100
AcDbBlockEnd
  0
ENDSEC
  0
SECTION
  2
ENTITIES
  0
LINE
  5
100
100
AcDbEntity
  8
argola
 62
7
100
AcDbLine
 10
14.791329
 20
33.690930
 30
0.0
 11
14.103412
 21
33.620374
 31
0.0
  0
LINE
  5
101
100
AcDbEntity
  8
argola
 62
7
100
AcDbLine
 10
14.103412
 20
33.620374
 30
0.0
 11
13.468412
 21
33.426346
 31
0.0
  0
LINE
  5
102
100
AcDbEntity
  8
argola
 62
7
100
AcDbLine
 10
13.468412
 20
33.426346
 30
0.0
 11
12.886329
 21
33.108846
 31
0.0
  0
LINE
  5
103
100
AcDbEntity
  8
argola
 62
7
100
AcDbLine
 10
12.886329
 20
33.108846
 30
0.0
 11
12.383620
 21
32.694332
 31
0.0
  0
LINE
  5
104
100
AcDbEntity
  8
argola
 62
7
100
AcDbLine
 10
12.383620
 20
32.694332
 30
0.0
 11
11.969107
 21
32.182805
 31
0.0
  0
LINE
  5
105
100
AcDbEntity
  8
argola
 62
7
100
AcDbLine
 10
11.969107
 20
32.182805
 30
0.0
 11
11.660426
 21
31.609541
 31
0.0
  0
LINE
  5
106
100
AcDbEntity
  8
argola
 62
7
100
AcDbLine
 10
11.660426
 20
31.609541
 30
0.0
 11
11.457579
 21
30.965721
 31
0.0
  0
LINE
  5
107
100
AcDbEntity
  8
argola
 62
7
100
AcDbLine
 10
11.457579
 20
30.965721
 30
0.0
 11
11.387023
 21
30.277805
 31
0.0
  0
LINE
  5
108
100
AcDbEntity
  8
argola
 62
7
100
AcDbLine
 10
11.387023
 20
30.277805
 30
0.0
 11
11.457579
 21
29.589888
 31
0.0
  0
LINE
  5
109
100
AcDbEntity
  8
argola
 62
7
100
AcDbLine
 10
11.457579
 20
29.589888
 30
0.0
 11
11.660426
 21
28.946069
 31
0.0
  0
LINE
  5
10a
100
AcDbEntity
  8
argola
 62
7
100
AcDbLine
 10
11.660426
 20
28.946069
 30
0.0
 11
11.969107
 21
28.372805
 31
0.0
  0
LINE
  5
10b
100
AcDbEntity
  8
argola
 62
7
100
AcDbLine
 10
11.969107
 20
28.372805
 30
0.0
 11
12.383620
 21
27.861277
 31
0.0
  0
LINE
  5
10c
100
AcDbEntity
  8
argola
 62
7
100
AcDbLine
 10
12.383620
 20
27.861277
 30
0.0
 11
12.886329
 21
27.446763
 31
0.0
  0
LINE
  5
10d
100
AcDbEntity
  8
argola
 62
7
100
AcDbLine
 10
12.886329
 20
27.446763
 30
0.0
 11
13.468412
 21
27.129263
 31
0.0
  0
LINE
  5
10e
100
AcDbEntity
  8
argola
 62
7
100
AcDbLine
 10
13.468412
 20
27.129263
 30
0.0
 11
14.103412
 21
26.935235
 31
0.0
  0
LINE
  5
10f
100
AcDbEntity
  8
argola
 62
7
100
AcDbLine
 10
14.103412
 20
26.935235
 30
0.0
 11
14.791329
 21
26.864680
 31
0.0
  0
LINE
  5
110
100
AcDbEntity
  8
argola
 62
7
100
AcDbLine
 10
14.791329
 20
26.864680
 30
0.0
 11
15.479245
 21
26.935235
 31
0.0
  0
LINE
  5
111
100
AcDbEntity
  8
argola
 62
7
100
AcDbLine
 10
15.479245
 20
26.935235
 30
0.0
 11
16.123065
 21
27.129263
 31
0.0
  0
LINE
  5
112
100
AcDbEntity
  8
argola
 62
7
100
AcDbLine
 10
16.123065
 20
27.129263
 30
0.0
 11
16.696329
 21
27.446763
 31
0.0
  0
LINE
  5
113
100
AcDbEntity
  8
argola
 62
7
100
AcDbLine
 10
16.696329
 20
27.446763
 30
0.0
 11
17.199037
 21
27.861277
 31
0.0
  0
LINE
  5
114
100
AcDbEntity
  8
argola
 62
7
100
AcDbLine
 10
17.199037
 20
27.861277
 30
0.0
 11
17.613551
 21
28.372805
 31
0.0
  0
LINE
  5
115
100
AcDbEntity
  8
argola
 62
7
100
AcDbLine
 10
17.613551
 20
28.372805
 30
0.0
 11
17.931051
 21
28.946069
 31
0.0
  0
LINE
  5
116
100
AcDbEntity
  8
argola
 62
7
100
AcDbLine
 10
17.931051
 20
28.946069
 30
0.0
 11
18.125079
 21
29.589888
 31
0.0
  0
LINE
  5
117
100
AcDbEntity
  8
argola
 62
7
100
AcDbLine
 10
18.125079
 20
29.589888
 30
0.0
 11
18.195634
 21
30.277805
 31
0.0
  0
LINE
  5
118
100
AcDbEntity
  8
argola
 62
7
100
AcDbLine
 10
18.195634
 20
30.277805
 30
0.0
 11
18.125079
 21
30.965721
 31
0.0
  0
LINE
  5
119
100
AcDbEntity
  8
argola
 62
7
100
AcDbLine
 10
18.125079
 20
30.965721
 30
0.0
 11
17.931051
 21
31.609541
 31
0.0
  0
LINE
  5
11a
100
AcDbEntity
  8
argola
 62
7
100
AcDbLine
 10
17.931051
 20
31.609541
 30
0.0
 11
17.613551
 21
32.182805
 31
0.0
  0
LINE
  5
11b
100
AcDbEntity
  8
argola
 62
7
100
AcDbLine
 10
17.613551
 20
32.182805
 30
0.0
 11
17.199037
 21
32.694332
 31
0.0
  0
LINE
  5
11c
100
AcDbEntity
  8
argola
 62
7
100
AcDbLine
 10
17.199037
 20
32.694332
 30
0.0
 11
16.696329
 21
33.108846
 31
0.0
  0
LINE
  5
11d
100
AcDbEntity
  8
argola
 62
7
100
AcDbLine
 10
16.696329
 20
33.108846
 30
0.0
 11
16.123065
 21
33.426346
 31
0.0
  0
LINE
  5
11e
100
AcDbEntity
  8
argola
 62
7
100
AcDbLine
 10
16.123065
 20
33.426346
 30
0.0
 11
15.479245
 21
33.620374
 31
0.0
  0
LINE
  5
11f
100
AcDbEntity
  8
argola
 62
7
100
AcDbLine
 10
15.479245
 20
33.620374
 30
0.0
 11
14.791329
 21
33.690930
 31
0.0
  0
LINE
  5
120
100
AcDbEntity
  8
argola
 62
7
100
AcDbLine
 10
14.791329
 20
33.690930
 30
0.0
 11
14.791329
 21
33.690930
 31
0.0
  0
LINE
  5
121
100
AcDbEntity
  8
argola
 62
7
100
AcDbLine
 10
14.641398
 20
31.777110
 30
0.0
 11
14.659037
 21
31.777110
 31
0.0
  0
LINE
  5
122
100
AcDbEntity
  8
argola
 62
7
100
AcDbLine
 10
14.659037
 20
31.777110
 30
0.0
 11
14.676676
 21
31.777110
 31
0.0
  0
LINE
  5
123
100
AcDbEntity
  8
argola
 62
7
100
AcDbLine
 10
14.676676
 20
31.777110
 30
0.0
 11
14.703134
 21
31.777110
 31
0.0
  0
LINE
  5
124
100
AcDbEntity
  8
argola
 62
7
100
AcDbLine
 10
14.703134
 20
31.777110
 30
0.0
 11
14.720773
 21
31.777110
 31
0.0
  0
LINE
  5
125
100
AcDbEntity
  8
argola
 62
7
100
AcDbLine
 10
14.720773
 20
31.777110
 30
0.0
 11
14.738412
 21
31.777110
 31
0.0
  0
LINE
  5
126
100
AcDbEntity
  8
argola
 62
7
100
AcDbLine
 10
14.738412
 20
31.777110
 30
0.0
 11
14.756051
 21
31.777110
 31
0.0
  0
LINE
  5
127
100
AcDbEntity
  8
argola
 62
7
100
AcDbLine
 10
14.756051
 20
31.777110
 30
0.0
 11
14.773690
 21
31.777110
 31
0.0
  0
LINE
  5
128
100
AcDbEntity
  8
argola
 62
7
100
AcDbLine
 10
14.773690
 20
31.777110
 30
0.0
 11
14.791329
 21
31.777110
 31
0.0
  0
LINE
  5
129
100
AcDbEntity
  8
argola
 62
7
100
AcDbLine
 10
14.791329
 20
31.777110
 30
0.0
 11
15.100009
 21
31.750652
 31
0.0
  0
LINE
  5
12a
100
AcDbEntity
  8
argola
 62
7
100
AcDbLine
 10
15.100009
 20
31.750652
 30
0.0
 11
15.373412
 21
31.662457
 31
0.0
  0
LINE
  5
12b
100
AcDbEntity
  8
argola
 62
7
100
AcDbLine
 10
15.373412
 20
31.662457
 30
0.0
 11
15.629176
 21
31.521346
 31
0.0
  0
LINE
  5
12c
100
AcDbEntity
  8
argola
 62
7
100
AcDbLine
 10
15.629176
 20
31.521346
 30
0.0
 11
15.849662
 21
31.336138
 31
0.0
  0
LINE
  5
12d
100
AcDbEntity
  8
argola
 62
7
100
AcDbLine
 10
15.849662
 20
31.336138
 30
0.0
 11
16.034870
 21
31.115652
 31
0.0
  0
LINE
  5
12e
100
AcDbEntity
  8
argola
 62
7
100
AcDbLine
 10
16.034870
 20
31.115652
 30
0.0
 11
16.175982
 21
30.859888
 31
0.0
  0
LINE
  5
12f
100
AcDbEntity
  8
argola
 62
7
100
AcDbLine
 10
16.175982
 20
30.859888
 30
0.0
 11
16.264176
 21
30.577666
 31
0.0
  0
LINE
  5
130
100
AcDbEntity
  8
argola
 62
7
100
AcDbLine
 10
16.264176
 20
30.577666
 30
0.0
 11
16.290634
 21
30.277805
 31
0.0
  0
LINE
  5
131
100
AcDbEntity
  8
argola
 62
7
100
AcDbLine
 10
16.290634
 20
30.277805
 30
0.0
 11
16.264176
 21
29.977944
 31
0.0
  0
LINE
  5
132
100
AcDbEntity
  8
argola
 62
7
100
AcDbLine
 10
16.264176
 20
29.977944
 30
0.0
 11
16.175982
 21
29.695721
 31
0.0
  0
LINE
  5
133
100
AcDbEntity
  8
argola
 62
7
100
AcDbLine
 10
16.175982
 20
29.695721
 30
0.0
 11
16.034870
 21
29.439957
 31
0.0
  0
LINE
  5
134
100
AcDbEntity
  8
argola
 62
7
100
AcDbLine
 10
16.034870
 20
29.439957
 30
0.0
 11
15.849662
 21
29.219471
 31
0.0
  0
LINE
  5
135
100
AcDbEntity
  8
argola
 62
7
100
AcDbLine
 10
15.849662
 20
29.219471
 30
0.0
 11
15.629176
 21
29.034263
 31
0.0
  0
LINE
  5
136
100
AcDbEntity
  8
argola
 62
7
100
AcDbLine
 10
15.629176
 20
29.034263
 30
0.0
 11
15.373412
 21
28.893152
 31
0.0
  0
LINE
  5
137
100
AcDbEntity
  8
argola
 62
7
100
AcDbLine
 10
15.373412
 20
28.893152
 30
0.0
 11
15.100009
 21
28.804957
 31
0.0
  0
LINE
  5
138
100
AcDbEntity
  8
argola
 62
7
100
AcDbLine
 10
15.100009
 20
28.804957
 30
0.0
 11
14.791329
 21
28.778499
 31
0.0
  0
LINE
  5
139
100
AcDbEntity
  8
argola
 62
7
100
AcDbLine
 10
14.791329
 20
28.778499
 30
0.0
 11
14.491468
 21
28.804957
 31
0.0
  0
LINE
  5
13a
100
AcDbEntity
  8
argola
 62
7
100
AcDbLine
 10
14.491468
 20
28.804957
 30
0.0
 11
14.209245
 21
28.893152
 31
0.0
  0
LINE
  5
13b
100
AcDbEntity
  8
argola
 62
7
100
AcDbLine
 10
14.209245
 20
28.893152
 30
0.0
 11
13.953482
 21
29.034263
 31
0.0
  0
LINE
  5
13c
100
AcDbEntity
  8
argola
 62
7
100
AcDbLine
 10
13.953482
 20
29.034263
 30
0.0
 11
13.732995
 21
29.219471
 31
0.0
  0
LINE
  5
13d
100
AcDbEntity
  8
argola
 62
7
100
AcDbLine
 10
13.732995
 20
29.219471
 30
0.0
 11
13.547787
 21
29.439957
 31
0.0
  0
LINE
  5
13e
100
AcDbEntity
  8
argola
 62
7
100
AcDbLine
 10
13.547787
 20
29.439957
 30
0.0
 11
13.415495
 21
29.695721
 31
0.0
  0
LINE
  5
13f
100
AcDbEntity
  8
argola
 62
7
100
AcDbLine
 10
13.415495
 20
29.695721
 30
0.0
 11
13.327301
 21
29.977944
 31
0.0
  0
LINE
  5
140
100
AcDbEntity
  8
argola
 62
7
100
AcDbLine
 10
13.327301
 20
29.977944
 30
0.0
 11
13.292023
 21
30.277805
 31
0.0
  0
LINE
  5
141
100
AcDbEntity
  8
argola
 62
7
100
AcDbLine
 10
13.292023
 20
30.277805
 30
0.0
 11
13.318482
 21
30.560027
 31
0.0
  0
LINE
  5
142
100
AcDbEntity
  8
argola
 62
7
100
AcDbLine
 10
13.318482
 20
30.560027
 30
0.0
 11
13.397857
 21
30.824610
 31
0.0
  0
LINE
  5
143
100
AcDbEntity
  8
argola
 62
7
100
AcDbLine
 10
13.397857
 20
30.824610
 30
0.0
 11
13.521329
 21
31.071555
 31
0.0
  0
LINE
  5
144
100
AcDbEntity
  8
argola
 62
7
100
AcDbLine
 10
13.521329
 20
31.071555
 30
0.0
 11
13.688898
 21
31.292041
 31
0.0
  0
LINE
  5
145
100
AcDbEntity
  8
argola
 62
7
100
AcDbLine
 10
13.688898
 20
31.292041
 30
0.0
 11
13.882926
 21
31.477249
 31
0.0
  0
LINE
  5
146
100
AcDbEntity
  8
argola
 62
7
100
AcDbLine
 10
13.882926
 20
31.477249
 30
0.0
 11
14.112232
 21
31.618360
 31
0.0
  0
LINE
  5
147
100
AcDbEntity
  8
argola
 62
7
100
AcDbLine
 10
14.112232
 20
31.618360
 30
0.0
 11
14.367995
 21
31.724194
 31
0.0
  0
LINE
  5
148
100
AcDbEntity
  8
argola
 62
7
100
AcDbLine
 10
14.367995
 20
31.724194
 30
0.0
 11
14.641398
 21
31.777110
 31
0.0
  0
LINE
  5
149
100
AcDbEntity
  8
argola
 62
7
100
AcDbLine
 10
14.641398
 20
31.777110
 30
0.0
 11
14.641398
 21
31.777110
 31
0.0
  0
LINE
  5
14a
100
AcDbEntity
  8
pacman
 62
7
100
AcDbLine
 10
15.010254
 20
29.983492
 30
0.0
 11
14.154946
 21
29.960209
 31
0.0
  0
LINE
  5
14b
100
AcDbEntity
  8
pacman
 62
7
100
AcDbLine
 10
14.154946
 20
29.960209
 30
0.0
 11
13.303083
 21
29.888479
 31
0.0
  0
LINE
  5
14c
100
AcDbEntity
  8
pacman
 62
7
100
AcDbLine
 10
13.303083
 20
29.888479
 30
0.0
 11
12.456882
 21
29.768619
 31
0.0
  0
LINE
  5
14d
100
AcDbEntity
  8
pacman
 62
7
100
AcDbLine
 10
12.456882
 20
29.768619
 30
0.0
 11
11.618558
 21
29.600954
 31
0.0
  0
LINE
  5
14e
100
AcDbEntity
  8
pacman
 62
7
100
AcDbLine
 10
11.618558
 20
29.600954
 30
0.0
 11
10.790326
 21
29.385805
 31
0.0
  0
LINE
  5
14f
100
AcDbEntity
  8
pacman
 62
7
100
AcDbLine
 10
10.790326
 20
29.385805
 30
0.0
 11
9.974405
 21
29.123499
 31
0.0
  0
LINE
  5
150
100
AcDbEntity
  8
pacman
 62
7
100
AcDbLine
 10
9.974405
 20
29.123499
 30
0.0
 11
9.173007
 21
28.814355
 31
0.0
  0
LINE
  5
151
100
AcDbEntity
  8
pacman
 62
7
100
AcDbLine
 10
9.173007
 20
28.814355
 30
0.0
 11
8.388350
 21
28.458702
 31
0.0
  0
LINE
  5
152
100
AcDbEntity
  8
pacman
 62
7
100
AcDbLine
 10
8.388350
 20
28.458702
 30
0.0
 11
7.622650
 21
28.056857
 31
0.0
  0
LINE
  5
153
100
AcDbEntity
  8
pacman
 62
7
100
AcDbLine
 10
7.622650
 20
28.056857
 30
0.0
 11
6.878122
 21
27.609148
 31
0.0
  0
LINE
  5
154
100
AcDbEntity
  8
pacman
 62
7
100
AcDbLine
 10
6.878122
 20
27.609148
 30
0.0
 11
6.156983
 21
27.115894
 31
0.0
  0
LINE
  5
155
100
AcDbEntity
  8
pacman
 62
7
100
AcDbLine
 10
6.156983
 20
27.115894
 30
0.0
 11
5.461446
 21
26.577423
 31
0.0
  0
LINE
  5
156
100
AcDbEntity
  8
pacman
 62
7
100
AcDbLine
 10
5.461446
 20
26.577423
 30
0.0
 11
4.793728
 21
25.994058
 31
0.0
  0
LINE
  5
157
100
AcDbEntity
  8
pacman
 62
7
100
AcDbLine
 10
4.793728
 20
25.994058
 30
0.0
 11
4.156047
 21
25.366119
 31
0.0
  0
LINE
  5
158
100
AcDbEntity
  8
pacman
 62
7
100
AcDbLine
 10
4.156047
 20
25.366119
 30
0.0
 11
3.550618
 21
24.693934
 31
0.0
  0
LINE
  5
159
100
AcDbEntity
  8
pacman
 62
7
100
AcDbLine
 10
3.550618
 20
24.693934
 30
0.0
 11
2.979657
 21
23.977823
 31
0.0
  0
LINE
  5
15a
100
AcDbEntity
  8
pacman
 62
7
100
AcDbLine
 10
2.979657
 20
23.977823
 30
0.0
 11
2.122068
 21
22.704199
 31
0.0
  0
LINE
  5
15b
100
AcDbEntity
  8
pacman
 62
7
100
AcDbLine
 10
2.122068
 20
22.704199
 30
0.0
 11
1.410990
 21
21.376129
 31
0.0
  0
LINE
  5
15c
100
AcDbEntity
  8
pacman
 62
7
100
AcDbLine
 10
1.410990
 20
21.376129
 30
0.0
 11
0.844900
 21
20.004174
 31
0.0
  0
LINE
  5
15d
100
AcDbEntity
  8
pacman
 62
7
100
AcDbLine
 10
0.844900
 20
20.004174
 30
0.0
 11
0.422286
 21
18.598893
 31
0.0
  0
LINE
  5
15e
100
AcDbEntity
  8
pacman
 62
7
100
AcDbLine
 10
0.422286
 20
18.598893
 30
0.0
 11
0.141628
 21
17.170846
 31
0.0
  0
LINE
  5
15f
100
AcDbEntity
  8
pacman
 62
7
100
AcDbLine
 10
0.141628
 20
17.170846
 30
0.0
 11
0.001411
 21
15.730590
 31
0.0
  0
LINE
  5
160
100
AcDbEntity
  8
pacman
 62
7
100
AcDbLine
 10
0.001411
 20
15.730590
 30
0.0
 11
0.000000
 21
14.288685
 31
0.0
  0
LINE
  5
161
100
AcDbEntity
  8
pacman
 62
7
100
AcDbLine
 10
0.000000
 20
14.288685
 30
0.0
 11
0.136113
 21
12.855691
 31
0.0
  0
LINE
  5
162
100
AcDbEntity
  8
pacman
 62
7
100
AcDbLine
 10
0.136113
 20
12.855691
 30
0.0
 11
0.408113
 21
11.442169
 31
0.0
  0
LINE
  5
163
100
AcDbEntity
  8
pacman
 62
7
100
AcDbLine
 10
0.408113
 20
11.442169
 30
0.0
 11
0.814488
 21
10.058677
 31
0.0
  0
LINE
  5
164
100
AcDbEntity
  8
pacman
 62
7
100
AcDbLine
 10
0.814488
 20
10.058677
 30
0.0
 11
1.353716
 21
8.715773
 31
0.0
  0
LINE
  5
165
100
AcDbEntity
  8
pacman
 62
7
100
AcDbLine
 10
1.353716
 20
8.715773
 30
0.0
 11
2.024284
 21
7.424019
 31
0.0
  0
LINE
  5
166
100
AcDbEntity
  8
pacman
 62
7
100
AcDbLine
 10
2.024284
 20
7.424019
 30
0.0
 11
2.824675
 21
6.193971
 31
0.0
  0
LINE
  5
167
100
AcDbEntity
  8
pacman
 62
7
100
AcDbLine
 10
2.824675
 20
6.193971
 30
0.0
 11
3.753372
 21
5.036191
 31
0.0
  0
LINE
  5
168
100
AcDbEntity
  8
pacman
 62
7
100
AcDbLine
 10
3.753372
 20
5.036191
 30
0.0
 11
4.808855
 21
3.961237
 31
0.0
  0
LINE
  5
169
100
AcDbEntity
  8
pacman
 62
7
100
AcDbLine
 10
4.808855
 20
3.961237
 30
0.0
 11
5.989611
 21
2.979671
 31
0.0
  0
LINE
  5
16a
100
AcDbEntity
  8
pacman
 62
7
100
AcDbLine
 10
5.989611
 20
2.979671
 30
0.0
 11
7.263181
 21
2.122080
 31
0.0
  0
LINE
  5
16b
100
AcDbEntity
  8
pacman
 62
7
100
AcDbLine
 10
7.263181
 20
2.122080
 30
0.0
 11
8.591101
 21
1.410995
 31
0.0
  0
LINE
  5
16c
100
AcDbEntity
  8
pacman
 62
7
100
AcDbLine
 10
8.591101
 20
1.410995
 30
0.0
 11
9.962820
 21
0.844903
 31
0.0
  0
LINE
  5
16d
100
AcDbEntity
  8
pacman
 62
7
100
AcDbLine
 10
9.962820
 20
0.844903
 30
0.0
 11
11.367793
 21
0.422286
 31
0.0
  0
LINE
  5
16e
100
AcDbEntity
  8
pacman
 62
7
100
AcDbLine
 10
11.367793
 20
0.422286
 30
0.0
 11
12.795476
 21
0.141628
 31
0.0
  0
LINE
  5
16f
100
AcDbEntity
  8
pacman
 62
7
100
AcDbLine
 10
12.795476
 20
0.141628
 30
0.0
 11
14.235328
 21
0.001411
 31
0.0
  0
LINE
  5
170
100
AcDbEntity
  8
pacman
 62
7
100
AcDbLine
 10
14.235328
 20
0.001411
 30
0.0
 11
15.676798
 21
0.000000
 31
0.0
  0
LINE
  5
171
100
AcDbEntity
  8
pacman
 62
7
100
AcDbLine
 10
15.676798
 20
0.000000
 30
0.0
 11
17.109341
 21
0.136113
 31
0.0
  0
LINE
  5
172
100
AcDbEntity
  8
pacman
 62
7
100
AcDbLine
 10
17.109341
 20
0.136113
 30
0.0
 11
18.522414
 21
0.408116
 31
0.0
  0
LINE
  5
173
100
AcDbEntity
  8
pacman
 62
7
100
AcDbLine
 10
18.522414
 20
0.408116
 30
0.0
 11
19.905472
 21
0.814491
 31
0.0
  0
LINE
  5
174
100
AcDbEntity
  8
pacman
 62
7
100
AcDbLine
 10
19.905472
 20
0.814491
 30
0.0
 11
21.247966
 21
1.353724
 31
0.0
  0
LINE
  5
175
100
AcDbEntity
  8
pacman
 62
7
100
AcDbLine
 10
21.247966
 20
1.353724
 30
0.0
 11
22.539356
 21
2.024295
 31
0.0
  0
LINE
  5
176
100
AcDbEntity
  8
pacman
 62
7
100
AcDbLine
 10
22.539356
 20
2.024295
 30
0.0
 11
23.769091
 21
2.824689
 31
0.0
  0
LINE
  5
177
100
AcDbEntity
  8
pacman
 62
7
100
AcDbLine
 10
23.769091
 20
2.824689
 30
0.0
 11
24.926631
 21
3.753383
 31
0.0
  0
LINE
  5
178
100
AcDbEntity
  8
pacman
 62
7
100
AcDbLine
 10
24.926631
 20
3.753383
 30
0.0
 11
26.001427
 21
4.808869
 31
0.0
  0
LINE
  5
179
100
AcDbEntity
  8
pacman
 62
7
100
AcDbLine
 10
26.001427
 20
4.808869
 30
0.0
 11
26.982936
 21
5.989625
 31
0.0
  0
LINE
  5
17a
100
AcDbEntity
  8
pacman
 62
7
100
AcDbLine
 10
26.982936
 20
5.989625
 30
0.0
 11
26.232829
 21
6.551905
 31
0.0
  0
LINE
  5
17b
100
AcDbEntity
  8
pacman
 62
7
100
AcDbLine
 10
26.232829
 20
6.551905
 30
0.0
 11
25.482722
 21
7.114182
 31
0.0
  0
LINE
  5
17c
100
AcDbEntity
  8
pacman
 62
7
100
AcDbLine
 10
25.482722
 20
7.114182
 30
0.0
 11
24.732618
 21
7.676461
 31
0.0
  0
LINE
  5
17d
100
AcDbEntity
  8
pacman
 62
7
100
AcDbLine
 10
24.732618
 20
7.676461
 30
0.0
 11
23.982511
 21
8.238738
 31
0.0
  0
LINE
  5
17e
100
AcDbEntity
  8
pacman
 62
7
100
AcDbLine
 10
23.982511
 20
8.238738
 30
0.0
 11
23.232404
 21
8.801018
 31
0.0
  0
LINE
  5
17f
100
AcDbEntity
  8
pacman
 62
7
100
AcDbLine
 10
23.232404
 20
8.801018
 30
0.0
 11
22.482299
 21
9.363295
 31
0.0
  0
LINE
  5
180
100
AcDbEntity
  8
pacman
 62
7
100
AcDbLine
 10
22.482299
 20
9.363295
 30
0.0
 11
21.732192
 21
9.925575
 31
0.0
  0
LINE
  5
181
100
AcDbEntity
  8
pacman
 62
7
100
AcDbLine
 10
21.732192
 20
9.925575
 30
0.0
 11
20.982088
 21
10.487852
 31
0.0
  0
LINE
  5
182
100
AcDbEntity
  8
pacman
 62
7
100
AcDbLine
 10
20.982088
 20
10.487852
 30
0.0
 11
20.231981
 21
11.050129
 31
0.0
  0
LINE
  5
183
100
AcDbEntity
  8
pacman
 62
7
100
AcDbLine
 10
20.231981
 20
11.050129
 30
0.0
 11
19.481873
 21
11.612409
 31
0.0
  0
LINE
  5
184
100
AcDbEntity
  8
pacman
 62
7
100
AcDbLine
 10
19.481873
 20
11.612409
 30
0.0
 11
18.731769
 21
12.174686
 31
0.0
  0
LINE
  5
185
100
AcDbEntity
  8
pacman
 62
7
100
AcDbLine
 10
18.731769
 20
12.174686
 30
0.0
 11
17.981662
 21
12.736965
 31
0.0
  0
LINE
  5
186
100
AcDbEntity
  8
pacman
 62
7
100
AcDbLine
 10
17.981662
 20
12.736965
 30
0.0
 11
17.231555
 21
13.299242
 31
0.0
  0
LINE
  5
187
100
AcDbEntity
  8
pacman
 62
7
100
AcDbLine
 10
17.231555
 20
13.299242
 30
0.0
 11
16.481450
 21
13.861522
 31
0.0
  0
LINE
  5
188
100
AcDbEntity
  8
pacman
 62
7
100
AcDbLine
 10
16.481450
 20
13.861522
 30
0.0
 11
15.731343
 21
14.423799
 31
0.0
  0
LINE
  5
189
100
AcDbEntity
  8
pacman
 62
7
100
AcDbLine
 10
15.731343
 20
14.423799
 30
0.0
 11
14.981239
 21
14.986079
 31
0.0
  0
LINE
  5
18a
100
AcDbEntity
  8
pacman
 62
7
100
AcDbLine
 10
14.981239
 20
14.986079
 30
0.0
 11
15.714187
 21
15.570632
 31
0.0
  0
LINE
  5
18b
100
AcDbEntity
  8
pacman
 62
7
100
AcDbLine
 10
15.714187
 20
15.570632
 30
0.0
 11
16.447135
 21
16.155185
 31
0.0
  0
LINE
  5
18c
100
AcDbEntity
  8
pacman
 62
7
100
AcDbLine
 10
16.447135
 20
16.155185
 30
0.0
 11
17.180086
 21
16.739737
 31
0.0
  0
LINE
  5
18d
100
AcDbEntity
  8
pacman
 62
7
100
AcDbLine
 10
17.180086
 20
16.739737
 30
0.0
 11
17.913034
 21
17.324290
 31
0.0
  0
LINE
  5
18e
100
AcDbEntity
  8
pacman
 62
7
100
AcDbLine
 10
17.913034
 20
17.324290
 30
0.0
 11
18.645982
 21
17.908843
 31
0.0
  0
LINE
  5
18f
100
AcDbEntity
  8
pacman
 62
7
100
AcDbLine
 10
18.645982
 20
17.908843
 30
0.0
 11
19.378930
 21
18.493396
 31
0.0
  0
LINE
  5
190
100
AcDbEntity
  8
pacman
 62
7
100
AcDbLine
 10
19.378930
 20
18.493396
 30
0.0
 11
20.111881
 21
19.077948
 31
0.0
  0
LINE
  5
191
100
AcDbEntity
  8
pacman
 62
7
100
AcDbLine
 10
20.111881
 20
19.077948
 30
0.0
 11
20.844829
 21
19.662501
 31
0.0
  0
LINE
  5
192
100
AcDbEntity
  8
pacman
 62
7
100
AcDbLine
 10
20.844829
 20
19.662501
 30
0.0
 11
21.577777
 21
20.247054
 31
0.0
  0
LINE
  5
193
100
AcDbEntity
  8
pacman
 62
7
100
AcDbLine
 10
21.577777
 20
20.247054
 30
0.0
 11
22.310725
 21
20.831607
 31
0.0
  0
LINE
  5
194
100
AcDbEntity
  8
pacman
 62
7
100
AcDbLine
 10
22.310725
 20
20.831607
 30
0.0
 11
23.043676
 21
21.416160
 31
0.0
  0
LINE
  5
195
100
AcDbEntity
  8
pacman
 62
7
100
AcDbLine
 10
23.043676
 20
21.416160
 30
0.0
 11
23.776624
 21
22.000712
 31
0.0
  0
LINE
  5
196
100
AcDbEntity
  8
pacman
 62
7
100
AcDbLine
 10
23.776624
 20
22.000712
 30
0.0
 11
24.509572
 21
22.585265
 31
0.0
  0
LINE
  5
197
100
AcDbEntity
  8
pacman
 62
7
100
AcDbLine
 10
24.509572
 20
22.585265
 30
0.0
 11
25.242520
 21
23.169818
 31
0.0
  0
LINE
  5
198
100
AcDbEntity
  8
pacman
 62
7
100
AcDbLine
 10
25.242520
 20
23.169818
 30
0.0
 11
25.975471
 21
23.754371
 31
0.0
  0
LINE
  5
199
100
AcDbEntity
  8
pacman
 62
7
100
AcDbLine
 10
25.975471
 20
23.754371
 30
0.0
 11
26.708419
 21
24.338923
 31
0.0
  0
LINE
  5
19a
100
AcDbEntity
  8
pacman
 62
7
100
AcDbLine
 10
26.708419
 20
24.338923
 30
0.0
 11
26.558102
 21
24.524293
 31
0.0
  0
LINE
  5
19b
100
AcDbEntity
  8
pacman
 62
7
100
AcDbLine
 10
26.558102
 20
24.524293
 30
0.0
 11
26.404914
 21
24.707167
 31
0.0
  0
LINE
  5
19c
100
AcDbEntity
  8
pacman
 62
7
100
AcDbLine
 10
26.404914
 20
24.707167
 30
0.0
 11
26.248891
 21
24.887515
 31
0.0
  0
LINE
  5
19d
100
AcDbEntity
  8
pacman
 62
7
100
AcDbLine
 10
26.248891
 20
24.887515
 30
0.0
 11
26.090062
 21
25.065307
 31
0.0
  0
LINE
  5
19e
100
AcDbEntity
  8
pacman
 62
7
100
AcDbLine
 10
26.090062
 20
25.065307
 30
0.0
 11
25.928464
 21
25.240508
 31
0.0
  0
LINE
  5
19f
100
AcDbEntity
  8
pacman
 62
7
100
AcDbLine
 10
25.928464
 20
25.240508
 30
0.0
 11
25.764129
 21
25.413089
 31
0.0
  0
LINE
  5
1a0
100
AcDbEntity
  8
pacman
 62
7
100
AcDbLine
 10
25.764129
 20
25.413089
 30
0.0
 11
25.597090
 21
25.583015
 31
0.0
  0
LINE
  5
1a1
100
AcDbEntity
  8
pacman
 62
7
100
AcDbLine
 10
25.597090
 20
25.583015
 30
0.0
 11
25.427384
 21
25.750260
 31
0.0
  0
LINE
  5
1a2
100
AcDbEntity
  8
pacman
 62
7
100
AcDbLine
 10
25.427384
 20
25.750260
 30
0.0
 11
25.255042
 21
25.914787
 31
0.0
  0
LINE
  5
1a3
100
AcDbEntity
  8
pacman
 62
7
100
AcDbLine
 10
25.255042
 20
25.914787
 30
0.0
 11
25.080098
 21
26.076569
 31
0.0
  0
LINE
  5
1a4
100
AcDbEntity
  8
pacman
 62
7
100
AcDbLine
 10
25.080098
 20
26.076569
 30
0.0
 11
24.902589
 21
26.235570
 31
0.0
  0
LINE
  5
1a5
100
AcDbEntity
  8
pacman
 62
7
100
AcDbLine
 10
24.902589
 20
26.235570
 30
0.0
 11
24.722542
 21
26.391760
 31
0.0
  0
LINE
  5
1a6
100
AcDbEntity
  8
pacman
 62
7
100
AcDbLine
 10
24.722542
 20
26.391760
 30
0.0
 11
24.539998
 21
26.545108
 31
0.0
  0
LINE
  5
1a7
100
AcDbEntity
  8
pacman
 62
7
100
AcDbLine
 10
24.539998
 20
26.545108
 30
0.0
 11
24.354985
 21
26.695581
 31
0.0
  0
LINE
  5
1a8
100
AcDbEntity
  8
pacman
 62
7
100
AcDbLine
 10
24.354985
 20
26.695581
 30
0.0
 11
24.167538
 21
26.843146
 31
0.0
  0
LINE
  5
1a9
100
AcDbEntity
  8
pacman
 62
7
100
AcDbLine
 10
24.167538
 20
26.843146
 30
0.0
 11
23.977693
 21
26.987777
 31
0.0
  0
LINE
  5
1aa
100
AcDbEntity
  8
pacman
 62
7
100
AcDbLine
 10
23.977693
 20
26.987777
 30
0.0
 11
23.467534
 21
27.353918
 31
0.0
  0
LINE
  5
1ab
100
AcDbEntity
  8
pacman
 62
7
100
AcDbLine
 10
23.467534
 20
27.353918
 30
0.0
 11
22.947370
 21
27.695697
 31
0.0
  0
LINE
  5
1ac
100
AcDbEntity
  8
pacman
 62
7
100
AcDbLine
 10
22.947370
 20
27.695697
 30
0.0
 11
22.417907
 21
28.013223
 31
0.0
  0
LINE
  5
1ad
100
AcDbEntity
  8
pacman
 62
7
100
AcDbLine
 10
22.417907
 20
28.013223
 30
0.0
 11
21.879854
 21
28.306601
 31
0.0
  0
LINE
  5
1ae
100
AcDbEntity
  8
pacman
 62
7
100
AcDbLine
 10
21.879854
 20
28.306601
 30
0.0
 11
21.333912
 21
28.575945
 31
0.0
  0
LINE
  5
1af
100
AcDbEntity
  8
pacman
 62
7
100
AcDbLine
 10
21.333912
 20
28.575945
 30
0.0
 11
20.780793
 21
28.821360
 31
0.0
  0
LINE
  5
1b0
100
AcDbEntity
  8
pacman
 62
7
100
AcDbLine
 10
20.780793
 20
28.821360
 30
0.0
 11
20.221197
 21
29.042955
 31
0.0
  0
LINE
  5
1b1
100
AcDbEntity
  8
pacman
 62
7
100
AcDbLine
 10
20.221197
 20
29.042955
 30
0.0
 11
19.655838
 21
29.240841
 31
0.0
  0
LINE
  5
1b2
100
AcDbEntity
  8
pacman
 62
7
100
AcDbLine
 10
19.655838
 20
29.240841
 30
0.0
 11
19.085419
 21
29.415125
 31
0.0
  0
LINE
  5
1b3
100
AcDbEntity
  8
pacman
 62
7
100
AcDbLine
 10
19.085419
 20
29.415125
 30
0.0
 11
18.510645
 21
29.565913
 31
0.0
  0
LINE
  5
1b4
100
AcDbEntity
  8
pacman
 62
7
100
AcDbLine
 10
18.510645
 20
29.565913
 30
0.0
 11
17.932225
 21
29.693317
 31
0.0
  0
LINE
  5
1b5
100
AcDbEntity
  8
pacman
 62
7
100
AcDbLine
 10
17.932225
 20
29.693317
 30
0.0
 11
17.350864
 21
29.797446
 31
0.0
  0
LINE
  5
1b6
100
AcDbEntity
  8
pacman
 62
7
100
AcDbLine
 10
17.350864
 20
29.797446
 30
0.0
 11
16.767268
 21
29.878407
 31
0.0
  0
LINE
  5
1b7
100
AcDbEntity
  8
pacman
 62
7
100
AcDbLine
 10
16.767268
 20
29.878407
 30
0.0
 11
16.182145
 21
29.936307
 31
0.0
  0
LINE
  5
1b8
100
AcDbEntity
  8
pacman
 62
7
100
AcDbLine
 10
16.182145
 20
29.936307
 30
0.0
 11
15.596198
 21
29.971258
 31
0.0
  0
LINE
  5
1b9
100
AcDbEntity
  8
pacman
 62
7
100
AcDbLine
 10
15.596198
 20
29.971258
 30
0.0
 11
15.010254
 21
29.983492
 31
0.0
  0
LINE
  5
1ba
100
AcDbEntity
  8
pacman
 62
7
100
AcDbLine
 10
16.989676
 20
24.907359
 30
0.0
 11
17.543063
 21
24.795836
 31
0.0
  0
LINE
  5
1bb
100
AcDbEntity
  8
pacman
 62
7
100
AcDbLine
 10
17.543063
 20
24.795836
 30
0.0
 11
17.994619
 21
24.491563
 31
0.0
  0
LINE
  5
1bc
100
AcDbEntity
  8
pacman
 62
7
100
AcDbLine
 10
17.994619
 20
24.491563
 30
0.0
 11
18.298888
 21
24.039999
 31
0.0
  0
LINE
  5
1bd
100
AcDbEntity
  8
pacman
 62
7
100
AcDbLine
 10
18.298888
 20
24.039999
 30
0.0
 11
18.410411
 21
23.486595
 31
0.0
  0
LINE
  5
1be
100
AcDbEntity
  8
pacman
 62
7
100
AcDbLine
 10
18.410411
 20
23.486595
 30
0.0
 11
18.298888
 21
22.932452
 31
0.0
  0
LINE
  5
1bf
100
AcDbEntity
  8
pacman
 62
7
100
AcDbLine
 10
18.298888
 20
22.932452
 30
0.0
 11
17.994619
 21
22.479240
 31
0.0
  0
LINE
  5
1c0
100
AcDbEntity
  8
pacman
 62
7
100
AcDbLine
 10
17.994619
 20
22.479240
 30
0.0
 11
17.543063
 21
22.173311
 31
0.0
  0
LINE
  5
1c1
100
AcDbEntity
  8
pacman
 62
7
100
AcDbLine
 10
17.543063
 20
22.173311
 30
0.0
 11
16.989676
 21
22.061035
 31
0.0
  0
LINE
  5
1c2
100
AcDbEntity
  8
pacman
 62
7
100
AcDbLine
 10
16.989676
 20
22.061035
 30
0.0
 11
16.435522
 21
22.173311
 31
0.0
  0
LINE
  5
1c3
100
AcDbEntity
  8
pacman
 62
7
100
AcDbLine
 10
16.435522
 20
22.173311
 30
0.0
 11
15.982309
 21
22.479240
 31
0.0
  0
LINE
  5
1c4
100
AcDbEntity
  8
pacman
 62
7
100
AcDbLine
 10
15.982309
 20
22.479240
 30
0.0
 11
15.676389
 21
22.932452
 31
0.0
  0
LINE
  5
1c5
100
AcDbEntity
  8
pacman
 62
7
100
AcDbLine
 10
15.676389
 20
22.932452
 30
0.0
 11
15.564115
 21
23.486595
 31
0.0
  0
LINE
  5
1c6
100
AcDbEntity
  8
pacman
 62
7
100
AcDbLine
 10
15.564115
 20
23.486595
 30
0.0
 11
15.676389
 21
24.039999
 31
0.0
  0
LINE
  5
1c7
100
AcDbEntity
  8
pacman
 62
7
100
AcDbLine
 10
15.676389
 20
24.039999
 30
0.0
 11
15.982309
 21
24.491563
 31
0.0
  0
LINE
  5
1c8
100
AcDbEntity
  8
pacman
 62
7
100
AcDbLine
 10
15.982309
 20
24.491563
 30
0.0
 11
16.435522
 21
24.795836
 31
0.0
  0
LINE
  5
1c9
100
AcDbEntity
  8
pacman
 62
7
100
AcDbLine
 10
16.435522
 20
24.795836
 30
0.0
 11
16.989676
 21
24.907359
 31
0.0
  0
ENDSEC
  0
SECTION
  2
OBJECTS
  0
DICTIONARY
  5
C
330
0
100
AcDbDictionary
  3
ACAD_GROUP
350
D
  3
ACAD_MLINESTYLE
350
17
  0
DICTIONARY
  5
D
330
C
100
AcDbDictionary
  0
DICTIONARY
  5
1A
330
C
100
AcDbDictionary
  0
DICTIONARY
  5
17
330
C
100
AcDbDictionary
  3
STANDARD
350
18
  0
DICTIONARY
  5
19
330
C
100
AcDbDictionary
  0
ENDSEC
  0
EOF
