<?xml version="1.0" encoding="UTF-8" standalone="no"?>
<!-- Created with Inkscape (http://www.inkscape.org/) -->

<svg
   xmlns:dc="http://purl.org/dc/elements/1.1/"
   xmlns:cc="http://creativecommons.org/ns#"
   xmlns:rdf="http://www.w3.org/1999/02/22-rdf-syntax-ns#"
   xmlns:svg="http://www.w3.org/2000/svg"
   xmlns="http://www.w3.org/2000/svg"
   version="1.1"
   width="4000"
   height="600"
   id="svg2">
  <metadata
     id="metadata141">
    <rdf:RDF>
      <cc:Work
         rdf:about="">
        <dc:format>image/svg+xml</dc:format>
        <dc:type
           rdf:resource="http://purl.org/dc/dcmitype/StillImage" />
        <dc:title></dc:title>
      </cc:Work>
    </rdf:RDF>
  </metadata>
  <defs
     id="defs139" />
  <g
     id="display">
    <rect
       width="170.07793"
       height="216.0856"
       x="60.813946"
       y="14.709553"
       id="rect4"
       style="fill:#2b0e05;fill-opacity:1;stroke:none" />
    <g
       transform="matrix(0.20389547,0,0,0.20389547,-15.871788,-123.13588)"
       id="shapes">
      <path
         d="m 444.4707,746.32462 0,149.8125 149.81248,-149.8125 -149.81248,0 z"
         id="path7"
         style="fill:#4d1908;fill-opacity:1;stroke:none" />
      <path
         d="m 612.43948,746.32462 0,156.09375 63.7187,0 0.3125,-0.3125 0.3125,0.3125 28.25,0 0,-156.09375 -92.5937,0 z"
         id="path9"
         style="fill:#4d1908;fill-opacity:1;stroke:none" />
      <path
         d="m 715.59568,746.32462 0,156.09375 153.4375,0 0,-156.09375 -153.4375,0 z"
         id="path11"
         style="fill:#4d1908;fill-opacity:1;stroke:none" />
      <path
         d="m 879.62688,746.32462 0,156.09375 25.8438,0 0.3125,-0.3125 0.3125,0.3125 63.4688,0 0,-156.09375 -89.9376,0 z"
         id="path13"
         style="fill:#4d1908;fill-opacity:1;stroke:none" />
      <path
         d="m 988.68948,746.32462 156.78122,156.78125 0,-156.78125 -156.78122,0 z"
         id="path15"
         style="fill:#4d1908;fill-opacity:1;stroke:none" />
      <path
         d="m 980.12688,752.73087 0,186.59375 165.34382,0 0,-21.25 -165.34382,-165.34375 z"
         id="path17"
         style="fill:#4d1908;fill-opacity:1;stroke:none" />
      <path
         d="m 601.84568,753.69962 -148.6875,148.71875 148.6875,0 0,-148.71875 z"
         id="path19"
         style="fill:#4d1908;fill-opacity:1;stroke:none" />
      <path
         d="m 444.4707,912.98087 0,26.34375 157.37498,0 0,-26.34375 -157.37498,0 z"
         id="path21"
         style="fill:#4d1908;fill-opacity:1;stroke:none" />
      <path
         d="m 612.43948,912.98087 0,53.15625 53.1562,-53.15625 -53.1562,0 z"
         id="path23"
         style="fill:#4d1908;fill-opacity:1;stroke:none" />
      <path
         d="m 680.56448,912.98087 -29.6563,29.65625 54.125,54.125 0,-83.78125 -24.4687,0 z"
         id="path25"
         style="fill:#4d1908;fill-opacity:1;stroke:none" />
      <path
         d="m 715.59568,912.98087 0,94.34373 74.1562,74.1563 79.2813,-79.2813 0,-89.21873 -153.4375,0 z"
         id="path27"
         style="fill:#4d1908;fill-opacity:1;stroke:none" />
      <path
         d="m 879.62688,912.98087 0,78.625 50.3438,-50.34375 -28.2812,-28.28125 -22.0626,0 z"
         id="path29"
         style="fill:#4d1908;fill-opacity:1;stroke:none" />
      <path
         d="m 916.65818,912.98087 52.9063,52.90625 0,-52.90625 -52.9063,0 z"
         id="path31"
         style="fill:#4d1908;fill-opacity:1;stroke:none" />
      <path
         d="m 937.18948,948.48087 -57.5626,57.56253 0,105.625 37.7813,0 52.125,-52.1562 0.031,0.031 0,-78.68753 -32.375,-32.375 z"
         id="path33"
         style="fill:#4d1908;fill-opacity:1;stroke:none" />
      <path
         d="m 644.09568,949.44962 -31.6562,31.65625 0,79.18753 51.375,51.375 41.2187,0 0,-101.2813 -60.9375,-60.93748 z"
         id="path35"
         style="fill:#4d1908;fill-opacity:1;stroke:none" />
      <path
         d="m 449.37688,949.91837 152.4688,152.46883 0,-152.46883 -152.4688,0 z"
         id="path37"
         style="fill:#4d1908;fill-opacity:1;stroke:none" />
      <path
         d="m 980.12688,949.91837 0,161.75003 165.34382,0 0,-161.75003 -165.34382,0 z"
         id="path39"
         style="fill:#4d1908;fill-opacity:1;stroke:none" />
      <path
         d="m 444.4707,959.98087 0,151.68753 151.68748,0 L 444.4707,959.98087 z"
         id="path41"
         style="fill:#4d1908;fill-opacity:1;stroke:none" />
      <path
         d="m 869.03318,1016.6371 -72.7813,72.7813 0,22.25 72.7813,0 0,-95.0313 z"
         id="path43"
         style="fill:#4d1908;fill-opacity:1;stroke:none" />
      <path
         d="m 715.59568,1020.9496 0,90.7188 68.625,0 0,-22.0938 -68.625,-68.625 z"
         id="path45"
         style="fill:#4d1908;fill-opacity:1;stroke:none" />
      <path
         d="m 969.56448,1074.4496 -37.2188,37.2188 37.2188,0 0,-37.2188 z"
         id="path47"
         style="fill:#4d1908;fill-opacity:1;stroke:none" />
      <path
         d="m 612.43948,1075.2309 0,36.4375 36.4374,0 -36.4374,-36.4375 z"
         id="path49"
         style="fill:#4d1908;fill-opacity:1;stroke:none" />
      <path
         d="m 453.34568,1122.2309 72.4062,72.4063 72.4063,-72.4063 -144.8125,0 z"
         id="path51"
         style="fill:#4d1908;fill-opacity:1;stroke:none" />
      <path
         d="m 618.12688,1122.2309 72.375,72.375 14.5313,0 0,-72.375 -86.9063,0 z"
         id="path53"
         style="fill:#4d1908;fill-opacity:1;stroke:none" />
      <path
         d="m 715.59568,1122.2309 0,41.0937 41.0938,-41.0937 -41.0938,0 z"
         id="path55"
         style="fill:#4d1908;fill-opacity:1;stroke:none" />
      <path
         d="m 771.62688,1122.2309 -56.0312,56.0313 0,45.8437 55.9062,55.9063 42.5313,0 55,-55 0,-47.6563 -55.125,-55.125 -42.2813,0 z"
         id="path57"
         style="fill:#4d1908;fill-opacity:1;stroke:none" />
      <path
         d="m 828.87688,1122.2309 40.1563,40.1563 0,-40.1563 -40.1563,0 z"
         id="path59"
         style="fill:#4d1908;fill-opacity:1;stroke:none" />
      <path
         d="m 879.62688,1122.2309 0,72.375 14.3438,0 72.375,-72.375 -86.7188,0 z"
         id="path61"
         style="fill:#4d1908;fill-opacity:1;stroke:none" />
      <path
         d="m 991.65818,1122.2309 72.12502,72.1563 72.1563,-72.1563 -144.28132,0 z"
         id="path63"
         style="fill:#4d1908;fill-opacity:1;stroke:none" />
      <path
         d="m 980.12688,1125.6996 0,152.3438 76.18762,-76.1875 -76.18762,-76.1563 z"
         id="path65"
         style="fill:#4d1908;fill-opacity:1;stroke:none" />
      <path
         d="m 1145.4707,1127.6372 -74.1875,74.2187 74.1875,74.2187 0,-148.4374 z"
         id="path67"
         style="fill:#4d1908;fill-opacity:1;stroke:none" />
      <path
         d="m 444.4707,1128.2934 0,147.625 73.81248,-73.8125 -73.81248,-73.8125 z"
         id="path69"
         style="fill:#4d1908;fill-opacity:1;stroke:none" />
      <path
         d="m 612.43948,1131.5122 0,139.1562 69.5937,-69.5625 -69.5937,-69.5937 z"
         id="path71"
         style="fill:#4d1908;fill-opacity:1;stroke:none" />
      <path
         d="m 601.84568,1133.5434 -68.5938,68.5625 68.5938,68.5937 0,-137.1562 z"
         id="path73"
         style="fill:#4d1908;fill-opacity:1;stroke:none" />
      <path
         d="m 969.56448,1133.9809 -67.125,67.125 67.125,67.0937 0,-134.2187 z"
         id="path75"
         style="fill:#4d1908;fill-opacity:1;stroke:none" />
      <path
         d="m 690.47068,1207.5746 -72.4375,72.4376 87,0 0,-72.4376 -14.5625,0 z"
         id="path77"
         style="fill:#4d1908;fill-opacity:1;stroke:none" />
      <path
         d="m 879.62688,1207.5746 0,72.4376 86.8126,0 -72.4376,-72.4376 -14.375,0 z"
         id="path79"
         style="fill:#4d1908;fill-opacity:1;stroke:none" />
      <path
         d="m 1063.7832,1209.3559 -70.65632,70.6563 141.34382,0 -70.6875,-70.6563 z"
         id="path81"
         style="fill:#4d1908;fill-opacity:1;stroke:none" />
      <path
         d="m 525.78318,1209.6059 -70.4375,70.4063 140.8438,0 -70.4063,-70.4063 z"
         id="path83"
         style="fill:#4d1908;fill-opacity:1;stroke:none" />
      <path
         d="m 715.59568,1239.0434 0,40.9688 40.9375,0 -40.9375,-40.9688 z"
         id="path85"
         style="fill:#4d1908;fill-opacity:1;stroke:none" />
      <path
         d="m 869.03318,1239.9809 -40,40.0313 40,0 0,-40.0313 z"
         id="path87"
         style="fill:#4d1908;fill-opacity:1;stroke:none" />
      <path
         d="m 444.7519,1290.6059 -0.2812,0.2813 0,150.8124 151.09378,-151.0937 -150.81258,0 z"
         id="path89"
         style="fill:#4d1908;fill-opacity:1;stroke:none" />
      <path
         d="m 612.43948,1290.6059 0,36.2813 36.3124,-36.2813 -36.3124,0 z"
         id="path91"
         style="fill:#4d1908;fill-opacity:1;stroke:none" />
      <path
         d="m 663.68948,1290.6059 -51.25,51.25 0,79.125 31.6562,31.6563 60.9375,-60.9376 0,-101.0937 -41.3437,0 z"
         id="path93"
         style="fill:#4d1908;fill-opacity:1;stroke:none" />
      <path
         d="m 715.59568,1290.6059 0,90.5313 68.625,-68.625 0,-21.9063 -68.625,0 z"
         id="path95"
         style="fill:#4d1908;fill-opacity:1;stroke:none" />
      <path
         d="m 796.25188,1290.6059 0,22.0625 72.7813,72.7812 0,-94.8437 -72.7813,0 z"
         id="path97"
         style="fill:#4d1908;fill-opacity:1;stroke:none" />
      <path
         d="m 879.62688,1290.6059 0,105.4375 57.5626,57.5625 32.375,-32.375 0,-79.0625 -51.5626,-51.5625 -38.375,0 z"
         id="path99"
         style="fill:#4d1908;fill-opacity:1;stroke:none" />
      <path
         d="m 932.93948,1290.6059 36.625,36.5937 0,-36.5937 -36.625,0 z"
         id="path101"
         style="fill:#4d1908;fill-opacity:1;stroke:none" />
      <path
         d="m 980.12688,1290.6059 0,157.5 165.34382,0 0,-157.0937 -0.4062,-0.4063 -164.93762,0 z"
         id="path103"
         style="fill:#4d1908;fill-opacity:1;stroke:none" />
      <path
         d="m 601.84568,1299.2934 -148.8125,148.8125 148.8125,0 0,-148.8125 z"
         id="path105"
         style="fill:#4d1908;fill-opacity:1;stroke:none" />
      <path
         d="m 789.75188,1320.6059 -74.1562,74.1563 0,96.1562 153.4375,0 0,-91.0312 -79.2813,-79.2813 z"
         id="path107"
         style="fill:#4d1908;fill-opacity:1;stroke:none" />
      <path
         d="m 705.03318,1405.3246 -54.125,54.125 31.4687,31.4688 22.6563,0 0,-85.5938 z"
         id="path109"
         style="fill:#4d1908;fill-opacity:1;stroke:none" />
      <path
         d="m 879.62688,1410.4809 0,80.4375 20.25,0 30.0938,-30.0938 -50.3438,-50.3437 z"
         id="path111"
         style="fill:#4d1908;fill-opacity:1;stroke:none" />
      <path
         d="m 612.43948,1435.9496 0,54.9688 54.9687,0 -54.9687,-54.9688 z"
         id="path113"
         style="fill:#4d1908;fill-opacity:1;stroke:none" />
      <path
         d="m 969.56448,1436.1996 -54.7188,54.7188 54.7188,0 0,-54.7188 z"
         id="path115"
         style="fill:#4d1908;fill-opacity:1;stroke:none" />
      <path
         d="m 444.4707,1458.6996 0,32.2188 157.37498,0 0,-32.2188 -157.37498,0 z"
         id="path117"
         style="fill:#4d1908;fill-opacity:1;stroke:none" />
      <path
         d="m 980.12688,1458.6996 0,196.625 165.34382,-165.3437 0,-31.2813 -165.34382,0 z"
         id="path119"
         style="fill:#4d1908;fill-opacity:1;stroke:none" />
      <path
         d="m 446.1895,1501.4809 155.65618,155.6875 0,-155.6875 -155.65618,0 z"
         id="path121"
         style="fill:#4d1908;fill-opacity:1;stroke:none" />
      <path
         d="m 612.43948,1501.4809 0,166.75 92.5937,0 0,-166.75 -92.5937,0 z"
         id="path123"
         style="fill:#4d1908;fill-opacity:1;stroke:none" />
      <path
         d="m 715.59568,1501.4809 0,152.5625 152.5625,-152.5625 -152.5625,0 z"
         id="path125"
         style="fill:#4d1908;fill-opacity:1;stroke:none" />
      <path
         d="m 879.62688,1501.4809 0,166.75 89.9376,0 0,-166.75 -89.9376,0 z"
         id="path127"
         style="fill:#4d1908;fill-opacity:1;stroke:none" />
      <path
         d="m 1145.4707,1504.9184 -163.31252,163.3125 163.31252,0 0,-163.3125 z"
         id="path129"
         style="fill:#4d1908;fill-opacity:1;stroke:none" />
      <path
         d="m 444.4707,1514.7309 0,153.5 153.49998,0 -153.49998,-153.5 z"
         id="path131"
         style="fill:#4d1908;fill-opacity:1;stroke:none" />
      <path
         d="m 869.03318,1515.5434 -69.8437,69.8438 69.8437,69.8437 0,-139.6875 z"
         id="path133"
         style="fill:#4d1908;fill-opacity:1;stroke:none" />
      <path
         d="m 791.72068,1592.8559 -75.375,75.375 150.7188,0 -75.3438,-75.375 z"
         id="path135"
         style="fill:#4d1908;fill-opacity:1;stroke:none" />
    </g>
  </g>
  <rect
     width="70.786667"
     height="126.04994"
     x="264.51855"
     y="40.536991"
     id="rect3860"
     style="fill:#2b0e05;fill-opacity:1;stroke:none" />
  <path
     d="m 324.12839,76.240791 a 23.595554,22.66415 0 1 1 -47.19111,0 23.595554,22.66415 0 1 1 47.19111,0 z"
     transform="translate(-0.62093564,0)"
     id="path3088"
     style="fill:#fcfb79;fill-opacity:1;stroke:#000000" />
  <path
     d="m 324.12839,76.240791 a 23.595554,22.66415 0 1 1 -47.19111,0 23.595554,22.66415 0 1 1 47.19111,0 z"
     transform="translate(-0.62093564,54.642336)"
     id="path3090"
     style="fill:#4d1908;fill-opacity:1;stroke:#000000" />
</svg>
