<?xml version="1.0" encoding="UTF-8" standalone="no"?>
<!-- Created with Inkscape (http://www.inkscape.org/) -->

<svg
   xmlns:dc="http://purl.org/dc/elements/1.1/"
   xmlns:cc="http://creativecommons.org/ns#"
   xmlns:rdf="http://www.w3.org/1999/02/22-rdf-syntax-ns#"
   xmlns:svg="http://www.w3.org/2000/svg"
   xmlns="http://www.w3.org/2000/svg"
   xmlns:xlink="http://www.w3.org/1999/xlink"
   xmlns:sodipodi="http://sodipodi.sourceforge.net/DTD/sodipodi-0.dtd"
   xmlns:inkscape="http://www.inkscape.org/namespaces/inkscape"
   width="377.67767"
   height="132.68109"
   id="svg1698"
   version="1.1"
   inkscape:version="0.48+devel r10556"
   sodipodi:docname="chaveiro-PINBALLFantasies.svg">
  <defs
     id="defs1700">
    <clipPath
       clipPathUnits="userSpaceOnUse"
       id="clipPath4614">
      <g
         id="g4616"
         transform="translate(-44.451515,-164.9925)"
         style="fill:#3c4c58;fill-opacity:1;display:inline"
         inkscape:label="PINBALL">
        <path
           inkscape:connector-curvature="0"
           sodipodi:nodetypes="cccccccccccccscccccccc"
           id="path4618"
           d="m 170.89777,331.71869 5.38669,0 c 6.11686,0 4.56126,-0.16804 4.56126,-17.92042 0,-19.03144 2.13898,-19.0763 -5.7754,-19.0763 l -4.17255,0.0506 0,36.94614 m -24.32508,30.2361 5.26126,0.0506 0,-67.23283 -5.26126,0 0,-3.33887 30.80872,0 c 6.34045,7e-5 14.06629,1.58519 18.417,4.75537 4.89022,3.57502 4.95508,11.45428 4.95514,17.55863 -6e-5,5.6323 0.15429,12.28821 -4.29748,16.09921 -4.2158,3.575 -11.57066,5.36247 -17.30404,5.36244 l -8.25426,0 0,26.74546 5.61538,0 0,3.33888 -29.94046,0 0,-3.33888"
           style="font-size:103.60634613px;font-style:normal;font-variant:normal;font-weight:normal;font-stretch:normal;fill:#3c4c58;fill-opacity:1;stroke:none;display:inline;font-family:Dustismo Roman;-inkscape-font-specification:Dustismo Roman"
           transform="scale(0.8345896,1.1981936)" />
        <path
           inkscape:connector-curvature="0"
           sodipodi:nodetypes="ccccccccccccc"
           id="path4620"
           d="m 185.92791,313.29895 25.5296,0 0,3.60032 -3.42817,0 0,72.44297 3.42817,0 0,3.60033 -25.5296,0 0,-3.60033 3.87715,0 0,-72.44297 -3.87715,0 0,-3.60032"
           style="font-size:111.7192688px;font-style:normal;font-variant:normal;font-weight:normal;font-stretch:normal;fill:#3c4c58;fill-opacity:1;stroke:none;display:inline;font-family:Dustismo Roman;-inkscape-font-specification:Dustismo Roman"
           transform="scale(0.896588,1.1153395)" />
        <path
           inkscape:connector-curvature="0"
           transform="scale(0.9275179,1.0781463)"
           sodipodi:nodetypes="cccccccccccccccccccccccc"
           id="path4622"
           d="m 252.88812,327.85149 0,75.36505 3.91238,2e-5 0,3.30151 -4.51452,0 -5.24844,0 -29.8278,-52.16462 0,48.44009 3.70355,0 0,3.72453 -14.08709,0 0,-3.72453 4.54565,0 0,-74.94205 -3.38551,0 0,-3.72453 12.61329,0 27.77391,48.01744 0,-44.29291 -3.73679,0 0,-3.72453 12.04459,0 0,3.72453 -3.79322,0"
           style="font-size:115.57328033px;font-style:normal;font-variant:normal;font-weight:normal;font-stretch:normal;fill:#3c4c58;fill-opacity:1;stroke:none;display:inline;font-family:Dustismo Roman;-inkscape-font-specification:Dustismo Roman" />
        <path
           inkscape:connector-curvature="0"
           sodipodi:nodetypes="ccccccccccccccsccssccccccccc"
           id="path4624"
           d="m 295.65222,345.2391 4.5555,0 c 4.55331,0 4.59639,-0.16098 4.59639,-16.59615 0,-15.66753 0.37232,-16.10961 -4.37866,-16.10961 l -4.77323,0 0,32.70576 m 4.87986,39.08472 c 3.79185,0 3.96222,0.0285 3.96222,-18.05573 0,-17.88348 0.23179,-17.89357 -3.95054,-17.89357 l -4.89154,0 0,35.9493 m 1.04166,-75.35838 c 6.55914,8e-5 11.37039,0.46859 14.43378,1.40554 4.90131,1.47769 8.46921,4.48698 10.7037,9.02787 1.44152,2.91926 2.16231,6.03666 2.16237,9.35222 -6e-5,7.89268 -3.31568,14.81244 -9.94688,18.27218 l 0.0541,0 c 4.61299,1.3335 5.64446,2.00893 8.38351,5.75699 2.73893,3.74813 1.72834,8.65859 1.7284,13.48785 -6e-5,6.81146 -0.19094,11.7668 -4.80393,15.69509 -4.36081,3.67602 -7.09197,5.92854 -14.01149,5.92854 l -32.70576,0 0,-3.5679 3.24206,0 0,-71.79048 -3.24206,0 0,-3.5679 24.00224,0"
           style="font-size:110.71302795px;font-style:normal;font-variant:normal;font-weight:normal;font-stretch:normal;fill:#3c4c58;fill-opacity:1;stroke:none;display:inline;font-family:Dustismo Roman;-inkscape-font-specification:Dustismo Roman"
           transform="scale(0.8852815,1.1295842)" />
        <path
           inkscape:connector-curvature="0"
           sodipodi:nodetypes="cccccccccccccccccccccccccc"
           id="path4626"
           d="m -401.48813,318.36505 -11.02508,-37.41198 -1.73026,-0.0201 -11.19582,37.43203 28.50261,0 m -44.67517,19.44992 0,-3.1992 5.16793,0 19.30018,-62.37519 -4.89746,-0.006 -0.03,-3.02723 32.06267,0 -0.0442,3.03112 -4.65779,10e-4 19.91705,62.37573 5.0695,0 0,3.1992 -30.34855,0 0,-3.1992 4.69199,0 -4.31548,-13.00231 -26.62518,0 -4.82391,13.00231 6.61101,0 0,3.1992 -17.0778,0"
           style="font-size:100.79938507px;font-style:normal;font-variant:normal;font-weight:normal;font-stretch:normal;fill:#3c4c58;fill-opacity:1;stroke:none;display:inline;font-family:Dustismo Roman;-inkscape-font-specification:Dustismo Roman"
           transform="scale(-0.7715662,1.2960651)" />
        <path
           inkscape:connector-curvature="0"
           sodipodi:nodetypes="ccccccccccccccc"
           id="path4628"
           d="m 418.28579,376.98287 8.60584,0 c 9.21675,0 17.76036,-0.0228 17.76036,-19.62581 l 3.73214,0 0.008,23.09512 -52.59607,0 0,-3.46931 3.38731,0 0,-69.80673 -3.49244,0 0,-3.46931 26.39344,0 0,3.46931 -3.79821,0 0,69.80673"
           style="font-size:107.65374756px;font-style:normal;font-variant:normal;font-weight:normal;font-stretch:normal;fill:#3c4c58;fill-opacity:1;stroke:none;display:inline;font-family:Dustismo Roman;-inkscape-font-specification:Dustismo Roman"
           transform="scale(0.8691653,1.1505292)" />
        <path
           inkscape:connector-curvature="0"
           style="font-size:107.65374756px;font-style:normal;font-variant:normal;font-weight:normal;font-stretch:normal;fill:#3c4c58;fill-opacity:1;stroke:none;display:inline;font-family:Dustismo Roman;-inkscape-font-specification:Dustismo Roman"
           d="m 412.54447,433.7298 7.4799,0 c 8.01088,0 15.43669,-0.0262 15.43669,-22.58007 l 3.24384,0 0.007,26.57161 -45.71468,0 0,-3.99154 2.94413,0 0,-80.31468 -3.03551,0 0,-3.99154 22.94026,0 0,3.99154 -3.30127,0 0,80.31468"
           id="path4630"
           sodipodi:nodetypes="ccccccccccccccc" />
      </g>
    </clipPath>
    <linearGradient
       inkscape:collect="always"
       xlink:href="#linearGradient4428"
       id="linearGradient714"
       gradientUnits="userSpaceOnUse"
       gradientTransform="translate(55.573797,-288.6872)"
       x1="78.823868"
       y1="415.18066"
       x2="79.689148"
       y2="513.45148" />
    <linearGradient
       id="linearGradient4428">
      <stop
         style="stop-color:#000000;stop-opacity:0;"
         offset="0"
         id="stop4430" />
      <stop
         id="stop4432"
         offset="0.40684563"
         style="stop-color:#000000;stop-opacity:0.85490197;" />
      <stop
         style="stop-color:#000000;stop-opacity:0.85490197;"
         offset="0.64520425"
         id="stop4434" />
      <stop
         style="stop-color:#000000;stop-opacity:0;"
         offset="1"
         id="stop4436" />
    </linearGradient>
    <clipPath
       clipPathUnits="userSpaceOnUse"
       id="clipPath4238-4">
      <path
         inkscape:connector-curvature="0"
         style="opacity:0.2;fill:#000000;fill-opacity:1;fill-rule:evenodd;stroke:none;display:inline"
         d="m 391.56842,179.58974 c -0.18646,-0.0419 -0.39395,-0.0649 -0.59021,-0.09 -4.5734,0.88709 -9.23936,1.91867 -14.05575,1.61608 -8.49365,0.56962 -17.38512,-0.78199 -25.64184,-0.0297 -2.32201,0.16821 -2.74551,5.02446 -3.38597,4.54019 -5.52899,-5.36368 -14.43861,-4.44355 -21.55699,-4.03152 -7.82997,1.54035 -15.76361,5.33538 -20.25337,12.20369 0.24242,-3.26485 0.73387,-7.35815 -1.40751,-9.67234 5.16326,-5.57777 -3.61478,-14.87364 -9.44304,-9.5805 -3.70599,2.14911 -3.77545,8.19019 -0.38404,10.59214 -1.16344,3.0901 -2.34671,-3.08401 -4.93034,-2.38983 -4.0706,-0.0694 -8.03198,2.08067 -12.25703,1.40886 -9.4006,0.76382 -19.01951,-0.64258 -28.22007,0.0702 -1.91967,1.2937 -2.25439,4.04886 -4.62027,1.72944 -12.77917,-5.72012 -25.99269,4.11205 -34.50414,12.96107 -6.52862,7.24271 -13.48713,15.2019 -16.29941,24.61053 0.45682,5.86427 8.17937,5.15367 11.25859,1.78617 10.97171,-5.85691 23.63587,-12.36513 36.30993,-9.74219 3.95828,0.5327 5.77356,4.2753 4.45796,8.01625 -1.01609,3.1352 1.83506,5.58079 4.27016,6.51337 4.56523,6.56578 14.18376,5.0361 21.12511,4.69369 10.60697,-0.22021 20.61201,-8.19354 21.45276,-19.12568 1.42262,-7.78614 -3.38308,-16.356 -8.22621,-20.7621 3.17009,0.228 7.00427,0.24645 9.08721,-2.62683 2.06982,9.76261 1.4896,19.70761 0.21483,29.51782 0.88918,5.35553 10.83221,7.41317 11.8366,0.93614 0.64346,-2.19774 0.81326,-4.49276 0.93236,-6.76581 6.74929,11.39757 22.5781,16.06964 34.45866,10.02769 8.31588,-2.88105 17.00508,-10.82754 15.0922,-20.37184 -0.81386,-2.87767 -4.75395,-2.59796 -3.70804,-5.94617 -1.62815,-7.08268 -10.42538,-4.68964 -15.65989,-4.7158 -5.69704,0.26705 -12.8912,1.41853 -17.72942,0.7184 7.17775,-5.95931 16.52096,-1.6378 24.681,-1.48182 2.96476,0.26845 4.48343,-4.31982 5.04435,-5.07491 4.57625,4.467 12.19112,2.44391 18.09562,3.80322 9.00338,1.32979 19.02985,10.5415 15.71256,20.30028 -4.40677,9.61899 -16.74321,8.60956 -25.47152,7.08952 -5.57213,-0.79183 -7.80252,7.44801 -2.44181,9.56855 9.27314,3.79677 20.26928,2.51735 29.3703,-1.25491 13.14324,-7.12847 13.86783,-27.37869 2.39387,-36.3937 -0.83673,-1.11569 3.88727,0.15187 5.33713,-0.76635 6.44965,-1.43923 5.43591,-10.58098 -0.34433,-11.88128 z m -0.32541,1.98224 c 2.18107,0.57898 3.3396,3.01099 3.10274,5.17383 -2.58805,5.5601 -9.99572,1.95315 -14.65896,2.68564 4.33667,2.8989 8.96622,6.70801 11.16178,11.77515 5.86448,11.43323 -2.05999,27.39863 -15.33001,28.06258 -6.91985,0.63158 -16.03104,2.58411 -21.51745,-2.8259 -1.8384,-5.09053 5.59511,-4.38888 8.37683,-3.4913 9.09402,1.85162 21.40212,-1.49951 22.97985,-12.00636 0.87531,-12.12052 -12.14035,-21.08163 -23.44146,-20.51579 -3.63271,-0.97749 -10.42786,0.88982 -11.6839,-3.73892 -0.22858,-5.92019 7.21221,-3.5002 10.80389,-3.63085 9.90315,-0.10415 20.23168,0.98683 29.74532,-1.57663 0.15427,0.0215 0.31596,0.05 0.46137,0.0885 z M 106.72787,116.25156 c -0.51959,-0.10617 -1.12809,-0.1352 -1.85629,-0.0663 -11.181585,-1.19074 -22.353592,2.17915 -33.319781,3.99997 -16.448508,4.16975 -34.856359,8.13615 -46.575019,21.42873 -4.785373,5.45255 -5.688133,14.57198 0.686668,19.20712 11.236815,9.61392 25.736465,14.23969 39.15767,20.20686 -7.417566,-1.12777 -18.419656,-0.90474 -20.50442,8.2291 -2.150253,12.68526 5.066744,24.74662 10.964392,35.46713 1.785707,3.49179 5.619524,7.50105 9.146718,3.55888 0.326905,-2.2091 3.115132,2.05694 5.159285,0.89919 12.148569,-6.04318 25.086817,-14.1575 39.307887,-12.80111 3.88805,0.25238 8.46563,3.0128 6.69216,7.50314 -2.26341,5.92058 6.65992,10.26829 9.73184,4.7782 0.1693,-4.26616 3.44505,0.19171 6.02381,-1.16796 5.35261,-1.97595 3.22269,-9.44633 5.763,-13.73806 2.30866,-8.24603 8.8651,-19.55534 19.10044,-16.18838 9.14934,2.70282 8.60046,14.52839 7.85404,22.18292 -1.45608,4.31099 0.92133,10.67886 6.34876,9.06071 5.74046,-3.69018 5.14952,-12.13483 5.38888,-18.22944 0.27781,-4.49439 -2.14775,-10.12249 -2.69361,-13.27196 2.89586,0.80918 8.01518,-1.37349 9.13602,1.13326 0.99956,8.6844 0.89628,17.5426 -0.55088,26.15142 1.25402,5.36156 10.12625,6.05047 10.8016,-0.0457 2.20486,-9.18365 0.80003,-19.91788 0.75826,-28.42301 6.52836,-1.17625 13.92186,2.23506 19.88732,-1.18689 4.60523,-4.7941 -2.02189,-10.65807 -7.23694,-9.61641 -11.91758,-1.0132 -23.68925,3.20868 -35.54088,0.64 -2.3244,-0.42252 -4.6826,1.26438 -5.89502,2.52618 -9.09284,-6.23707 -21.61985,-2.72325 -28.50095,4.84228 0.62346,-5.14291 -3.64304,-10.8548 -9.14941,-8.72828 -5.56249,1.82863 -2.79975,8.03315 -2.41024,12.16116 -4.91364,-9.53822 -17.19056,-14.22313 -27.015541,-9.33787 -2.227895,1.01368 -4.043288,2.70035 -3.765812,-0.79261 -3.815474,-8.75621 -14.10547,-11.88255 -21.852366,-16.22301 -11.315534,-5.90127 -24.456574,-9.46238 -34.058894,-17.96675 0.362484,-6.35448 7.602916,-10.03476 12.598633,-12.94893 17.371602,-9.24608 37.381749,-10.87723 56.15352,-15.81849 2.68298,-2.10187 3.90232,-6.68196 0.26515,-7.42514 z m -2.28678,1.82381 c 2.13049,0.4515 3.55279,1.44791 0.9953,3.84649 -21.750141,5.54971 -46.048653,7.13818 -64.515304,21.3489 -2.62696,2.51152 -7.533053,7.31423 -4.277289,11.02601 15.282381,12.21267 35.949854,15.83422 51.418683,27.90887 3.92777,2.33513 5.920345,9.55625 0.478945,11.36736 -11.233682,2.55887 -22.857333,-4.10211 -33.964478,-2.04829 -2.2176,8.29725 2.702888,16.87702 4.98422,24.62931 0.457842,3.64092 6.285421,9.48501 1.31458,11.87699 -5.512227,-4.43708 -7.723744,-11.90167 -10.887308,-18.00259 -2.812788,-7.56719 -7.443223,-17.98652 -0.963564,-24.93291 8.677784,-5.37721 19.459248,-0.64245 28.823966,-0.5258 -10.608714,-5.16807 -21.807191,-9.00002 -32.457547,-14.09072 -7.93186,-4.37788 -18.563861,-7.84856 -22.185594,-16.92408 -0.988707,-10.05402 8.882955,-16.85328 16.76496,-20.83819 19.436257,-9.1394 40.922369,-13.35976 62.2226,-14.93942 0.74513,0.0629 1.53767,0.14757 2.24783,0.29807 z m 237.75158,66.38035 c 0.55951,0.15023 1.10159,0.31119 1.6389,0.52621 4.73461,1.01939 2.78475,8.35972 -1.77955,7.2869 -9.02826,-2.18073 -20.9195,-3.78431 -27.12979,4.91071 8.25138,2.00315 19.0239,-0.58692 28.27047,-0.50927 3.59633,-0.87362 8.65437,1.17343 7.30547,5.53171 -0.69666,1.94593 -1.98689,2.36125 0.80391,1.98732 5.39535,0.65137 3.13543,7.83488 1.15914,10.86715 -5.17358,7.67637 -15.13617,11.37339 -24.0523,11.66084 -13.65781,-0.43578 -26.43482,-14.12122 -22.60049,-27.91932 5.29376,-13.2134 21.78603,-17.73667 34.68343,-14.75546 0.56432,0.12348 1.14129,0.26298 1.70081,0.41321 z m -42.21998,-9.37946 c 7.62361,2.34997 3.89855,11.8018 -2.94204,8.88834 -5.13708,-1.84329 -2.04161,-9.72241 2.94204,-8.88834 z m 1.39023,9.86163 c 1.33139,0.29036 2.52984,1.28674 2.86603,2.62439 -0.81734,11.25807 1.4865,22.70949 -0.15241,33.87962 -0.1015,4.83557 -6.83057,3.87443 -8.07656,0.37182 1.27814,-9.96293 1.81927,-20.22408 -0.35085,-30.23183 -1.04937,-3.48912 1.23515,-7.20979 5.12358,-6.73399 0.19282,0.0111 0.40001,0.0485 0.59021,0.09 z m -11.92012,-0.24732 c 2.14955,0.50804 3.50957,2.97413 3.18696,5.09897 -2.38905,5.73436 -10.02182,2.00522 -14.62225,2.79217 6.6201,4.1784 12.65635,10.65026 12.96885,18.9355 1.271,10.99455 -8.01958,21.07481 -18.95164,21.16992 -6.46833,0.3586 -15.07693,2.06748 -19.85908,-3.36063 0.28916,-2.62533 -4.03967,-0.86975 -4.23858,-3.92075 1.00143,-4.34398 0.66912,-10.19977 -4.61763,-11.35312 -13.09735,-3.86145 -26.73592,3.18189 -38.10501,8.94894 -2.33114,1.92519 -7.95201,5.22602 -9.20733,0.49558 5.09312,-12.55543 14.6154,-23.48956 25.48826,-31.57181 7.66608,-5.98958 19.97673,-8.51018 27.40963,-0.79936 -1.77213,-3.70372 2.56688,-6.7247 6.12112,-5.11591 11.25583,0.0798 23.0855,1.4625 33.99556,-1.40013 0.15015,0.0157 0.28784,0.0468 0.43114,0.0806 z m 58.80454,20.18456 c -0.12713,-0.0212 -0.92331,0.20522 -0.91915,0.17919 -10.21561,-1.31061 -20.33567,0.51464 -30.60969,-0.42652 -5.2821,-1.75731 -2.21572,4.57739 -1.36782,7.0717 4.06167,9.74067 17.38037,8.66795 25.0198,4.13097 4.81771,-1.80628 5.63423,-6.93309 7.71635,-10.83586 0.15563,-0.0819 0.20289,-0.11243 0.16051,-0.11948 z m -3.3902,2.21317 c -2.09806,8.14511 -12.48219,10.84223 -19.91571,9.8047 -5.2172,-0.5024 -8.43358,-5.419 -9.086,-10.32689 9.69052,1.29103 19.39054,-1.07496 29.00171,0.52219 z m -77.14171,-12.58302 c -5.75132,-1.34253 -11.9067,-0.63123 -17.61991,-2.28953 7.1869,7.80571 8.55054,20.75127 5.02645,31.00433 -1.4605,2.46389 0.14173,2.31927 2.29166,2.47393 8.71159,1.67145 20.7012,1.29021 25.13973,-7.91942 4.62159,-10.21704 -5.3807,-20.9721 -14.83793,-23.26931 z m -0.38587,1.9664 c 8.22717,2.10457 17.41795,11.40378 13.39849,20.50173 -4.38623,8.56456 -15.52982,8.0274 -23.65552,6.693 2.92133,-9.32619 2.73294,-20.03053 -2.37058,-28.5642 4.19244,0.55644 8.48555,0.41998 12.62761,1.36947 z m -27.50236,-2.42305 c -0.75111,-0.19867 -1.52578,-0.26271 -2.29246,-0.37437 -12.55239,0.25614 -21.25218,11.58834 -28.75057,20.34758 11.74592,-5.43834 27.82678,-11.1915 40.86227,-4.05943 0.67502,-6.00165 -3.13206,-14.17223 -9.81924,-15.91378 z m -30.54325,-6.35311 c 2.63642,0.63429 4.77945,3.76504 2.28289,5.9605 -6.69022,2.03715 -14.0589,-0.62176 -20.94248,0.65206 1.1419,9.32385 1.7976,19.42451 0.13784,28.94847 0.12637,4.35274 -5.86279,4.86249 -7.04515,0.99735 1.71013,-9.37751 1.40746,-19.13366 0.16949,-28.64185 -4.07686,-0.98334 -10.50212,0.61261 -15.39155,-0.93051 5.36944,6.79199 6.08941,16.12386 4.80428,24.45296 -0.2856,3.34433 -2.39552,10.63914 -6.83663,6.73752 -1.85752,-5.48607 1.11319,-11.94664 -0.35419,-17.76324 -0.21822,-8.10452 -8.11144,-14.77668 -16.19725,-12.90034 -11.13845,3.20401 -14.54253,16.09329 -16.81626,26.09036 1.08762,4.38765 -4.89009,5.97099 -6.52985,2.35988 0.0228,-8.44438 1.1431,-17.10164 -0.0307,-25.65768 0.48419,-3.66186 -3.90262,-10.30657 1.57098,-11.6703 5.50123,-1.15263 6.18465,5.63168 5.94207,9.50335 -0.54067,4.28942 1.09006,1.28385 2.94821,-0.64912 6.91293,-8.25157 20.2975,-10.99141 28.71899,-3.33148 0.0578,-1.92651 2.04287,-4.48621 4.60668,-3.89738 12.8906,2.82159 25.5544,-2.29366 38.44082,-0.36494 0.17903,0.019 0.34607,0.0621 0.52183,0.10439 z m 30.03646,8.28783 c 4.70089,1.11449 8.02564,6.8647 8.04304,10.73209 -10.28408,-4.00351 -21.69485,-1.63538 -31.64697,2.17685 6.15699,-6.14568 13.98926,-14.70711 23.60393,-12.90894 z m -128.0477,-7.79483 c 0.54022,0.16176 1.07493,0.35483 1.59284,0.57875 13.49152,6.18043 16.19328,23.88818 11.45883,36.66269 0.28979,4.39366 -6.72128,5.11511 -6.87528,0.71879 1.14735,-4.60151 0.0897,-10.15802 -5.34893,-11.02781 -13.279812,-3.31085 -26.826704,3.65356 -38.379272,9.74931 -2.453038,2.4843 -6.577402,3.34349 -8.670359,-0.0744 3.044557,-6.41978 6.939332,-12.42581 11.471655,-17.89596 8.302096,-9.56908 19.273464,-20.80584 33.110176,-19.1087 0.55445,0.10519 1.10014,0.23562 1.64034,0.39738 z m -1.94508,7.17892 c -13.337774,-2.34309 -23.290178,11.08611 -31.065341,19.93507 11.74067,-5.42926 27.880271,-11.19107 40.892501,-4.05152 0.65668,-6.07104 -3.12444,-14.10301 -9.82716,-15.88355 z m -0.40819,1.92825 c 4.60923,1.29673 7.9046,6.71204 7.95236,10.70833 -10.27586,-4.0032 -21.722032,-1.65412 -31.654895,2.20709 5.925701,-6.09729 13.463307,-14.0764 22.757485,-13.13066 0.31833,0.0481 0.63777,0.1288 0.94505,0.21524 z m -24.947939,-1.07554 -0.727714,0.6816 -0.413161,0.34403 c -7.637508,7.13921 -14.028493,15.62496 -18.721452,24.97752 -3.281357,-9.41788 -8.582067,-18.98539 -7.98118,-29.09704 9.330302,-0.33243 18.499248,2.93023 27.843507,3.09389 z"
         id="path4240-7" />
    </clipPath>
    <linearGradient
       inkscape:collect="always"
       xlink:href="#linearGradient3575"
       id="linearGradient2811"
       gradientUnits="userSpaceOnUse"
       gradientTransform="translate(0,14.976299)"
       x1="74.553787"
       y1="363.91711"
       x2="139.67003"
       y2="394.49374" />
    <linearGradient
       id="linearGradient3575">
      <stop
         style="stop-color:#e478a4;stop-opacity:1;"
         offset="0"
         id="stop3577" />
      <stop
         id="stop3583"
         offset="0.3981764"
         style="stop-color:#edc62b;stop-opacity:1;" />
      <stop
         style="stop-color:#ffffb2;stop-opacity:1;"
         offset="0.73575282"
         id="stop3585" />
      <stop
         style="stop-color:#f4da76;stop-opacity:1;"
         offset="1"
         id="stop3579" />
    </linearGradient>
    <linearGradient
       inkscape:collect="always"
       xlink:href="#linearGradient3600"
       id="linearGradient2813"
       gradientUnits="userSpaceOnUse"
       gradientTransform="translate(-0.3120062,-1.0409927e-8)"
       x1="140.7148"
       y1="424.94376"
       x2="184.95639"
       y2="429.62384" />
    <linearGradient
       id="linearGradient3600">
      <stop
         id="stop3602"
         offset="0"
         style="stop-color:#e4c478;stop-opacity:1;" />
      <stop
         style="stop-color:#edc62b;stop-opacity:1;"
         offset="0.58924794"
         id="stop3604" />
      <stop
         id="stop3608"
         offset="1"
         style="stop-color:#f47689;stop-opacity:1;" />
    </linearGradient>
    <linearGradient
       inkscape:collect="always"
       xlink:href="#linearGradient3763"
       id="linearGradient2815"
       gradientUnits="userSpaceOnUse"
       x1="194.7271"
       y1="438.90369"
       x2="211.69669"
       y2="384.90369" />
    <linearGradient
       id="linearGradient3763">
      <stop
         style="stop-color:#ff17f4;stop-opacity:1;"
         offset="0"
         id="stop3765" />
      <stop
         id="stop3771"
         offset="0.33336404"
         style="stop-color:#fe7686;stop-opacity:1;" />
      <stop
         style="stop-color:#fed518;stop-opacity:1;"
         offset="1"
         id="stop3767" />
    </linearGradient>
    <linearGradient
       inkscape:collect="always"
       xlink:href="#linearGradient3693"
       id="linearGradient2817"
       gradientUnits="userSpaceOnUse"
       gradientTransform="translate(125.61415,-34.318136)"
       x1="141.66663"
       y1="443.44376"
       x2="176.45641"
       y2="395.62384" />
    <linearGradient
       id="linearGradient3693">
      <stop
         style="stop-color:#fed518;stop-opacity:1"
         offset="0"
         id="stop3695" />
      <stop
         id="stop3697"
         offset="1"
         style="stop-color:#f9eaaf;stop-opacity:1" />
    </linearGradient>
    <linearGradient
       inkscape:collect="always"
       xlink:href="#linearGradient3755"
       id="linearGradient2819"
       gradientUnits="userSpaceOnUse"
       x1="252.66608"
       y1="369.64188"
       x2="235.93042"
       y2="408.64188" />
    <linearGradient
       id="linearGradient3755">
      <stop
         style="stop-color:#ffe984;stop-opacity:1;"
         offset="0"
         id="stop3757" />
      <stop
         style="stop-color:#fed518;stop-opacity:1;"
         offset="1"
         id="stop3759" />
    </linearGradient>
    <linearGradient
       inkscape:collect="always"
       xlink:href="#linearGradient3745"
       id="linearGradient2821"
       gradientUnits="userSpaceOnUse"
       x1="334.48355"
       y1="349.80249"
       x2="311.36508"
       y2="408.80249" />
    <linearGradient
       id="linearGradient3745">
      <stop
         style="stop-color:#fed518;stop-opacity:1;"
         offset="0"
         id="stop3747" />
      <stop
         id="stop3753"
         offset="0.5"
         style="stop-color:#fff4c0;stop-opacity:1;" />
      <stop
         style="stop-color:#fed518;stop-opacity:1;"
         offset="1"
         id="stop3749" />
    </linearGradient>
    <linearGradient
       inkscape:collect="always"
       xlink:href="#linearGradient3701"
       id="linearGradient2823"
       gradientUnits="userSpaceOnUse"
       gradientTransform="translate(1,-2.0313905e-8)"
       x1="418"
       y1="379"
       x2="449.44077"
       y2="313.31934" />
    <linearGradient
       id="linearGradient3701">
      <stop
         style="stop-color:#fed518;stop-opacity:1;"
         offset="0"
         id="stop3703" />
      <stop
         style="stop-color:#fe18e7;stop-opacity:1;"
         offset="1"
         id="stop3705" />
    </linearGradient>
    <linearGradient
       inkscape:collect="always"
       xlink:href="#linearGradient3737"
       id="linearGradient2825"
       gradientUnits="userSpaceOnUse"
       x1="349.40012"
       y1="341.61224"
       x2="349.40012"
       y2="391.65598" />
    <linearGradient
       id="linearGradient3737">
      <stop
         style="stop-color:#fed518;stop-opacity:1;"
         offset="0"
         id="stop3739" />
      <stop
         style="stop-color:#feffd3;stop-opacity:1;"
         offset="1"
         id="stop3741" />
    </linearGradient>
    <linearGradient
       inkscape:collect="always"
       xlink:href="#linearGradient3717"
       id="linearGradient2827"
       gradientUnits="userSpaceOnUse"
       x1="382.8176"
       y1="325.42422"
       x2="371.27914"
       y2="388.42422" />
    <linearGradient
       id="linearGradient3717">
      <stop
         style="stop-color:#fe18f1;stop-opacity:1;"
         offset="0"
         id="stop3719" />
      <stop
         id="stop3725"
         offset="0.4231098"
         style="stop-color:#fed518;stop-opacity:1;" />
      <stop
         style="stop-color:#ffe880;stop-opacity:1;"
         offset="1"
         id="stop3721" />
    </linearGradient>
    <linearGradient
       inkscape:collect="always"
       xlink:href="#linearGradient3575"
       id="linearGradient2829"
       gradientUnits="userSpaceOnUse"
       gradientTransform="translate(0,14.976299)"
       x1="74.553787"
       y1="363.91711"
       x2="139.67003"
       y2="394.49374" />
    <linearGradient
       id="linearGradient1652">
      <stop
         style="stop-color:#e478a4;stop-opacity:1;"
         offset="0"
         id="stop1654" />
      <stop
         id="stop1656"
         offset="0.3981764"
         style="stop-color:#edc62b;stop-opacity:1;" />
      <stop
         style="stop-color:#ffffb2;stop-opacity:1;"
         offset="0.73575282"
         id="stop1658" />
      <stop
         style="stop-color:#f4da76;stop-opacity:1;"
         offset="1"
         id="stop1660" />
    </linearGradient>
    <linearGradient
       inkscape:collect="always"
       xlink:href="#linearGradient4924-9"
       id="linearGradient1155"
       gradientUnits="userSpaceOnUse"
       gradientTransform="translate(55.573797,-288.6872)"
       x1="78.823868"
       y1="415.18066"
       x2="79.689148"
       y2="513.45148" />
    <linearGradient
       id="linearGradient4924-9">
      <stop
         style="stop-color:#5498dc;stop-opacity:0.01060071"
         offset="0"
         id="stop4926-4" />
      <stop
         id="stop4928-8"
         offset="0.06115814"
         style="stop-color:#6d96be;stop-opacity:0.67137808" />
      <stop
         style="stop-color:#264665;stop-opacity:0.52650177"
         offset="0.64520425"
         id="stop4930-1" />
      <stop
         style="stop-color:#5795d4;stop-opacity:0"
         offset="1"
         id="stop4932-2" />
    </linearGradient>
    <clipPath
       clipPathUnits="userSpaceOnUse"
       id="clipPath4238-44">
      <path
         inkscape:connector-curvature="0"
         style="opacity:0.2;fill:#000000;fill-opacity:1;fill-rule:evenodd;stroke:none;display:inline"
         d="m 391.56842,179.58974 c -0.18646,-0.0419 -0.39395,-0.0649 -0.59021,-0.09 -4.5734,0.88709 -9.23936,1.91867 -14.05575,1.61608 -8.49365,0.56962 -17.38512,-0.78199 -25.64184,-0.0297 -2.32201,0.16821 -2.74551,5.02446 -3.38597,4.54019 -5.52899,-5.36368 -14.43861,-4.44355 -21.55699,-4.03152 -7.82997,1.54035 -15.76361,5.33538 -20.25337,12.20369 0.24242,-3.26485 0.73387,-7.35815 -1.40751,-9.67234 5.16326,-5.57777 -3.61478,-14.87364 -9.44304,-9.5805 -3.70599,2.14911 -3.77545,8.19019 -0.38404,10.59214 -1.16344,3.0901 -2.34671,-3.08401 -4.93034,-2.38983 -4.0706,-0.0694 -8.03198,2.08067 -12.25703,1.40886 -9.4006,0.76382 -19.01951,-0.64258 -28.22007,0.0702 -1.91967,1.2937 -2.25439,4.04886 -4.62027,1.72944 -12.77917,-5.72012 -25.99269,4.11205 -34.50414,12.96107 -6.52862,7.24271 -13.48713,15.2019 -16.29941,24.61053 0.45682,5.86427 8.17937,5.15367 11.25859,1.78617 10.97171,-5.85691 23.63587,-12.36513 36.30993,-9.74219 3.95828,0.5327 5.77356,4.2753 4.45796,8.01625 -1.01609,3.1352 1.83506,5.58079 4.27016,6.51337 4.56523,6.56578 14.18376,5.0361 21.12511,4.69369 10.60697,-0.22021 20.61201,-8.19354 21.45276,-19.12568 1.42262,-7.78614 -3.38308,-16.356 -8.22621,-20.7621 3.17009,0.228 7.00427,0.24645 9.08721,-2.62683 2.06982,9.76261 1.4896,19.70761 0.21483,29.51782 0.88918,5.35553 10.83221,7.41317 11.8366,0.93614 0.64346,-2.19774 0.81326,-4.49276 0.93236,-6.76581 6.74929,11.39757 22.5781,16.06964 34.45866,10.02769 8.31588,-2.88105 17.00508,-10.82754 15.0922,-20.37184 -0.81386,-2.87767 -4.75395,-2.59796 -3.70804,-5.94617 -1.62815,-7.08268 -10.42538,-4.68964 -15.65989,-4.7158 -5.69704,0.26705 -12.8912,1.41853 -17.72942,0.7184 7.17775,-5.95931 16.52096,-1.6378 24.681,-1.48182 2.96476,0.26845 4.48343,-4.31982 5.04435,-5.07491 4.57625,4.467 12.19112,2.44391 18.09562,3.80322 9.00338,1.32979 19.02985,10.5415 15.71256,20.30028 -4.40677,9.61899 -16.74321,8.60956 -25.47152,7.08952 -5.57213,-0.79183 -7.80252,7.44801 -2.44181,9.56855 9.27314,3.79677 20.26928,2.51735 29.3703,-1.25491 13.14324,-7.12847 13.86783,-27.37869 2.39387,-36.3937 -0.83673,-1.11569 3.88727,0.15187 5.33713,-0.76635 6.44965,-1.43923 5.43591,-10.58098 -0.34433,-11.88128 z m -0.32541,1.98224 c 2.18107,0.57898 3.3396,3.01099 3.10274,5.17383 -2.58805,5.5601 -9.99572,1.95315 -14.65896,2.68564 4.33667,2.8989 8.96622,6.70801 11.16178,11.77515 5.86448,11.43323 -2.05999,27.39863 -15.33001,28.06258 -6.91985,0.63158 -16.03104,2.58411 -21.51745,-2.8259 -1.8384,-5.09053 5.59511,-4.38888 8.37683,-3.4913 9.09402,1.85162 21.40212,-1.49951 22.97985,-12.00636 0.87531,-12.12052 -12.14035,-21.08163 -23.44146,-20.51579 -3.63271,-0.97749 -10.42786,0.88982 -11.6839,-3.73892 -0.22858,-5.92019 7.21221,-3.5002 10.80389,-3.63085 9.90315,-0.10415 20.23168,0.98683 29.74532,-1.57663 0.15427,0.0215 0.31596,0.05 0.46137,0.0885 z M 106.72787,116.25156 c -0.51959,-0.10617 -1.12809,-0.1352 -1.85629,-0.0663 -11.181585,-1.19074 -22.353592,2.17915 -33.319781,3.99997 -16.448508,4.16975 -34.856359,8.13615 -46.575019,21.42873 -4.785373,5.45255 -5.688133,14.57198 0.686668,19.20712 11.236815,9.61392 25.736465,14.23969 39.15767,20.20686 -7.417566,-1.12777 -18.419656,-0.90474 -20.50442,8.2291 -2.150253,12.68526 5.066744,24.74662 10.964392,35.46713 1.785707,3.49179 5.619524,7.50105 9.146718,3.55888 0.326905,-2.2091 3.115132,2.05694 5.159285,0.89919 12.148569,-6.04318 25.086817,-14.1575 39.307887,-12.80111 3.88805,0.25238 8.46563,3.0128 6.69216,7.50314 -2.26341,5.92058 6.65992,10.26829 9.73184,4.7782 0.1693,-4.26616 3.44505,0.19171 6.02381,-1.16796 5.35261,-1.97595 3.22269,-9.44633 5.763,-13.73806 2.30866,-8.24603 8.8651,-19.55534 19.10044,-16.18838 9.14934,2.70282 8.60046,14.52839 7.85404,22.18292 -1.45608,4.31099 0.92133,10.67886 6.34876,9.06071 5.74046,-3.69018 5.14952,-12.13483 5.38888,-18.22944 0.27781,-4.49439 -2.14775,-10.12249 -2.69361,-13.27196 2.89586,0.80918 8.01518,-1.37349 9.13602,1.13326 0.99956,8.6844 0.89628,17.5426 -0.55088,26.15142 1.25402,5.36156 10.12625,6.05047 10.8016,-0.0457 2.20486,-9.18365 0.80003,-19.91788 0.75826,-28.42301 6.52836,-1.17625 13.92186,2.23506 19.88732,-1.18689 4.60523,-4.7941 -2.02189,-10.65807 -7.23694,-9.61641 -11.91758,-1.0132 -23.68925,3.20868 -35.54088,0.64 -2.3244,-0.42252 -4.6826,1.26438 -5.89502,2.52618 -9.09284,-6.23707 -21.61985,-2.72325 -28.50095,4.84228 0.62346,-5.14291 -3.64304,-10.8548 -9.14941,-8.72828 -5.56249,1.82863 -2.79975,8.03315 -2.41024,12.16116 -4.91364,-9.53822 -17.19056,-14.22313 -27.015541,-9.33787 -2.227895,1.01368 -4.043288,2.70035 -3.765812,-0.79261 -3.815474,-8.75621 -14.10547,-11.88255 -21.852366,-16.22301 -11.315534,-5.90127 -24.456574,-9.46238 -34.058894,-17.96675 0.362484,-6.35448 7.602916,-10.03476 12.598633,-12.94893 17.371602,-9.24608 37.381749,-10.87723 56.15352,-15.81849 2.68298,-2.10187 3.90232,-6.68196 0.26515,-7.42514 z m -2.28678,1.82381 c 2.13049,0.4515 3.55279,1.44791 0.9953,3.84649 -21.750141,5.54971 -46.048653,7.13818 -64.515304,21.3489 -2.62696,2.51152 -7.533053,7.31423 -4.277289,11.02601 15.282381,12.21267 35.949854,15.83422 51.418683,27.90887 3.92777,2.33513 5.920345,9.55625 0.478945,11.36736 -11.233682,2.55887 -22.857333,-4.10211 -33.964478,-2.04829 -2.2176,8.29725 2.702888,16.87702 4.98422,24.62931 0.457842,3.64092 6.285421,9.48501 1.31458,11.87699 -5.512227,-4.43708 -7.723744,-11.90167 -10.887308,-18.00259 -2.812788,-7.56719 -7.443223,-17.98652 -0.963564,-24.93291 8.677784,-5.37721 19.459248,-0.64245 28.823966,-0.5258 -10.608714,-5.16807 -21.807191,-9.00002 -32.457547,-14.09072 -7.93186,-4.37788 -18.563861,-7.84856 -22.185594,-16.92408 -0.988707,-10.05402 8.882955,-16.85328 16.76496,-20.83819 19.436257,-9.1394 40.922369,-13.35976 62.2226,-14.93942 0.74513,0.0629 1.53767,0.14757 2.24783,0.29807 z m 237.75158,66.38035 c 0.55951,0.15023 1.10159,0.31119 1.6389,0.52621 4.73461,1.01939 2.78475,8.35972 -1.77955,7.2869 -9.02826,-2.18073 -20.9195,-3.78431 -27.12979,4.91071 8.25138,2.00315 19.0239,-0.58692 28.27047,-0.50927 3.59633,-0.87362 8.65437,1.17343 7.30547,5.53171 -0.69666,1.94593 -1.98689,2.36125 0.80391,1.98732 5.39535,0.65137 3.13543,7.83488 1.15914,10.86715 -5.17358,7.67637 -15.13617,11.37339 -24.0523,11.66084 -13.65781,-0.43578 -26.43482,-14.12122 -22.60049,-27.91932 5.29376,-13.2134 21.78603,-17.73667 34.68343,-14.75546 0.56432,0.12348 1.14129,0.26298 1.70081,0.41321 z m -42.21998,-9.37946 c 7.62361,2.34997 3.89855,11.8018 -2.94204,8.88834 -5.13708,-1.84329 -2.04161,-9.72241 2.94204,-8.88834 z m 1.39023,9.86163 c 1.33139,0.29036 2.52984,1.28674 2.86603,2.62439 -0.81734,11.25807 1.4865,22.70949 -0.15241,33.87962 -0.1015,4.83557 -6.83057,3.87443 -8.07656,0.37182 1.27814,-9.96293 1.81927,-20.22408 -0.35085,-30.23183 -1.04937,-3.48912 1.23515,-7.20979 5.12358,-6.73399 0.19282,0.0111 0.40001,0.0485 0.59021,0.09 z m -11.92012,-0.24732 c 2.14955,0.50804 3.50957,2.97413 3.18696,5.09897 -2.38905,5.73436 -10.02182,2.00522 -14.62225,2.79217 6.6201,4.1784 12.65635,10.65026 12.96885,18.9355 1.271,10.99455 -8.01958,21.07481 -18.95164,21.16992 -6.46833,0.3586 -15.07693,2.06748 -19.85908,-3.36063 0.28916,-2.62533 -4.03967,-0.86975 -4.23858,-3.92075 1.00143,-4.34398 0.66912,-10.19977 -4.61763,-11.35312 -13.09735,-3.86145 -26.73592,3.18189 -38.10501,8.94894 -2.33114,1.92519 -7.95201,5.22602 -9.20733,0.49558 5.09312,-12.55543 14.6154,-23.48956 25.48826,-31.57181 7.66608,-5.98958 19.97673,-8.51018 27.40963,-0.79936 -1.77213,-3.70372 2.56688,-6.7247 6.12112,-5.11591 11.25583,0.0798 23.0855,1.4625 33.99556,-1.40013 0.15015,0.0157 0.28784,0.0468 0.43114,0.0806 z m 58.80454,20.18456 c -0.12713,-0.0212 -0.92331,0.20522 -0.91915,0.17919 -10.21561,-1.31061 -20.33567,0.51464 -30.60969,-0.42652 -5.2821,-1.75731 -2.21572,4.57739 -1.36782,7.0717 4.06167,9.74067 17.38037,8.66795 25.0198,4.13097 4.81771,-1.80628 5.63423,-6.93309 7.71635,-10.83586 0.15563,-0.0819 0.20289,-0.11243 0.16051,-0.11948 z m -3.3902,2.21317 c -2.09806,8.14511 -12.48219,10.84223 -19.91571,9.8047 -5.2172,-0.5024 -8.43358,-5.419 -9.086,-10.32689 9.69052,1.29103 19.39054,-1.07496 29.00171,0.52219 z m -77.14171,-12.58302 c -5.75132,-1.34253 -11.9067,-0.63123 -17.61991,-2.28953 7.1869,7.80571 8.55054,20.75127 5.02645,31.00433 -1.4605,2.46389 0.14173,2.31927 2.29166,2.47393 8.71159,1.67145 20.7012,1.29021 25.13973,-7.91942 4.62159,-10.21704 -5.3807,-20.9721 -14.83793,-23.26931 z m -0.38587,1.9664 c 8.22717,2.10457 17.41795,11.40378 13.39849,20.50173 -4.38623,8.56456 -15.52982,8.0274 -23.65552,6.693 2.92133,-9.32619 2.73294,-20.03053 -2.37058,-28.5642 4.19244,0.55644 8.48555,0.41998 12.62761,1.36947 z m -27.50236,-2.42305 c -0.75111,-0.19867 -1.52578,-0.26271 -2.29246,-0.37437 -12.55239,0.25614 -21.25218,11.58834 -28.75057,20.34758 11.74592,-5.43834 27.82678,-11.1915 40.86227,-4.05943 0.67502,-6.00165 -3.13206,-14.17223 -9.81924,-15.91378 z m -30.54325,-6.35311 c 2.63642,0.63429 4.77945,3.76504 2.28289,5.9605 -6.69022,2.03715 -14.0589,-0.62176 -20.94248,0.65206 1.1419,9.32385 1.7976,19.42451 0.13784,28.94847 0.12637,4.35274 -5.86279,4.86249 -7.04515,0.99735 1.71013,-9.37751 1.40746,-19.13366 0.16949,-28.64185 -4.07686,-0.98334 -10.50212,0.61261 -15.39155,-0.93051 5.36944,6.79199 6.08941,16.12386 4.80428,24.45296 -0.2856,3.34433 -2.39552,10.63914 -6.83663,6.73752 -1.85752,-5.48607 1.11319,-11.94664 -0.35419,-17.76324 -0.21822,-8.10452 -8.11144,-14.77668 -16.19725,-12.90034 -11.13845,3.20401 -14.54253,16.09329 -16.81626,26.09036 1.08762,4.38765 -4.89009,5.97099 -6.52985,2.35988 0.0228,-8.44438 1.1431,-17.10164 -0.0307,-25.65768 0.48419,-3.66186 -3.90262,-10.30657 1.57098,-11.6703 5.50123,-1.15263 6.18465,5.63168 5.94207,9.50335 -0.54067,4.28942 1.09006,1.28385 2.94821,-0.64912 6.91293,-8.25157 20.2975,-10.99141 28.71899,-3.33148 0.0578,-1.92651 2.04287,-4.48621 4.60668,-3.89738 12.8906,2.82159 25.5544,-2.29366 38.44082,-0.36494 0.17903,0.019 0.34607,0.0621 0.52183,0.10439 z m 30.03646,8.28783 c 4.70089,1.11449 8.02564,6.8647 8.04304,10.73209 -10.28408,-4.00351 -21.69485,-1.63538 -31.64697,2.17685 6.15699,-6.14568 13.98926,-14.70711 23.60393,-12.90894 z m -128.0477,-7.79483 c 0.54022,0.16176 1.07493,0.35483 1.59284,0.57875 13.49152,6.18043 16.19328,23.88818 11.45883,36.66269 0.28979,4.39366 -6.72128,5.11511 -6.87528,0.71879 1.14735,-4.60151 0.0897,-10.15802 -5.34893,-11.02781 -13.279812,-3.31085 -26.826704,3.65356 -38.379272,9.74931 -2.453038,2.4843 -6.577402,3.34349 -8.670359,-0.0744 3.044557,-6.41978 6.939332,-12.42581 11.471655,-17.89596 8.302096,-9.56908 19.273464,-20.80584 33.110176,-19.1087 0.55445,0.10519 1.10014,0.23562 1.64034,0.39738 z m -1.94508,7.17892 c -13.337774,-2.34309 -23.290178,11.08611 -31.065341,19.93507 11.74067,-5.42926 27.880271,-11.19107 40.892501,-4.05152 0.65668,-6.07104 -3.12444,-14.10301 -9.82716,-15.88355 z m -0.40819,1.92825 c 4.60923,1.29673 7.9046,6.71204 7.95236,10.70833 -10.27586,-4.0032 -21.722032,-1.65412 -31.654895,2.20709 5.925701,-6.09729 13.463307,-14.0764 22.757485,-13.13066 0.31833,0.0481 0.63777,0.1288 0.94505,0.21524 z m -24.947939,-1.07554 -0.727714,0.6816 -0.413161,0.34403 c -7.637508,7.13921 -14.028493,15.62496 -18.721452,24.97752 -3.281357,-9.41788 -8.582067,-18.98539 -7.98118,-29.09704 9.330302,-0.33243 18.499248,2.93023 27.843507,3.09389 z"
         id="path4240-3" />
    </clipPath>
    <linearGradient
       y2="513.45148"
       x2="79.689148"
       y1="415.18066"
       x1="78.823868"
       gradientTransform="translate(55.573797,-288.6872)"
       gradientUnits="userSpaceOnUse"
       id="linearGradient1696"
       xlink:href="#linearGradient4924-9"
       inkscape:collect="always" />
    <linearGradient
       y2="513.45148"
       x2="79.689148"
       y1="415.18066"
       x1="78.823868"
       gradientTransform="translate(55.573797,-288.6872)"
       gradientUnits="userSpaceOnUse"
       id="linearGradient1696-5"
       xlink:href="#linearGradient4924-9-2"
       inkscape:collect="always" />
    <linearGradient
       id="linearGradient4924-9-2">
      <stop
         style="stop-color:#5498dc;stop-opacity:0.01060071"
         offset="0"
         id="stop4926-4-9" />
      <stop
         id="stop4928-8-0"
         offset="0.06115814"
         style="stop-color:#6d96be;stop-opacity:0.67137808" />
      <stop
         style="stop-color:#264665;stop-opacity:0.52650177"
         offset="0.64520425"
         id="stop4930-1-2" />
      <stop
         style="stop-color:#5795d4;stop-opacity:0"
         offset="1"
         id="stop4932-2-8" />
    </linearGradient>
    <linearGradient
       inkscape:collect="always"
       xlink:href="#linearGradient3575-4"
       id="linearGradient2811-0"
       gradientUnits="userSpaceOnUse"
       gradientTransform="translate(0,14.976299)"
       x1="74.553787"
       y1="363.91711"
       x2="139.67003"
       y2="394.49374" />
    <linearGradient
       id="linearGradient3575-4">
      <stop
         style="stop-color:#e478a4;stop-opacity:1;"
         offset="0"
         id="stop3577-0" />
      <stop
         id="stop3583-9"
         offset="0.3981764"
         style="stop-color:#edc62b;stop-opacity:1;" />
      <stop
         style="stop-color:#ffffb2;stop-opacity:1;"
         offset="0.73575282"
         id="stop3585-1" />
      <stop
         style="stop-color:#f4da76;stop-opacity:1;"
         offset="1"
         id="stop3579-9" />
    </linearGradient>
    <linearGradient
       inkscape:collect="always"
       xlink:href="#linearGradient3600-2"
       id="linearGradient2813-6"
       gradientUnits="userSpaceOnUse"
       gradientTransform="translate(-0.3120062,-1.0409927e-8)"
       x1="140.7148"
       y1="424.94376"
       x2="184.95639"
       y2="429.62384" />
    <linearGradient
       id="linearGradient3600-2">
      <stop
         id="stop3602-5"
         offset="0"
         style="stop-color:#e4c478;stop-opacity:1;" />
      <stop
         style="stop-color:#edc62b;stop-opacity:1;"
         offset="0.58924794"
         id="stop3604-4" />
      <stop
         id="stop3608-4"
         offset="1"
         style="stop-color:#f47689;stop-opacity:1;" />
    </linearGradient>
    <linearGradient
       inkscape:collect="always"
       xlink:href="#linearGradient3763-9"
       id="linearGradient2815-9"
       gradientUnits="userSpaceOnUse"
       x1="194.7271"
       y1="438.90369"
       x2="211.69669"
       y2="384.90369" />
    <linearGradient
       id="linearGradient3763-9">
      <stop
         style="stop-color:#ff17f4;stop-opacity:1;"
         offset="0"
         id="stop3765-3" />
      <stop
         id="stop3771-6"
         offset="0.33336404"
         style="stop-color:#fe7686;stop-opacity:1;" />
      <stop
         style="stop-color:#fed518;stop-opacity:1;"
         offset="1"
         id="stop3767-0" />
    </linearGradient>
    <linearGradient
       inkscape:collect="always"
       xlink:href="#linearGradient3693-0"
       id="linearGradient2817-5"
       gradientUnits="userSpaceOnUse"
       gradientTransform="translate(125.61415,-34.318136)"
       x1="141.66663"
       y1="443.44376"
       x2="176.45641"
       y2="395.62384" />
    <linearGradient
       id="linearGradient3693-0">
      <stop
         style="stop-color:#fed518;stop-opacity:1"
         offset="0"
         id="stop3695-2" />
      <stop
         id="stop3697-9"
         offset="1"
         style="stop-color:#f9eaaf;stop-opacity:1" />
    </linearGradient>
    <linearGradient
       inkscape:collect="always"
       xlink:href="#linearGradient3755-3"
       id="linearGradient2819-4"
       gradientUnits="userSpaceOnUse"
       x1="252.66608"
       y1="369.64188"
       x2="235.93042"
       y2="408.64188" />
    <linearGradient
       id="linearGradient3755-3">
      <stop
         style="stop-color:#ffe984;stop-opacity:1;"
         offset="0"
         id="stop3757-5" />
      <stop
         style="stop-color:#fed518;stop-opacity:1;"
         offset="1"
         id="stop3759-1" />
    </linearGradient>
    <linearGradient
       inkscape:collect="always"
       xlink:href="#linearGradient3745-4"
       id="linearGradient2821-7"
       gradientUnits="userSpaceOnUse"
       x1="334.48355"
       y1="349.80249"
       x2="311.36508"
       y2="408.80249" />
    <linearGradient
       id="linearGradient3745-4">
      <stop
         style="stop-color:#fed518;stop-opacity:1;"
         offset="0"
         id="stop3747-3" />
      <stop
         id="stop3753-1"
         offset="0.5"
         style="stop-color:#fff4c0;stop-opacity:1;" />
      <stop
         style="stop-color:#fed518;stop-opacity:1;"
         offset="1"
         id="stop3749-4" />
    </linearGradient>
    <linearGradient
       inkscape:collect="always"
       xlink:href="#linearGradient3701-9"
       id="linearGradient2823-6"
       gradientUnits="userSpaceOnUse"
       gradientTransform="translate(1,-2.0313905e-8)"
       x1="418"
       y1="379"
       x2="449.44077"
       y2="313.31934" />
    <linearGradient
       id="linearGradient3701-9">
      <stop
         style="stop-color:#fed518;stop-opacity:1;"
         offset="0"
         id="stop3703-4" />
      <stop
         style="stop-color:#fe18e7;stop-opacity:1;"
         offset="1"
         id="stop3705-2" />
    </linearGradient>
    <linearGradient
       inkscape:collect="always"
       xlink:href="#linearGradient3737-6"
       id="linearGradient2825-2"
       gradientUnits="userSpaceOnUse"
       x1="349.40012"
       y1="341.61224"
       x2="349.40012"
       y2="391.65598" />
    <linearGradient
       id="linearGradient3737-6">
      <stop
         style="stop-color:#fed518;stop-opacity:1;"
         offset="0"
         id="stop3739-4" />
      <stop
         style="stop-color:#feffd3;stop-opacity:1;"
         offset="1"
         id="stop3741-1" />
    </linearGradient>
    <linearGradient
       inkscape:collect="always"
       xlink:href="#linearGradient3717-8"
       id="linearGradient2827-2"
       gradientUnits="userSpaceOnUse"
       x1="382.8176"
       y1="325.42422"
       x2="371.27914"
       y2="388.42422" />
    <linearGradient
       id="linearGradient3717-8">
      <stop
         style="stop-color:#fe18f1;stop-opacity:1;"
         offset="0"
         id="stop3719-8" />
      <stop
         id="stop3725-9"
         offset="0.4231098"
         style="stop-color:#fed518;stop-opacity:1;" />
      <stop
         style="stop-color:#ffe880;stop-opacity:1;"
         offset="1"
         id="stop3721-2" />
    </linearGradient>
    <linearGradient
       inkscape:collect="always"
       xlink:href="#linearGradient3575-4"
       id="linearGradient2829-8"
       gradientUnits="userSpaceOnUse"
       gradientTransform="translate(0,14.976299)"
       x1="74.553787"
       y1="363.91711"
       x2="139.67003"
       y2="394.49374" />
    <linearGradient
       id="linearGradient2419">
      <stop
         style="stop-color:#e478a4;stop-opacity:1;"
         offset="0"
         id="stop2421" />
      <stop
         id="stop2423"
         offset="0.3981764"
         style="stop-color:#edc62b;stop-opacity:1;" />
      <stop
         style="stop-color:#ffffb2;stop-opacity:1;"
         offset="0.73575282"
         id="stop2425" />
      <stop
         style="stop-color:#f4da76;stop-opacity:1;"
         offset="1"
         id="stop2427" />
    </linearGradient>
    <linearGradient
       inkscape:collect="always"
       xlink:href="#linearGradient3763-9"
       id="linearGradient2615"
       gradientUnits="userSpaceOnUse"
       x1="194.7271"
       y1="438.90369"
       x2="211.69669"
       y2="384.90369" />
    <linearGradient
       inkscape:collect="always"
       xlink:href="#linearGradient3575-4"
       id="linearGradient2617"
       gradientUnits="userSpaceOnUse"
       gradientTransform="translate(0,14.976299)"
       x1="74.553787"
       y1="363.91711"
       x2="139.67003"
       y2="394.49374" />
    <linearGradient
       inkscape:collect="always"
       xlink:href="#linearGradient4924-9-2"
       id="linearGradient2641"
       gradientUnits="userSpaceOnUse"
       gradientTransform="translate(55.573797,-288.6872)"
       x1="78.823868"
       y1="415.18066"
       x2="79.689148"
       y2="513.45148" />
    <linearGradient
       inkscape:collect="always"
       xlink:href="#linearGradient3575-4"
       id="linearGradient2643"
       gradientUnits="userSpaceOnUse"
       gradientTransform="translate(0,14.976299)"
       x1="74.553787"
       y1="363.91711"
       x2="139.67003"
       y2="394.49374" />
    <linearGradient
       inkscape:collect="always"
       xlink:href="#linearGradient3600-2"
       id="linearGradient2645"
       gradientUnits="userSpaceOnUse"
       gradientTransform="translate(-0.3120062,-1.0409927e-8)"
       x1="140.7148"
       y1="424.94376"
       x2="184.95639"
       y2="429.62384" />
    <linearGradient
       inkscape:collect="always"
       xlink:href="#linearGradient3763-9"
       id="linearGradient2647"
       gradientUnits="userSpaceOnUse"
       x1="194.7271"
       y1="438.90369"
       x2="211.69669"
       y2="384.90369" />
    <linearGradient
       inkscape:collect="always"
       xlink:href="#linearGradient3693-0"
       id="linearGradient2649"
       gradientUnits="userSpaceOnUse"
       gradientTransform="translate(125.61415,-34.318136)"
       x1="141.66663"
       y1="443.44376"
       x2="176.45641"
       y2="395.62384" />
    <linearGradient
       inkscape:collect="always"
       xlink:href="#linearGradient3755-3"
       id="linearGradient2651"
       gradientUnits="userSpaceOnUse"
       x1="252.66608"
       y1="369.64188"
       x2="235.93042"
       y2="408.64188" />
    <linearGradient
       inkscape:collect="always"
       xlink:href="#linearGradient3745-4"
       id="linearGradient2653"
       gradientUnits="userSpaceOnUse"
       x1="334.48355"
       y1="349.80249"
       x2="311.36508"
       y2="408.80249" />
    <linearGradient
       inkscape:collect="always"
       xlink:href="#linearGradient3701-9"
       id="linearGradient2655"
       gradientUnits="userSpaceOnUse"
       gradientTransform="translate(1,-2.0313905e-8)"
       x1="418"
       y1="379"
       x2="449.44077"
       y2="313.31934" />
    <linearGradient
       inkscape:collect="always"
       xlink:href="#linearGradient3737-6"
       id="linearGradient2657"
       gradientUnits="userSpaceOnUse"
       x1="349.40012"
       y1="341.61224"
       x2="349.40012"
       y2="391.65598" />
    <linearGradient
       inkscape:collect="always"
       xlink:href="#linearGradient3717-8"
       id="linearGradient2659"
       gradientUnits="userSpaceOnUse"
       x1="382.8176"
       y1="325.42422"
       x2="371.27914"
       y2="388.42422" />
    <linearGradient
       inkscape:collect="always"
       xlink:href="#linearGradient3575-4"
       id="linearGradient2661"
       gradientUnits="userSpaceOnUse"
       gradientTransform="translate(0,14.976299)"
       x1="74.553787"
       y1="363.91711"
       x2="139.67003"
       y2="394.49374" />
    <linearGradient
       inkscape:collect="always"
       xlink:href="#linearGradient3575-4"
       id="linearGradient2683"
       gradientUnits="userSpaceOnUse"
       gradientTransform="translate(0,14.976299)"
       x1="74.553787"
       y1="363.91711"
       x2="139.67003"
       y2="394.49374" />
    <linearGradient
       inkscape:collect="always"
       xlink:href="#linearGradient3600-2"
       id="linearGradient2685"
       gradientUnits="userSpaceOnUse"
       gradientTransform="translate(-0.3120062,-1.0409927e-8)"
       x1="140.7148"
       y1="424.94376"
       x2="184.95639"
       y2="429.62384" />
    <linearGradient
       inkscape:collect="always"
       xlink:href="#linearGradient3763-9"
       id="linearGradient2687"
       gradientUnits="userSpaceOnUse"
       x1="194.7271"
       y1="438.90369"
       x2="211.69669"
       y2="384.90369" />
    <linearGradient
       inkscape:collect="always"
       xlink:href="#linearGradient3693-0"
       id="linearGradient2689"
       gradientUnits="userSpaceOnUse"
       gradientTransform="translate(125.61415,-34.318136)"
       x1="141.66663"
       y1="443.44376"
       x2="176.45641"
       y2="395.62384" />
    <linearGradient
       inkscape:collect="always"
       xlink:href="#linearGradient3755-3"
       id="linearGradient2691"
       gradientUnits="userSpaceOnUse"
       x1="252.66608"
       y1="369.64188"
       x2="235.93042"
       y2="408.64188" />
    <linearGradient
       inkscape:collect="always"
       xlink:href="#linearGradient3745-4"
       id="linearGradient2693"
       gradientUnits="userSpaceOnUse"
       x1="334.48355"
       y1="349.80249"
       x2="311.36508"
       y2="408.80249" />
    <linearGradient
       inkscape:collect="always"
       xlink:href="#linearGradient3701-9"
       id="linearGradient2695"
       gradientUnits="userSpaceOnUse"
       gradientTransform="translate(1,-2.0313905e-8)"
       x1="418"
       y1="379"
       x2="449.44077"
       y2="313.31934" />
    <linearGradient
       inkscape:collect="always"
       xlink:href="#linearGradient3737-6"
       id="linearGradient2697"
       gradientUnits="userSpaceOnUse"
       x1="349.40012"
       y1="341.61224"
       x2="349.40012"
       y2="391.65598" />
    <linearGradient
       inkscape:collect="always"
       xlink:href="#linearGradient3717-8"
       id="linearGradient2699"
       gradientUnits="userSpaceOnUse"
       x1="382.8176"
       y1="325.42422"
       x2="371.27914"
       y2="388.42422" />
    <linearGradient
       inkscape:collect="always"
       xlink:href="#linearGradient3575-4"
       id="linearGradient2701"
       gradientUnits="userSpaceOnUse"
       gradientTransform="translate(0,14.976299)"
       x1="74.553787"
       y1="363.91711"
       x2="139.67003"
       y2="394.49374" />
    <linearGradient
       inkscape:collect="always"
       xlink:href="#linearGradient3717-8"
       id="linearGradient2706"
       gradientUnits="userSpaceOnUse"
       x1="382.8176"
       y1="325.42422"
       x2="371.27914"
       y2="388.42422"
       gradientTransform="translate(257.07862,464.75337)" />
    <linearGradient
       inkscape:collect="always"
       xlink:href="#linearGradient3737-6"
       id="linearGradient2709"
       gradientUnits="userSpaceOnUse"
       x1="349.40012"
       y1="341.61224"
       x2="349.40012"
       y2="391.65598"
       gradientTransform="translate(257.07862,464.75337)" />
    <linearGradient
       inkscape:collect="always"
       xlink:href="#linearGradient3701-9"
       id="linearGradient2712"
       gradientUnits="userSpaceOnUse"
       gradientTransform="translate(258.07862,464.75337)"
       x1="418"
       y1="379"
       x2="449.44077"
       y2="313.31934" />
    <linearGradient
       inkscape:collect="always"
       xlink:href="#linearGradient3745-4"
       id="linearGradient2715"
       gradientUnits="userSpaceOnUse"
       x1="334.48355"
       y1="349.80249"
       x2="311.36508"
       y2="408.80249"
       gradientTransform="translate(257.07862,464.75337)" />
    <linearGradient
       inkscape:collect="always"
       xlink:href="#linearGradient3755-3"
       id="linearGradient2718"
       gradientUnits="userSpaceOnUse"
       x1="252.66608"
       y1="369.64188"
       x2="235.93042"
       y2="408.64188"
       gradientTransform="translate(257.07862,464.75337)" />
    <linearGradient
       inkscape:collect="always"
       xlink:href="#linearGradient3693-0"
       id="linearGradient2721"
       gradientUnits="userSpaceOnUse"
       gradientTransform="translate(382.69277,430.43523)"
       x1="141.66663"
       y1="443.44376"
       x2="176.45641"
       y2="395.62384" />
    <linearGradient
       inkscape:collect="always"
       xlink:href="#linearGradient3763-9"
       id="linearGradient2724"
       gradientUnits="userSpaceOnUse"
       x1="194.7271"
       y1="438.90369"
       x2="211.69669"
       y2="384.90369"
       gradientTransform="translate(257.07862,464.75337)" />
    <linearGradient
       inkscape:collect="always"
       xlink:href="#linearGradient3600-2"
       id="linearGradient2727"
       gradientUnits="userSpaceOnUse"
       gradientTransform="translate(256.76661,464.75337)"
       x1="140.7148"
       y1="424.94376"
       x2="184.95639"
       y2="429.62384" />
    <linearGradient
       inkscape:collect="always"
       xlink:href="#linearGradient3575-4"
       id="linearGradient2730"
       gradientUnits="userSpaceOnUse"
       gradientTransform="translate(257.07862,479.72967)"
       x1="74.553787"
       y1="363.91711"
       x2="139.67003"
       y2="394.49374" />
    <linearGradient
       inkscape:collect="always"
       xlink:href="#linearGradient3575-4"
       id="linearGradient2732"
       gradientUnits="userSpaceOnUse"
       gradientTransform="translate(0,14.976299)"
       x1="74.553787"
       y1="363.91711"
       x2="139.67003"
       y2="394.49374" />
    <linearGradient
       inkscape:collect="always"
       xlink:href="#linearGradient3575-4"
       id="linearGradient2735"
       gradientUnits="userSpaceOnUse"
       gradientTransform="translate(257.07862,479.72967)"
       x1="74.553787"
       y1="363.91711"
       x2="139.67003"
       y2="394.49374" />
    <linearGradient
       inkscape:collect="always"
       xlink:href="#linearGradient4924-9"
       id="linearGradient3627"
       gradientUnits="userSpaceOnUse"
       gradientTransform="translate(55.573797,-288.6872)"
       x1="78.823868"
       y1="415.18066"
       x2="79.689148"
       y2="513.45148" />
    <linearGradient
       inkscape:collect="always"
       xlink:href="#linearGradient4924-9"
       id="linearGradient3651"
       gradientUnits="userSpaceOnUse"
       gradientTransform="translate(55.573797,-288.6872)"
       x1="78.823868"
       y1="415.18066"
       x2="79.689148"
       y2="513.45148" />
    <linearGradient
       inkscape:collect="always"
       xlink:href="#linearGradient3575"
       id="linearGradient3653"
       gradientUnits="userSpaceOnUse"
       gradientTransform="translate(0,14.976299)"
       x1="74.553787"
       y1="363.91711"
       x2="139.67003"
       y2="394.49374" />
    <linearGradient
       inkscape:collect="always"
       xlink:href="#linearGradient3600"
       id="linearGradient3655"
       gradientUnits="userSpaceOnUse"
       gradientTransform="translate(-0.3120062,-1.0409927e-8)"
       x1="140.7148"
       y1="424.94376"
       x2="184.95639"
       y2="429.62384" />
    <linearGradient
       inkscape:collect="always"
       xlink:href="#linearGradient3763"
       id="linearGradient3657"
       gradientUnits="userSpaceOnUse"
       x1="194.7271"
       y1="438.90369"
       x2="211.69669"
       y2="384.90369" />
    <linearGradient
       inkscape:collect="always"
       xlink:href="#linearGradient3693"
       id="linearGradient3659"
       gradientUnits="userSpaceOnUse"
       gradientTransform="translate(125.61415,-34.318136)"
       x1="141.66663"
       y1="443.44376"
       x2="176.45641"
       y2="395.62384" />
    <linearGradient
       inkscape:collect="always"
       xlink:href="#linearGradient3755"
       id="linearGradient3661"
       gradientUnits="userSpaceOnUse"
       x1="252.66608"
       y1="369.64188"
       x2="235.93042"
       y2="408.64188" />
    <linearGradient
       inkscape:collect="always"
       xlink:href="#linearGradient3745"
       id="linearGradient3663"
       gradientUnits="userSpaceOnUse"
       x1="334.48355"
       y1="349.80249"
       x2="311.36508"
       y2="408.80249" />
    <linearGradient
       inkscape:collect="always"
       xlink:href="#linearGradient3701"
       id="linearGradient3665"
       gradientUnits="userSpaceOnUse"
       gradientTransform="translate(1,-2.0313905e-8)"
       x1="418"
       y1="379"
       x2="449.44077"
       y2="313.31934" />
    <linearGradient
       inkscape:collect="always"
       xlink:href="#linearGradient3737"
       id="linearGradient3667"
       gradientUnits="userSpaceOnUse"
       x1="349.40012"
       y1="341.61224"
       x2="349.40012"
       y2="391.65598" />
    <linearGradient
       inkscape:collect="always"
       xlink:href="#linearGradient3717"
       id="linearGradient3669"
       gradientUnits="userSpaceOnUse"
       x1="382.8176"
       y1="325.42422"
       x2="371.27914"
       y2="388.42422" />
    <linearGradient
       inkscape:collect="always"
       xlink:href="#linearGradient3575"
       id="linearGradient3671"
       gradientUnits="userSpaceOnUse"
       gradientTransform="translate(0,14.976299)"
       x1="74.553787"
       y1="363.91711"
       x2="139.67003"
       y2="394.49374" />
    <linearGradient
       inkscape:collect="always"
       xlink:href="#linearGradient3575"
       id="linearGradient3735"
       gradientUnits="userSpaceOnUse"
       gradientTransform="translate(0,14.976299)"
       x1="74.553787"
       y1="363.91711"
       x2="139.67003"
       y2="394.49374" />
    <linearGradient
       inkscape:collect="always"
       xlink:href="#linearGradient3600"
       id="linearGradient3738"
       gradientUnits="userSpaceOnUse"
       gradientTransform="translate(-0.3120062,-1.0409927e-8)"
       x1="140.7148"
       y1="424.94376"
       x2="184.95639"
       y2="429.62384" />
    <linearGradient
       inkscape:collect="always"
       xlink:href="#linearGradient3763"
       id="linearGradient3740"
       gradientUnits="userSpaceOnUse"
       x1="194.7271"
       y1="438.90369"
       x2="211.69669"
       y2="384.90369" />
    <linearGradient
       inkscape:collect="always"
       xlink:href="#linearGradient3693"
       id="linearGradient3742"
       gradientUnits="userSpaceOnUse"
       gradientTransform="translate(125.61415,-34.318136)"
       x1="141.66663"
       y1="443.44376"
       x2="176.45641"
       y2="395.62384" />
    <linearGradient
       inkscape:collect="always"
       xlink:href="#linearGradient3755"
       id="linearGradient3744"
       gradientUnits="userSpaceOnUse"
       x1="252.66608"
       y1="369.64188"
       x2="235.93042"
       y2="408.64188" />
    <linearGradient
       inkscape:collect="always"
       xlink:href="#linearGradient3745"
       id="linearGradient3746"
       gradientUnits="userSpaceOnUse"
       x1="334.48355"
       y1="349.80249"
       x2="311.36508"
       y2="408.80249" />
    <linearGradient
       inkscape:collect="always"
       xlink:href="#linearGradient3701"
       id="linearGradient3748"
       gradientUnits="userSpaceOnUse"
       gradientTransform="translate(1,-2.0313905e-8)"
       x1="418"
       y1="379"
       x2="449.44077"
       y2="313.31934" />
    <linearGradient
       inkscape:collect="always"
       xlink:href="#linearGradient3737"
       id="linearGradient3750"
       gradientUnits="userSpaceOnUse"
       x1="349.40012"
       y1="341.61224"
       x2="349.40012"
       y2="391.65598" />
    <linearGradient
       inkscape:collect="always"
       xlink:href="#linearGradient3717"
       id="linearGradient3752"
       gradientUnits="userSpaceOnUse"
       x1="382.8176"
       y1="325.42422"
       x2="371.27914"
       y2="388.42422" />
    <linearGradient
       inkscape:collect="always"
       xlink:href="#linearGradient3575"
       id="linearGradient3754"
       gradientUnits="userSpaceOnUse"
       gradientTransform="translate(0,14.976299)"
       x1="74.553787"
       y1="363.91711"
       x2="139.67003"
       y2="394.49374" />
    <linearGradient
       inkscape:collect="always"
       xlink:href="#linearGradient3717"
       id="linearGradient3759"
       gradientUnits="userSpaceOnUse"
       x1="382.8176"
       y1="325.42422"
       x2="371.27914"
       y2="388.42422"
       gradientTransform="translate(118.37398,144.32229)" />
    <linearGradient
       inkscape:collect="always"
       xlink:href="#linearGradient3737"
       id="linearGradient3762"
       gradientUnits="userSpaceOnUse"
       x1="349.40012"
       y1="341.61224"
       x2="349.40012"
       y2="391.65598"
       gradientTransform="translate(118.37398,144.32229)" />
    <linearGradient
       inkscape:collect="always"
       xlink:href="#linearGradient3701"
       id="linearGradient3765"
       gradientUnits="userSpaceOnUse"
       gradientTransform="translate(119.37398,144.32229)"
       x1="418"
       y1="379"
       x2="449.44077"
       y2="313.31934" />
    <linearGradient
       inkscape:collect="always"
       xlink:href="#linearGradient3745"
       id="linearGradient3768"
       gradientUnits="userSpaceOnUse"
       x1="334.48355"
       y1="349.80249"
       x2="311.36508"
       y2="408.80249"
       gradientTransform="translate(118.37398,144.32229)" />
    <linearGradient
       inkscape:collect="always"
       xlink:href="#linearGradient3755"
       id="linearGradient3771"
       gradientUnits="userSpaceOnUse"
       x1="252.66608"
       y1="369.64188"
       x2="235.93042"
       y2="408.64188"
       gradientTransform="translate(118.37398,144.32229)" />
    <linearGradient
       inkscape:collect="always"
       xlink:href="#linearGradient3693"
       id="linearGradient3774"
       gradientUnits="userSpaceOnUse"
       gradientTransform="translate(243.98813,110.00415)"
       x1="141.66663"
       y1="443.44376"
       x2="176.45641"
       y2="395.62384" />
    <linearGradient
       inkscape:collect="always"
       xlink:href="#linearGradient3763"
       id="linearGradient3777"
       gradientUnits="userSpaceOnUse"
       x1="194.7271"
       y1="438.90369"
       x2="211.69669"
       y2="384.90369"
       gradientTransform="translate(118.37398,144.32229)" />
    <linearGradient
       inkscape:collect="always"
       xlink:href="#linearGradient3600"
       id="linearGradient3780"
       gradientUnits="userSpaceOnUse"
       gradientTransform="translate(118.06197,144.32229)"
       x1="140.7148"
       y1="424.94376"
       x2="184.95639"
       y2="429.62384" />
    <linearGradient
       inkscape:collect="always"
       xlink:href="#linearGradient3575"
       id="linearGradient3783"
       gradientUnits="userSpaceOnUse"
       gradientTransform="translate(118.37398,159.29859)"
       x1="74.553787"
       y1="363.91711"
       x2="139.67003"
       y2="394.49374" />
    <linearGradient
       inkscape:collect="always"
       xlink:href="#linearGradient3575"
       id="linearGradient3785"
       gradientUnits="userSpaceOnUse"
       gradientTransform="translate(0,14.976299)"
       x1="74.553787"
       y1="363.91711"
       x2="139.67003"
       y2="394.49374" />
  </defs>
  <sodipodi:namedview
     id="base"
     pagecolor="#ffffff"
     bordercolor="#666666"
     borderopacity="1.0"
     inkscape:pageopacity="0.0"
     inkscape:pageshadow="2"
     inkscape:zoom="2.9761088"
     inkscape:cx="189.0887"
     inkscape:cy="66.805131"
     inkscape:document-units="px"
     inkscape:current-layer="layer1"
     showgrid="false"
     fit-margin-top="0"
     fit-margin-left="0"
     fit-margin-right="0"
     fit-margin-bottom="0"
     inkscape:window-width="1280"
     inkscape:window-height="753"
     inkscape:window-x="0"
     inkscape:window-y="0"
     inkscape:window-maximized="1" />
  <metadata
     id="metadata1703">
    <rdf:RDF>
      <cc:Work
         rdf:about="">
        <dc:format>image/svg+xml</dc:format>
        <dc:type
           rdf:resource="http://purl.org/dc/dcmitype/StillImage" />
        <dc:title></dc:title>
      </cc:Work>
    </rdf:RDF>
  </metadata>
  <g
     inkscape:label="PINBALL"
     inkscape:groupmode="layer"
     id="layer1"
     transform="translate(-186,-465.68109)">
    <g
       id="pinball"
       transform="translate(118.37398,144.94639)"
       style="fill:#3c4c58;fill-opacity:1;display:inline"
       inkscape:label="PINBALL">
      <path
         inkscape:connector-curvature="0"
         sodipodi:nodetypes="cccccccccccccscccccccc"
         id="text2625"
         d="m 170.89777,331.71869 5.38669,0 c 6.11686,0 4.56126,-0.16804 4.56126,-17.92042 0,-19.03144 2.13898,-19.0763 -5.7754,-19.0763 l -4.17255,0.0506 0,36.94614 m -24.32508,30.2361 5.26126,0.0506 0,-67.23283 -5.26126,0 0,-3.33887 30.80872,0 c 6.34045,7e-5 14.06629,1.58519 18.417,4.75537 4.89022,3.57502 4.95508,11.45428 4.95514,17.55863 -6e-5,5.6323 0.15429,12.28821 -4.29748,16.09921 -4.2158,3.575 -11.57066,5.36247 -17.30404,5.36244 l -8.25426,0 0,26.74546 5.61538,0 0,3.33888 -29.94046,0 0,-3.33888"
         style="font-size:103.60634613px;font-style:normal;font-variant:normal;font-weight:normal;font-stretch:normal;fill:#3c4c58;fill-opacity:1;stroke:none;display:inline;font-family:Dustismo Roman;-inkscape-font-specification:Dustismo Roman"
         transform="scale(0.8345896,1.1981936)" />
      <path
         inkscape:connector-curvature="0"
         sodipodi:nodetypes="ccccccccccccc"
         id="text2651"
         d="m 185.92791,313.29895 25.5296,0 0,3.60032 -3.42817,0 0,72.44297 3.42817,0 0,3.60033 -25.5296,0 0,-3.60033 3.87715,0 0,-72.44297 -3.87715,0 0,-3.60032"
         style="font-size:111.7192688px;font-style:normal;font-variant:normal;font-weight:normal;font-stretch:normal;fill:#3c4c58;fill-opacity:1;stroke:none;display:inline;font-family:Dustismo Roman;-inkscape-font-specification:Dustismo Roman"
         transform="scale(0.896588,1.1153395)" />
      <path
         inkscape:connector-curvature="0"
         transform="scale(0.9275179,1.0781463)"
         sodipodi:nodetypes="cccccccccccccccccccccccc"
         id="text2663"
         d="m 252.88812,327.85149 0,75.36505 3.91238,2e-5 0,3.30151 -4.51452,0 -5.24844,0 -29.8278,-52.16462 0,48.44009 3.70355,0 0,3.72453 -14.08709,0 0,-3.72453 4.54565,0 0,-74.94205 -3.38551,0 0,-3.72453 12.61329,0 27.77391,48.01744 0,-44.29291 -3.73679,0 0,-3.72453 12.04459,0 0,3.72453 -3.79322,0"
         style="font-size:115.57328033px;font-style:normal;font-variant:normal;font-weight:normal;font-stretch:normal;fill:#3c4c58;fill-opacity:1;stroke:none;display:inline;font-family:Dustismo Roman;-inkscape-font-specification:Dustismo Roman" />
      <path
         inkscape:connector-curvature="0"
         sodipodi:nodetypes="ccccccccccccccsccssccccccccc"
         id="text2675"
         d="m 295.65222,345.2391 4.5555,0 c 4.55331,0 4.59639,-0.16098 4.59639,-16.59615 0,-15.66753 0.37232,-16.10961 -4.37866,-16.10961 l -4.77323,0 0,32.70576 m 4.87986,39.08472 c 3.79185,0 3.96222,0.0285 3.96222,-18.05573 0,-17.88348 0.23179,-17.89357 -3.95054,-17.89357 l -4.89154,0 0,35.9493 m 1.04166,-75.35838 c 6.55914,8e-5 11.37039,0.46859 14.43378,1.40554 4.90131,1.47769 8.46921,4.48698 10.7037,9.02787 1.44152,2.91926 2.16231,6.03666 2.16237,9.35222 -6e-5,7.89268 -3.31568,14.81244 -9.94688,18.27218 l 0.0541,0 c 4.61299,1.3335 5.64446,2.00893 8.38351,5.75699 2.73893,3.74813 1.72834,8.65859 1.7284,13.48785 -6e-5,6.81146 -0.19094,11.7668 -4.80393,15.69509 -4.36081,3.67602 -7.09197,5.92854 -14.01149,5.92854 l -32.70576,0 0,-3.5679 3.24206,0 0,-71.79048 -3.24206,0 0,-3.5679 24.00224,0"
         style="font-size:110.71302795px;font-style:normal;font-variant:normal;font-weight:normal;font-stretch:normal;fill:#3c4c58;fill-opacity:1;stroke:none;display:inline;font-family:Dustismo Roman;-inkscape-font-specification:Dustismo Roman"
         transform="scale(0.8852815,1.1295842)" />
      <path
         inkscape:connector-curvature="0"
         sodipodi:nodetypes="cccccccccccccccccccccccccc"
         id="text2687"
         d="m -401.48813,318.36505 -11.02508,-37.41198 -1.73026,-0.0201 -11.19582,37.43203 28.50261,0 m -44.67517,19.44992 0,-3.1992 5.16793,0 19.30018,-62.37519 -4.89746,-0.006 -0.03,-3.02723 32.06267,0 -0.0442,3.03112 -4.65779,10e-4 19.91705,62.37573 5.0695,0 0,3.1992 -30.34855,0 0,-3.1992 4.69199,0 -4.31548,-13.00231 -26.62518,0 -4.82391,13.00231 6.61101,0 0,3.1992 -17.0778,0"
         style="font-size:100.79938507px;font-style:normal;font-variant:normal;font-weight:normal;font-stretch:normal;fill:#3c4c58;fill-opacity:1;stroke:none;display:inline;font-family:Dustismo Roman;-inkscape-font-specification:Dustismo Roman"
         transform="scale(-0.7715662,1.2960651)" />
      <path
         inkscape:connector-curvature="0"
         sodipodi:nodetypes="ccccccccccccccc"
         id="text2699"
         d="m 418.28579,376.98287 8.60584,0 c 9.21675,0 17.76036,-0.0228 17.76036,-19.62581 l 3.73214,0 0.008,23.09512 -52.59607,0 0,-3.46931 3.38731,0 0,-69.80673 -3.49244,0 0,-3.46931 26.39344,0 0,3.46931 -3.79821,0 0,69.80673"
         style="font-size:107.65374756px;font-style:normal;font-variant:normal;font-weight:normal;font-stretch:normal;fill:#3c4c58;fill-opacity:1;stroke:none;display:inline;font-family:Dustismo Roman;-inkscape-font-specification:Dustismo Roman"
         transform="scale(0.8691653,1.1505292)" />
      <path
         inkscape:connector-curvature="0"
         style="font-size:107.65374756px;font-style:normal;font-variant:normal;font-weight:normal;font-stretch:normal;fill:#3c4c58;fill-opacity:1;stroke:none;display:inline;font-family:Dustismo Roman;-inkscape-font-specification:Dustismo Roman"
         d="m 412.54447,433.7298 7.4799,0 c 8.01088,0 15.43669,-0.0262 15.43669,-22.58007 l 3.24384,0 0.007,26.57161 -45.71468,0 0,-3.99154 2.94413,0 0,-80.31468 -3.03551,0 0,-3.99154 22.94026,0 0,3.99154 -3.30127,0 0,80.31468"
         id="path2775"
         sodipodi:nodetypes="ccccccccccccccc" />
    </g>
    <rect
       clip-path="url(#clipPath4238-44)"
       transform="matrix(0.9673628,-0.2533953,0.2533953,0.9673628,127.95789,391.17791)"
       y="85.682579"
       x="-25.627075"
       height="168.97484"
       width="453.16376"
       id="rect4264"
       style="fill:#ff0000;fill-opacity:1;fill-rule:evenodd;stroke:#ff0000;stroke-width:10.00000018000000068;stroke-miterlimit:4;stroke-dasharray:none" />
    <path
       style="fill:#ffffff;fill-opacity:1;stroke:#000000"
       d="m 256.46477,481.15884 c -3.45343,0.36798 -70.0558,26.14132 -66.32936,50.16902 2.04817,13.20638 63.78382,14.14403 63.64927,18.40836 -0.14437,4.57604 -27.37455,1.62071 -30.88861,10.29621 -4.68993,11.57848 22.91064,37.06767 20.70836,33.66659 l -0.86746,-1.33966 c -1.80852,-2.79298 -20.12839,-25.39108 -15.1891,-31.42935 6.45624,-4.71246 34.35314,-2.08681 34.97299,-8.69773 1.16026,-12.37454 -62.29736,-11.80577 -64.09047,-22.57207 -1.8327,-11.00405 13.6134,-24.0582 32.81049,-34.69325 11.24749,-6.23103 29.81578,-14.2974 27.5979,-14.06108 z"
       id="path2795"
       sodipodi:nodetypes="cszssscsssss"
       inkscape:connector-curvature="0" />
    <path
       sodipodi:nodetypes="cccscccssssc"
       id="path3589"
       style="fill:#ffffff;fill-opacity:1;fill-rule:evenodd;stroke:#000000"
       d="m 253.72506,584.1048 c 0,0 0.75568,0.98694 1.96419,0.15778 10.42742,-9.47824 27.01202,-22.33222 43.19162,-16.0817 -0.30297,-8.84462 -7.66924,-18.3592 -16.9424,-17.75265 -13.45238,0.87991 -22.59462,19.94661 -28.21341,33.67657 z m -3.99646,6.89425 c 0,0 0.858,1.12057 2.23014,0.17915 4.8822,-5.62153 24.28929,-23.49213 38.68169,-22.37059 8.73132,0.6804 8.73125,5.41771 9.76202,10.83808 0.20063,1.05502 2.28654,0.78907 2.36721,0.004 2.22434,-21.64387 -10.9217,-33.33232 -21.45043,-32.64365 -15.2738,0.99904 -28.39932,27.34116 -31.59063,43.99288 z"
       inkscape:connector-curvature="0" />
    <path
       style="fill:#ffffff;fill-opacity:1;stroke:#000000"
       d="m 298.75259,542.40408 c -0.85501,-1.57979 2.13823,-2.45525 3.24961,-1.77003 1.94638,1.20005 3.97288,10.183 5.75956,18.46236 -1.01018,-6.06575 6.49727,-25.89778 21.99643,-24.18048 20.00709,2.21676 20.33129,31.4943 18.20375,31.09218 l -0.9605,-0.18153 c -1.71376,-0.32391 -0.80816,-27.3473 -18.80327,-27.16658 -22.13858,0.22234 -17.58294,35.28022 -17.62836,35.56871 -0.0454,0.28849 -2.36016,1.10117 -2.62427,-0.77703 -0.0486,-0.34531 -0.93245,-7.43636 -3.33597,-15.58324 -1.41446,-4.79442 -3.55897,-11.21835 -5.85698,-15.46436 z"
       id="path3620"
       sodipodi:nodetypes="cscsssscsss"
       inkscape:connector-curvature="0" />
    <path
       sodipodi:nodetypes="cccscccsssss"
       id="path3662"
       style="fill:#ffffff;fill-opacity:1;fill-rule:evenodd;stroke:#000000;display:inline"
       d="m 379.65122,549.78667 c 0,0 0.75568,0.98694 1.96419,0.15778 10.42742,-9.47824 27.01202,-22.33222 43.19162,-16.0817 -0.30297,-8.84462 -7.66924,-18.3592 -16.9424,-17.75265 -13.45238,0.87991 -22.59462,19.94661 -28.21341,33.67657 z m -3.99646,6.89425 c -0.14037,0.73244 0.858,1.12057 2.23014,0.17915 4.8822,-5.62153 24.28929,-23.49213 38.68169,-22.37059 8.73132,0.6804 8.73125,5.41771 9.76202,10.83808 0.20063,1.05502 2.28654,0.78907 2.36721,0.004 2.22434,-21.64387 -10.9217,-33.33232 -21.45043,-32.64365 -15.2738,0.99904 -28.39932,27.34116 -31.59063,43.99288 z"
       inkscape:connector-curvature="0" />
    <path
       style="fill:#ffffff;fill-opacity:1;stroke:#000000;display:inline"
       d="m 338.54006,534.09805 c 0,1.88381 9.77114,-0.55755 15.80663,-2.84403 1.21283,-0.54579 1.83365,0.14255 2.01812,0.56316 2.61356,5.95919 5.27034,14.75852 6.65446,20.91087 1.13995,5.067 0.11116,8.04138 1.36378,8.25932 l 1.5757,0.27416 c 2.35235,0.40929 -1.6727,-19.2829 -6.98282,-30.10995 -0.24186,-0.49314 -0.35195,-1.21411 0.34256,-1.71468 2.14884,-1.19817 11.33108,-3.60716 16.8351,-4.52214 2.14071,-0.35586 3.62489,-1.10536 3.64528,-1.50177 0.0654,-1.27066 -0.44469,-1.29349 -1.79589,-1.71948 -1.09045,-0.34379 -11.87291,2.03161 -19.54941,5.55885 -11.31364,5.19845 -19.91351,3.30999 -19.91351,5.78369 z"
       id="path3622"
       sodipodi:nodetypes="ccssssscssssss"
       inkscape:connector-curvature="0" />
    <path
       style="fill:#ffffff;fill-opacity:1;stroke:#000000;display:inline"
       d="m 431.31622,547.9877 c -0.76418,-0.52499 -0.0418,-1.57355 1.34188,-1.57404 7.04893,-1.08624 22.37751,-1.78104 25.49066,-16.33383 0.85882,-6.16748 -2.05419,-11.56809 -6.94906,-15.22445 -4.89488,-3.65636 -9.15147,-4.9181 -13.26588,-5.3379 -5.7818,-0.58993 -12.9999,2.15871 -19.34735,2.2155 -0.93598,0.008 -0.98533,-2.52593 -0.0625,-2.68257 5.30302,-0.90011 18.16461,-4.03365 26.36726,-6.56938 5.09865,-1.57617 6.75621,-2.11863 8.44947,-3.60083 1.69326,-1.4822 3.8357,1.1888 3.30855,2.43157 -1.22396,2.8855 -10.22203,2.03071 -15.09784,5.11908 l -0.68602,0.43453 c -2.29796,1.45555 10.91222,1.92619 17.28238,10.73371 6.16882,8.52914 4.11506,20.4714 -4.05148,25.29191 -7.05584,4.16489 -19.24518,7.52514 -22.78007,5.0967 z"
       id="path3626"
       sodipodi:nodetypes="ccczsssszssssss"
       inkscape:connector-curvature="0" />
    <path
       style="fill:#ffffff;fill-opacity:1;stroke:#000000;display:inline"
       d="m 528.8919,519.18521 c -0.76418,-0.52499 -0.0418,-1.57355 1.34188,-1.57404 7.04893,-1.08624 22.37751,-1.78104 25.49066,-16.33383 0.85882,-6.16748 -2.05419,-11.56809 -6.94906,-15.22445 -4.89488,-3.65636 -9.15147,-4.9181 -13.26588,-5.3379 -5.7818,-0.58993 -12.9999,2.15871 -19.34735,2.2155 -0.93598,0.008 -0.98533,-2.52593 -0.0625,-2.68257 5.30302,-0.90011 18.16461,-4.03365 26.36726,-6.56938 5.09865,-1.57617 6.75621,-2.11863 8.44947,-3.60083 1.69326,-1.4822 3.8357,1.1888 3.30855,2.43157 -1.22396,2.8855 -10.22203,2.03071 -15.09784,5.11908 l -0.68602,0.43453 c -2.29796,1.45555 10.91222,1.92619 17.28238,10.73371 6.16882,8.52914 4.11506,20.4714 -4.05148,25.29191 -7.05584,4.16489 -19.24518,7.52514 -22.78007,5.0967 z"
       id="path3684"
       sodipodi:nodetypes="ccczsssszssssss"
       inkscape:connector-curvature="0" />
    <path
       id="path3688"
       style="fill:#ffffff;fill-opacity:1;stroke:#000000;display:inline"
       d="m 463.37398,497.07229 c 0.96946,-0.80573 2.38906,-1.97327 3.75,-1.125 1.04655,0.65231 0.68276,1.94952 1.57586,5.35043 0.65873,2.50848 1.4896,5.56205 2.38051,8.62037 1.52622,5.23916 3.34647,10.07996 4.2051,14.22891 0.66354,3.20625 0.67855,5.92386 0.21353,6.17529 -0.89309,0.48288 -1.65098,-0.0343 -3.375,-0.25 -0.75991,-0.31805 -0.49235,-3.98171 -1.5077,-9.22198 -0.91719,-4.73366 -2.70024,-11.50383 -5.62433,-17.63157 -1.69284,-3.54754 -2.04837,-5.78874 -1.61797,-6.14645 z m -3.625,-8.25 c -0.15823,1.02985 0.61313,3.21863 1.75,3 0,0 2.53628,0.0652 3.25,-0.625 0.60817,-0.58814 1.22463,-2.02604 0.625,-2.75 l -1.1143,-1.34535 c -1.75489,-1.64251 -3.71288,0.0616 -4.5107,1.72035 z"
       inkscape:connector-curvature="0" />
    <path
       style="fill:#ffffff;fill-opacity:1;stroke:#000000;display:inline"
       d="m 480.49898,504.57229 c 0,0 5.20838,-0.0703 14.90647,-3.40159 6.7127,-2.30583 18.19217,-6.54285 19.34353,-5.47341 1.15136,1.06944 1.2107,1.50187 1,3 -0.2107,1.49813 -5.19539,1.53533 -11.20475,2.96216 -3.97547,0.94392 -8.16509,2.8919 -12.40403,3.75984 -4.28723,0.87782 -8.45201,1.78396 -10.76622,2.278 -2.42218,0.51709 2.47049,11.31652 8.375,13.75 5.94951,2.45202 13.57976,1.11315 20.5,-4.125 10.99513,-8.32256 5.47259,-14.7744 8.375,-15.5 l 1,-0.25 c 3.09358,-0.7734 2.06304,7.19807 0.75,9.75 -2.5748,5.0042 -6.91863,8.53623 -13.375,12.25 -6.40166,3.6823 -16.95453,2.08226 -22.375,-1.75 -5.09474,-3.60197 -10.63317,-10.99776 -8.375,-18.625 2.22413,-7.51224 8.22791,-11.82636 12.75,-14.5 5.70518,-3.37313 20.55795,-5.4818 19.75,-2.25 l -0.25,1 c -0.6771,2.70839 -11.45465,-0.72542 -21.375,5.5 -5.53972,3.4764 -8.90141,11.52223 -6.625,11.625 z"
       id="path3691"
       sodipodi:nodetypes="cszzssszszsszszsssss"
       inkscape:connector-curvature="0" />
    <path
       inkscape:connector-curvature="0"
       id="path2752"
       d="m 551.86362,460.08277 c -10.05453,4.563 -20.76617,7.3714 -31.6875,9.5625 -4.3466,1.1347 -9.73413,2.06237 -12.25,5.8125 -11.94976,-1.01813 -24.49311,3.7809 -32.71875,12.53125 -0.34422,-10.18346 -15.54717,-15.33886 -21.25,-6.46875 -2.62726,2.14479 -1.98415,6.31786 -3.28125,8.53125 -1.43895,-1.77129 -7.46218,-2.32449 -12.46875,-1.84375 l -23.78125,0 c -0.78842,5.11278 2.29842,11.78142 -2.65625,14.75 -4.95023,1.97755 -5.22225,-5.34036 -8.65625,-7.8125 -9.84756,-10.07961 -25.41879,-5.86159 -37.90625,-6.84375 -8.57917,-0.16251 -16.00953,0.8238 -24.78125,0.46875 0.60761,5.54864 -2.14627,14.45877 3.46875,15 -0.13137,5.96228 0.25851,12.36762 -0.1875,18.0625 -3.91225,-2.9074 -5.47136,-10.44692 -8.51512,-15.06149 -2.98279,-6.00121 -5.98379,-11.99338 -8.95363,-18.00101 -15.3294,-0.0144 -30.64051,-0.047 -46,-0.0312 1.51868,5.18188 -2.3336,1.51935 -4.69868,1.12127 -3.9596,-1.25728 -8.13267,-1.51119 -12.27007,-1.37127 8.21433,-2.95532 7.19802,-18.25197 -2.625,-17.53125 -17.23225,2.70071 -32.45189,12.07304 -47.60749,20.2645 -13.17016,7.80442 -27.47423,18.15934 -31.26751,33.82925 -1.89019,9.29157 4.47225,18.49679 13.55348,20.74639 6.93414,3.19847 16.32239,4.29966 22.44652,6.12861 -7.69554,8.74907 -2.09146,21.39481 3.5,29.65625 5.78781,7.22674 11.3852,15.41318 19.5,20.09375 3.78522,2.20058 7.90224,-0.22704 11.0625,-1.59375 7.05738,-0.41459 10.6267,-8.28492 16.26553,-11.67411 3.79914,-3.1944 7.70728,-6.06584 12.14072,-8.29464 -2.56473,8.72098 4.3759,7.9366 11,7.46875 5.41088,-1.24905 10.68408,2.91332 15.84375,0 l 21.34375,0 c -0.6082,-5.53764 2.13754,-14.4292 -3.4375,-15 0.0856,-8.14469 -0.16972,-16.45986 0.125,-24.5 6.48079,13.16586 12.94758,26.33864 19.4375,39.5 16.32868,-0.38414 32.58903,0.52499 48.9375,-0.59375 2.23484,0.27132 6.45416,-4.42721 5.3125,0.15625 l 33.40625,0 c -0.56698,-5.16682 1.65821,-13.71841 -2.30733,-15.13751 -1.02482,-8.69248 7.94774,-5.23374 13.55733,-5.86249 4.6727,8.49576 -4.87062,5.33831 -2.375,13.84375 -2.52249,8.57457 4.5964,7.50777 11,7.15625 36.52036,-0.24006 73.44308,-0.0778 110.15625,-0.125 l 0,-36.5625 c -4.89407,1.16235 -15.42234,-3.38128 -13.25,4.9375 -0.50588,5.41461 0.54335,13.16977 -4.09375,16.90625 -2.59111,0.72214 -7.6969,1.72958 -8.8125,-0.25 l 0,-43.84375 c 11.73364,-1.44971 25.00448,-6.50192 30.46875,-17.71875 4.99744,-10.46215 1.36421,-23.57472 -5.84375,-31.5 7.33347,-6.82265 0.89004,-19.85748 -8.84375,-18.90625 z m -12.28125,30.03125 c 5.48928,1.26858 11.03364,8.79725 5.4375,13.3125 -2.49288,2.15288 -5.76767,3.11206 -8.9375,3.8125 0.33643,-5.60107 5.52617,-6.34883 3.3125,-14.5 0.2199,-0.54323 -0.34417,-2.55972 0.1875,-2.625 z m -299.3125,12.40625 0,29.46875 c -10.4275,-2.48612 -22.6033,-2.37115 -31.8125,-7 6.18386,-10.26083 17.19074,-16.71215 27.40625,-22.46875 z m 262.90625,8.59375 c -1.42629,0.97888 -6.75301,2.26609 -5.45096,1.64182 1.66568,-0.48687 4.32594,-1.33647 5.45096,-1.64182 z m 6.3125,39.34375 c -6.00805,-0.54345 -11.68996,-0.76732 -9.5,7 -0.66361,4.82453 0.41801,13.03871 -5.0625,15.21875 -4.11879,0.6891 -9.98775,1.61487 -7.84375,-4.625 0.0417,-11.92464 -0.0833,-24.1189 0.0625,-35.875 7.15904,2.48475 15.23545,2.53932 22.34375,-0.1875 z m -49,22.53125 c -3.20544,-3.38389 -2.42098,-11.56334 -4.15442,-16.71646 -2.38876,-3.9643 0.93036,-4.96021 3.68567,-6.62729 1.06542,5.88847 0.17562,15.96114 0.46875,23.34375 z m -220.21875,-1.21875 c -2.40088,-1.93689 -2.73556,-7.49602 0,-4.3125 z"
       style="font-size:103.60634612999999149px;font-style:normal;font-variant:normal;font-weight:normal;font-stretch:normal;opacity:0.20000000000000001;fill:none;stroke:#000000;stroke-width:1;stroke-miterlimit:4;stroke-dasharray:none;display:inline;font-family:Dustismo Roman;-inkscape-font-specification:Dustismo Roman"
       sodipodi:nodetypes="ccccccccccccccccccccccccccccccccccccccccccccccccccccccccccccccccccccccccccccccc" />
  </g>
  <g
     inkscape:groupmode="layer"
     id="layer2"
     inkscape:label="sombra"
     style="display:none">
    <g
       id="g4590"
       clip-path="url(#clipPath4614)"
       transform="translate(-23.23388,-155.93215)">
      <g
         id="g4594">
        <rect
           style="fill:url(#linearGradient714);fill-opacity:1;fill-rule:evenodd;stroke:none"
           id="rect4540"
           width="453.16376"
           height="168.97484"
           x="-25.627075"
           y="85.682579"
           transform="matrix(0.9673628,-0.2533953,0.2533953,0.9673628,-32.463755,98.11407)"
           clip-path="url(#clipPath4238-4)" />
        <path
           id="path4542"
           style="fill:#000000;fill-opacity:1;fill-rule:evenodd;stroke:none;display:inline"
           d="m 319.78898,211.55737 c 0,0 5.20838,-0.0703 14.90647,-3.40159 6.7127,-2.30583 18.19217,-6.54285 19.34353,-5.47341 1.15136,1.06944 1.2107,1.50187 1,3 -0.2107,1.49813 -5.19539,1.53533 -11.20475,2.96216 -3.97547,0.94392 -8.16509,2.8919 -12.40403,3.75984 -4.28723,0.87782 -8.45201,1.78396 -10.76622,2.278 -2.42218,0.51709 2.47049,11.31652 8.375,13.75 5.94951,2.45202 13.57976,1.11315 20.5,-4.125 10.99513,-8.32256 5.47259,-14.7744 8.375,-15.5 l 1,-0.25 c 3.09358,-0.7734 2.06304,7.19807 0.75,9.75 -2.5748,5.0042 -6.91863,8.53623 -13.375,12.25 -6.40166,3.6823 -16.95453,2.08226 -22.375,-1.75 -5.09474,-3.60197 -10.63317,-10.99776 -8.375,-18.625 2.22413,-7.51224 8.22791,-11.82636 12.75,-14.5 5.70518,-3.37313 20.55795,-5.4818 19.75,-2.25 l -0.25,1 c -0.6771,2.70839 -11.45465,-0.72542 -21.375,5.5 -5.53972,3.4764 -8.90141,11.52223 -6.625,11.625 z m -17.125,-7.5 c 0.96946,-0.80573 2.38906,-1.97327 3.75,-1.125 1.04655,0.65231 0.68276,1.94952 1.57586,5.35043 0.65873,2.50848 1.4896,5.56205 2.38051,8.62037 1.52622,5.23916 3.34647,10.07996 4.2051,14.22891 0.66354,3.20625 0.67855,5.92386 0.21353,6.17529 -0.89309,0.48288 -1.65098,-0.0343 -3.375,-0.25 -0.75991,-0.31805 -0.49235,-3.98171 -1.5077,-9.22198 -0.91719,-4.73366 -2.70024,-11.50383 -5.62433,-17.63157 -1.69284,-3.54754 -2.04837,-5.78874 -1.61797,-6.14645 z m -3.625,-8.25 c -0.15823,1.02985 0.61313,3.21863 1.75,3 0,0 2.53628,0.0652 3.25,-0.625 0.60817,-0.58814 1.22463,-2.02604 0.625,-2.75 l -1.1143,-1.34535 c -1.75489,-1.64251 -3.71288,0.0616 -4.5107,1.72035 z m 69.14292,30.36292 c -0.76418,-0.52499 -0.0418,-1.57355 1.34188,-1.57404 7.04893,-1.08624 22.37751,-1.78104 25.49066,-16.33383 0.85882,-6.16748 -2.05419,-11.56809 -6.94906,-15.22445 -4.89488,-3.65636 -9.15147,-4.9181 -13.26588,-5.3379 -5.7818,-0.58993 -12.9999,2.15871 -19.34735,2.2155 -0.93598,0.008 -0.98533,-2.52593 -0.0625,-2.68257 5.30302,-0.90011 18.16461,-4.03365 26.36726,-6.56938 5.09865,-1.57617 6.75621,-2.11863 8.44947,-3.60083 1.69326,-1.4822 3.8357,1.1888 3.30855,2.43157 -1.22396,2.8855 -10.22203,2.03071 -15.09784,5.11908 l -0.68602,0.43453 c -2.29796,1.45555 10.91222,1.92619 17.28238,10.73371 6.16882,8.52914 4.11506,20.4714 -4.05148,25.29191 -7.05584,4.16489 -19.24518,7.52514 -22.78007,5.0967 z m -97.57568,28.80249 c -0.76418,-0.52499 -0.0418,-1.57355 1.34188,-1.57404 7.04893,-1.08624 22.37751,-1.78104 25.49066,-16.33383 0.85882,-6.16748 -2.05419,-11.56809 -6.94906,-15.22445 -4.89488,-3.65636 -9.15147,-4.9181 -13.26588,-5.3379 -5.7818,-0.58993 -12.9999,2.15871 -19.34735,2.2155 -0.93598,0.008 -0.98533,-2.52593 -0.0625,-2.68257 5.30302,-0.90011 18.16461,-4.03365 26.36726,-6.56938 5.09865,-1.57617 6.75621,-2.11863 8.44947,-3.60083 1.69326,-1.4822 3.8357,1.1888 3.30855,2.43157 -1.22396,2.8855 -10.22203,2.03071 -15.09784,5.11908 l -0.68602,0.43453 c -2.29796,1.45555 10.91222,1.92619 17.28238,10.73371 6.16882,8.52914 4.11506,20.4714 -4.05148,25.29191 -7.05584,4.16489 -19.24518,7.52514 -22.78007,5.0967 z m -92.77616,-13.88965 c 0,1.88381 9.77114,-0.55755 15.80663,-2.84403 1.21283,-0.54579 1.83365,0.14255 2.01812,0.56316 2.61356,5.95919 5.27034,14.75852 6.65446,20.91087 1.13995,5.067 0.11116,8.04138 1.36378,8.25932 l 1.5757,0.27416 c 2.35235,0.40929 -1.6727,-19.2829 -6.98282,-30.10995 -0.24186,-0.49314 -0.35195,-1.21411 0.34256,-1.71468 2.14884,-1.19817 11.33108,-3.60716 16.8351,-4.52214 2.14071,-0.35586 3.62489,-1.10536 3.64528,-1.50177 0.0654,-1.27066 -0.44469,-1.29349 -1.79589,-1.71948 -1.09045,-0.34379 -11.87291,2.03161 -19.54941,5.55885 -11.31364,5.19845 -19.91351,3.30999 -19.91351,5.78369 z m 41.11116,15.68862 c 0,0 0.75568,0.98694 1.96419,0.15778 10.42742,-9.47824 27.01202,-22.33222 43.19162,-16.0817 -0.30297,-8.84462 -7.66924,-18.3592 -16.9424,-17.75265 -13.45238,0.87991 -22.59462,19.94661 -28.21341,33.67657 z m -3.99646,6.89425 c -0.14037,0.73244 0.858,1.12057 2.23014,0.17915 4.8822,-5.62153 24.28929,-23.49213 38.68169,-22.37059 8.73132,0.6804 8.73125,5.41771 9.76202,10.83808 0.20063,1.05502 2.28654,0.78907 2.36721,0.004 2.22434,-21.64387 -10.9217,-33.33232 -21.45043,-32.64365 -15.2738,0.99904 -28.39932,27.34116 -31.59063,43.99288 z m -76.90217,-14.27684 c -0.85501,-1.57979 2.13823,-2.45525 3.24961,-1.77003 1.94638,1.20005 3.97288,10.183 5.75956,18.46236 -1.01018,-6.06575 6.49727,-25.89778 21.99643,-24.18048 20.00709,2.21676 20.33129,31.4943 18.20375,31.09218 l -0.9605,-0.18153 c -1.71376,-0.32391 -0.80816,-27.3473 -18.80327,-27.16658 -22.13858,0.22234 -17.58294,35.28022 -17.62836,35.56871 -0.0454,0.28849 -2.36016,1.10117 -2.62427,-0.77703 -0.0486,-0.34531 -0.93245,-7.43636 -3.33597,-15.58324 -1.41446,-4.79442 -3.55897,-11.21835 -5.85698,-15.46436 z m -45.02753,41.70072 c 0,0 0.75568,0.98694 1.96419,0.15778 10.42742,-9.47824 27.01202,-22.33222 43.19162,-16.0817 -0.30297,-8.84462 -7.66924,-18.3592 -16.9424,-17.75265 -13.45238,0.87991 -22.59462,19.94661 -28.21341,33.67657 z m -3.99646,6.89425 c 0,0 0.858,1.12057 2.23014,0.17915 4.8822,-5.62153 24.28929,-23.49213 38.68169,-22.37059 8.73132,0.6804 8.73125,5.41771 9.76202,10.83808 0.20063,1.05502 2.28654,0.78907 2.36721,0.004 2.22434,-21.64387 -10.9217,-33.33232 -21.45043,-32.64365 -15.2738,0.99904 -28.39932,27.34116 -31.59063,43.99288 z m 6.73617,-109.84021 c -3.45343,0.36798 -70.0558,26.14132 -66.32936,50.16902 2.04817,13.20638 63.78382,14.14403 63.64927,18.40836 -0.14437,4.57604 -27.37455,1.62071 -30.88861,10.29621 -4.68993,11.57848 22.91064,37.06767 20.70836,33.66659 l -0.86746,-1.33966 c -1.80852,-2.79298 -20.12839,-25.39108 -15.1891,-31.42935 6.45624,-4.71246 34.35314,-2.08681 34.97299,-8.69773 1.16026,-12.37454 -62.29737,-11.80577 -64.09047,-22.57207 -1.8327,-11.00405 13.6134,-24.0582 32.81049,-34.69325 11.24749,-6.23103 29.81578,-14.2974 27.5979,-14.06108 z"
           inkscape:connector-curvature="0" />
      </g>
    </g>
  </g>
  <g
     inkscape:groupmode="layer"
     id="layer3"
     inkscape:label="Fantasies"
     style="display:inline" />
</svg>
